<?xml version="1.0" standalone="no"?>
<!DOCTYPE svg PUBLIC "-//W3C//DTD SVG 1.1//EN" "http://www.w3.org/Graphics/SVG/1.1/DTD/svg11.dtd" >
<svg>
<metadata>
Created by FontForge 20110222 at Tue Jul 29 00:49:55 2014
 By Orthosie Webhosting
Font software Copyright 2001 Adobe Systems Incorporated. Typeface designs Copyright The Monotype Corporation. All Rights Reserved.
</metadata>
<defs>
<font id="GillSansProCyrillicLight" horiz-adv-x="500" >
  <font-face 
    font-family="GillSansProCyrillicLight"
    font-weight="300"
    font-stretch="normal"
    units-per-em="1000"
    panose-1="2 11 3 2 2 1 4 2 2 3"
    ascent="800"
    descent="-200"
    x-height="449"
    cap-height="682"
    bbox="-215 -232 1085 937.186"
    underline-thickness="50"
    underline-position="-50"
    unicode-range="U+0020-FB04"
  />
<missing-glyph 
d="M487 0h-475v665h475v-665zM411 618h-323l162 -243zM221 333l-161 242v-484l40 61l80 120zM440 90v485l-162 -242zM88 48h323l-161 242z" />
    <glyph glyph-name="f_f" unicode="ff" horiz-adv-x="537" 
d="M405 449h73v-40h-73v-409h-48v409h-221v-409h-48v409h-77v40h77v57q0 68 22 111q17 35 56 54.5t83 19.5q45 0 79 -20v-44q-58 20 -87 20q-25 0 -52 -15.5t-38 -36.5q-15 -30 -15 -89v-57h221v57q0 72 25 115q18 32 56 51t81 19q29 0 58 -9v-47q-47 10 -66 10
q-25 0 -51.5 -13t-37.5 -34q-17 -29 -17 -92v-57z" />
    <glyph glyph-name="fi" unicode="fi" horiz-adv-x="479" 
d="M142 449h93v-38h-93v-411h-48v411h-82v38h82v56q0 62 19 104q24 55 74 70q41 12 68 12q67 0 108.5 -31.5t45.5 -94.5h-48q-6 31 -20 53q-21 32 -82 32t-89 -33t-28 -112v-56zM361 449h48v-449h-48v449z" />
    <glyph glyph-name="fl" unicode="fl" horiz-adv-x="479" 
d="M144 449h93v-37h-93v-412h-48v412h-83v37h83v56q0 75 20 113q18 34 53.5 53.5t76.5 19.5q36 0 68 -15v-47q-46 15 -74 15q-27 0 -51.5 -15t-33.5 -38q-11 -35 -11 -86v-56zM361 682h48v-682h-48v682z" />
    <glyph glyph-name="f_f_i" unicode="ffi" horiz-adv-x="750" 
d="M415 449h93v-37h-93v-412h-48v412h-222v-412h-48v412h-84v37h84v56q0 76 23 117q42 69 137 69q86 0 138 -61q48 61 135 61q23 0 46 -5t48 -17.5t41 -39t17 -63.5h-48q-7 33 -22 54q-20 32 -81 32q-65 0 -90.5 -34t-25.5 -113v-56zM145 505v-56h222v56q0 43 7 75
q-33 73 -116 73q-113 0 -113 -148zM634 449h48v-449h-48v449z" />
    <glyph glyph-name="f_f_l" unicode="ffl" horiz-adv-x="750" 
d="M414 449h93v-37h-93v-412h-49v412h-221v-412h-48v412h-84v37h84v56q0 72 16 105q39 81 144 81q48 0 76 -15q26 -12 63 -46q48 61 124 61q33 0 65 -15v-46q-42 14 -70 14t-53 -16t-34 -40q-13 -36 -13 -83v-56zM144 505v-56h221v56q0 35 6 76q-39 72 -115 72
q-74 0 -100 -57q-12 -27 -12 -91zM633 682h48v-682h-48v682z" />
    <glyph glyph-name=".notdef" 
d="M487 0h-475v665h475v-665zM411 618h-323l162 -243zM221 333l-161 242v-484l40 61l80 120zM440 90v485l-162 -242zM88 48h323l-161 242z" />
    <glyph glyph-name=".null" horiz-adv-x="0" 
 />
    <glyph glyph-name="nonmarkingreturn" horiz-adv-x="333" 
 />
    <glyph glyph-name="space" unicode=" " horiz-adv-x="250" 
 />
    <glyph glyph-name="exclam" unicode="!" horiz-adv-x="177" 
d="M57 682h64l-9 -325l-10 -165h-28zM57 96h64v-96h-64v96z" />
    <glyph glyph-name="quotedbl" unicode="&#x22;" horiz-adv-x="281" 
d="M97 435h-44l-14 130v117h72v-117zM228 435h-44l-14 130v117h72v-117z" />
    <glyph glyph-name="numbersign" unicode="#" horiz-adv-x="660" 
d="M77 438v45h142l42 204h46l-42 -204h189l44 204h46l-42 -204h81v-45h-90l-39 -194h129v-45h-141l-44 -203h-44l44 203h-192l-44 -203h-44l44 203h-85v45h92l41 194h-133zM406 244l40 194h-191l-40 -194h191z" />
    <glyph glyph-name="dollar" unicode="$" horiz-adv-x="521" 
d="M455 600v-56q-82 60 -172 69v-260q201 -55 201 -186q0 -54 -42 -106q-49 -62 -159 -70v-108h-47v108q-118 9 -201 80v55q63 -45 108 -64q45 -17 93 -23v276q-195 59 -195 180q0 43 32 92q43 63 163 74v30h47v-30q55 -5 92 -18t80 -43zM236 368v245q-59 -1 -103 -35
q-43 -33 -43 -80q0 -56 49 -87q27 -16 44 -23q43 -16 53 -20zM283 299v-259q55 1 103 34q47 33 47 89q0 51 -36.5 82t-113.5 54z" />
    <glyph glyph-name="percent" unicode="%" horiz-adv-x="698" 
d="M180 648q-49 0 -84 -35q-34 -34 -34 -83q0 -50 34 -84t84 -34q49 0 83 34q35 35 35 84q0 48 -35 83t-83 35zM596 691h49l-549 -700h-50zM518 269q-48 0 -83 -35t-35 -83q0 -50 34 -84t84 -34q49 0 83 34q35 35 35 84q0 48 -35 83t-83 35zM180 691q66 0 113 -47t47 -113
q0 -67 -47 -114t-113 -47q-65 0 -114 47q-47 47 -47 114q0 66 47 113q49 47 114 47zM518 312q67 0 114 -47t47 -113q0 -67 -47 -114t-114 -47q-66 0 -113 47t-47 114q0 66 47 113t113 47z" />
    <glyph glyph-name="ampersand" unicode="&#x26;" horiz-adv-x="615" 
d="M470 147l139 -147h-67l-103 107q-105 -116 -227 -116q-77 0 -132 47q-54 46 -54 115q0 45 28 97q37 64 141 111l-46 54q-39 53 -39 105q0 60 45 104q45 45 117 45q68 0 108 -42q41 -41 41 -99q0 -110 -143 -181l155 -161q43 61 75 154h56q-40 -119 -94 -193zM244 384
q128 53 128 140q0 40 -28.5 68.5t-74.5 28.5t-77 -29t-31 -69q0 -62 83 -139zM403 144l-173 180q-40 -17 -74 -39q-72 -49 -72 -121q0 -54 36.5 -89.5t97.5 -35.5q98 0 185 105z" />
    <glyph glyph-name="quotesingle" unicode="'" horiz-adv-x="219" 
d="M132 435h-45l-14 130v117h72v-117z" />
    <glyph glyph-name="parenleft" unicode="(" horiz-adv-x="333" 
d="M326 -227h-50q-56 59 -87 105q-109 161 -109 355q0 135 54 255q19 43 53 93q33 48 48 66q33 36 41 44h50q-83 -75 -140 -197q-56 -123 -56 -260q0 -175 86 -324q42 -72 110 -137z" />
    <glyph glyph-name="parenright" unicode=")" horiz-adv-x="333" 
d="M8 691h49l41 -45q14 -16 49 -66q34 -48 53 -92q53 -118 53 -255q0 -195 -108 -355q-33 -50 -88 -105h-49q70 70 109 137q86 149 86 324q0 137 -56 260q-55 121 -139 197z" />
    <glyph glyph-name="asterisk" unicode="*" horiz-adv-x="469" 
d="M361 648l34 -35l-137 -113q-2 0 -2 -2t2 -2l179 15v-47l-179 20q-3 0 -3 -3t3 -3l137 -114l-34 -34l-115 139q-2 -1 -6 0l18 -184h-46l16 184q-2 -2 -5 0l-113 -139l-35 34l141 114q-2 2 -4 6l-180 -20v47l180 -15q1 1 1 2l-1 2l-137 113l35 35l113 -137q3 2 5 0l-16 180
h46l-18 -180q3 1 6 0z" />
    <glyph glyph-name="plus" unicode="+" horiz-adv-x="660" 
d="M353 79h-46v239h-239v46h239v239h46v-239h239v-46h-239v-239z" />
    <glyph glyph-name="comma" unicode="," horiz-adv-x="177" 
d="M56 95h65v-58q0 -107 -65 -154v34q21 39 21 83h-21v95z" />
    <glyph glyph-name="hyphen" unicode="-" horiz-adv-x="312" 
d="M38 249h237v-47h-237v47z" />
    <glyph glyph-name="period" unicode="." horiz-adv-x="177" 
d="M56 97h65v-97h-65v97z" />
    <glyph glyph-name="slash" unicode="/" horiz-adv-x="281" 
d="M54 -9h-46l219 700h47z" />
    <glyph glyph-name="zero" unicode="0" 
d="M468 338q0 -178 -72 -267q-65 -80 -144 -80q-92 0 -156 90q-64 89 -64 248q0 167 49 249q65 113 169 113q91 0 154 -91q64 -89 64 -262zM418 344q0 35 -4.5 72.5t-16.5 79.5t-30.5 74t-48.5 53.5t-67 21.5q-55 0 -94 -47q-74 -87 -74 -256q0 -128 44 -216q45 -86 121 -86
q44 0 78 28.5t53.5 74.5t29 97t9.5 104z" />
    <glyph glyph-name="one" unicode="1" 
d="M224 682h52v-682h-52v682z" />
    <glyph glyph-name="two" unicode="2" 
d="M153 48h317v-48h-435q117 107 224 260q93 134 93 239q0 65 -47 106q-46 40 -105 40q-42 0 -76.5 -17.5t-78.5 -57.5v59q74 62 159 62q88 0 143 -58q57 -59 57 -135q0 -108 -102 -260q-31 -47 -149 -190z" />
    <glyph glyph-name="three" unicode="3" 
d="M44 25v47q75 -35 152 -35q72 0 116 40t44 106q0 25 -8 49.5t-26 48.5t-55.5 39t-88.5 15v48q85 1 127 42q43 40 43 91q0 58 -47 93t-110 35q-73 0 -141 -46v49q62 44 144 44q94 0 148 -51q55 -49 55 -121q0 -113 -123 -157q35 -12 60 -29q67 -40 71 -146q0 -52 -20 -92
t-52 -61.5t-65.5 -32t-65.5 -10.5q-89 0 -158 34z" />
    <glyph glyph-name="four" unicode="4" 
d="M357 691h19v-387h95v-41h-95v-263h-51v263h-311v17zM85 304h240v288z" />
    <glyph glyph-name="five" unicode="5" 
d="M99 682h287v-46h-241v-217q27 4 54 4q62 0 109.5 -20t71.5 -54q46 -63 46 -137q0 -92 -62 -157q-61 -64 -159 -64q-74 0 -164 45v58q97 -56 165 -56t117 45q50 45 50 125q0 99 -67 138q-54 32 -111 32q-34 0 -96 -13v317z" />
    <glyph glyph-name="six" unicode="6" 
d="M345 691l30 -36q-57 -40 -133 -117q-45 -46 -78 -106t-43 -116q74 53 151 53q73 0 132 -50t59 -136q0 -85 -55 -139q-56 -53 -139 -53q-91 0 -150 62q-58 62 -58 178q0 171 121 310q62 77 163 150zM112 257q0 -1 -1 -17t-1 -23q0 -50 29 -109q16 -31 49.5 -50t77.5 -19
q65 0 105 40q41 41 41 97q0 52 -37 98q-38 47 -110 47q-80 0 -153 -64z" />
    <glyph glyph-name="seven" unicode="7" 
d="M29 682h446l-312 -691l-44 19l282 625h-372v47z" />
    <glyph glyph-name="eight" unicode="8" 
d="M344 355q101 -62 101 -169q0 -81 -56 -139q-56 -56 -137 -56t-139 55q-57 56 -57 136q0 77 52 135q20 21 50 38q-89 60 -89 154q0 71 51 126q53 56 129 56q75 0 128 -54q54 -53 54 -127q0 -68 -44 -118q-14 -17 -43 -37zM381 511q0 55 -39 92q-38 38 -94 38
q-54 0 -92 -39q-38 -40 -38 -93q0 -56 38 -94q38 -37 95 -37t93 38q37 38 37 95zM393 189q0 60 -43 99q-41 40 -101 40q-59 0 -101 -42q-41 -43 -41 -102q0 -61 42 -101q44 -41 103 -41q62 0 101 42q40 41 40 105z" />
    <glyph glyph-name="nine" unicode="9" 
d="M144 -9l-28 37q15 11 36 28t22 18q22 16 60 54q43 41 62 68q61 84 76 169q-85 -50 -150 -50q-74 0 -132 49t-58 137q0 79 52 134q53 56 140 56q95 0 152.5 -63t57.5 -176q-4 -151 -86 -264q-46 -65 -108 -120q-42 -36 -51 -43q-24 -20 -45 -34zM381 426q5 74 -12 122
q-15 45 -52.5 71.5t-89.5 26.5q-63 0 -103 -42q-40 -41 -40 -100q0 -60 39 -100q41 -41 100 -41q87 0 158 63z" />
    <glyph glyph-name="colon" unicode=":" horiz-adv-x="177" 
d="M56 449h65v-97h-65v97zM56 97h65v-97h-65v97z" />
    <glyph glyph-name="semicolon" unicode=";" horiz-adv-x="177" 
d="M56 449h65v-96h-65v96zM56 95h65v-58q0 -107 -65 -154v34q21 39 21 83h-21v95z" />
    <glyph glyph-name="less" unicode="&#x3c;" horiz-adv-x="660" 
d="M592 100l-524 220v41l524 222v-49l-464 -193l464 -192v-49z" />
    <glyph glyph-name="equal" unicode="=" horiz-adv-x="660" 
d="M592 436h-524v46h524v-46zM592 201h-524v45h524v-45z" />
    <glyph glyph-name="greater" unicode="&#x3e;" horiz-adv-x="660" 
d="M68 583l524 -221v-40l-524 -222v49l464 193l-464 191v50z" />
    <glyph glyph-name="question" unicode="?" horiz-adv-x="281" 
d="M131 179l-18 -14q-39 47 -39 92q0 33 12 59t53 92q51 82 51 147q0 38 -21.5 65.5t-53.5 27.5q-45 0 -80 -53h-10l23 78q36 18 68 18q56 0 90.5 -39t34.5 -103q0 -75 -48 -145q-57 -84 -68 -106q-13 -25 -13 -56q0 -24 19 -63zM85 98h65v-98h-65v98z" />
    <glyph glyph-name="at" unicode="@" horiz-adv-x="802" 
d="M542 424l17 81h61l-83 -392q-6 -35 -6 -39q0 -8 6.5 -13.5t16.5 -5.5q55 0 120 73q72 83 72 208q0 72 -31 144q-19 47 -53 84q-35 38 -98.5 63t-142.5 25q-174 0 -278 -114q-103 -112 -103 -278q0 -165 103 -272q103 -108 282 -108q148 0 230 62q37 26 58 47q16 15 40 45
h50q-49 -75 -111 -117q-112 -76 -268 -76q-192 0 -309 117q-116 116 -116 303q0 170 103 295q52 63 135.5 99t186.5 36q80 0 146 -24t107 -64q39 -36 65 -87q45 -84 45 -179q0 -73 -25 -138t-66 -106q-83 -83 -161 -83q-59 0 -59 51q0 23 4 40q-76 -91 -167 -91
q-74 0 -122 59q-47 61 -47 148q-4 110 70.5 206t178.5 94q97 0 149 -93zM519 336q0 61 -35.5 100t-89.5 39q-59 0 -104 -46q-84 -85 -84 -216q0 -65 34 -111t91 -46q41 0 78 29t64 81q46 82 46 170z" />
    <glyph glyph-name="A" unicode="A" horiz-adv-x="667" 
d="M317 687h31l315 -687h-55l-108 236h-333l-108 -236h-55zM186 281h293l-146 320z" />
    <glyph glyph-name="B" unicode="B" horiz-adv-x="531" 
d="M80 0v682h106q115 0 163 -22q46 -19 73 -61t27 -93q0 -71 -41 -109q-32 -29 -57 -43q158 -35 158 -172q0 -93 -67 -136q-44 -29 -83 -38q-40 -8 -101 -8h-178zM184 637h-51v-271h64q25 0 34 1q59 3 85 16q80 35 76 119q0 34 -14 63t-39 44q-46 28 -155 28zM227 322h-94
v-278h118q200 0 200 139q0 59 -42 96q-26 24 -65.5 33.5t-116.5 9.5z" />
    <glyph glyph-name="C" unicode="C" horiz-adv-x="678" 
d="M636 634v-58q-38 20 -63 30q-27 12 -73 23q-48 12 -96 12q-136 0 -221 -85q-85 -84 -85 -215q0 -132 85 -216q86 -83 218 -83q104 0 242 68v-55q-119 -64 -242 -64q-96 0 -177 40t-134 122q-52 82 -52 187q0 82 32 151t87 112q110 88 237 88q118 0 242 -57z" />
    <glyph glyph-name="D" unicode="D" horiz-adv-x="729" 
d="M80 0v682h207q53 0 93 -2q75 -2 151 -44q77 -44 118.5 -121t41.5 -171q0 -89 -40 -172q-41 -83 -120 -125q-64 -33 -108 -40q-43 -7 -136 -7h-207zM293 638h-160v-595h160q65 0 111 8q45 8 97 39q60 36 95.5 105t35.5 148q0 74 -32.5 139t-98.5 108q-50 32 -91 39
q-42 9 -117 9z" />
    <glyph glyph-name="E" unicode="E" horiz-adv-x="502" 
d="M80 682h372v-44h-319v-272h311v-44h-311v-279h327v-43h-380v682z" />
    <glyph glyph-name="F" unicode="F" horiz-adv-x="450" 
d="M80 682h350v-44h-298v-259h269v-44h-269v-335h-52v682z" />
    <glyph glyph-name="G" unicode="G" horiz-adv-x="701" 
d="M638 633v-60q-109 68 -244 68q-120 0 -208 -82q-89 -83 -89 -219q0 -134 89 -218q89 -83 206 -83q98 0 206 43v184h-144v45h197v-262q-126 -58 -257 -58q-138 0 -248 99q-108 99 -108 253q0 148 103 248t263 100q44 0 96 -11q45 -10 73 -20q21 -7 65 -27z" />
    <glyph glyph-name="H" unicode="H" horiz-adv-x="721" 
d="M588 682h53v-682h-53v323h-456v-323h-52v682h52v-314h456v314z" />
    <glyph glyph-name="I" unicode="I" horiz-adv-x="214" 
d="M80 682h54v-682h-54v682z" />
    <glyph glyph-name="J" unicode="J" horiz-adv-x="208" 
d="M82 682h54v-671q0 -61 -13 -109q-17 -64 -79 -90q-19 -8 -83 -11l-6 52q12 -4 25 -4q55 0 80 40q10 15 15 42q7 35 7 86v665z" />
    <glyph glyph-name="K" unicode="K" horiz-adv-x="553" 
d="M460 682h66l-325 -340l357 -342h-68l-358 342v-342h-52v682h52v-340z" />
    <glyph glyph-name="L" unicode="L" horiz-adv-x="470" 
d="M80 682h52v-639h338v-43h-390v682z" />
    <glyph glyph-name="M" unicode="M" horiz-adv-x="784" 
d="M651 682h53v-682h-53v605l-259 -319l-260 319v-605h-52v682h52l260 -317z" />
    <glyph glyph-name="N" unicode="N" horiz-adv-x="775" 
d="M642 682h53v-682h-44l-518 600v-600h-53v682h49l513 -596v596z" />
    <glyph glyph-name="O" unicode="O" horiz-adv-x="799" 
d="M761 344q0 -153 -106 -253q-104 -100 -256 -100q-153 0 -257 102t-104 249q0 142 101 246q100 103 261 103q159 0 259 -103q102 -102 102 -244zM702 344q0 119 -86 208q-85 88 -215 88t-217 -87q-86 -88 -86 -213q0 -123 85 -211t215 -88q123 0 213 84q91 84 91 219z" />
    <glyph glyph-name="P" unicode="P" horiz-adv-x="504" 
d="M80 0v682h138q75 0 115 -5q36 -4 71 -24q85 -46 85 -150q0 -51 -24.5 -94t-63.5 -62q-41 -19 -75 -24q-31 -4 -101 -4h-93v-319h-52zM220 639h-88v-276h96q106 0 153 30q23 15 36 44.5t13 63.5q0 71 -50 107q-44 31 -160 31z" />
    <glyph glyph-name="Q" unicode="Q" horiz-adv-x="800" 
d="M721 -64l12 -10l-60 -69q-100 14 -175 49l-12 6q-74 39 -123 81q-142 12 -234 113q-91 100 -91 234q0 143 102 247q104 104 260 104q160 0 261 -102q101 -103 101 -247q0 -94 -46 -174.5t-124 -125.5q-60 -35 -152 -49q121 -82 215 -82q34 0 66 25zM703 341
q0 128 -87 215t-215 87q-127 0 -215 -88q-89 -89 -89 -214q0 -120 86 -211q86 -89 215 -89q122 0 213 84q92 86 92 216z" />
    <glyph glyph-name="R" unicode="R" horiz-adv-x="587" 
d="M80 0v682h135q109 0 163 -20q45 -19 74 -61t29 -95q0 -118 -130 -166q30 -19 61 -63q28 -39 153 -230l32 -47h-63l-131 206q-48 75 -84 100q-19 14 -41.5 17.5t-71.5 3.5h-73v-327h-53zM219 638h-86v-266h73q109 0 153 22q28 13 45 44.5t17 67.5q0 35 -17.5 65.5
t-45.5 44.5q-43 22 -139 22z" />
    <glyph glyph-name="S" unicode="S" horiz-adv-x="460" 
d="M399 648v-58q-53 30 -85 42t-69 12q-68 0 -106 -41t-38 -90q0 -62 49 -94q25 -15 46 -25l57 -21q71 -25 116 -63q58 -45 58 -131q0 -85 -61 -137q-60 -51 -137 -51q-87 0 -175 60v62q55 -39 93 -55.5t80 -16.5q69 0 106 42q39 42 39 94q0 64 -51 101q-36 26 -89 44
q-93 32 -123 59q-62 53 -62 130q0 71 54 125q55 55 139 55q82 0 159 -43z" />
    <glyph glyph-name="T" unicode="T" horiz-adv-x="573" 
d="M4 682h565v-44h-255v-638h-54v638h-256v44z" />
    <glyph glyph-name="U" unicode="U" horiz-adv-x="698" 
d="M582 682h52v-344q0 -82 -10 -129q-9 -47 -38 -95q-35 -56 -95.5 -89.5t-138.5 -33.5q-75 0 -140.5 31.5t-97.5 89.5q-33 57 -42 103q-8 50 -8 123v344h52v-354q0 -118 37 -180q62 -108 195 -108q64 0 118 28.5t78 77.5q38 74 38 182v354z" />
    <glyph glyph-name="V" unicode="V" horiz-adv-x="594" 
d="M538 682h53l-285 -687h-17l-287 687h54l242 -577z" />
    <glyph glyph-name="W" unicode="W" horiz-adv-x="1031" 
d="M979 682h53l-272 -687h-16l-229 574l-227 -574h-16l-273 687h54l226 -566l228 566h17l227 -566z" />
    <glyph glyph-name="X" unicode="X" horiz-adv-x="687" 
d="M606 682h65l-293 -333l310 -349h-68l-276 312l-277 -312h-67l311 349l-295 333h66l262 -294z" />
    <glyph glyph-name="Y" unicode="Y" horiz-adv-x="584" 
d="M519 682h65l-267 -316v-366h-53v366l-264 316h64l227 -270z" />
    <glyph glyph-name="Z" unicode="Z" horiz-adv-x="635" 
d="M32 682h575v-18l-511 -621h515v-43h-602v15l512 624h-489v43z" />
    <glyph glyph-name="bracketleft" unicode="[" horiz-adv-x="302" 
d="M69 682h226v-48h-177v-808h177v-47h-226v903z" />
    <glyph glyph-name="backslash" unicode="\" horiz-adv-x="281" 
d="M274 -9h-47l-219 700h46z" />
    <glyph glyph-name="bracketright" unicode="]" horiz-adv-x="302" 
d="M233 -221h-226v47h177v808h-177v48h226v-903z" />
    <glyph glyph-name="asciicircum" unicode="^" horiz-adv-x="656" 
d="M328 628l-188 -225l-30 26l218 262l219 -262l-32 -26z" />
    <glyph glyph-name="underscore" unicode="_" 
d="M-6 -125v50h512v-50h-512z" />
    <glyph glyph-name="grave" unicode="`" horiz-adv-x="333" 
d="M150 521l-152 156h81l105 -156h-34z" />
    <glyph glyph-name="a" unicode="a" horiz-adv-x="416" 
d="M413 78v-40q-67 -47 -90 -47q-18 0 -24 11.5t-9 44.5q-73 -56 -141 -56q-49 0 -86 32q-36 33 -36 81q0 40 21 72t53 49q25 14 70 26q61 16 119 18v57q0 89 -99 89q-38 0 -68 -12t-70 -42v49q81 48 144 48q77 0 113 -40q18 -20 23 -40.5t5 -64.5v-230q0 -38 1 -40
q3 -5 9 -5q19 0 65 40zM290 89v141q-84 -3 -123 -19q-41 -16 -66 -44t-25 -63q0 -34 27 -54t62 -20q60 0 125 59z" />
    <glyph glyph-name="b" unicode="b" horiz-adv-x="508" 
d="M62 25v657h48v-297q20 19 41 34q56 39 121 39q80 0 140 -57t60 -162q0 -112 -68 -180t-183 -68q-75 0 -159 34zM110 331v-272q57 -22 111 -22q88 0 144 56q56 58 56 141q0 72 -42 127t-113 55q-80 0 -156 -85z" />
    <glyph glyph-name="c" unicode="c" horiz-adv-x="409" 
d="M375 436v-53q-69 30 -118 30q-81 0 -125 -57q-43 -55 -43 -133t43 -133q44 -54 130 -54q58 0 121 28v-50q-71 -23 -128 -23q-76 0 -141 48q-35 25 -55.5 72.5t-20.5 106.5q0 115 65 177q65 63 152 63q54 0 120 -22z" />
    <glyph glyph-name="d" unicode="d" horiz-adv-x="505" 
d="M396 682h48v-682h-48v35q-65 -44 -133 -44q-91 0 -159 65t-68 169q0 103 65 168q67 65 162 65q63 0 133 -36v260zM396 79v290q-70 44 -131 44q-80 0 -128 -54q-48 -53 -48 -131q0 -85 55 -139q56 -53 131 -53q65 0 121 43z" />
    <glyph glyph-name="e" unicode="e" horiz-adv-x="477" 
d="M441 242h-352q-3 -100 50 -153q55 -53 126 -53q87 0 168 69v-54q-77 -60 -173 -60q-104 0 -164 71q-60 70 -60 168q0 93 56 161q57 67 150 67q65 0 111.5 -32.5t68.5 -84.5q18 -40 19 -99zM94 280h290q-9 44 -27 72q-37 63 -115 63q-53 0 -94.5 -36t-53.5 -99z" />
    <glyph glyph-name="f" unicode="f" horiz-adv-x="292" 
d="M332 672v-45q-48 16 -80 16q-60 0 -85 -35.5t-25 -102.5v-56h87v-40h-87v-409h-48v409h-83v40h83v56q0 97 46 143q19 17 43 28q33 15 67 15q37 0 82 -19z" />
    <glyph glyph-name="g" unicode="g" horiz-adv-x="417" 
d="M249 449h158v-40h-102q20 -20 26 -27q36 -42 36 -95q0 -29 -16 -67q-22 -59 -112 -83q-96 -25 -112 -38t-16 -31q0 -44 108 -47q56 -2 81 -6.5t50 -18.5q25 -13 40.5 -39t15.5 -56q0 -61 -53 -96t-148 -35q-106 0 -155 39q-18 15 -29 35q-13 23 -13 46q0 38 31 68.5
t100 41.5q-73 19 -73 65q0 21 13 34q13 14 27 20.5t50 19.5q-34 11 -70 38q-47 37 -47 110q0 46 22 84.5t58 54.5q49 23 130 23zM81 290q0 -50 35 -85t84 -35q50 0 85 35t35 85t-36 84q-35 35 -84 35t-84 -35t-35 -84zM361 -103q0 79 -144 79q-76 0 -118 -20
q-46 -21 -46 -64q0 -82 155 -82q74 0 113.5 24.5t39.5 62.5z" />
    <glyph glyph-name="h" unicode="h" horiz-adv-x="490" 
d="M63 682h47v-315q55 91 149 91q46 0 85 -19.5t57 -56.5q17 -33 22 -64q4 -25 4 -86v-232h-49v236q0 75 -19 112q-31 63 -107 63q-58 0 -98 -37q-21 -18 -44 -64v-310h-47v682z" />
    <glyph glyph-name="i" unicode="i" horiz-adv-x="187" 
d="M70 682h47v-82h-47v82zM70 449h47v-449h-47v449z" />
    <glyph glyph-name="j" unicode="j" horiz-adv-x="183" 
d="M68 682h48v-82h-48v82zM68 449h48v-467q0 -85 -21 -139q-24 -67 -111 -73l-14 40q52 6 77 38q11 14 15 40q5 28 5 44q1 11 1 53v464z" />
    <glyph glyph-name="k" unicode="k" horiz-adv-x="440" 
d="M59 682h48v-682h-48v682zM362 449h63l-244 -213l285 -236h-69l-283 236z" />
    <glyph glyph-name="l" unicode="l" horiz-adv-x="188" 
d="M70 682h48v-682h-48v682z" />
    <glyph glyph-name="m" unicode="m" horiz-adv-x="771" 
d="M60 449h47v-79q25 34 47 54q35 34 99 34q105 0 145 -108q64 108 157 108q41 0 75.5 -19t51.5 -50q19 -34 24 -64q5 -32 5 -84v-241h-48v237q0 79 -21 118q-15 25 -40.5 41t-54.5 16q-37 0 -75.5 -26.5t-62.5 -79.5v-306h-48v230q0 96 -26 134q-35 48 -93 48
q-54 0 -90 -38q-22 -23 -45 -59v-315h-47v449z" />
    <glyph glyph-name="n" unicode="n" horiz-adv-x="490" 
d="M62 449h48v-78q18 25 47 53q37 34 100 34q41 0 77.5 -17t56.5 -46q36 -52 36 -152v-243h-48v239q0 82 -28 122q-36 51 -100 51q-60 0 -109 -49q-14 -15 -32 -48v-315h-48v449z" />
    <glyph glyph-name="o" unicode="o" horiz-adv-x="529" 
d="M265 458q102 0 165 -68t63 -166q0 -104 -68 -169q-67 -64 -160 -64q-94 0 -161 64q-68 65 -68 169q0 98 62 166q63 68 167 68zM265 413q-67 0 -123 -50q-54 -49 -54 -138q0 -85 51 -137q53 -53 126 -53q75 0 126 53q51 54 51 137q0 87 -54 137q-54 51 -123 51z" />
    <glyph glyph-name="p" unicode="p" horiz-adv-x="504" 
d="M63 449h48v-25q72 34 137 34q94 0 157 -66q63 -64 63 -166q0 -106 -69 -171q-67 -64 -154 -64q-65 0 -134 34v-255h-48v679zM111 378v-306q65 -36 125 -36q84 0 131 53q48 54 48 133q0 88 -55 139q-54 51 -131 51q-54 0 -118 -34z" />
    <glyph glyph-name="q" unicode="q" horiz-adv-x="509" 
d="M398 449h48v-679h-48v256q-79 -35 -149 -35q-85 0 -150 59q-63 58 -63 166q0 106 65 174t156 68q70 0 141 -40v31zM398 74v297q-65 42 -131 42q-84 0 -132 -61q-47 -62 -47 -139q0 -27 7.5 -55t25.5 -57t54 -47.5t86 -18.5q63 0 137 39z" />
    <glyph glyph-name="r" unicode="r" horiz-adv-x="373" 
d="M373 405l-28 -45q-55 49 -89 49q-69 0 -145 -127v-282h-48v449h48v-118q82 127 160 127q40 0 102 -53z" />
    <glyph glyph-name="s" unicode="s" horiz-adv-x="348" 
d="M303 420v-52q-65 46 -123 46q-42 0 -69.5 -22.5t-27.5 -53.5q0 -25 19 -44q29 -27 88 -46q45 -17 77 -38q49 -32 49 -95q0 -50 -40 -87q-38 -37 -106 -37q-67 0 -135 41v47q82 -43 140 -43q43 0 68 21.5t25 53.5q0 40 -36 61q-15 11 -36 20q-16 8 -52 21
q-106 40 -106 121q0 47 38 85q39 39 107 39q53 0 120 -38z" />
    <glyph glyph-name="t" unicode="t" horiz-adv-x="305" 
d="M129 598h15v-149h126v-40h-126v-275q0 -51 9 -66q17 -29 59 -29q34 0 81 21v-46q-51 -23 -93 -23q-30 0 -56.5 15t-37.5 39q-10 21 -10 89v275h-121v40h121v107z" />
    <glyph glyph-name="u" unicode="u" horiz-adv-x="490" 
d="M375 449h48v-449h-48v74q-66 -83 -153 -83q-42 0 -80 19.5t-56 51.5q-28 46 -28 134v253h48v-253q0 -75 18 -108q31 -55 103 -55q65 0 114 47q15 15 34 55v314z" />
    <glyph glyph-name="v" unicode="v" horiz-adv-x="427" 
d="M380 449h47l-193 -458h-30l-204 458h49l169 -378z" />
    <glyph glyph-name="w" unicode="w" horiz-adv-x="708" 
d="M660 449h48l-194 -458h-23l-138 365l-139 -365h-22l-192 458h47l153 -366l141 366h26l137 -366z" />
    <glyph glyph-name="x" unicode="x" horiz-adv-x="479" 
d="M411 449h56l-197 -219l212 -230h-61l-181 198l-180 -198h-54l205 230l-205 219h62l172 -186z" />
    <glyph glyph-name="y" unicode="y" horiz-adv-x="411" 
d="M368 449h49l-336 -679h-49l157 317l-189 362h49l164 -314z" />
    <glyph glyph-name="z" unicode="z" horiz-adv-x="399" 
d="M29 449h356v-18l-295 -386h295v-45h-375v15l297 388h-278v46z" />
    <glyph glyph-name="braceleft" unicode="{" horiz-adv-x="333" 
d="M49 194v64q64 1 82 61q12 40 12 95q0 124 4 157q5 39 24 64q17 23 40 34q22 10 35 12t40 1v-55q-43 -2 -59 -12q-16 -12 -22.5 -44t-6.5 -108q0 -107 -10 -137q-11 -33 -28 -54q-22 -28 -58 -46l24 -13q9 -4 22.5 -17t21.5 -28q18 -32 23 -67t5 -99v-69q0 -21 3 -46
q5 -28 8 -33q21 -32 77 -30v-54q-79 -1 -111 38t-32 128q0 109 -2 153q-1 32 -14 57q-10 22 -26 33q-18 14 -52 15z" />
    <glyph glyph-name="bar" unicode="|" horiz-adv-x="219" 
d="M134 -230h-50v921h50v-921z" />
    <glyph glyph-name="braceright" unicode="}" horiz-adv-x="333" 
d="M285 258v-64q-95 -3 -95 -156q0 -124 -4 -157q-5 -39 -24 -64q-17 -23 -40 -34q-30 -15 -74 -13v55q35 1 49 5.5t23 22.5q15 28 15 136q0 99 11 137q13 46 42 72q18 16 44 28q-50 21 -69 58q-19 34 -24 66q-4 28 -4 100q0 122 -12 148q-11 26 -75 29v55q79 1 111 -38
t32 -127q0 -149 6 -180q6 -36 31 -61q9 -8 22 -12q15 -4 35 -6z" />
    <glyph glyph-name="asciitilde" unicode="~" horiz-adv-x="660" 
d="M68 291v54q80 59 140 59q44 0 132 -42q78 -36 113 -36q23 0 47 10t43 22q15 9 49 33v-54q-80 -59 -137 -59q-42 0 -123 37q-90 42 -124 42q-32 0 -60 -14t-80 -52z" />
    <glyph glyph-name="uni00A0" unicode="&#xa0;" horiz-adv-x="250" 
 />
    <glyph glyph-name="exclamdown" unicode="&#xa1;" horiz-adv-x="177" 
d="M112 105l9 -326h-64l17 490h28zM121 461v-95h-64v95h64z" />
    <glyph glyph-name="cent" unicode="&#xa2;" horiz-adv-x="417" 
d="M367 640h43l-67 -190q8 -1 34 -12v-53q-27 14 -50 20l-125 -355q39 -11 62 -11q54 0 123 28v-47q-63 -29 -126 -29q-36 0 -75 11l-68 -189h-44l74 207q-106 66 -106 197q0 125 73 188q65 56 139 56q24 0 48 -3zM164 69l124 346q-36 2 -59 -3q-66 -12 -101 -64t-35 -124
q0 -96 71 -155z" />
    <glyph glyph-name="sterling" unicode="&#xa3;" horiz-adv-x="552" 
d="M507 682l24 -47q-29 10 -56 10q-90 -6 -145 -83q-35 -50 -56 -106q-13 -32 -19 -53l-15 -49h106v-47h-120l-67 -254q67 7 105 7q47 0 130 -16q16 -3 45 -3q52 0 99 25v-53q-45 -22 -96 -22q-19 0 -124 17q-23 4 -67 4q-67 0 -157 -17l84 312h-84v47h97q20 66 28 88
q11 33 31 76q21 47 43 76q73 97 166 97q23 0 48 -9z" />
    <glyph glyph-name="currency" unicode="&#xa4;" horiz-adv-x="552" 
d="M411 508l64 64l31 -33l-63 -63q48 -58 48 -135q0 -46 -23 -97q-4 -11 -25 -39l63 -62l-31 -32l-64 62q-62 -47 -137 -47q-73 0 -134 47l-62 -62l-32 32l61 62q-47 67 -47 137q0 69 47 134l-61 63l32 33l62 -64q71 49 137 49q67 0 134 -49zM106 341q0 -70 50 -120
q49 -49 120 -49q70 0 119 49q50 50 50 120t-50 120q-49 49 -119 49q-71 0 -120 -49q-50 -50 -50 -120z" />
    <glyph glyph-name="yen" unicode="&#xa5;" horiz-adv-x="552" 
d="M212 360l-212 356h72l207 -356l204 356h69l-210 -356h179v-45h-206l-6 -11v-66h212v-45h-212v-193h-64v193h-214v45h214v66l-6 11h-208v45h181z" />
    <glyph glyph-name="brokenbar" unicode="&#xa6;" horiz-adv-x="219" 
d="M134 324h-50v367h50v-367zM134 -230h-50v367h50v-367z" />
    <glyph glyph-name="section" unicode="&#xa7;" horiz-adv-x="396" 
d="M337 581h-51q-14 66 -86 66q-40 0 -66 -26t-26 -58q0 -35 24 -73q23 -37 101 -102q78 -66 107 -113q30 -47 30 -92q0 -35 -16 -68q-10 -21 -20.5 -37.5t-18.5 -25.5t-29 -31q49 -56 49 -119q0 -68 -45 -100q-44 -32 -97 -32q-63 0 -100 37q-26 26 -33 71h50
q13 -64 84 -64q43 0 68 26t25 62q0 34 -25.5 70t-88.5 91l-60 54q-11 10 -44 47q-43 54 -43 115q0 75 84 159q-50 65 -50 121q0 60 40.5 96t101.5 36q78 0 108 -46q20 -31 27 -64zM141 407q-66 -63 -66 -127q0 -37 19 -67t66 -73l47 -43l49 -44q66 65 66 126q0 48 -35 89
q-1 1 -13.5 14t-30.5 30.5t-38 37.5q-52 45 -64 57z" />
    <glyph glyph-name="dieresis" unicode="&#xa8;" horiz-adv-x="333" 
d="M46 623q13 13 31 13t30 -13q13 -12 13 -30t-13 -31q-12 -13 -30 -13t-31 13q-12 13 -12 31t12 30zM256 636q18 0 31 -12.5t13 -30.5t-13 -31t-31 -13q-17 0 -30 13t-13 31t13 30.5t30 12.5z" />
    <glyph glyph-name="copyright" unicode="&#xa9;" horiz-adv-x="802" 
d="M563 414l-47 -13q-36 81 -110 81q-13 0 -28 -3t-35.5 -13.5t-36 -27t-26.5 -47t-11 -69.5q0 -79 37.5 -126t94.5 -47q58 0 87 37q20 26 35 63l44 -16q-22 -62 -56 -90q-46 -38 -108 -38q-86 0 -137 65q-50 65 -50 149q0 80 49 141q50 62 141 62q102 0 157 -108zM774 318
q0 -154 -110 -264q-109 -109 -263 -109q-155 0 -264 109t-109 264q0 156 109 264q109 109 264 109q154 0 263 -109q110 -110 110 -264zM74 318q0 -134 95 -231q96 -96 232 -96t232 96t96 231q0 138 -97 232q-96 96 -231 96t-231 -96q-96 -95 -96 -232z" />
    <glyph glyph-name="ordfeminine" unicode="&#xaa;" horiz-adv-x="281" 
d="M280 474v-36q-50 -29 -65 -29q-23 0 -26 29q-46 -29 -84 -29q-35 0 -59.5 20.5t-24.5 50.5t20.5 52t53.5 31q53 14 94 16v31q0 50 -57 50q-39 0 -95 -38v39q55 30 99 30q54 0 82 -30q13 -16 13 -58v-136q0 -19 8 -19q6 0 41 26zM189 471v79q-64 -2 -94.5 -22t-30.5 -49
q0 -18 14.5 -29t36.5 -11q34 0 74 32z" />
    <glyph glyph-name="guillemotleft" unicode="&#xab;" 
d="M80 231l188 -224h-60l-189 224l189 224h60zM292 231l189 -224h-59l-189 224l189 224h59z" />
    <glyph glyph-name="logicalnot" unicode="&#xac;" horiz-adv-x="660" 
d="M546 436h-478v46h524v-281h-46v235z" />
    <glyph glyph-name="uni00AD" unicode="&#xad;" horiz-adv-x="312" 
d="M38 249h237v-47h-237v47z" />
    <glyph glyph-name="registered" unicode="&#xae;" horiz-adv-x="802" 
d="M774 318q0 -154 -110 -264q-109 -109 -263 -109q-155 0 -264 109t-109 264q0 156 109 264q109 109 264 109q154 0 263 -109q110 -110 110 -264zM74 318q0 -134 95 -231q96 -96 232 -96t232 96t96 231q0 138 -97 232q-96 96 -231 96t-231 -96q-96 -95 -96 -232zM250 118
v393h163q91 0 116 -49q17 -32 17 -56q0 -28 -13.5 -52.5t-35.5 -37.5q-21 -14 -67 -21q27 -11 36.5 -16.5t25.5 -26t28.5 -46.5t40.5 -88h-59q-51 112 -80 141t-100 29h-23v-170h-49zM372 471h-73v-142h65q61 -1 91 13.5t34 59.5q0 42 -26.5 55.5t-90.5 13.5z" />
    <glyph glyph-name="overscore" unicode="&#xaf;" horiz-adv-x="333" 
d="M33 623h267v-51h-267v51z" />
    <glyph glyph-name="degree" unicode="&#xb0;" horiz-adv-x="396" 
d="M198 411q-59 0 -100 41q-40 40 -40 99q0 58 41 99t99 41t99 -41t41 -99t-41 -99t-99 -41zM198 452q41 0 70.5 29t29.5 70q0 42 -29.5 71t-70.5 29q-42 0 -71 -29.5t-29 -70.5t29 -70t71 -29z" />
    <glyph glyph-name="plusminus" unicode="&#xb1;" horiz-adv-x="660" 
d="M353 79h-46v239h-239v46h239v239h46v-239h239v-46h-239v-239zM592 -11h-524v45h524v-45z" />
    <glyph glyph-name="two.superior" unicode="&#xb2;" horiz-adv-x="323" 
d="M117 304h184v-31h-273q52 42 110 105q82 87 82 153q0 31 -25.5 51t-59.5 20q-25 0 -43 -9t-54 -36v41q49 34 100 34q53 0 88.5 -30.5t35.5 -71.5q0 -34 -24 -78q-23 -42 -49 -71q-7 -7 -72 -77z" />
    <glyph glyph-name="three.superior" unicode="&#xb3;" horiz-adv-x="313" 
d="M29 287v32q50 -21 95 -21q40 0 64.5 19.5t24.5 52.5q0 38 -28.5 56.5t-76.5 17.5v31q51 0 75.5 19t24.5 45q0 29 -25.5 46t-60.5 17q-42 0 -89 -29v34q34 25 91 25q56 0 90.5 -26t34.5 -65q0 -56 -68 -80q73 -24 73 -90q0 -50 -40 -77q-41 -26 -86 -26q-55 0 -99 19z" />
    <glyph glyph-name="acute" unicode="&#xb4;" horiz-adv-x="333" 
d="M254 677h81l-152 -156h-33z" />
    <glyph glyph-name="mu" unicode="&#xb5;" horiz-adv-x="513" 
d="M379 200v249h48v-378q0 -29 17 -29q19 0 57 20v-41q-14 -9 -46 -20q-27 -10 -42 -10q-34 0 -34 46v30q-46 -76 -123 -76q-80 0 -145 86v-307h-49v679h49v-311q55 -102 140 -102q128 0 128 164z" />
    <glyph glyph-name="paragraph" unicode="&#xb6;" horiz-adv-x="646" 
d="M281 682h338v-67h-96v-847h-63v847h-130v-847h-63v503q-53 0 -94 15.5t-64 38t-38 52t-19.5 53.5t-4.5 47q0 92 62.5 148.5t171.5 56.5z" />
    <glyph glyph-name="middot" unicode="&#xb7;" horiz-adv-x="281" 
d="M141 399q22 0 37.5 -15.5t15.5 -38.5q0 -22 -16 -37.5t-37 -15.5q-22 0 -38 15.5t-16 37.5t15.5 38t38.5 16z" />
    <glyph glyph-name="cedilla" unicode="&#xb8;" horiz-adv-x="333" 
d="M169 8h29l-12 -43q20 -6 38 -16q24 -13 24 -47t-26 -55.5t-73 -21.5q-10 0 -43 5l5 32q26 -2 31 -2q67 0 67 39q0 34 -62 39z" />
    <glyph glyph-name="one.superior" unicode="&#xb9;" horiz-adv-x="312" 
d="M135 628h42v-355h-42v355z" />
    <glyph glyph-name="ordmasculine" unicode="&#xba;" horiz-adv-x="354" 
d="M329 554q0 -71 -46 -108t-108 -37q-64 0 -107 40t-43 102q0 61 43 100q43 40 109 40q71 0 111 -43q41 -43 41 -94zM285 551q0 47 -31.5 77t-77.5 30q-44 0 -75 -29t-31 -78q0 -50 30 -79.5t76 -29.5q48 0 78.5 30.5t30.5 78.5z" />
    <glyph glyph-name="guillemotright" unicode="&#xbb;" 
d="M420 231l-188 224h60l189 -224l-189 -224h-60zM208 231l-189 224h59l189 -224l-189 -224h-59z" />
    <glyph glyph-name="onequarter" unicode="&#xbc;" horiz-adv-x="833" 
d="M729 360h20v-198h56v-28h-56v-134h-42v134h-183v13zM581 162h126v131zM143 687h42v-355h-42v355zM660 691h39l-526 -718h-39z" />
    <glyph glyph-name="onehalf" unicode="&#xbd;" horiz-adv-x="833" 
d="M141 687h42v-355h-42v355zM640 691h39l-526 -718h-39zM613 31h184v-31h-274q23 18 70 61q38 36 80 95q42 58 42 102q0 31 -25 51.5t-59 20.5q-25 0 -44.5 -10t-52.5 -36v41q47 35 100 35q55 0 89 -31q35 -32 35 -71q0 -36 -25 -79q-22 -41 -48 -71q-29 -33 -72 -77z" />
    <glyph glyph-name="threequarters" unicode="&#xbe;" horiz-adv-x="833" 
d="M37 346v32q52 -21 95 -21q40 0 64.5 19.5t24.5 52.5q0 38 -28.5 56.5t-76.5 17.5v31q30 0 51.5 7t31 18t13.5 20.5t4 18.5q0 29 -25.5 46t-60.5 17q-42 0 -89 -29v34q34 25 91 25q56 0 90.5 -26t34.5 -65q0 -56 -67 -80q72 -24 72 -90q0 -52 -40 -77q-40 -26 -86 -26
q-55 0 -99 19zM660 691h39l-526 -718h-39zM729 360h20v-198h56v-28h-56v-134h-42v134h-183v13zM581 162h126v131z" />
    <glyph glyph-name="questiondown" unicode="&#xbf;" horiz-adv-x="281" 
d="M132 285l18 14q39 -43 39 -92q0 -24 -7 -44q-9 -25 -17 -39q-25 -43 -41 -68q-52 -82 -52 -146q0 -38 22 -65.5t54 -27.5q48 0 80 53h10l-24 -79q-34 -21 -68 -21q-55 0 -90 39t-35 103q0 74 49 147q53 79 67 106q14 26 14 56q0 25 -19 64zM178 364h-65v97h65v-97z" />
    <glyph glyph-name="Agrave" unicode="&#xc0;" horiz-adv-x="667" 
d="M317 687h31l315 -687h-55l-108 236h-333l-108 -236h-55zM186 281h293l-146 320zM170 856h122l122 -128h-49z" />
    <glyph glyph-name="Aacute" unicode="&#xc1;" horiz-adv-x="667" 
d="M317 687h31l315 -687h-55l-108 236h-333l-108 -236h-55zM186 281h293l-146 320zM253 728l122 128h122l-195 -128h-49z" />
    <glyph glyph-name="Acircumflex" unicode="&#xc2;" horiz-adv-x="667" 
d="M317 687h31l315 -687h-55l-108 236h-333l-108 -236h-55zM186 281h293l-146 320zM371 865l127 -137h-51l-114 88l-111 -88h-53l124 137h78z" />
    <glyph glyph-name="Atilde" unicode="&#xc3;" horiz-adv-x="667" 
d="M317 687h31l315 -687h-55l-108 236h-333l-108 -236h-55zM186 281h293l-146 320zM209 736h-41q-2 50 10 75q9 20 29 32t43 12q40 0 118 -39q44 -22 60 -22q17 0 23 13t8 50h41q-1 -49 -10 -75q-20 -45 -66 -45t-120 37q-45 22 -62 22q-19 0 -25 -12.5t-8 -47.5z" />
    <glyph glyph-name="Adieresis" unicode="&#xc4;" horiz-adv-x="667" 
d="M317 687h31l315 -687h-55l-108 236h-333l-108 -236h-55zM186 281h293l-146 320zM208 828q13 13 31 13t31 -13t13 -31t-13 -31q-13 -12 -31 -12t-31 12q-12 13 -12 31t12 31zM471 796q0 -17 -12.5 -30t-30.5 -13t-30.5 12.5t-12.5 30.5t12.5 31t30.5 13t30.5 -13t12.5 -31
z" />
    <glyph glyph-name="Aring" unicode="&#xc5;" horiz-adv-x="667" 
d="M317 687h31l315 -687h-55l-108 236h-333l-108 -236h-55zM186 281h293l-146 320zM334 937q32 2 58 -17.5t37.5 -47t6.5 -59.5t-29 -54q-21 -24 -53 -29.5t-60 6t-47.5 38t-17.5 59.5q0 43 30.5 73.5t74.5 30.5zM332 906q-30 0 -52 -21.5t-22 -51.5q0 -31 22 -52.5
t52 -21.5q31 0 52.5 21.5t21.5 52.5q0 30 -21.5 51.5t-52.5 21.5z" />
    <glyph glyph-name="AE" unicode="&#xc6;" horiz-adv-x="865" 
d="M412 682h406v-43h-320v-273h313v-44h-313v-278h329v-44h-383v322h-200l-200 -322h-58zM273 366h171v280z" />
    <glyph glyph-name="Ccedilla" unicode="&#xc7;" horiz-adv-x="678" 
d="M643 110v-55q-122 -64 -242 -64l-8 -29q36 -4 59 -21q30 -24 30 -54q0 -36 -33.5 -61t-100.5 -25q-19 0 -69 5l6 38q42 -3 62 -3q86 0 86 44q0 39 -93 41l19 67q-145 16 -234 113q-87 96 -87 234q0 82 32 151t87 112q110 88 237 88q118 0 242 -57v-58q-125 65 -231 65
q-137 0 -222 -84t-85 -216q0 -135 87 -217q86 -82 212 -82q115 0 246 68z" />
    <glyph glyph-name="Egrave" unicode="&#xc8;" horiz-adv-x="502" 
d="M80 682h372v-44h-319v-272h311v-44h-311v-279h327v-43h-380v682zM97 856h122l122 -128h-49z" />
    <glyph glyph-name="Eacute" unicode="&#xc9;" horiz-adv-x="502" 
d="M80 682h372v-44h-319v-272h311v-44h-311v-279h327v-43h-380v682zM205 728l122 128h122l-195 -128h-49z" />
    <glyph glyph-name="Ecircumflex" unicode="&#xca;" horiz-adv-x="502" 
d="M80 682h372v-44h-319v-272h311v-44h-311v-279h327v-43h-380v682zM298 865l127 -137h-51l-114 88l-111 -88h-53l124 137h78z" />
    <glyph glyph-name="Edieresis" unicode="&#xcb;" horiz-adv-x="502" 
d="M80 682h372v-44h-319v-272h311v-44h-311v-279h327v-43h-380v682zM135 828q13 13 31 13t31 -13t13 -31t-13 -31q-13 -12 -31 -12t-31 12q-12 13 -12 31t12 31zM355 840q18 0 30.5 -13t12.5 -31q0 -28 -26.5 -39t-47.5 8q-19 20 -8 47.5t39 27.5z" />
    <glyph glyph-name="Igrave" unicode="&#xcc;" horiz-adv-x="214" 
d="M80 682h54v-682h-54v682zM-56 856h122l122 -128h-49z" />
    <glyph glyph-name="Iacute" unicode="&#xcd;" horiz-adv-x="214" 
d="M80 682h54v-682h-54v682zM27 728l122 128h122l-195 -128h-49z" />
    <glyph glyph-name="Icircumflex" unicode="&#xce;" horiz-adv-x="214" 
d="M80 682h54v-682h-54v682zM145 865l127 -137h-51l-114 88l-111 -88h-53l124 137h78z" />
    <glyph glyph-name="Idieresis" unicode="&#xcf;" horiz-adv-x="214" 
d="M80 682h54v-682h-54v682zM-17 828q12 13 30 13t31 -13t13 -31t-13 -31q-13 -12 -31 -12t-30 12q-13 13 -13 31t13 31zM245 796q0 -17 -12.5 -30t-30.5 -13t-30.5 12.5t-12.5 30.5t12.5 31t30.5 13t30.5 -13t12.5 -31z" />
    <glyph glyph-name="Eth" unicode="&#xd0;" horiz-adv-x="740" 
d="M79 0v320h-79v42h79v320h207q53 0 93 -2q75 -2 151 -44q77 -44 118.5 -121t41.5 -171q0 -89 -40 -172q-41 -83 -120 -125q-64 -33 -108 -40q-43 -7 -136 -7h-207zM353 362v-42h-221v-277h160q65 0 111 8q45 8 97 39q60 36 95.5 105t35.5 148q0 74 -32.5 139t-98.5 108
q-50 32 -91 39q-42 9 -117 9h-160v-276h221z" />
    <glyph glyph-name="Ntilde" unicode="&#xd1;" horiz-adv-x="775" 
d="M642 682h53v-682h-44l-518 600v-600h-53v682h49l513 -596v596zM263 736h-41q-2 50 10 75q9 20 29 32t43 12q40 0 118 -39q44 -22 60 -22q17 0 23 13t8 50h41q-1 -49 -10 -75q-20 -45 -66 -45t-120 37q-45 22 -62 22q-19 0 -25 -12.5t-8 -47.5z" />
    <glyph glyph-name="Ograve" unicode="&#xd2;" horiz-adv-x="799" 
d="M761 344q0 -153 -106 -253q-104 -100 -256 -100q-153 0 -257 102t-104 249q0 142 101 246q100 103 261 103q159 0 259 -103q102 -102 102 -244zM702 344q0 119 -86 208q-85 88 -215 88t-217 -87q-86 -88 -86 -213q0 -123 85 -211t215 -88q123 0 213 84q91 84 91 219z
M246 856h122l122 -128h-49z" />
    <glyph glyph-name="Oacute" unicode="&#xd3;" horiz-adv-x="799" 
d="M761 344q0 -153 -106 -253q-104 -100 -256 -100q-153 0 -257 102t-104 249q0 142 101 246q100 103 261 103q159 0 259 -103q102 -102 102 -244zM702 344q0 119 -86 208q-85 88 -215 88t-217 -87q-86 -88 -86 -213q0 -123 85 -211t215 -88q123 0 213 84q91 84 91 219z
M319 728l122 128h122l-195 -128h-49z" />
    <glyph glyph-name="Ocircumflex" unicode="&#xd4;" horiz-adv-x="799" 
d="M761 344q0 -153 -106 -253q-104 -100 -256 -100q-153 0 -257 102t-104 249q0 142 101 246q100 103 261 103q159 0 259 -103q102 -102 102 -244zM702 344q0 119 -86 208q-85 88 -215 88t-217 -87q-86 -88 -86 -213q0 -123 85 -211t215 -88q123 0 213 84q91 84 91 219z
M437 865l127 -137h-51l-114 88l-111 -88h-53l124 137h78z" />
    <glyph glyph-name="Otilde" unicode="&#xd5;" horiz-adv-x="799" 
d="M761 344q0 -153 -106 -253q-104 -100 -256 -100q-153 0 -257 102t-104 249q0 142 101 246q100 103 261 103q159 0 259 -103q102 -102 102 -244zM702 344q0 119 -86 208q-85 88 -215 88t-217 -87q-86 -88 -86 -213q0 -123 85 -211t215 -88q123 0 213 84q91 84 91 219z
M275 736h-41q-2 50 10 75q9 20 29 32t43 12q40 0 118 -39q44 -22 60 -22q17 0 23 13t8 50h41q-1 -49 -10 -75q-20 -45 -66 -45t-120 37q-45 22 -62 22q-19 0 -25 -12.5t-8 -47.5z" />
    <glyph glyph-name="Odieresis" unicode="&#xd6;" horiz-adv-x="799" 
d="M761 344q0 -153 -106 -253q-104 -100 -256 -100q-153 0 -257 102t-104 249q0 142 101 246q100 103 261 103q159 0 259 -103q102 -102 102 -244zM702 344q0 119 -86 208q-85 88 -215 88t-217 -87q-86 -88 -86 -213q0 -123 85 -211t215 -88q123 0 213 84q91 84 91 219z
M274 828q13 13 31 13t31 -13t13 -31t-13 -31q-13 -12 -31 -12t-31 12q-12 13 -12 31t12 31zM537 796q0 -17 -12.5 -30t-30.5 -13t-30.5 12.5t-12.5 30.5t12.5 31t30.5 13t30.5 -13t12.5 -31z" />
    <glyph glyph-name="multiply" unicode="&#xd7;" horiz-adv-x="660" 
d="M161 140l-32 32l169 169l-169 169l32 32l169 -169l169 169l32 -32l-169 -169l169 -169l-32 -32l-169 169z" />
    <glyph glyph-name="Oslash" unicode="&#xd8;" horiz-adv-x="801" 
d="M686 687l37 -25l-64 -71q104 -109 104 -250q0 -150 -106 -250t-255 -100q-117 0 -221 67l-62 -69l-38 29l65 70q-40 40 -61 76q-47 86 -47 176q0 134 95 240q46 51 117 81t153 30q121 0 219 -70zM622 549l-405 -451q83 -59 182 -59q135 0 220 90q86 92 86 212
q0 119 -83 208zM182 129l405 451q-80 62 -184 62q-133 0 -219 -90q-86 -91 -86 -213q0 -79 37 -149q15 -29 47 -61z" />
    <glyph glyph-name="Ugrave" unicode="&#xd9;" horiz-adv-x="698" 
d="M582 682h52v-344q0 -82 -10 -129q-9 -47 -38 -95q-35 -56 -95.5 -89.5t-138.5 -33.5q-75 0 -140.5 31.5t-97.5 89.5q-33 57 -42 103q-8 50 -8 123v344h52v-354q0 -118 37 -180q62 -108 195 -108q64 0 118 28.5t78 77.5q38 74 38 182v354zM186 856h122l122 -128h-49z" />
    <glyph glyph-name="Uacute" unicode="&#xda;" horiz-adv-x="698" 
d="M582 682h52v-344q0 -82 -10 -129q-9 -47 -38 -95q-35 -56 -95.5 -89.5t-138.5 -33.5q-75 0 -140.5 31.5t-97.5 89.5q-33 57 -42 103q-8 50 -8 123v344h52v-354q0 -118 37 -180q62 -108 195 -108q64 0 118 28.5t78 77.5q38 74 38 182v354zM269 728l122 128h122l-195 -128
h-49z" />
    <glyph glyph-name="Ucircumflex" unicode="&#xdb;" horiz-adv-x="698" 
d="M582 682h52v-344q0 -82 -10 -129q-9 -47 -38 -95q-35 -56 -95.5 -89.5t-138.5 -33.5q-75 0 -140.5 31.5t-97.5 89.5q-33 57 -42 103q-8 50 -8 123v344h52v-354q0 -118 37 -180q62 -108 195 -108q64 0 118 28.5t78 77.5q38 74 38 182v354zM387 865l127 -137h-51l-114 88
l-111 -88h-53l124 137h78z" />
    <glyph glyph-name="Udieresis" unicode="&#xdc;" horiz-adv-x="698" 
d="M582 682h52v-344q0 -82 -10 -129q-9 -47 -38 -95q-35 -56 -95.5 -89.5t-138.5 -33.5q-75 0 -140.5 31.5t-97.5 89.5q-33 57 -42 103q-8 50 -8 123v344h52v-354q0 -118 37 -180q62 -108 195 -108q64 0 118 28.5t78 77.5q38 74 38 182v354zM224 828q13 13 31 13t31 -13
t13 -31t-13 -31q-13 -12 -31 -12t-31 12q-12 13 -12 31t12 31zM487 796q0 -17 -12.5 -30t-30.5 -13t-30.5 12.5t-12.5 30.5t12.5 31t30.5 13t30.5 -13t12.5 -31z" />
    <glyph glyph-name="Yacute" unicode="&#xdd;" horiz-adv-x="584" 
d="M519 682h65l-267 -316v-366h-53v366l-264 316h64l227 -270zM241 728l122 128h122l-195 -128h-49z" />
    <glyph glyph-name="Thorn" unicode="&#xde;" horiz-adv-x="510" 
d="M79 0v682h52v-159h86q72 0 114 -5q37 -4 72 -24q85 -49 85 -151q0 -51 -24.5 -94t-63.5 -61q-40 -20 -75 -24q-31 -4 -101 -4h-93v-160h-52zM219 479h-88v-276h96q107 0 153 31q23 15 36 44.5t13 63.5q0 71 -50 106q-43 31 -160 31z" />
    <glyph glyph-name="germandbls" unicode="&#xdf;" 
d="M218 0v50q35 -13 61 -13q60 0 95 44.5t35 115.5q0 73 -37 114t-99 45v45q58 0 84 40q10 14 16 36q7 25 7 46q0 60 -36.5 94t-94.5 34q-91 0 -119 -61q-14 -32 -18 -60q-3 -28 -3 -94v-436h-47v436q0 77 6 116t30 72q49 67 149 67q79 0 131 -47q51 -47 51 -118
q0 -63 -44 -115q-18 -19 -46 -32q37 -15 70 -45q50 -42 50 -136q0 -88 -49 -147q-50 -60 -130 -60q-26 0 -62 9z" />
    <glyph glyph-name="agrave" unicode="&#xe0;" horiz-adv-x="416" 
d="M413 78v-40q-67 -47 -90 -47q-18 0 -24 11.5t-9 44.5q-73 -56 -141 -56q-49 0 -86 32q-36 33 -36 81q0 40 21 72t53 49q25 14 70 26q61 16 119 18v57q0 89 -99 89q-38 0 -68 -12t-70 -42v49q81 48 144 48q77 0 113 -40q18 -20 23 -40.5t5 -64.5v-230q0 -38 1 -40
q3 -5 9 -5q19 0 65 40zM290 89v141q-84 -3 -123 -19q-41 -16 -66 -44t-25 -63q0 -34 27 -54t62 -20q60 0 125 59zM169 521l-152 156h81l105 -156h-34z" />
    <glyph glyph-name="aacute" unicode="&#xe1;" horiz-adv-x="416" 
d="M413 78v-40q-67 -47 -90 -47q-18 0 -24 11.5t-9 44.5q-73 -56 -141 -56q-49 0 -86 32q-36 33 -36 81q0 40 21 72t53 49q25 14 70 26q61 16 119 18v57q0 89 -99 89q-38 0 -68 -12t-70 -42v49q81 48 144 48q77 0 113 -40q18 -20 23 -40.5t5 -64.5v-230q0 -38 1 -40
q3 -5 9 -5q19 0 65 40zM290 89v141q-84 -3 -123 -19q-41 -16 -66 -44t-25 -63q0 -34 27 -54t62 -20q60 0 125 59zM293 677h81l-152 -156h-33z" />
    <glyph glyph-name="acircumflex" unicode="&#xe2;" horiz-adv-x="416" 
d="M413 78v-40q-67 -47 -90 -47q-18 0 -24 11.5t-9 44.5q-73 -56 -141 -56q-49 0 -86 32q-36 33 -36 81q0 40 21 72t53 49q25 14 70 26q61 16 119 18v57q0 89 -99 89q-38 0 -68 -12t-70 -42v49q81 48 144 48q77 0 113 -40q18 -20 23 -40.5t5 -64.5v-230q0 -38 1 -40
q3 -5 9 -5q19 0 65 40zM290 89v141q-84 -3 -123 -19q-41 -16 -66 -44t-25 -63q0 -34 27 -54t62 -20q60 0 125 59zM156 676h61l106 -164h-38l-98 109l-101 -109h-38z" />
    <glyph glyph-name="atilde" unicode="&#xe3;" horiz-adv-x="416" 
d="M413 78v-40q-67 -47 -90 -47q-18 0 -24 11.5t-9 44.5q-73 -56 -141 -56q-49 0 -86 32q-36 33 -36 81q0 40 21 72t53 49q25 14 70 26q61 16 119 18v57q0 89 -99 89q-38 0 -68 -12t-70 -42v49q81 48 144 48q77 0 113 -40q18 -20 23 -40.5t5 -64.5v-230q0 -38 1 -40
q3 -5 9 -5q19 0 65 40zM290 89v141q-84 -3 -123 -19q-41 -16 -66 -44t-25 -63q0 -34 27 -54t62 -20q60 0 125 59zM54 548h-32q8 95 80 95q36 0 96 -25q53 -22 76 -22q39 0 45 47h30q1 -26 -7 -45t-18.5 -28.5t-24.5 -15t-20.5 -6.5t-10.5 -1q-24 0 -83 22q-75 26 -89 26
q-36 0 -42 -47z" />
    <glyph glyph-name="adieresis" unicode="&#xe4;" horiz-adv-x="416" 
d="M413 78v-40q-67 -47 -90 -47q-18 0 -24 11.5t-9 44.5q-73 -56 -141 -56q-49 0 -86 32q-36 33 -36 81q0 40 21 72t53 49q25 14 70 26q61 16 119 18v57q0 89 -99 89q-38 0 -68 -12t-70 -42v49q81 48 144 48q77 0 113 -40q18 -20 23 -40.5t5 -64.5v-230q0 -38 1 -40
q3 -5 9 -5q19 0 65 40zM290 89v141q-84 -3 -123 -19q-41 -16 -66 -44t-25 -63q0 -34 27 -54t62 -20q60 0 125 59zM65 623q13 13 31 13t30 -13q13 -12 13 -30t-13 -31q-12 -13 -30 -13t-31 13q-12 13 -12 31t12 30zM275 636q18 0 31 -12.5t13 -30.5t-13 -31t-31 -13
q-17 0 -30 13t-13 31t13 30.5t30 12.5z" />
    <glyph glyph-name="aring" unicode="&#xe5;" horiz-adv-x="416" 
d="M413 78v-40q-67 -47 -90 -47q-18 0 -24 11.5t-9 44.5q-73 -56 -141 -56q-49 0 -86 32q-36 33 -36 81q0 40 21 72t53 49q25 14 70 26q61 16 119 18v57q0 89 -99 89q-38 0 -68 -12t-70 -42v49q81 48 144 48q77 0 113 -40q18 -20 23 -40.5t5 -64.5v-230q0 -38 1 -40
q3 -5 9 -5q19 0 65 40zM290 89v141q-84 -3 -123 -19q-41 -16 -66 -44t-25 -63q0 -34 27 -54t62 -20q60 0 125 59zM272 592q0 -35 -25 -60.5t-61 -25.5t-61.5 25.5t-25.5 60.5q0 36 25.5 61.5t61.5 25.5t61 -25.5t25 -61.5zM186 652q-25 0 -42 -17t-17 -42q0 -24 17 -41.5
t42 -17.5q24 0 41 17.5t17 41.5q0 25 -17 42t-41 17z" />
    <glyph glyph-name="ae" unicode="&#xe6;" horiz-adv-x="661" 
d="M624 243h-290v-37q0 -69 13 -94q35 -74 115 -74t162 59v-55q-82 -51 -167 -51q-84 0 -142 70q-95 -70 -169 -70q-55 0 -87 35q-32 37 -32 81q0 74 76 113q42 20 79 33q28 9 105 29q0 48 -5 73q-15 60 -84 60q-68 0 -150 -57v50q73 50 157 50q36 0 64 -14q17 -9 28 -19
t14 -14t14 -22q53 69 126 69q42 3 85.5 -23t66.5 -81q18 -45 21 -111zM334 282h237q-5 44 -21 74q-33 57 -100 57q-49 0 -82 -36.5t-34 -94.5zM287 89v154q-58 -16 -75 -22q-22 -6 -64 -25q-73 -34 -73 -90q0 -31 23.5 -52.5t59.5 -21.5q54 0 129 57z" />
    <glyph glyph-name="ccedilla" unicode="&#xe7;" horiz-adv-x="409" 
d="M384 64v-50q-64 -21 -120 -23l-16 -33q28 0 49 -12q30 -18 30 -53q0 -30 -29 -55q-35 -35 -148 -29l7 37q37 1 70 7q45 8 45 41q0 34 -79 34l31 65q-87 15 -136 73t-49 156q0 106 63 171t155 65q53 0 119 -22v-53q-69 30 -120 30q-76 0 -121 -55q-45 -54 -45 -136
q0 -77 44 -132q45 -54 128 -54q59 0 122 28z" />
    <glyph glyph-name="egrave" unicode="&#xe8;" horiz-adv-x="477" 
d="M441 242h-352q-3 -100 50 -153q55 -53 126 -53q87 0 168 69v-54q-77 -60 -173 -60q-104 0 -164 71q-60 70 -60 168q0 93 56 161q57 67 150 67q65 0 111.5 -32.5t68.5 -84.5q18 -40 19 -99zM94 280h290q-9 44 -27 72q-37 63 -115 63q-53 0 -94.5 -36t-53.5 -99zM254 521
l-152 156h81l105 -156h-34z" />
    <glyph glyph-name="eacute" unicode="&#xe9;" horiz-adv-x="477" 
d="M441 242h-352q-3 -100 50 -153q55 -53 126 -53q87 0 168 69v-54q-77 -60 -173 -60q-104 0 -164 71q-60 70 -60 168q0 93 56 161q57 67 150 67q65 0 111.5 -32.5t68.5 -84.5q18 -40 19 -99zM94 280h290q-9 44 -27 72q-37 63 -115 63q-53 0 -94.5 -36t-53.5 -99zM328 677
h81l-152 -156h-33z" />
    <glyph glyph-name="ecircumflex" unicode="&#xea;" horiz-adv-x="477" 
d="M441 242h-352q-3 -100 50 -153q55 -53 126 -53q87 0 168 69v-54q-77 -60 -173 -60q-104 0 -164 71q-60 70 -60 168q0 93 56 161q57 67 150 67q65 0 111.5 -32.5t68.5 -84.5q18 -40 19 -99zM94 280h290q-9 44 -27 72q-37 63 -115 63q-53 0 -94.5 -36t-53.5 -99zM216 676
h61l106 -164h-38l-98 109l-101 -109h-38z" />
    <glyph glyph-name="edieresis" unicode="&#xeb;" horiz-adv-x="477" 
d="M441 242h-352q-3 -100 50 -153q55 -53 126 -53q87 0 168 69v-54q-77 -60 -173 -60q-104 0 -164 71q-60 70 -60 168q0 93 56 161q57 67 150 67q65 0 111.5 -32.5t68.5 -84.5q18 -40 19 -99zM94 280h290q-9 44 -27 72q-37 63 -115 63q-53 0 -94.5 -36t-53.5 -99zM125 623
q13 13 31 13t30 -13q13 -12 13 -30t-13 -31q-12 -13 -30 -13t-31 13q-12 13 -12 31t12 30zM335 636q18 0 31 -12.5t13 -30.5t-13 -31t-31 -13q-17 0 -30 13t-13 31t13 30.5t30 12.5z" />
    <glyph glyph-name="igrave" unicode="&#xec;" horiz-adv-x="187" 
d="M70 449h47v-449h-47v449zM77 521l-152 156h81l105 -156h-34z" />
    <glyph glyph-name="iacute" unicode="&#xed;" horiz-adv-x="187" 
d="M70 449h47v-449h-47v449zM181 677h81l-152 -156h-33z" />
    <glyph glyph-name="icircumflex" unicode="&#xee;" horiz-adv-x="187" 
d="M64 676h61l106 -164h-38l-98 109l-101 -109h-38zM70 449h47v-449h-47v449z" />
    <glyph glyph-name="idieresis" unicode="&#xef;" horiz-adv-x="187" 
d="M-27 623q13 13 31 13t30 -13q13 -12 13 -30t-13 -31q-12 -13 -30 -13t-30 13q-13 13 -13 31t12 30zM183 636q18 0 31 -12.5t13 -30.5t-13 -31t-31 -13q-17 0 -30 13t-13 31t13 30.5t30 12.5zM70 449h47v-449h-47v449z" />
    <glyph glyph-name="eth" unicode="&#xf0;" horiz-adv-x="563" 
d="M322 618l80 39l16 -32l-64 -30l36 -30q39 -32 74 -93q62 -106 62 -221q0 -125 -71 -193q-70 -67 -177 -67q-109 0 -173 70q-65 71 -65 160q0 91 65 164q64 73 178 73q73 0 120 -30q34 -22 60 -48q-29 68 -59 107q-32 41 -92 85l-112 -54l-16 31l95 46q-56 31 -119 51
l19 36q42 -12 70 -24q28 -13 73 -40zM477 226q0 94 -59 142q-58 49 -134 49q-86 0 -142 -59q-55 -58 -55 -138q0 -81 55 -133q56 -53 143 -53q86 0 139 51.5t53 140.5z" />
    <glyph glyph-name="ntilde" unicode="&#xf1;" horiz-adv-x="490" 
d="M62 449h48v-78q18 25 47 53q37 34 100 34q41 0 77.5 -17t56.5 -46q36 -52 36 -152v-243h-48v239q0 82 -28 122q-36 51 -100 51q-60 0 -109 -49q-14 -15 -32 -48v-315h-48v449zM114 548h-32q8 95 80 95q36 0 96 -25q53 -22 76 -22q39 0 45 47h30q1 -26 -7 -45t-18.5 -28.5
t-24.5 -15t-20.5 -6.5t-10.5 -1q-24 0 -83 22q-75 26 -89 26q-36 0 -42 -47z" />
    <glyph glyph-name="ograve" unicode="&#xf2;" horiz-adv-x="529" 
d="M265 458q102 0 165 -68t63 -166q0 -104 -68 -169q-67 -64 -160 -64q-94 0 -161 64q-68 65 -68 169q0 98 62 166q63 68 167 68zM265 413q-67 0 -123 -50q-54 -49 -54 -138q0 -85 51 -137q53 -53 126 -53q75 0 126 53q51 54 51 137q0 87 -54 137q-54 51 -123 51zM274 521
l-152 156h81l105 -156h-34z" />
    <glyph glyph-name="oacute" unicode="&#xf3;" horiz-adv-x="529" 
d="M265 458q102 0 165 -68t63 -166q0 -104 -68 -169q-67 -64 -160 -64q-94 0 -161 64q-68 65 -68 169q0 98 62 166q63 68 167 68zM265 413q-67 0 -123 -50q-54 -49 -54 -138q0 -85 51 -137q53 -53 126 -53q75 0 126 53q51 54 51 137q0 87 -54 137q-54 51 -123 51zM338 677
h81l-152 -156h-33z" />
    <glyph glyph-name="ocircumflex" unicode="&#xf4;" horiz-adv-x="529" 
d="M265 458q102 0 165 -68t63 -166q0 -104 -68 -169q-67 -64 -160 -64q-94 0 -161 64q-68 65 -68 169q0 98 62 166q63 68 167 68zM265 413q-67 0 -123 -50q-54 -49 -54 -138q0 -85 51 -137q53 -53 126 -53q75 0 126 53q51 54 51 137q0 87 -54 137q-54 51 -123 51zM246 676
h61l106 -164h-38l-98 109l-101 -109h-38z" />
    <glyph glyph-name="otilde" unicode="&#xf5;" horiz-adv-x="529" 
d="M265 458q102 0 165 -68t63 -166q0 -104 -68 -169q-67 -64 -160 -64q-94 0 -161 64q-68 65 -68 169q0 98 62 166q63 68 167 68zM265 413q-67 0 -123 -50q-54 -49 -54 -138q0 -85 51 -137q53 -53 126 -53q75 0 126 53q51 54 51 137q0 87 -54 137q-54 51 -123 51zM144 548
h-32q8 95 80 95q36 0 96 -25q53 -22 76 -22q39 0 45 47h30q1 -26 -7 -45t-18.5 -28.5t-24.5 -15t-20.5 -6.5t-10.5 -1q-24 0 -83 22q-75 26 -89 26q-36 0 -42 -47z" />
    <glyph glyph-name="odieresis" unicode="&#xf6;" horiz-adv-x="529" 
d="M265 458q102 0 165 -68t63 -166q0 -104 -68 -169q-67 -64 -160 -64q-94 0 -161 64q-68 65 -68 169q0 98 62 166q63 68 167 68zM265 413q-67 0 -123 -50q-54 -49 -54 -138q0 -85 51 -137q53 -53 126 -53q75 0 126 53q51 54 51 137q0 87 -54 137q-54 51 -123 51zM155 623
q13 13 31 13t30 -13q13 -12 13 -30t-13 -31q-12 -13 -30 -13t-31 13q-12 13 -12 31t12 30zM365 636q18 0 31 -12.5t13 -30.5t-13 -31t-31 -13q-17 0 -30 13t-13 31t13 30.5t30 12.5z" />
    <glyph glyph-name="divide" unicode="&#xf7;" horiz-adv-x="660" 
d="M369 507q0 -15 -11 -26.5t-27 -11.5q-17 0 -28 11.5t-11 26.5q-1 24 19 33.5t39.5 0t18.5 -33.5zM331 209q16 0 27 -11t11 -27q0 -24 -23.5 -34.5t-41.5 7.5t-7.5 41.5t34.5 23.5zM592 318h-524v46h524v-46z" />
    <glyph glyph-name="oslash" unicode="&#xf8;" horiz-adv-x="530" 
d="M455 474l31 -25l-52 -62q60 -61 60 -161q0 -103 -66 -169t-163 -66q-74 0 -139 44l-57 -65l-33 30l59 64q-58 71 -58 161q0 94 60 163q60 70 168 70q76 0 137 -43zM128 102l244 278q-56 35 -108 35q-70 0 -123 -50q-52 -49 -52 -139q0 -74 39 -124zM402 350l-244 -279
q47 -34 106 -34q78 0 128 54q51 55 51 132q0 74 -41 127z" />
    <glyph glyph-name="ugrave" unicode="&#xf9;" horiz-adv-x="490" 
d="M375 449h48v-449h-48v74q-66 -83 -153 -83q-42 0 -80 19.5t-56 51.5q-28 46 -28 134v253h48v-253q0 -75 18 -108q31 -55 103 -55q65 0 114 47q15 15 34 55v314zM244 521l-152 156h81l105 -156h-34z" />
    <glyph glyph-name="uacute" unicode="&#xfa;" horiz-adv-x="490" 
d="M375 449h48v-449h-48v74q-66 -83 -153 -83q-42 0 -80 19.5t-56 51.5q-28 46 -28 134v253h48v-253q0 -75 18 -108q31 -55 103 -55q65 0 114 47q15 15 34 55v314zM333 677h81l-152 -156h-33z" />
    <glyph glyph-name="ucircumflex" unicode="&#xfb;" horiz-adv-x="490" 
d="M375 449h48v-449h-48v74q-66 -83 -153 -83q-42 0 -80 19.5t-56 51.5q-28 46 -28 134v253h48v-253q0 -75 18 -108q31 -55 103 -55q65 0 114 47q15 15 34 55v314zM216 676h61l106 -164h-38l-98 109l-101 -109h-38z" />
    <glyph glyph-name="udieresis" unicode="&#xfc;" horiz-adv-x="490" 
d="M375 449h48v-449h-48v74q-66 -83 -153 -83q-42 0 -80 19.5t-56 51.5q-28 46 -28 134v253h48v-253q0 -75 18 -108q31 -55 103 -55q65 0 114 47q15 15 34 55v314zM125 623q13 13 31 13t30 -13q13 -12 13 -30t-13 -31q-12 -13 -30 -13t-31 13q-12 13 -12 31t12 30zM335 636
q18 0 31 -12.5t13 -30.5t-13 -31t-31 -13q-17 0 -30 13t-13 31t13 30.5t30 12.5z" />
    <glyph glyph-name="yacute" unicode="&#xfd;" horiz-adv-x="411" 
d="M368 449h49l-336 -679h-49l157 317l-189 362h49l164 -314zM290 677h81l-152 -156h-33z" />
    <glyph glyph-name="thorn" unicode="&#xfe;" horiz-adv-x="510" 
d="M63 682h48v-258q72 34 137 34q94 0 157 -66q63 -64 63 -166q0 -106 -69 -171q-67 -64 -154 -64q-65 0 -134 34v-255h-48v912zM111 378v-306q65 -36 125 -36q84 0 131 53q48 54 48 133q0 88 -55 139q-54 51 -131 51q-54 0 -118 -34z" />
    <glyph glyph-name="ydieresis" unicode="&#xff;" horiz-adv-x="411" 
d="M368 449h49l-336 -679h-49l157 317l-189 362h49l164 -314zM92 623q13 13 31 13t30 -13q13 -12 13 -30t-13 -31q-12 -13 -30 -13t-31 13q-12 13 -12 31t12 30zM302 636q18 0 31 -12.5t13 -30.5t-13 -31t-31 -13q-17 0 -30 13t-13 31t13 30.5t30 12.5z" />
    <glyph glyph-name="Amacron" unicode="&#x100;" horiz-adv-x="667" 
d="M317 687h31l315 -687h-55l-108 236h-333l-108 -236h-55zM186 281h293l-146 320zM174 821h319v-50h-319v50z" />
    <glyph glyph-name="amacron" unicode="&#x101;" horiz-adv-x="416" 
d="M413 78v-40q-67 -47 -90 -47q-18 0 -24 11.5t-9 44.5q-73 -56 -141 -56q-49 0 -86 32q-36 33 -36 81q0 40 21 72t53 49q25 14 70 26q61 16 119 18v57q0 89 -99 89q-38 0 -68 -12t-70 -42v49q81 48 144 48q77 0 113 -40q18 -20 23 -40.5t5 -64.5v-230q0 -38 1 -40
q3 -5 9 -5q19 0 65 40zM290 89v141q-84 -3 -123 -19q-41 -16 -66 -44t-25 -63q0 -34 27 -54t62 -20q60 0 125 59zM52 623h267v-51h-267v51z" />
    <glyph glyph-name="Abreve" unicode="&#x102;" horiz-adv-x="667" 
d="M317 687h31l315 -687h-55l-108 236h-333l-108 -236h-55zM186 281h293l-146 320zM168 841h50q47 -59 116 -59q72 0 113 59h52q-13 -37 -37 -62q-52 -51 -128 -51q-80 0 -132 54q-20 21 -34 59z" />
    <glyph glyph-name="abreve" unicode="&#x103;" horiz-adv-x="416" 
d="M413 78v-40q-67 -47 -90 -47q-18 0 -24 11.5t-9 44.5q-73 -56 -141 -56q-49 0 -86 32q-36 33 -36 81q0 40 21 72t53 49q25 14 70 26q61 16 119 18v57q0 89 -99 89q-38 0 -68 -12t-70 -42v49q81 48 144 48q77 0 113 -40q18 -20 23 -40.5t5 -64.5v-230q0 -38 1 -40
q3 -5 9 -5q19 0 65 40zM290 89v141q-84 -3 -123 -19q-41 -16 -66 -44t-25 -63q0 -34 27 -54t62 -20q60 0 125 59zM50 647h40q32 -69 96 -69q28 0 51 15q6 4 10.5 7.5t8 6t6.5 6.5t5 5.5t5 6.5t3.5 6.5t4 7.5t4.5 8h38q-44 -114 -135 -114q-89 0 -137 114z" />
    <glyph glyph-name="Aogonek" unicode="&#x104;" horiz-adv-x="667" 
d="M608 0l-108 236h-333l-108 -236h-55l313 687h31l315 -687h-12q-48 -45 -48 -79q0 -8 2 -16t9.5 -22t28.5 -21t52 -3v-42q-29 -6 -46 -6q-47 0 -75 26.5t-28 65.5q0 56 62 97zM333 601l-147 -320h293z" />
    <glyph glyph-name="aogonek" unicode="&#x105;" horiz-adv-x="416" 
d="M386 -127v-38q-33 -5 -41 -5q-43 0 -68.5 23.5t-25.5 60.5q0 49 51 85q-9 11 -12 48q-73 -56 -141 -56q-49 0 -86 32q-36 33 -36 81q0 40 21 72t53 49q25 14 70 26q61 16 119 18v57q0 89 -99 89q-38 0 -68 -12t-70 -42v49q81 48 144 48q77 0 113 -40q18 -20 23 -40.5
t5 -64.5v-230q0 -38 1 -40q3 -5 9 -5q19 0 65 40v-40q-39 -28 -71 -44q-15 -7 -27 -26.5t-12 -40.5q0 -23 16.5 -38.5t41.5 -16.5q8 -1 25 1zM290 89v141q-84 -3 -123 -19q-41 -16 -66 -44t-25 -63q0 -34 27 -54t62 -20q60 0 125 59z" />
    <glyph glyph-name="Cacute" unicode="&#x106;" horiz-adv-x="678" 
d="M636 634v-58q-38 20 -63 30q-27 12 -73 23q-48 12 -96 12q-136 0 -221 -85q-85 -84 -85 -215q0 -132 85 -216q86 -83 218 -83q104 0 242 68v-55q-119 -64 -242 -64q-96 0 -177 40t-134 122q-52 82 -52 187q0 82 32 151t87 112q110 88 237 88q118 0 242 -57zM287 728
l122 128h122l-195 -128h-49z" />
    <glyph glyph-name="cacute" unicode="&#x107;" horiz-adv-x="409" 
d="M375 436v-53q-69 30 -118 30q-81 0 -125 -57q-43 -55 -43 -133t43 -133q44 -54 130 -54q58 0 121 28v-50q-71 -23 -128 -23q-76 0 -141 48q-35 25 -55.5 72.5t-20.5 106.5q0 115 65 177q65 63 152 63q54 0 120 -22zM322 677h81l-152 -156h-33z" />
    <glyph glyph-name="Ccircumflex" unicode="&#x108;" horiz-adv-x="678" 
d="M647 634v-58q-37 20 -63 30q-27 12 -73 23q-48 12 -96 12q-136 0 -221 -85q-85 -84 -85 -215q0 -132 85 -216q86 -83 218 -83q104 0 242 68v-55q-119 -64 -242 -64q-96 0 -177 40t-134 122q-52 82 -52 187q0 82 32 151t87 112q110 88 237 88q117 0 242 -57zM426 865
l127 -137h-51l-114 88l-111 -88h-53l124 137h78z" />
    <glyph glyph-name="ccircumflex" unicode="&#x109;" horiz-adv-x="409" 
d="M375 436v-53q-69 30 -118 30q-81 0 -125 -57q-43 -55 -43 -133t43 -133q44 -54 130 -54q58 0 121 28v-50q-71 -23 -128 -23q-76 0 -141 48q-35 25 -55.5 72.5t-20.5 106.5q0 115 65 177q65 63 152 63q54 0 120 -22zM215 676h61l106 -164h-38l-98 109l-101 -109h-38z" />
    <glyph glyph-name="Cdotaccent" unicode="&#x10a;" horiz-adv-x="677" 
d="M647 634v-58q-37 20 -63 30q-27 12 -73 23q-48 12 -96 12q-136 0 -221 -85q-85 -84 -85 -215q0 -132 85 -216q86 -83 218 -83q104 0 242 68v-55q-119 -64 -242 -64q-96 0 -177 40t-134 122q-52 82 -52 187q0 82 32 151t87 112q110 88 237 88q117 0 242 -57zM384 839
q17 0 30 -12.5t13 -30.5q0 -28 -26.5 -39t-47.5 8q-19 21 -8 47.5t39 26.5z" />
    <glyph glyph-name="cdotaccent" unicode="&#x10b;" horiz-adv-x="417" 
d="M379 436v-53q-69 30 -118 30q-81 0 -125 -57q-43 -55 -43 -133t43 -133q44 -54 130 -54q58 0 121 28v-50q-71 -23 -128 -23q-76 0 -141 48q-35 25 -55.5 72.5t-20.5 106.5q0 115 65 177q65 63 152 63q54 0 120 -22zM239 636q17 0 30 -12.5t13 -30.5t-12.5 -31t-30.5 -13
t-31 13t-13 31t13 30.5t31 12.5z" />
    <glyph glyph-name="Ccaron" unicode="&#x10c;" horiz-adv-x="678" 
d="M636 634v-58q-38 20 -63 30q-27 12 -73 23q-48 12 -96 12q-136 0 -221 -85q-85 -84 -85 -215q0 -132 85 -216q86 -83 218 -83q104 0 242 68v-55q-119 -64 -242 -64q-96 0 -177 40t-134 122q-52 82 -52 187q0 82 32 151t87 112q110 88 237 88q118 0 242 -57zM486 865h51
l-127 -137h-78l-124 137h53l111 -88z" />
    <glyph glyph-name="ccaron" unicode="&#x10d;" horiz-adv-x="409" 
d="M375 436v-53q-69 30 -118 30q-81 0 -125 -57q-43 -55 -43 -133t43 -133q44 -54 130 -54q58 0 121 28v-50q-71 -23 -128 -23q-76 0 -141 48q-35 25 -55.5 72.5t-20.5 106.5q0 115 65 177q65 63 152 63q54 0 120 -22zM382 676l-106 -164h-61l-108 164h38l101 -111l98 111
h38z" />
    <glyph glyph-name="Dcaron" unicode="&#x10e;" horiz-adv-x="728" 
d="M79 0v682h207q53 0 93 -2q75 -2 151 -44q77 -44 118.5 -121t41.5 -171q0 -89 -40 -172q-41 -83 -120 -125q-64 -33 -108 -40q-43 -7 -136 -7h-207zM292 638h-160v-595h160q65 0 111 8q45 8 97 39q60 36 95.5 105t35.5 148q0 74 -32.5 139t-98.5 108q-50 32 -91 39
q-42 9 -117 9zM454 865h51l-127 -137h-78l-124 137h53l111 -88z" />
    <glyph glyph-name="dcaron" unicode="&#x10f;" horiz-adv-x="514" 
d="M396 682h48v-682h-48v35q-65 -44 -133 -44q-91 0 -159 65t-68 169q0 103 65 168q67 65 162 65q63 0 133 -36v260zM396 79v290q-70 44 -131 44q-80 0 -128 -54q-48 -53 -48 -131q0 -85 55 -139q56 -53 131 -53q65 0 121 43zM492 691h65v-58q0 -107 -65 -154v34
q21 40 20 83h-20v95z" />
    <glyph glyph-name="Dcroat" unicode="&#x110;" horiz-adv-x="728" 
d="M79 0v320h-79v42h79v320h207q53 0 93 -2q75 -2 151 -44q77 -44 118.5 -121t41.5 -171q0 -89 -40 -172q-41 -83 -120 -125q-64 -33 -108 -40q-43 -7 -136 -7h-207zM353 362v-42h-221v-277h160q65 0 111 8q45 8 97 39q60 36 95.5 105t35.5 148q0 74 -32.5 139t-98.5 108
q-50 32 -91 39q-42 9 -117 9h-160v-276h221z" />
    <glyph glyph-name="dslash" unicode="&#x111;" horiz-adv-x="505" 
d="M444 682v-98h61v-40h-61v-544h-48v35q-65 -44 -133 -44q-91 0 -159 65t-68 169q0 103 65 168q67 65 162 65q63 0 133 -36v122h-153v40h153v98h48zM396 79v290q-70 44 -131 44q-80 0 -128 -54q-48 -53 -48 -131q0 -85 55 -139q56 -53 131 -53q65 0 121 43z" />
    <glyph glyph-name="Emacron" unicode="&#x112;" horiz-adv-x="502" 
d="M80 682h372v-44h-319v-272h311v-44h-311v-279h327v-43h-380v682zM101 821h319v-50h-319v50z" />
    <glyph glyph-name="emacron" unicode="&#x113;" horiz-adv-x="477" 
d="M441 242h-352q-3 -100 50 -153q55 -53 126 -53q87 0 168 69v-54q-77 -60 -173 -60q-104 0 -164 71q-60 70 -60 168q0 93 56 161q57 67 150 67q65 0 111.5 -32.5t68.5 -84.5q18 -40 19 -99zM94 280h290q-9 44 -27 72q-37 63 -115 63q-53 0 -94.5 -36t-53.5 -99zM117 623
h267v-51h-267v51z" />
    <glyph glyph-name="Ebreve" unicode="&#x114;" horiz-adv-x="502" 
d="M80 682h372v-44h-319v-272h311v-44h-311v-279h327v-43h-380v682zM100 841h50q20 -26 51 -43q31 -16 65 -16q72 0 113 59h52q-13 -37 -37 -62q-52 -51 -128 -51q-80 0 -132 54q-20 21 -34 59z" />
    <glyph glyph-name="ebreve" unicode="&#x115;" horiz-adv-x="477" 
d="M441 242h-352q-3 -100 50 -153q55 -53 126 -53q87 0 168 69v-54q-77 -60 -173 -60q-104 0 -164 71q-60 70 -60 168q0 93 56 161q57 67 150 67q65 0 111.5 -32.5t68.5 -84.5q18 -40 19 -99zM94 280h290q-9 44 -27 72q-37 63 -115 63q-53 0 -94.5 -36t-53.5 -99zM105 647
h40q31 -69 96 -69q29 0 51 15q6 4 10.5 7.5t8 6t6.5 6.5t5 5.5t5 6.5t3.5 6.5t4 7.5t4.5 8h38q-43 -114 -135 -114q-89 0 -137 114z" />
    <glyph glyph-name="Edotaccent" unicode="&#x116;" horiz-adv-x="502" 
d="M80 682h372v-44h-319v-272h311v-44h-311v-279h327v-43h-380v682zM261 839q17 0 30 -12.5t13 -30.5q0 -28 -26.5 -39t-47.5 8q-19 21 -8 47.5t39 26.5z" />
    <glyph glyph-name="edotaccent" unicode="&#x117;" horiz-adv-x="477" 
d="M441 242h-352q-3 -100 50 -153q55 -53 126 -53q87 0 168 69v-54q-77 -60 -173 -60q-104 0 -164 71q-60 70 -60 168q0 93 56 161q57 67 150 67q65 0 111.5 -32.5t68.5 -84.5q18 -40 19 -99zM94 280h290q-9 44 -27 72q-37 63 -115 63q-53 0 -94.5 -36t-53.5 -99zM246 636
q17 0 30 -12.5t13 -30.5t-12.5 -31t-30.5 -13t-31 13t-13 31t13 30.5t31 12.5z" />
    <glyph glyph-name="Eogonek" unicode="&#x118;" horiz-adv-x="502" 
d="M460 -141v-42q-29 -6 -46 -6q-47 0 -75 26t-28 66q0 57 61 97h-292v682h372v-44h-319v-272h311v-44h-311v-279h327v-43h-45l-23 -23q-24 -32 -24 -59q0 -24 18.5 -41.5t45.5 -18.5q9 -1 28 1z" />
    <glyph glyph-name="eogonek" unicode="&#x119;" horiz-adv-x="477" 
d="M319 -127v-38q-35 -5 -41 -5q-43 0 -68.5 23t-25.5 59q0 31 17 54q13 15 28 27q-97 13 -146 82q-47 68 -47 152q0 96 56 164q57 67 150 67q65 0 111.5 -32.5t68.5 -84.5q18 -40 19 -99h-352q-3 -100 50 -153q55 -53 126 -53q87 0 168 69v-54q-72 -52 -164 -60
q-33 -35 -33 -62q0 -15 11 -35q15 -27 72 -21zM94 280h290q-9 44 -27 72q-37 63 -115 63q-53 0 -94.5 -36t-53.5 -99z" />
    <glyph glyph-name="Ecaron" unicode="&#x11a;" horiz-adv-x="502" 
d="M80 682h372v-44h-319v-272h311v-44h-311v-279h327v-43h-380v682zM374 865h51l-127 -137h-78l-124 137h53l111 -88z" />
    <glyph glyph-name="ecaron" unicode="&#x11b;" horiz-adv-x="477" 
d="M441 242h-352q-3 -100 50 -153q55 -53 126 -53q87 0 168 69v-54q-77 -60 -173 -60q-104 0 -164 71q-60 70 -60 168q0 93 56 161q57 67 150 67q65 0 111.5 -32.5t68.5 -84.5q18 -40 19 -99zM94 280h290q-9 44 -27 72q-37 63 -115 63q-53 0 -94.5 -36t-53.5 -99zM388 676
l-106 -164h-61l-108 164h38l101 -111l98 111h38z" />
    <glyph glyph-name="Gcircumflex" unicode="&#x11c;" horiz-adv-x="701" 
d="M638 633v-60q-109 68 -244 68q-120 0 -208 -82q-89 -83 -89 -219q0 -134 89 -218q89 -83 206 -83q98 0 206 43v184h-144v45h197v-262q-126 -58 -257 -58q-138 0 -248 99q-108 99 -108 253q0 148 103 248t263 100q44 0 96 -11q45 -10 73 -20q21 -7 65 -27zM420 865
l127 -137h-51l-114 88l-111 -88h-53l124 137h78z" />
    <glyph glyph-name="gcircumflex" unicode="&#x11d;" horiz-adv-x="417" 
d="M249 449h158v-40h-102q20 -20 26 -27q36 -42 36 -95q0 -29 -16 -67q-22 -59 -112 -83q-96 -25 -112 -38t-16 -31q0 -44 108 -47q56 -2 81 -6.5t50 -18.5q25 -13 40.5 -39t15.5 -56q0 -61 -53 -96t-148 -35q-106 0 -155 39q-18 15 -29 35q-13 23 -13 46q0 38 31 68.5
t100 41.5q-73 19 -73 65q0 21 13 34q13 14 27 20.5t50 19.5q-34 11 -70 38q-47 37 -47 110q0 46 22 84.5t58 54.5q49 23 130 23zM81 290q0 -50 35 -85t84 -35q50 0 85 35t35 85t-36 84q-35 35 -84 35t-84 -35t-35 -84zM361 -103q0 79 -144 79q-76 0 -118 -20
q-46 -21 -46 -64q0 -82 155 -82q74 0 113.5 24.5t39.5 62.5zM174 676h61l106 -164h-38l-98 109l-101 -109h-38z" />
    <glyph glyph-name="Gbreve" unicode="&#x11e;" horiz-adv-x="701" 
d="M638 633v-60q-109 68 -244 68q-120 0 -208 -82q-89 -83 -89 -219q0 -134 89 -218q89 -83 206 -83q98 0 206 43v184h-144v45h197v-262q-126 -58 -257 -58q-138 0 -248 99q-108 99 -108 253q0 148 103 248t263 100q44 0 96 -11q45 -10 73 -20q21 -7 65 -27zM217 841h50
q47 -59 116 -59q72 0 113 59h52q-12 -37 -37 -62q-53 -51 -128 -51q-79 0 -132 54q-20 21 -34 59z" />
    <glyph glyph-name="gbreve" unicode="&#x11f;" horiz-adv-x="417" 
d="M249 449h158v-40h-102q20 -20 26 -27q36 -42 36 -95q0 -29 -16 -67q-22 -59 -112 -83q-96 -25 -112 -38t-16 -31q0 -44 108 -47q56 -2 81 -6.5t50 -18.5q25 -13 40.5 -39t15.5 -56q0 -61 -53 -96t-148 -35q-106 0 -155 39q-18 15 -29 35q-13 23 -13 46q0 38 31 68.5
t100 41.5q-73 19 -73 65q0 21 13 34q13 14 27 20.5t50 19.5q-34 11 -70 38q-47 37 -47 110q0 46 22 84.5t58 54.5q49 23 130 23zM81 290q0 -50 35 -85t84 -35q50 0 85 35t35 85t-36 84q-35 35 -84 35t-84 -35t-35 -84zM361 -103q0 79 -144 79q-76 0 -118 -20
q-46 -21 -46 -64q0 -82 155 -82q74 0 113.5 24.5t39.5 62.5zM83 647h40q31 -69 96 -69q29 0 51 15q6 4 10.5 7.5t8 6t6.5 6.5t5 5.5t5 6.5t3.5 6.5t4 7.5t4.5 8h38q-43 -114 -135 -114q-89 0 -137 114z" />
    <glyph glyph-name="Gdotaccent" unicode="&#x120;" horiz-adv-x="701" 
d="M638 633v-60q-109 68 -244 68q-120 0 -208 -82q-89 -83 -89 -219q0 -134 89 -218q89 -83 206 -83q98 0 206 43v184h-144v45h197v-262q-126 -58 -257 -58q-138 0 -248 99q-108 99 -108 253q0 148 103 248t263 100q44 0 96 -11q45 -10 73 -20q21 -7 65 -27zM368 839
q17 0 30 -12.5t13 -30.5q0 -28 -26.5 -39t-47.5 8q-19 21 -8 47.5t39 26.5z" />
    <glyph glyph-name="gdotaccent" unicode="&#x121;" horiz-adv-x="417" 
d="M249 449h158v-40h-102q20 -20 26 -27q36 -42 36 -95q0 -29 -16 -67q-22 -59 -112 -83q-96 -25 -112 -38t-16 -31q0 -44 108 -47q56 -2 81 -6.5t50 -18.5q25 -13 40.5 -39t15.5 -56q0 -61 -53 -96t-148 -35q-106 0 -155 39q-18 15 -29 35q-13 23 -13 46q0 38 31 68.5
t100 41.5q-73 19 -73 65q0 21 13 34q13 14 27 20.5t50 19.5q-34 11 -70 38q-47 37 -47 110q0 46 22 84.5t58 54.5q49 23 130 23zM81 290q0 -50 35 -85t84 -35q50 0 85 35t35 85t-36 84q-35 35 -84 35t-84 -35t-35 -84zM361 -103q0 79 -144 79q-76 0 -118 -20
q-46 -21 -46 -64q0 -82 155 -82q74 0 113.5 24.5t39.5 62.5zM204 636q17 0 30 -12.5t13 -30.5t-12.5 -31t-30.5 -13t-31 13t-13 31t13 30.5t31 12.5z" />
    <glyph glyph-name="Gcommaaccent" unicode="&#x122;" horiz-adv-x="701" 
d="M638 633v-60q-109 68 -244 68q-120 0 -208 -82q-89 -83 -89 -219q0 -134 89 -218q89 -83 206 -83q98 0 206 43v184h-144v45h197v-262q-126 -58 -257 -58q-138 0 -248 99q-108 99 -108 253q0 148 103 248t263 100q44 0 96 -11q45 -10 73 -20q21 -7 65 -27zM273 -189l7 36
q20 -3 39 -3q92 0 92 44t-115 40l7 36q9 1 38 1q121 0 121 -73q0 -38 -34 -62t-100 -24q-25 0 -55 5z" />
    <glyph glyph-name="gcommaaccent" unicode="&#x123;" horiz-adv-x="417" 
d="M249 449h158v-40h-102q20 -20 26 -27q36 -42 36 -95q0 -29 -16 -67q-22 -59 -112 -83q-96 -25 -112 -38t-16 -31q0 -44 108 -47q56 -2 81 -6.5t50 -18.5q25 -13 40.5 -39t15.5 -56q0 -61 -53 -96t-148 -35q-106 0 -155 39q-18 15 -29 35q-13 23 -13 46q0 38 31 68.5
t100 41.5q-73 19 -73 65q0 21 13 34q13 14 27 20.5t50 19.5q-34 11 -70 38q-47 37 -47 110q0 46 22 84.5t58 54.5q49 23 130 23zM81 290q0 -50 35 -85t84 -35q50 0 85 35t35 85t-36 84q-35 35 -84 35t-84 -35t-35 -84zM361 -103q0 79 -144 79q-76 0 -118 -20
q-46 -21 -46 -64q0 -82 155 -82q74 0 113.5 24.5t39.5 62.5zM258 521h-59v53q0 96 59 138v-31q-19 -31 -19 -74h19v-86z" />
    <glyph glyph-name="Hcircumflex" unicode="&#x124;" horiz-adv-x="721" 
d="M588 682h53v-682h-53v323h-456v-323h-52v682h52v-314h456v314zM398 865l127 -137h-51l-114 88l-111 -88h-53l124 137h78z" />
    <glyph glyph-name="hcircumflex" unicode="&#x125;" horiz-adv-x="490" 
d="M63 682h47v-315q55 91 149 91q46 0 85 -19.5t57 -56.5q17 -33 22 -64q4 -25 4 -86v-232h-49v236q0 75 -19 112q-31 63 -107 63q-58 0 -98 -37q-21 -18 -44 -64v-310h-47v682zM216 888h61l106 -164h-38l-98 109l-101 -109h-38z" />
    <glyph glyph-name="Hbar" unicode="&#x126;" horiz-adv-x="719" 
d="M640 682v-136h79v-42h-79v-504h-53v323h-456v-323h-52v504h-79v42h79v136h52v-136h456v136h53zM587 368v136h-456v-136h456z" />
    <glyph glyph-name="hbar" unicode="&#x127;" horiz-adv-x="490" 
d="M110 682v-101h174v-40h-174v-174q55 91 149 91q46 0 85 -19.5t57 -56.5q17 -33 22 -64q4 -25 4 -86v-232h-49v236q0 75 -19 112q-31 63 -107 63q-58 0 -98 -37q-21 -18 -44 -64v-310h-47v541h-63v40h63v101h47z" />
    <glyph glyph-name="Itilde" unicode="&#x128;" horiz-adv-x="214" 
d="M81 682h54v-682h-54v682zM-16 736h-41q-2 50 10 75q9 20 29 32t43 12q40 0 118 -39q44 -22 60 -22q17 0 23 13t8 50h41q-1 -49 -10 -75q-19 -45 -66 -45q-46 0 -120 37q-45 22 -62 22q-19 0 -25 -12.5t-8 -47.5z" />
    <glyph glyph-name="itilde" unicode="&#x129;" horiz-adv-x="187" 
d="M-38 548h-32q8 95 80 95q36 0 96 -25q53 -22 76 -22q39 0 45 47h30q1 -26 -7 -45t-18.5 -28.5t-24.5 -15t-20.5 -6.5t-10.5 -1q-24 0 -83 22q-75 26 -89 26q-36 0 -42 -47zM70 449h47v-449h-47v449z" />
    <glyph glyph-name="Imacron" unicode="&#x12a;" horiz-adv-x="214" 
d="M80 682h54v-682h-54v682zM-52 821h319v-50h-319v50z" />
    <glyph glyph-name="imacron" unicode="&#x12b;" horiz-adv-x="187" 
d="M70 449h47v-449h-47v449zM-40 623h267v-51h-267v51z" />
    <glyph glyph-name="Ibreve" unicode="&#x12c;" horiz-adv-x="214" 
d="M80 682h54v-682h-54v682zM-54 841h50q47 -59 116 -59q72 0 113 59h52q-13 -37 -37 -62q-53 -51 -128 -51q-80 0 -132 54q-20 21 -34 59z" />
    <glyph glyph-name="ibreve" unicode="&#x12d;" horiz-adv-x="187" 
d="M-42 647h40q32 -69 96 -69q28 0 51 15q6 4 10.5 7.5t8 6t6.5 6.5t5 5.5t5 6.5t3.5 6.5t4 7.5t4.5 8h38q-44 -114 -135 -114q-89 0 -137 114zM70 449h47v-449h-47v449z" />
    <glyph glyph-name="Iogonek" unicode="&#x12e;" horiz-adv-x="214" 
d="M168 -141v-42q-28 -6 -46 -6q-47 0 -75 26t-28 66q0 58 61 97v682h54v-682h-11q-27 -26 -37 -43t-10 -37q0 -5 0.5 -10.5t5.5 -17t13.5 -19t27.5 -12.5t45 -2z" />
    <glyph glyph-name="iogonek" unicode="&#x12f;" horiz-adv-x="187" 
d="M149 -127v-38q-33 -5 -41 -5q-43 0 -68.5 23.5t-25.5 57.5q0 54 56 89v449h47v-449h-8q-43 -40 -43 -72q0 -5 0.5 -10t5 -14.5t12.5 -16.5t25 -11.5t40 -2.5zM70 682h47v-82h-47v82z" />
    <glyph glyph-name="Idot" unicode="&#x130;" horiz-adv-x="214" 
d="M80 682h54v-682h-54v682zM108 839q17 0 30 -12.5t13 -30.5q0 -28 -26.5 -39t-47.5 8q-19 21 -8 47.5t39 26.5z" />
    <glyph glyph-name="dotlessi" unicode="&#x131;" horiz-adv-x="187" 
d="M70 449h47v-449h-47v449z" />
    <glyph glyph-name="IJ" unicode="&#x132;" horiz-adv-x="417" 
d="M77 682h54v-682h-54v682zM291 682h53v-671q0 -61 -13 -109q-17 -64 -79 -90q-18 -8 -82 -11l-7 52q12 -4 25 -4q55 0 80 40q10 15 15 41q8 35 8 87v665z" />
    <glyph glyph-name="ij" unicode="&#x133;" horiz-adv-x="375" 
d="M70 682h48v-80h-48v80zM70 449h48v-449h-48v449zM256 449h48v-422q0 -45 -2 -75q-1 -23 -6 -58q-9 -62 -48 -95q-32 -28 -81 -29l-11 43q34 7 48 14q12 4 26 23q16 20 20 57q6 36 6 120v422zM256 682h48v-80h-48v80z" />
    <glyph glyph-name="Jcircumflex" unicode="&#x134;" horiz-adv-x="208" 
d="M82 682h54v-671q0 -61 -13 -109q-17 -64 -79 -90q-19 -8 -83 -11l-6 52q12 -4 25 -4q55 0 80 40q10 15 15 42q7 35 7 86v665zM142 865l127 -137h-51l-114 88l-111 -88h-53l124 137h78z" />
    <glyph glyph-name="jcircumflex" unicode="&#x135;" horiz-adv-x="183" 
d="M66 449h48v-467q0 -85 -21 -139q-24 -67 -111 -73l-14 40q52 6 77 38q11 14 15 40q5 28 5 44q1 11 1 53v464zM61 676h60l107 -164h-39l-98 109l-100 -109h-39z" />
    <glyph glyph-name="Kcommaaccent" unicode="&#x136;" horiz-adv-x="553" 
d="M460 682h66l-325 -340l357 -342h-68l-358 342v-342h-52v682h52v-340zM175 -189l7 36q20 -3 39 -3q92 0 92 44t-115 40l7 36q9 1 38 1q121 0 121 -73q0 -38 -34 -62t-100 -24q-25 0 -55 5z" />
    <glyph glyph-name="kcommaaccent" unicode="&#x137;" horiz-adv-x="440" 
d="M59 682h48v-682h-48v682zM362 449h63l-244 -213l285 -236h-69l-283 236zM153 -170l5 32q26 -2 30 -2q69 0 69 40q0 26 -24 33q-14 4 -39 5l4 27q40 6 68.5 -12t28.5 -51q0 -32 -25.5 -54.5t-73.5 -22.5q-21 0 -43 5z" />
    <glyph glyph-name="kgreenlandic" unicode="&#x138;" horiz-adv-x="427" 
d="M59 449h48v-449h-48v449zM362 449h63l-244 -213l285 -236h-69l-283 236z" />
    <glyph glyph-name="Lacute" unicode="&#x139;" horiz-adv-x="470" 
d="M79 682h52v-639h338v-43h-390v682zM74 728l122 128h122l-195 -128h-49z" />
    <glyph glyph-name="lacute" unicode="&#x13a;" horiz-adv-x="188" 
d="M70 682h48v-682h-48v682zM182 889h81l-152 -156h-33z" />
    <glyph glyph-name="Lcommaaccent" unicode="&#x13b;" horiz-adv-x="469" 
d="M79 682h52v-639h338v-43h-390v682zM140 -189l7 36q19 -3 39 -3q92 0 92 44t-115 40l7 36q9 1 38 1q121 0 121 -73q0 -38 -34 -62t-100 -24q-25 0 -55 5z" />
    <glyph glyph-name="lcommaaccent" unicode="&#x13c;" horiz-adv-x="188" 
d="M70 682h48v-682h-48v682zM34 -170l5 32q26 -2 30 -2q69 0 69 40q0 26 -24 33q-14 4 -39 5l4 27q40 6 68.5 -12t28.5 -51q0 -32 -25.5 -54.5t-73.5 -22.5q-21 0 -43 5z" />
    <glyph glyph-name="Lcaron" unicode="&#x13d;" horiz-adv-x="469" 
d="M307 682h65v-58q0 -107 -65 -154v34q21 39 21 83h-21v95zM79 682h52v-639h338v-43h-390v682z" />
    <glyph glyph-name="lcaron" unicode="&#x13e;" horiz-adv-x="188" 
d="M70 682h48v-682h-48v682zM166 691h65v-58q0 -107 -65 -154v34q21 40 20 83h-20v95z" />
    <glyph glyph-name="Ldot" unicode="&#x13f;" horiz-adv-x="470" 
d="M79 682h52v-639h338v-43h-390v682zM291 386q18 0 31 -13t13 -31t-13 -30.5t-31 -12.5t-30.5 12.5t-12.5 30.5t13 31t30 13z" />
    <glyph glyph-name="ldot" unicode="&#x140;" horiz-adv-x="292" 
d="M69 682h49v-682h-49v682zM238 384q17 0 30 -12.5t13 -30.5t-13 -30.5t-30 -12.5q-18 0 -31 12.5t-13 30.5t13 30.5t31 12.5z" />
    <glyph glyph-name="Lslash" unicode="&#x141;" horiz-adv-x="469" 
d="M131 682v-331l168 137v-50l-168 -137v-258h338v-43h-390v258l-79 -65v50l79 65v374h52z" />
    <glyph glyph-name="lslash" unicode="&#x142;" horiz-adv-x="187" 
d="M120 682v-293l67 56v-50l-67 -56v-339h-48v298l-72 -61v50l72 62v333h48z" />
    <glyph glyph-name="Nacute" unicode="&#x143;" horiz-adv-x="775" 
d="M642 682h53v-682h-44l-518 600v-600h-53v682h49l513 -596v596zM337 728l122 128h122l-195 -128h-49z" />
    <glyph glyph-name="nacute" unicode="&#x144;" horiz-adv-x="490" 
d="M62 449h48v-78q18 25 47 53q37 34 100 34q41 0 77.5 -17t56.5 -46q36 -52 36 -152v-243h-48v239q0 82 -28 122q-36 51 -100 51q-60 0 -109 -49q-14 -15 -32 -48v-315h-48v449zM333 677h81l-152 -156h-33z" />
    <glyph glyph-name="Ncommaaccent" unicode="&#x145;" horiz-adv-x="773" 
d="M642 682h53v-682h-44l-518 600v-600h-53v682h49l513 -596v596zM293 -189l7 36q20 -3 39 -3q92 0 92 44t-115 40l7 36q9 1 38 1q121 0 121 -73q0 -38 -34 -62t-100 -24q-25 0 -55 5z" />
    <glyph glyph-name="ncommaaccent" unicode="&#x146;" horiz-adv-x="490" 
d="M62 449h48v-78q18 25 47 53q37 34 100 34q41 0 77.5 -17t56.5 -46q36 -52 36 -152v-243h-48v239q0 82 -28 122q-36 51 -100 51q-60 0 -109 -49q-14 -15 -32 -48v-315h-48v449zM185 -170l5 32q26 -2 30 -2q69 0 69 40q0 26 -24 33q-14 4 -39 5l4 27q40 6 68.5 -12
t28.5 -51q0 -32 -25.5 -54.5t-73.5 -22.5q-21 0 -43 5z" />
    <glyph glyph-name="Ncaron" unicode="&#x147;" horiz-adv-x="775" 
d="M642 682h53v-682h-44l-518 600v-600h-53v682h49l513 -596v596zM501 865h51l-127 -137h-78l-124 137h53l111 -88z" />
    <glyph glyph-name="ncaron" unicode="&#x148;" horiz-adv-x="490" 
d="M62 449h48v-78q18 25 47 53q37 34 100 34q41 0 77.5 -17t56.5 -46q36 -52 36 -152v-243h-48v239q0 82 -28 122q-36 51 -100 51q-60 0 -109 -49q-14 -15 -32 -48v-315h-48v449zM383 676l-106 -164h-61l-108 164h38l101 -111l98 111h38z" />
    <glyph glyph-name="napostrophe" unicode="&#x149;" horiz-adv-x="529" 
d="M102 449h48v-78q23 31 28 37q15 18 49 34t70 16q40 0 76.5 -17t56.5 -46q37 -52 37 -152v-243h-49v239q0 85 -27 122q-36 51 -100 51q-63 0 -109 -49q-16 -18 -32 -48v-315h-48v449zM0 682h66v-58q0 -108 -66 -154v34q22 37 21 83h-21v95z" />
    <glyph glyph-name="Eng" unicode="&#x14a;" horiz-adv-x="706" 
d="M574 157v223q0 127 -57.5 193.5t-161.5 66.5q-170 0 -224 -150v-490h-52v682h52v-104q26 48 88 80.5t144 32.5q79 0 137 -32q39 -20 64 -51q63 -75 63 -225v-233q0 -72 -36.5 -115.5t-108.5 -43.5q-22 0 -41 4l-6 53q13 -4 40 -4q55 0 77 27.5t22 85.5z" />
    <glyph glyph-name="eng" unicode="&#x14b;" horiz-adv-x="490" 
d="M427 243v-261q0 -84 -21 -138q-25 -68 -112 -74l-13 40q61 0 86 56q7 13 8 40q3 28 3 47q1 12 1 58v228q0 82 -28 122q-36 51 -100 51q-60 0 -109 -49q-14 -15 -32 -48v-315h-48v449h48v-78q18 25 47 53q37 34 100 34q41 0 77.5 -17t56.5 -46q36 -52 36 -152z" />
    <glyph glyph-name="Omacron" unicode="&#x14c;" horiz-adv-x="799" 
d="M761 344q0 -153 -106 -253q-104 -100 -256 -100q-153 0 -257 102t-104 249q0 142 101 246q100 103 261 103q159 0 259 -103q102 -102 102 -244zM702 344q0 119 -86 208q-85 88 -215 88t-217 -87q-86 -88 -86 -213q0 -123 85 -211t215 -88q123 0 213 84q91 84 91 219z
M250 821h319v-50h-319v50z" />
    <glyph glyph-name="omacron" unicode="&#x14d;" horiz-adv-x="529" 
d="M265 458q102 0 165 -68t63 -166q0 -104 -68 -169q-67 -64 -160 -64q-94 0 -161 64q-68 65 -68 169q0 98 62 166q63 68 167 68zM265 413q-67 0 -123 -50q-54 -49 -54 -138q0 -85 51 -137q53 -53 126 -53q75 0 126 53q51 54 51 137q0 87 -54 137q-54 51 -123 51zM142 623
h267v-51h-267v51z" />
    <glyph glyph-name="Obreve" unicode="&#x14e;" horiz-adv-x="799" 
d="M761 344q0 -153 -106 -253q-104 -100 -256 -100q-153 0 -257 102t-104 249q0 142 101 246q100 103 261 103q159 0 259 -103q102 -102 102 -244zM702 344q0 119 -86 208q-85 88 -215 88t-217 -87q-86 -88 -86 -213q0 -123 85 -211t215 -88q123 0 213 84q91 84 91 219z
M234 841h50q47 -59 116 -59q72 0 113 59h52q-13 -37 -37 -62q-52 -51 -128 -51q-80 0 -132 54q-20 21 -34 59z" />
    <glyph glyph-name="obreve" unicode="&#x14f;" horiz-adv-x="529" 
d="M265 458q102 0 165 -68t63 -166q0 -104 -68 -169q-67 -64 -160 -64q-94 0 -161 64q-68 65 -68 169q0 98 62 166q63 68 167 68zM265 413q-67 0 -123 -50q-54 -49 -54 -138q0 -85 51 -137q53 -53 126 -53q75 0 126 53q51 54 51 137q0 87 -54 137q-54 51 -123 51zM130 647
h40q32 -69 96 -69q28 0 51 15q6 4 10.5 7.5t8 6t6.5 6.5t5 5.5t5 6.5t3.5 6.5t4 7.5t4.5 8h38q-44 -114 -135 -114q-89 0 -137 114z" />
    <glyph glyph-name="Ohungarumlaut" unicode="&#x150;" horiz-adv-x="799" 
d="M761 344q0 -153 -106 -253q-104 -100 -256 -100q-153 0 -257 102t-104 249q0 142 101 246q100 103 261 103q159 0 259 -103q102 -102 102 -244zM702 344q0 119 -86 208q-85 88 -215 88t-217 -87q-86 -88 -86 -213q0 -123 85 -211t215 -88q123 0 213 84q91 84 91 219z
M368 856h105l-147 -128h-37zM517 856h104l-146 -128h-38z" />
    <glyph glyph-name="ohungarumlaut" unicode="&#x151;" horiz-adv-x="529" 
d="M265 458q102 0 165 -68t63 -166q0 -104 -68 -169q-67 -64 -160 -64q-94 0 -161 64q-68 65 -68 169q0 98 62 166q63 68 167 68zM265 413q-67 0 -123 -50q-54 -49 -54 -138q0 -85 51 -137q53 -53 126 -53q75 0 126 53q51 54 51 137q0 87 -54 137q-54 51 -123 51zM283 677
h89l-157 -155h-31zM417 677h90l-160 -155h-30z" />
    <glyph glyph-name="OE" unicode="&#x152;" horiz-adv-x="893" 
d="M450 682h398v-45h-322v-273h315v-44h-315v-276h329v-44h-405q-51 0 -95 2q-98 7 -172 59q-67 46 -106 118.5t-39 160.5q0 144 104 246q71 68 155 84q54 9 73 10q38 2 80 2zM473 44v593q-110 2 -162 -11q-86 -21 -150 -97q-65 -77 -65 -189q0 -91 45.5 -161t118.5 -104
q71 -33 213 -31z" />
    <glyph glyph-name="oe" unicode="&#x153;" horiz-adv-x="828" 
d="M788 242h-310v-20q0 -62 22 -113q15 -33 48 -51.5t70 -18.5q84 0 160 66v-55q-76 -59 -168 -59q-80 0 -119 42q-28 33 -42 63q-15 -19 -28 -32q-18 -18 -35 -32q-49 -41 -129 -41q-79 0 -146 52q-34 28 -54.5 75.5t-20.5 105.5q0 76 35 132q66 102 191 102q115 0 187 -96
q22 37 45 56q47 40 109 40q40 0 81 -21q101 -41 104 -195zM478 286h254q-11 80 -60 106q-38 21 -68 21q-72 0 -106 -61q-15 -22 -20 -66zM428 233q0 82 -42.5 131t-121.5 49q-84 0 -130 -54q-46 -53 -46 -133q0 -89 52 -140q53 -50 121 -50q70 0 118 51q49 52 49 146z" />
    <glyph glyph-name="Racute" unicode="&#x154;" horiz-adv-x="587" 
d="M79 0v682h135q109 0 163 -20q45 -19 74 -61t29 -95q0 -118 -130 -166q30 -19 61 -63q28 -39 153 -230l32 -47h-63l-131 206q-48 75 -84 100q-19 14 -41.5 17.5t-71.5 3.5h-73v-327h-53zM218 638h-86v-266h73q109 0 153 22q28 13 45 44.5t17 67.5q0 35 -17.5 65.5
t-45.5 44.5q-43 22 -139 22zM176 728l122 128h122l-195 -128h-49z" />
    <glyph glyph-name="racute" unicode="&#x155;" horiz-adv-x="373" 
d="M373 405l-28 -45q-55 49 -89 49q-69 0 -145 -127v-282h-48v449h48v-118q82 127 160 127q40 0 102 -53zM284 677h81l-152 -156h-33z" />
    <glyph glyph-name="Rcommaaccent" unicode="&#x156;" horiz-adv-x="586" 
d="M79 0v682h135q109 0 163 -20q45 -19 74 -61t29 -95q0 -118 -130 -166q30 -19 61 -63q28 -39 153 -230l32 -47h-63l-131 206q-48 75 -84 100q-19 14 -41.5 17.5t-71.5 3.5h-73v-327h-53zM218 638h-86v-266h73q109 0 153 22q28 13 45 44.5t17 67.5q0 35 -17.5 65.5
t-45.5 44.5q-43 22 -139 22zM192 -189l7 36q19 -3 39 -3q92 0 92 44t-115 40l7 36q9 1 38 1q121 0 121 -73q0 -38 -34 -62t-100 -24q-25 0 -55 5z" />
    <glyph glyph-name="rcommaaccent" unicode="&#x157;" horiz-adv-x="373" 
d="M373 405l-28 -45q-55 49 -89 49q-69 0 -145 -127v-282h-48v449h48v-118q82 127 160 127q40 0 102 -53zM56 -170l5 32q26 -2 30 -2q69 0 69 40q0 26 -24 33q-14 4 -39 5l4 27q40 6 68.5 -12t28.5 -51q0 -32 -25.5 -54.5t-73.5 -22.5q-21 0 -43 5z" />
    <glyph glyph-name="Rcaron" unicode="&#x158;" horiz-adv-x="586" 
d="M79 0v682h135q109 0 163 -20q45 -19 74 -61t29 -95q0 -118 -130 -166q30 -19 61 -63q28 -39 153 -230l32 -47h-63l-131 206q-48 75 -84 100q-19 14 -41.5 17.5t-71.5 3.5h-73v-327h-53zM218 638h-86v-266h73q109 0 153 22q28 13 45 44.5t17 67.5q0 35 -17.5 65.5
t-45.5 44.5q-43 22 -139 22zM360 865h51l-127 -137h-78l-124 137h53l111 -88z" />
    <glyph glyph-name="rcaron" unicode="&#x159;" horiz-adv-x="373" 
d="M373 405l-28 -45q-55 49 -89 49q-69 0 -145 -127v-282h-48v449h48v-118q82 127 160 127q40 0 102 -53zM334 676l-106 -164h-61l-108 164h38l101 -111l98 111h38z" />
    <glyph glyph-name="Sacute" unicode="&#x15a;" horiz-adv-x="460" 
d="M399 648v-58q-53 30 -85 42t-69 12q-68 0 -106 -41t-38 -90q0 -62 49 -94q25 -15 46 -25l57 -21q71 -25 116 -63q58 -45 58 -131q0 -85 -61 -137q-60 -51 -137 -51q-87 0 -175 60v62q55 -39 93 -55.5t80 -16.5q69 0 106 42q39 42 39 94q0 64 -51 101q-36 26 -89 44
q-93 32 -123 59q-62 53 -62 130q0 71 54 125q55 55 139 55q82 0 159 -43zM169 728l122 128h122l-195 -128h-49z" />
    <glyph glyph-name="sacute" unicode="&#x15b;" horiz-adv-x="348" 
d="M303 420v-52q-65 46 -123 46q-42 0 -69.5 -22.5t-27.5 -53.5q0 -25 19 -44q29 -27 88 -46q45 -17 77 -38q49 -32 49 -95q0 -50 -40 -87q-38 -37 -106 -37q-67 0 -135 41v47q82 -43 140 -43q43 0 68 21.5t25 53.5q0 40 -36 61q-15 11 -36 20q-16 8 -52 21
q-106 40 -106 121q0 47 38 85q39 39 107 39q53 0 120 -38zM274 677h81l-152 -156h-33z" />
    <glyph glyph-name="Scircumflex" unicode="&#x15c;" horiz-adv-x="460" 
d="M399 648v-58q-53 30 -85 42t-69 12q-68 0 -106 -41t-38 -90q0 -62 49 -94q25 -15 46 -25l57 -21q71 -25 116 -63q58 -45 58 -131q0 -85 -61 -137q-60 -51 -137 -51q-87 0 -175 60v62q55 -39 93 -55.5t80 -16.5q69 0 106 42q39 42 39 94q0 64 -51 101q-36 26 -89 44
q-93 32 -123 59q-62 53 -62 130q0 71 54 125q55 55 139 55q82 0 159 -43zM282 865l127 -137h-51l-114 88l-111 -88h-53l124 137h78z" />
    <glyph glyph-name="scircumflex" unicode="&#x15d;" horiz-adv-x="348" 
d="M303 420v-52q-65 46 -123 46q-42 0 -69.5 -22.5t-27.5 -53.5q0 -25 19 -44q29 -27 88 -46q45 -17 77 -38q49 -32 49 -95q0 -50 -40 -87q-38 -37 -106 -37q-67 0 -135 41v47q82 -43 140 -43q43 0 68 21.5t25 53.5q0 40 -36 61q-15 11 -36 20q-16 8 -52 21
q-106 40 -106 121q0 47 38 85q39 39 107 39q53 0 120 -38zM157 676h61l106 -164h-38l-98 109l-101 -109h-38z" />
    <glyph glyph-name="Scedilla" unicode="&#x15e;" horiz-adv-x="460" 
d="M248 -8l-9 -30q25 -4 43 -12.5t26.5 -17t13.5 -19t5.5 -15.5t0.5 -10q0 -38 -35 -62.5t-99 -24.5q-18 0 -68 5l6 38q42 -3 62 -3q86 0 86 44q0 22 -22.5 31t-70.5 10l19 66q-80 11 -152 59v62q55 -39 93 -55.5t80 -16.5q69 0 106 42q39 42 39 94q0 64 -51 101
q-36 26 -89 44q-93 32 -123 59q-62 53 -62 130q0 71 54 125q55 55 139 55q82 0 159 -43v-58q-53 30 -85 42t-69 12q-68 0 -106 -41t-38 -90q0 -62 49 -94q25 -15 46 -25l57 -21q71 -25 116 -63q58 -45 58 -131q0 -79 -53 -130q-52 -49 -126 -57z" />
    <glyph glyph-name="scedilla" unicode="&#x15f;" horiz-adv-x="348" 
d="M192 -8l-17 -34q22 -1 38.5 -8t24 -14.5t11.5 -18.5t4.5 -15t0.5 -9q0 -9 -1.5 -17t-11.5 -22.5t-27 -24t-52.5 -16t-84.5 -4.5l7 37q115 3 115 48q0 24 -28 30q-23 4 -51 4l31 64q-58 6 -116 40v47q82 -43 140 -43q43 0 68 21.5t25 53.5q0 40 -36 61q-15 11 -36 20
q-16 8 -52 21q-106 40 -106 121q0 47 38 85q39 39 107 39q53 0 120 -38v-52q-65 46 -123 46q-42 0 -69.5 -22.5t-27.5 -53.5q0 -25 19 -44q29 -27 88 -46q45 -17 77 -38q49 -32 49 -95q0 -45 -33.5 -81t-90.5 -42z" />
    <glyph glyph-name="Scaron" unicode="&#x160;" horiz-adv-x="460" 
d="M399 648v-58q-53 30 -85 42t-69 12q-68 0 -106 -41t-38 -90q0 -62 49 -94q25 -15 46 -25l57 -21q71 -25 116 -63q58 -45 58 -131q0 -85 -61 -137q-60 -51 -137 -51q-87 0 -175 60v62q55 -39 93 -55.5t80 -16.5q69 0 106 42q39 42 39 94q0 64 -51 101q-36 26 -89 44
q-93 32 -123 59q-62 53 -62 130q0 71 54 125q55 55 139 55q82 0 159 -43zM358 865h51l-127 -137h-78l-124 137h53l111 -88z" />
    <glyph glyph-name="scaron" unicode="&#x161;" horiz-adv-x="348" 
d="M303 420v-52q-65 46 -123 46q-42 0 -69.5 -22.5t-27.5 -53.5q0 -25 19 -44q29 -27 88 -46q45 -17 77 -38q49 -32 49 -95q0 -50 -40 -87q-38 -37 -106 -37q-67 0 -135 41v47q82 -43 140 -43q43 0 68 21.5t25 53.5q0 40 -36 61q-15 11 -36 20q-16 8 -52 21
q-106 40 -106 121q0 47 38 85q39 39 107 39q53 0 120 -38zM329 676l-106 -164h-61l-108 164h38l101 -111l98 111h38z" />
    <glyph glyph-name="Tcommaaccent" unicode="&#x162;" horiz-adv-x="573" 
d="M4 682h565v-44h-255v-638h-54v638h-256v44zM167 -189l7 36q20 -3 39 -3q92 0 92 44t-115 40l7 36q9 1 38 1q121 0 121 -73q0 -38 -34 -62t-100 -24q-25 0 -55 5z" />
    <glyph glyph-name="tcommaaccent" unicode="&#x163;" horiz-adv-x="302" 
d="M135 598h15v-149h126v-40h-126v-275q0 -51 9 -66q17 -29 59 -29q34 0 81 21v-46q-51 -23 -93 -23q-30 0 -56.5 15t-37.5 39q-10 21 -10 89v275h-121v40h121v107zM116 -170l5 32q26 -2 30 -2q69 0 69 40q0 26 -24 33q-14 4 -39 5l4 27q40 6 68.5 -12t28.5 -51
q0 -32 -25.5 -54.5t-73.5 -22.5q-21 0 -43 5z" />
    <glyph glyph-name="Tcaron" unicode="&#x164;" horiz-adv-x="573" 
d="M4 682h565v-44h-255v-638h-54v638h-256v44zM400 865h51l-127 -137h-78l-124 137h53l111 -88z" />
    <glyph glyph-name="tcaron" unicode="&#x165;" horiz-adv-x="406" 
d="M134 598h15v-149h126v-40h-126v-275q0 -51 9 -66q15 -29 59 -29q35 0 81 21v-46q-51 -23 -93 -23q-30 0 -56.5 15t-37.5 39q-10 21 -10 89v275h-121v40h121v107zM312 682h65v-58q0 -107 -65 -154v34q21 40 20 83h-20v95z" />
    <glyph glyph-name="Tbar" unicode="&#x166;" horiz-adv-x="573" 
d="M314 638v-275h230v-42h-230v-321h-54v321h-232v42h232v275h-256v44h565v-44h-255z" />
    <glyph glyph-name="tbar" unicode="&#x167;" horiz-adv-x="302" 
d="M150 409v-111h139v-41h-139v-123q0 -51 9 -66q17 -29 59 -29q34 0 81 21v-46q-51 -23 -93 -23q-30 0 -56.5 15t-37.5 39q-10 21 -10 89v123h-121v41h121v111h-121v40h121v107l33 42h15v-149h126v-40h-126z" />
    <glyph glyph-name="Utilde" unicode="&#x168;" horiz-adv-x="698" 
d="M582 682h52v-344q0 -82 -10 -129q-9 -47 -38 -95q-35 -56 -95.5 -89.5t-138.5 -33.5q-75 0 -140.5 31.5t-97.5 89.5q-33 57 -42 103q-8 50 -8 123v344h52v-354q0 -118 37 -180q62 -108 195 -108q64 0 118 28.5t78 77.5q38 74 38 182v354zM225 736h-41q-2 50 10 75
q9 20 29 32t43 12q40 0 118 -39q44 -22 60 -22q17 0 23 13t8 50h41q-1 -49 -10 -75q-20 -45 -66 -45t-120 37q-45 22 -62 22q-19 0 -25 -12.5t-8 -47.5z" />
    <glyph glyph-name="utilde" unicode="&#x169;" horiz-adv-x="490" 
d="M375 449h48v-449h-48v74q-66 -83 -153 -83q-42 0 -80 19.5t-56 51.5q-28 46 -28 134v253h48v-253q0 -75 18 -108q31 -55 103 -55q65 0 114 47q15 15 34 55v314zM114 548h-32q8 95 80 95q36 0 96 -25q53 -22 76 -22q39 0 45 47h30q1 -26 -7 -45t-18.5 -28.5t-24.5 -15
t-20.5 -6.5t-10.5 -1q-24 0 -83 22q-75 26 -89 26q-36 0 -42 -47z" />
    <glyph glyph-name="Umacron" unicode="&#x16a;" horiz-adv-x="698" 
d="M582 682h52v-344q0 -82 -10 -129q-9 -47 -38 -95q-35 -56 -95.5 -89.5t-138.5 -33.5q-75 0 -140.5 31.5t-97.5 89.5q-33 57 -42 103q-8 50 -8 123v344h52v-354q0 -118 37 -180q62 -108 195 -108q64 0 118 28.5t78 77.5q38 74 38 182v354zM190 821h319v-50h-319v50z" />
    <glyph glyph-name="umacron" unicode="&#x16b;" horiz-adv-x="490" 
d="M375 449h48v-449h-48v74q-66 -83 -153 -83q-42 0 -80 19.5t-56 51.5q-28 46 -28 134v253h48v-253q0 -75 18 -108q31 -55 103 -55q65 0 114 47q15 15 34 55v314zM112 623h267v-51h-267v51z" />
    <glyph glyph-name="Ubreve" unicode="&#x16c;" horiz-adv-x="698" 
d="M582 682h52v-344q0 -82 -10 -129q-9 -47 -38 -95q-35 -56 -95.5 -89.5t-138.5 -33.5q-75 0 -140.5 31.5t-97.5 89.5q-33 57 -42 103q-8 50 -8 123v344h52v-354q0 -118 37 -180q62 -108 195 -108q64 0 118 28.5t78 77.5q38 74 38 182v354zM184 841h50q47 -59 116 -59
q72 0 113 59h52q-13 -37 -37 -62q-52 -51 -128 -51q-80 0 -132 54q-20 21 -34 59z" />
    <glyph glyph-name="ubreve" unicode="&#x16d;" horiz-adv-x="490" 
d="M375 449h48v-449h-48v74q-66 -83 -153 -83q-42 0 -80 19.5t-56 51.5q-28 46 -28 134v253h48v-253q0 -75 18 -108q31 -55 103 -55q65 0 114 47q15 15 34 55v314zM110 647h40q31 -69 96 -69q29 0 51 15q6 4 10.5 7.5t8 6t6.5 6.5t5 5.5t5 6.5t3.5 6.5t4 7.5t4.5 8h38
q-43 -114 -135 -114q-89 0 -137 114z" />
    <glyph glyph-name="Uring" unicode="&#x16e;" horiz-adv-x="698" 
d="M582 682h52v-344q0 -82 -10 -129q-9 -47 -38 -95q-35 -56 -95.5 -89.5t-138.5 -33.5q-75 0 -140.5 31.5t-97.5 89.5q-33 57 -42 103q-8 50 -8 123v344h52v-354q0 -118 37 -180q62 -108 195 -108q64 0 118 28.5t78 77.5q38 74 38 182v354zM350 937q32 2 58 -17.5t37.5 -47
t6.5 -59.5t-29 -54q-21 -24 -53 -29.5t-60 6t-47.5 38t-17.5 59.5q0 43 30.5 73.5t74.5 30.5zM348 906q-30 0 -52 -21.5t-22 -51.5q0 -31 22 -52.5t52 -21.5q31 0 52.5 21.5t21.5 52.5q0 30 -21.5 51.5t-52.5 21.5z" />
    <glyph glyph-name="uring" unicode="&#x16f;" horiz-adv-x="490" 
d="M375 449h48v-449h-48v74q-66 -83 -153 -83q-42 0 -80 19.5t-56 51.5q-28 46 -28 134v253h48v-253q0 -75 18 -108q31 -55 103 -55q65 0 114 47q15 15 34 55v314zM332 592q0 -35 -25 -60.5t-61 -25.5t-61.5 25.5t-25.5 60.5q0 36 25.5 61.5t61.5 25.5t61 -25.5t25 -61.5z
M246 652q-25 0 -42 -17t-17 -42q0 -24 17 -41.5t42 -17.5q24 0 41 17.5t17 41.5q0 25 -17 42t-41 17z" />
    <glyph glyph-name="Uhungarumlaut" unicode="&#x170;" horiz-adv-x="698" 
d="M582 682h52v-344q0 -82 -10 -129q-9 -47 -38 -95q-35 -56 -95.5 -89.5t-138.5 -33.5q-75 0 -140.5 31.5t-97.5 89.5q-33 57 -42 103q-8 50 -8 123v344h52v-354q0 -118 37 -180q62 -108 195 -108q64 0 118 28.5t78 77.5q38 74 38 182v354zM318 856h105l-147 -128h-37z
M467 856h104l-146 -128h-38z" />
    <glyph glyph-name="uhungarumlaut" unicode="&#x171;" horiz-adv-x="490" 
d="M375 449h48v-449h-48v74q-66 -83 -153 -83q-42 0 -80 19.5t-56 51.5q-28 46 -28 134v253h48v-253q0 -75 18 -108q31 -55 103 -55q65 0 114 47q15 15 34 55v314zM268 677h89l-157 -155h-31zM402 677h90l-160 -155h-30z" />
    <glyph glyph-name="Uogonek" unicode="&#x172;" horiz-adv-x="698" 
d="M540 -141v-42q-29 -6 -46 -6q-47 0 -75.5 26.5t-28.5 65.5q0 34 20 59t68 57q-60 -28 -126 -28q-70 0 -138 30q-66 31 -100 91q-33 59 -42 104q-8 50 -8 122v344h52v-354q0 -118 37 -180q62 -108 195 -108q64 0 118 28.5t78 77.5q38 74 38 182v354h52v-344
q0 -109 -25 -181q-24 -71 -113 -156q-49 -46 -49 -81q-1 -4 0 -10.5t6 -16.5t14 -18.5t28 -13.5t45 -2z" />
    <glyph glyph-name="uogonek" unicode="&#x173;" horiz-adv-x="490" 
d="M454 -127v-38q-33 -5 -41 -5q-43 0 -68 23.5t-25 57.5q0 55 55 89v74q-66 -83 -153 -83q-42 0 -80 19.5t-56 51.5q-28 46 -28 134v253h48v-253q0 -75 18 -108q31 -55 103 -55q65 0 114 47q15 15 34 55v314h48v-449h-10q-42 -38 -42 -72q0 -5 0.5 -10t5 -14.5t12.5 -16.5
t25 -11.5t40 -2.5z" />
    <glyph glyph-name="Wcircumflex" unicode="&#x174;" horiz-adv-x="1031" 
d="M979 682h53l-272 -687h-16l-229 574l-227 -574h-16l-273 687h54l226 -566l228 566h17l227 -566zM553 865l127 -137h-51l-114 88l-111 -88h-53l124 137h78z" />
    <glyph glyph-name="wcircumflex" unicode="&#x175;" horiz-adv-x="708" 
d="M660 449h48l-194 -458h-23l-138 365l-139 -365h-22l-192 458h47l153 -366l141 366h26l137 -366zM325 676h61l106 -164h-38l-98 109l-101 -109h-38z" />
    <glyph glyph-name="Ycircumflex" unicode="&#x176;" horiz-adv-x="584" 
d="M519 682h65l-267 -316v-366h-53v366l-264 316h64l227 -270zM331 865l127 -137h-51l-114 88l-111 -88h-53l124 137h78z" />
    <glyph glyph-name="ycircumflex" unicode="&#x177;" horiz-adv-x="411" 
d="M368 449h49l-336 -679h-49l157 317l-189 362h49l164 -314zM176 676h61l106 -164h-38l-98 109l-101 -109h-38z" />
    <glyph glyph-name="Ydieresis" unicode="&#x178;" horiz-adv-x="584" 
d="M519 682h65l-267 -316v-366h-53v366l-264 316h64l227 -270zM166 828q13 13 31 13t31 -13t13 -31t-13 -31q-13 -12 -31 -12t-31 12q-12 13 -12 31t12 31zM429 796q0 -17 -12.5 -30t-30.5 -13t-30.5 12.5t-12.5 30.5t12.5 31t30.5 13t30.5 -13t12.5 -31z" />
    <glyph glyph-name="Zacute" unicode="&#x179;" horiz-adv-x="635" 
d="M32 682h575v-18l-511 -621h515v-43h-602v15l512 624h-489v43zM237 728l122 128h122l-195 -128h-49z" />
    <glyph glyph-name="zacute" unicode="&#x17a;" horiz-adv-x="399" 
d="M29 449h356v-18l-295 -386h295v-45h-375v15l297 388h-278v46zM286 677h81l-152 -156h-33z" />
    <glyph glyph-name="Zdotaccent" unicode="&#x17b;" horiz-adv-x="635" 
d="M32 682h575v-18l-511 -621h515v-43h-602v15l512 624h-489v43zM318 839q17 0 30 -12.5t13 -30.5q0 -28 -26.5 -39t-47.5 8q-19 21 -8 47.5t39 26.5z" />
    <glyph glyph-name="zdotaccent" unicode="&#x17c;" horiz-adv-x="399" 
d="M29 449h356v-18l-295 -386h295v-45h-375v15l297 388h-278v46zM199 636q17 0 30 -12.5t13 -30.5t-12.5 -31t-30.5 -13t-31 13t-13 31t13 30.5t31 12.5z" />
    <glyph glyph-name="Zcaron" unicode="&#x17d;" horiz-adv-x="635" 
d="M32 682h575v-18l-511 -621h515v-43h-602v15l512 624h-489v43zM431 865h51l-127 -137h-78l-124 137h53l111 -88z" />
    <glyph glyph-name="zcaron" unicode="&#x17e;" horiz-adv-x="399" 
d="M29 449h356v-18l-295 -386h295v-45h-375v15l297 388h-278v46zM336 676l-106 -164h-61l-108 164h38l101 -111l98 111h38z" />
    <glyph glyph-name="florin" unicode="&#x192;" horiz-adv-x="552" 
d="M342 571l-13 -53h110l-11 -44h-108l-121 -557q-14 -66 -43 -96.5t-91 -30.5q-37 0 -88 15l11 49q44 -11 71 -11q60 0 73 49l24 108l103 474h-83l10 44h82l12 53l15 60q15 49 38 67q36 30 87 30q32 0 90 -16l-10 -48q-40 10 -76 10q-42 0 -58 -30q-8 -14 -13 -30
q-2 -6 -11 -43z" />
    <glyph glyph-name="AEacute" unicode="&#x1fc;" horiz-adv-x="865" 
d="M412 682h406v-43h-320v-273h313v-44h-313v-278h329v-44h-383v322h-200l-200 -322h-58zM273 366h171v280zM552 728l122 128h122l-195 -128h-49z" />
    <glyph glyph-name="aeacute" unicode="&#x1fd;" horiz-adv-x="661" 
d="M624 243h-290v-37q0 -69 13 -94q35 -74 115 -74t162 59v-55q-82 -51 -167 -51q-84 0 -142 70q-95 -70 -169 -70q-55 0 -87 35q-32 37 -32 81q0 74 76 113q42 20 79 33q28 9 105 29q0 48 -5 73q-15 60 -84 60q-68 0 -150 -57v50q73 50 157 50q36 0 64 -14q17 -9 28 -19
t14 -14t14 -22q53 69 126 69q42 3 85.5 -23t66.5 -81q18 -45 21 -111zM334 282h237q-5 44 -21 74q-33 57 -100 57q-49 0 -82 -36.5t-34 -94.5zM287 89v154q-58 -16 -75 -22q-22 -6 -64 -25q-73 -34 -73 -90q0 -31 23.5 -52.5t59.5 -21.5q54 0 129 57zM415 677h81l-152 -156
h-33z" />
    <glyph glyph-name="Oslashacute" unicode="&#x1fe;" horiz-adv-x="801" 
d="M686 687l37 -25l-64 -71q104 -109 104 -250q0 -150 -106 -250t-255 -100q-117 0 -221 67l-62 -69l-38 29l65 70q-40 40 -61 76q-47 86 -47 176q0 134 95 240q46 51 117 81t153 30q121 0 219 -70zM622 549l-405 -451q83 -59 182 -59q135 0 220 90q86 92 86 212
q0 119 -83 208zM182 129l405 451q-80 62 -184 62q-133 0 -219 -90q-86 -91 -86 -213q0 -79 37 -149q15 -29 47 -61zM320 728l122 128h122l-195 -128h-49z" />
    <glyph glyph-name="oslashacute" unicode="&#x1ff;" horiz-adv-x="530" 
d="M455 474l31 -25l-52 -62q60 -61 60 -161q0 -103 -66 -169t-163 -66q-74 0 -139 44l-57 -65l-33 30l59 64q-58 71 -58 161q0 94 60 163q60 70 168 70q76 0 137 -43zM128 102l244 278q-56 35 -108 35q-70 0 -123 -50q-52 -49 -52 -139q0 -74 39 -124zM402 350l-244 -279
q47 -34 106 -34q78 0 128 54q51 55 51 132q0 74 -41 127zM353 677h81l-152 -156h-33z" />
    <glyph glyph-name="Scommaaccent" unicode="&#x218;" horiz-adv-x="460" 
d="M399 648v-58q-53 30 -85 42t-69 12q-68 0 -106 -41t-38 -90q0 -62 49 -94q25 -15 46 -25l57 -21q71 -25 116 -63q58 -45 58 -131q0 -85 -61 -137q-60 -51 -137 -51q-87 0 -175 60v62q55 -39 93 -55.5t80 -16.5q69 0 106 42q39 42 39 94q0 64 -51 101q-36 26 -89 44
q-93 32 -123 59q-62 53 -62 130q0 71 54 125q55 55 139 55q82 0 159 -43zM115 -189l7 36q20 -3 39 -3q92 0 92 44t-115 40l7 36q9 1 38 1q121 0 121 -73q0 -38 -34 -62t-100 -24q-25 0 -55 5z" />
    <glyph glyph-name="scommaaccent" unicode="&#x219;" horiz-adv-x="348" 
d="M303 420v-52q-65 46 -123 46q-42 0 -69.5 -22.5t-27.5 -53.5q0 -25 19 -44q29 -27 88 -46q45 -17 77 -38q49 -32 49 -95q0 -50 -40 -87q-38 -37 -106 -37q-67 0 -135 41v47q82 -43 140 -43q43 0 68 21.5t25 53.5q0 40 -36 61q-15 11 -36 20q-16 8 -52 21
q-106 40 -106 121q0 47 38 85q39 39 107 39q53 0 120 -38zM95 -170l5 32q26 -2 30 -2q69 0 69 40q0 26 -24 33q-14 4 -39 5l4 27q40 6 68.5 -12t28.5 -51q0 -32 -25.5 -54.5t-73.5 -22.5q-21 0 -43 5z" />
    <glyph glyph-name="uni021A" unicode="&#x21a;" horiz-adv-x="573" 
d="M4 682h565v-44h-255v-638h-54v638h-256v44zM167 -189l7 36q20 -3 39 -3q92 0 92 44t-115 40l7 36q9 1 38 1q121 0 121 -73q0 -38 -34 -62t-100 -24q-25 0 -55 5z" />
    <glyph glyph-name="uni021B" unicode="&#x21b;" horiz-adv-x="302" 
d="M135 598h15v-149h126v-40h-126v-275q0 -51 9 -66q17 -29 59 -29q34 0 81 21v-46q-51 -23 -93 -23q-30 0 -56.5 15t-37.5 39q-10 21 -10 89v275h-121v40h121v107zM116 -170l5 32q26 -2 30 -2q69 0 69 40q0 26 -24 33q-14 4 -39 5l4 27q40 6 68.5 -12t28.5 -51
q0 -32 -25.5 -54.5t-73.5 -22.5q-21 0 -43 5z" />
    <glyph glyph-name="circumflex" unicode="&#x2c6;" horiz-adv-x="333" 
d="M137 676h61l106 -164h-38l-98 109l-101 -109h-38z" />
    <glyph glyph-name="caron" unicode="&#x2c7;" horiz-adv-x="333" 
d="M304 676l-106 -164h-61l-108 164h38l101 -111l98 111h38z" />
    <glyph glyph-name="uni02C9" unicode="&#x2c9;" horiz-adv-x="333" 
d="M33 623h267v-51h-267v51z" />
    <glyph glyph-name="breve" unicode="&#x2d8;" horiz-adv-x="333" 
d="M31 647h40q31 -69 96 -69q29 0 51 15q6 4 10.5 7.5t8 6t6.5 6.5t5 5.5t5 6.5t3.5 6.5t4 7.5t4.5 8h38q-43 -114 -135 -114q-89 0 -137 114z" />
    <glyph glyph-name="dotaccent" unicode="&#x2d9;" horiz-adv-x="333" 
d="M167 636q17 0 30 -12.5t13 -30.5t-12.5 -31t-30.5 -13t-31 13t-13 31t13 30.5t31 12.5z" />
    <glyph glyph-name="ring" unicode="&#x2da;" horiz-adv-x="333" 
d="M167 679q35 0 60.5 -25.5t25.5 -61.5q0 -35 -25 -60.5t-61 -25.5t-61.5 25.5t-25.5 60.5q0 36 25.5 61.5t61.5 25.5zM167 652q-25 0 -42 -17t-17 -42q0 -24 17 -41.5t42 -17.5q24 0 41 17.5t17 41.5q0 25 -17 42t-41 17z" />
    <glyph glyph-name="ogonek" unicode="&#x2db;" horiz-adv-x="333" 
d="M232 -127v-38q-33 -5 -41 -5q-43 0 -68 23.5t-25 58.5q0 61 73 98h31q-33 -32 -43 -47t-10 -35q0 -5 0.5 -10t5 -14.5t12.5 -16.5t25 -11.5t40 -2.5z" />
    <glyph glyph-name="tilde" unicode="&#x2dc;" horiz-adv-x="333" 
d="M35 548h-32q8 95 80 95q36 0 96 -25q53 -22 76 -22q39 0 45 47h30q1 -26 -7 -45t-18.5 -28.5t-24.5 -15t-20.5 -6.5t-10.5 -1q-24 0 -83 22q-75 26 -89 26q-36 0 -42 -47z" />
    <glyph glyph-name="hungarumlaut" unicode="&#x2dd;" horiz-adv-x="333" 
d="M169 677h89l-157 -155h-31zM303 677h90l-160 -155h-30z" />
    <glyph glyph-name="uni03A9" unicode="&#x3a9;" horiz-adv-x="722" 
d="M481 44h185v-44h-246v46q106 78 154 156t48 176q0 118 -74 190q-73 73 -187 73q-36 0 -71 -8t-70 -28t-61 -49t-42.5 -75t-16.5 -103q0 -99 48 -177.5t153 -154.5v-46h-245v44h184q-112 82 -156 160q-43 76 -43 175q0 138 91 225t229 87q137 0 228 -85q92 -86 92 -227
q0 -98 -43 -175q-45 -79 -157 -160z" />
    <glyph glyph-name="uni03BC" unicode="&#x3bc;" horiz-adv-x="513" 
d="M379 200v249h48v-378q0 -29 17 -29q19 0 57 20v-41q-14 -9 -46 -20q-27 -10 -42 -10q-34 0 -34 46v30q-46 -76 -123 -76q-80 0 -145 86v-307h-49v679h49v-311q55 -102 140 -102q128 0 128 164z" />
    <glyph glyph-name="pi" unicode="&#x3c0;" horiz-adv-x="573" 
d="M139 449h427v-42h-90v-407h-49v407h-267v-407h-49v407q-63 0 -97 -18v41q34 19 125 19z" />
    <glyph glyph-name="uni0400" unicode="&#x400;" horiz-adv-x="502" 
d="M80 682h372v-44h-319v-272h311v-44h-311v-279h327v-43h-380v682zM97 856h122l122 -128h-49z" />
    <glyph glyph-name="afii10023" unicode="&#x401;" horiz-adv-x="490" 
d="M80 0v682h372v-44h-319v-273h311v-44h-311v-277h327v-44h-380zM324 841q13 13 31 13t31 -13t13 -31t-13 -31t-31 -13t-31 13t-13 31t13 31zM147 841q13 13 31 13t31 -13t13 -31t-13 -31t-31 -13t-31 13t-13 31t13 31z" />
    <glyph glyph-name="afii10051" unicode="&#x402;" horiz-adv-x="670" 
d="M284 0h-53v638h-226v44h535v-44h-256v-240q18 24 59 42t78 18q95 0 150 -63q56 -62 56 -158q0 -99 -57 -173q-55 -73 -152 -73q-38 0 -60 7v52q19 -10 56 -10q71 0 113.5 55.5t42.5 145.5q0 76 -42.5 122t-113.5 46q-37 0 -72.5 -18.5t-57.5 -52.5v-338z" />
    <glyph glyph-name="afii10052" unicode="&#x403;" horiz-adv-x="457" 
d="M78 0v682h371v-44h-318v-638h-53zM213 750l104 156h81l-152 -156h-33z" />
    <glyph glyph-name="afii10053" unicode="&#x404;" horiz-adv-x="677" 
d="M107 358h468v-44h-468q9 -122 93 -198q83 -76 211 -76q110 0 243 70v-55q-119 -64 -242 -64q-156 0 -260 99q-103 100 -103 250q0 152 106 251q106 100 252 100q115 0 240 -57v-58q-125 66 -243 66q-123 0 -207 -81q-82 -79 -90 -203z" />
    <glyph glyph-name="afii10054" unicode="&#x405;" horiz-adv-x="469" 
d="M55 51v62q57 -41 94.5 -57t77.5 -16q61 0 102 39q42 39 42 97q0 96 -115 137q-83 32 -95 37q-52 20 -83.5 60.5t-31.5 99.5q0 76 57 128q59 53 139 53q79 0 158 -43v-58q-90 52 -153 52q-62 0 -103 -37q-41 -38 -41 -93q0 -42 24 -71q11 -14 28.5 -25.5t30 -17t40 -16.5
t39.5 -16q42 -16 79 -36q38 -19 61 -58.5t23 -93.5q0 -79 -58 -133q-57 -54 -140 -54q-85 0 -175 60z" />
    <glyph glyph-name="afii10055" unicode="&#x406;" horiz-adv-x="208" 
d="M78 0v682h53v-682h-53z" />
    <glyph glyph-name="afii10056" unicode="&#x407;" horiz-adv-x="208" 
d="M78 0v682h53v-682h-53zM162 841q13 13 31 13t31 -13t13 -31t-13 -31t-31 -13t-31 13t-13 31t13 31zM-15 841q13 13 31 13t31 -13t13 -31t-13 -31t-31 -13t-31 13t-13 31t13 31z" />
    <glyph glyph-name="afii10057" unicode="&#x408;" horiz-adv-x="208" 
d="M82 -14v696h53v-682q0 -112 -41 -153q-31 -31 -59 -40q-26 -9 -75 -4l-5 50q60 -14 93.5 21t33.5 112z" />
    <glyph glyph-name="afii10058" unicode="&#x409;" horiz-adv-x="866" 
d="M3 0l281 686h29l125 -300h163q112 0 170.5 -50.5t58.5 -139.5q0 -86 -63 -141q-61 -55 -169 -55h-55l-246 598l-239 -598h-55zM456 342l119 -297l16 -1q53 -3 90.5 10t56.5 37.5t27 50t8 54.5q0 61 -41 104q-40 42 -141 42h-135z" />
    <glyph glyph-name="afii10059" unicode="&#x40a;" horiz-adv-x="1051" 
d="M787 0h-200v323h-455v-323h-53v682h53v-315h455v315h53v-315h151q107 0 165.5 -45.5t58.5 -128.5q0 -88 -61 -140.5t-167 -52.5zM781 323h-141v-279h141q177 0 177 147q0 60 -45 96t-132 36z" />
    <glyph glyph-name="afii10060" unicode="&#x40b;" horiz-adv-x="734" 
d="M540 638h-256v-196q73 16 142 16q266 0 266 -262v-196h-53v201q0 105 -52 156.5t-159 51.5q-69 0 -144 -14v-395h-53v638h-226v44h535v-44z" />
    <glyph glyph-name="afii10061" unicode="&#x40c;" horiz-adv-x="547" 
d="M79 0v682h53v-311h27q52 0 83.5 22t56.5 76l63 135q21 45 46 61.5t68 16.5h24v-44h-25q-31 0 -43.5 -10.5t-30.5 -48.5l-53 -116q-17 -36 -44 -73q-26 -34 -45 -42q34 -6 61.5 -35.5t70.5 -97.5l134 -215h-67l-117 200q-40 68 -78 97.5t-85 29.5h-46v-327h-53zM220 728
l104 156h81l-152 -156h-33z" />
    <glyph glyph-name="uni040D" unicode="&#x40d;" horiz-adv-x="719" 
d="M132 88l474 594h34v-682h-53v588l-470 -588h-38v682h53v-594zM201 856h122l122 -128h-49z" />
    <glyph glyph-name="afii10062" unicode="&#x40e;" horiz-adv-x="594" 
d="M56 682l252 -615l230 615h53l-241 -634q-31 -83 -64.5 -119.5t-79.5 -36.5q-66 0 -89 26v57q23 -36 88 -36q28 0 50 20.5t26 54.5l-278 668h53zM172 867h41q31 -67 96 -67q61 0 97 67h39q-43 -114 -135 -114q-48 0 -85 34q-30 29 -53 80z" />
    <glyph glyph-name="afii10145" unicode="&#x40f;" horiz-adv-x="720" 
d="M640 0h-254v-118h-53v118h-254v682h53v-638h455v638h53v-682z" />
    <glyph glyph-name="afii10017" unicode="&#x410;" horiz-adv-x="667" 
d="M4 0l315 686h29l315 -686h-55l-108 236h-333l-108 -236h-55zM333 600l-146 -320h293z" />
    <glyph glyph-name="afii10018" unicode="&#x411;" horiz-adv-x="554" 
d="M80 682h53v-1h349v-44h-349v-251h151q113 0 173.5 -50.5t60.5 -139.5q0 -85 -65 -141q-64 -55 -173 -55h-200v682zM274 342h-141v-298h141q53 0 91.5 14t58 37t28.5 48t9 53q0 61 -43 103q-43 43 -144 43z" />
    <glyph glyph-name="afii10019" unicode="&#x412;" horiz-adv-x="545" 
d="M280 0h-200v682h142q66 0 112.5 -16t70.5 -43t34 -55.5t10 -61.5q0 -98 -98 -152q158 -33 158 -173q0 -84 -62 -132.5t-167 -48.5zM204 638h-71v-272h73q186 0 186 136t-188 136zM251 322h-118v-278h141q96 0 137 41t41 97q0 140 -201 140z" />
    <glyph glyph-name="afii10020" unicode="&#x413;" horiz-adv-x="454" 
d="M78 0v682h371v-44h-318v-638h-53z" />
    <glyph glyph-name="afii10021" unicode="&#x414;" horiz-adv-x="679" 
d="M49 44l276 642h29l276 -642h39v-196h-53v152h-553v-152h-53v196h39zM104 44h471l-237 554z" />
    <glyph glyph-name="afii10022" unicode="&#x415;" horiz-adv-x="490" 
d="M80 0v682h372v-44h-319v-273h311v-44h-311v-277h327v-44h-380z" />
    <glyph glyph-name="afii10024" unicode="&#x416;" horiz-adv-x="857" 
d="M388 371h14v311h53v-311h14q52 0 83.5 22t56.5 76l63 135q21 45 46 61.5t68 16.5h24v-44h-25q-31 0 -43.5 -10.5t-30.5 -48.5l-53 -116q-16 -37 -45 -72q-27 -34 -49 -43q40 -11 68 -39.5t69 -93.5l134 -215h-67l-117 200q-75 127 -169 127h-27v-327h-53v327h-27
q-94 0 -169 -127l-117 -200h-67l134 215q41 65 69 93.5t68 39.5q-22 9 -50 43q-28 36 -44 72l-53 116q-18 38 -30.5 48.5t-43.5 10.5h-25v44h24q43 0 68 -16.5t46 -61.5l63 -135q25 -54 56.5 -76t83.5 -22z" />
    <glyph glyph-name="afii10025" unicode="&#x417;" 
d="M225 335h-116v48h131q71 0 115 41t44 91q0 63 -45 95.5t-129 32.5q-107 0 -186 -45v49q73 44 200 44q92 0 154 -43q63 -44 63 -122q0 -48 -34 -97q-33 -49 -83 -66q50 -17 88 -62q38 -44 38 -114q0 -54 -23 -94.5t-60.5 -61.5t-77.5 -30.5t-82 -9.5q-91 0 -193 35v53
q74 -40 187 -40q77 0 135 38q57 38 57 110q0 68 -49 108t-134 40z" />
    <glyph glyph-name="afii10026" unicode="&#x418;" horiz-adv-x="719" 
d="M132 88l474 594h34v-682h-53v588l-470 -588h-38v682h53v-594z" />
    <glyph glyph-name="afii10027" unicode="&#x419;" horiz-adv-x="719" 
d="M132 88l474 594h34v-682h-53v588l-470 -588h-38v682h53v-594zM222 867h41q31 -67 96 -67q61 0 97 67h39q-43 -114 -135 -114q-48 0 -85 34q-30 29 -53 80z" />
    <glyph glyph-name="afii10028" unicode="&#x41a;" horiz-adv-x="547" 
d="M79 0v682h53v-311h27q52 0 83.5 22t56.5 76l63 135q21 45 46 61.5t68 16.5h24v-44h-25q-31 0 -43.5 -10.5t-30.5 -48.5l-53 -116q-17 -36 -44 -73q-26 -34 -45 -42q34 -6 61.5 -35.5t70.5 -97.5l134 -215h-67l-117 200q-40 68 -78 97.5t-85 29.5h-46v-327h-53z" />
    <glyph glyph-name="afii10029" unicode="&#x41b;" horiz-adv-x="667" 
d="M4 0l315 686h29l315 -686h-55l-276 598l-273 -598h-55z" />
    <glyph glyph-name="afii10030" unicode="&#x41c;" horiz-adv-x="781" 
d="M77 682h53l260 -317l260 317h53v-682h-53v605h-2l-258 -319l-258 319h-2v-605h-53v682z" />
    <glyph glyph-name="afii10031" unicode="&#x41d;" horiz-adv-x="719" 
d="M587 367v315h53v-682h-53v323h-455v-323h-53v682h53v-315h455z" />
    <glyph glyph-name="afii10032" unicode="&#x41e;" horiz-adv-x="823" 
d="M411 -9q-150 0 -256 101q-104 102 -104 249t104 248q105 102 256 102q152 0 257 -102q105 -101 105 -248t-105 -249q-106 -101 -257 -101zM628 127q88 87 88 214t-88 214q-87 87 -215 87t-217 -87q-88 -87 -88 -214t88 -214q89 -87 217 -87t215 87z" />
    <glyph glyph-name="afii10033" unicode="&#x41f;" horiz-adv-x="719" 
d="M79 0v682h561v-682h-53v638h-455v-638h-53z" />
    <glyph glyph-name="afii10034" unicode="&#x420;" horiz-adv-x="510" 
d="M131 0h-53v682h188q110 0 166.5 -48.5t56.5 -131.5q1 -77 -53 -130t-175 -53h-130v-319zM264 638h-133v-275h127q87 0 130.5 36.5t43.5 101.5q0 62 -43 99.5t-125 37.5z" />
    <glyph glyph-name="afii10035" unicode="&#x421;" horiz-adv-x="677" 
d="M654 110v-55q-119 -64 -242 -64q-156 0 -260 99q-103 100 -103 250q0 152 106 251q106 100 252 100q115 0 240 -57v-58q-125 66 -243 66q-127 0 -213 -86q-85 -85 -85 -216q0 -132 85 -216t220 -84q110 0 243 70z" />
    <glyph glyph-name="afii10036" unicode="&#x422;" horiz-adv-x="573" 
d="M4 638v44h565v-44h-256v-638h-53v638h-256z" />
    <glyph glyph-name="afii10037" unicode="&#x423;" horiz-adv-x="594" 
d="M56 682l252 -615l230 615h53l-241 -634q-31 -83 -64.5 -119.5t-79.5 -36.5q-66 0 -89 26v57q23 -36 88 -36q28 0 50 20.5t26 54.5l-278 668h53z" />
    <glyph glyph-name="afii10038" unicode="&#x424;" horiz-adv-x="766" 
d="M360 625v66h49v-66q147 0 241 -74q94 -73 94 -210q0 -135 -93 -208q-93 -72 -242 -72v-70h-49v70q-150 0 -244 72t-94 208q0 137 94 210q95 74 244 74zM409 578v-470q125 0 201 58q77 59 77 175t-77 176q-76 61 -201 61zM360 108v470q-126 0 -203 -61q-78 -60 -78 -176
t77 -175q77 -58 204 -58z" />
    <glyph glyph-name="afii10039" unicode="&#x425;" horiz-adv-x="688" 
d="M16 682h68l260 -294l259 294h68l-293 -333l310 -349h-68l-276 312l-276 -312h-68l309 349z" />
    <glyph glyph-name="afii10040" unicode="&#x426;" horiz-adv-x="727" 
d="M587 44v638h53v-638h77v-162h-53v118h-585v682h53v-638h455z" />
    <glyph glyph-name="afii10041" unicode="&#x427;" horiz-adv-x="582" 
d="M450 330v352h53v-682h-53v283q-73 -16 -142 -16q-266 0 -266 263v152h53v-157q0 -209 211 -209q69 0 144 14z" />
    <glyph glyph-name="afii10042" unicode="&#x428;" horiz-adv-x="957" 
d="M132 682v-638h320v638h53v-638h320v638h53v-682h-799v682h53z" />
    <glyph glyph-name="afii10043" unicode="&#x429;" horiz-adv-x="965" 
d="M132 682v-638h320v638h53v-638h320v638h53v-638h77v-162h-53v118h-823v682h53z" />
    <glyph glyph-name="afii10044" unicode="&#x42a;" horiz-adv-x="624" 
d="M350 0h-200v638h-145v44h198v-296h151q113 0 173.5 -50.5t60.5 -139.5q0 -85 -65 -141q-64 -55 -173 -55zM344 342h-141v-298h141q53 0 91.5 14t58 37t28.5 48t9 53q0 61 -43 103q-43 43 -144 43z" />
    <glyph glyph-name="afii10045" unicode="&#x42b;" horiz-adv-x="772" 
d="M280 0h-200v682h53v-296h151q113 0 173.5 -50.5t60.5 -139.5q0 -85 -65 -141q-64 -55 -173 -55zM274 342h-141v-298h141q53 0 91.5 14t58 37t28.5 48t9 53q0 61 -43 103q-43 43 -144 43zM639 0v682h53v-682h-53z" />
    <glyph glyph-name="afii10046" unicode="&#x42c;" horiz-adv-x="554" 
d="M280 0h-200v682h53v-296h151q113 0 173.5 -50.5t60.5 -139.5q0 -85 -65 -141q-64 -55 -173 -55zM274 342h-141v-298h141q53 0 91.5 14t58 37t28.5 48t9 53q0 61 -43 103q-43 43 -144 43z" />
    <glyph glyph-name="afii10047" unicode="&#x42d;" horiz-adv-x="677" 
d="M564 314h-437v44h437q-8 124 -91 203q-82 81 -206 81q-119 0 -243 -66v58q124 57 240 57q145 0 251 -100q107 -99 107 -251q0 -149 -104 -250q-104 -99 -259 -99q-123 0 -242 64v55q133 -70 243 -70q128 0 211 76q84 76 93 198z" />
    <glyph glyph-name="afii10048" unicode="&#x42e;" horiz-adv-x="1001" 
d="M229 318h-97v-318h-53v682h53v-320h97q7 139 110 234q104 95 249 95q152 0 257 -102q105 -101 105 -248t-105 -249q-106 -101 -257 -101q-145 0 -248 94q-102 95 -111 233zM805 127q88 87 88 214t-88 214q-87 87 -215 87t-217 -87q-88 -87 -88 -214t88 -214
q89 -87 217 -87t215 87z" />
    <glyph glyph-name="afii10049" unicode="&#x42f;" horiz-adv-x="595" 
d="M341 682h175v-682h-53v301h-83q-73 0 -111 -19q-39 -20 -88 -95l-119 -187h-62l146 220q50 77 103 92q-67 12 -107 64q-41 53 -41 115q0 76 61 133q61 58 179 58zM323 345h140v293h-111q-90 0 -142 -43t-52 -104q0 -67 43 -106.5t122 -39.5z" />
    <glyph glyph-name="afii10065" unicode="&#x430;" horiz-adv-x="427" 
d="M298 269v57q0 92 -100 92q-61 0 -137 -57v49q78 48 145 48q34 0 62 -9q32 -10 55 -38.5t23 -69.5v-280q0 -23 11 -23q14 0 64 40v-40l-8 -6q-55 -41 -83 -41q-16 0 -22.5 11.5t-9.5 44.5q-73 -56 -141 -56q-51 0 -86 33q-35 35 -35 81q0 55 39 92q68 65 223 72zM298 89
v140q-87 4 -152 -31q-62 -35 -62 -93q0 -32 25.5 -53t63.5 -21q61 0 125 58z" />
    <glyph glyph-name="afii10066" unicode="&#x431;" horiz-adv-x="521" 
d="M42 244q0 213 80 314q79 100 250 121l95 12l-8 -46l-101 -12q-125 -15 -187.5 -82t-75.5 -187q63 94 166 94q97 0 157 -66q61 -65 61 -168q0 -102 -61 -167q-60 -66 -157 -66q-99 0 -159 68q-60 67 -60 185zM261 411q-75 0 -122 -53q-46 -52 -46 -134t46 -134t122 -52
q75 0 121 52t46 134t-46 134q-47 53 -121 53z" />
    <glyph glyph-name="afii10067" unicode="&#x432;" horiz-adv-x="424" 
d="M234 0h-172v449h151q72 0 113 -31.5t41 -78.5q0 -36 -22 -66.5t-58 -41.5q49 -6 76.5 -36t27.5 -76q0 -54 -43.5 -86.5t-113.5 -32.5zM196 410h-86v-163h93q53 0 83 24t30 59q0 38 -32.5 59t-87.5 21zM220 208h-110v-169h122q55 0 81.5 25t26.5 66q0 39 -32.5 58.5
t-87.5 19.5z" />
    <glyph glyph-name="afii10068" unicode="&#x433;" horiz-adv-x="357" 
d="M70 0v449h280v-44h-232v-405h-48z" />
    <glyph glyph-name="afii10069" unicode="&#x434;" horiz-adv-x="484" 
d="M262 458l177 -419h35v-157h-44v118h-376v-118h-44v157h35l187 419h30zM94 39h297l-146 339z" />
    <glyph glyph-name="afii10070" unicode="&#x435;" horiz-adv-x="479" 
d="M437 105v-54q-78 -60 -173 -60q-98 0 -161 67q-63 68 -63 172q0 99 58 163q59 65 148 65q80 0 139 -56q60 -55 60 -161h-354q-1 -5 -1 -23q0 -75 53 -128q53 -52 127 -52q85 0 167 67zM97 280h291q-26 131 -142 131q-56 0 -96 -35t-53 -96z" />
    <glyph glyph-name="afii10072" unicode="&#x436;" horiz-adv-x="620" 
d="M274 254h14v195h44v-195h14q66 0 94 70l22 56q28 69 99 69h19v-44h-19q-23 0 -35.5 -9.5t-22.5 -33.5l-21 -50q-12 -28 -32 -51t-37 -27q29 -10 51.5 -32.5t53.5 -73.5l77 -128h-53l-78 130q-28 46 -57.5 65.5t-74.5 19.5v-215h-44v215q-45 0 -74.5 -19.5t-57.5 -65.5
l-78 -130h-53l77 128q31 51 53.5 73.5t51.5 32.5q-17 4 -37 27t-32 51l-21 50q-10 24 -22.5 33.5t-35.5 9.5h-19v44h19q71 0 99 -69l22 -56q28 -70 94 -70z" />
    <glyph glyph-name="afii10073" unicode="&#x437;" horiz-adv-x="396" 
d="M165 216h-59v39h76q56 0 90.5 25t34.5 60q0 79 -124 79q-69 0 -143 -38v41q72 36 154 36q69 0 116 -28q48 -29 48 -80q0 -35 -24.5 -66.5t-60.5 -43.5q31 -9 61 -39q31 -30 31 -80q0 -67 -57 -98q-56 -32 -123 -32q-86 0 -153 26v43q63 -30 147 -30q58 0 96.5 25.5
t38.5 71.5q0 89 -149 89z" />
    <glyph glyph-name="afii10074" unicode="&#x438;" horiz-adv-x="498" 
d="M436 0h-48v366l-299 -370h-27v453h48v-367l299 367h27v-449z" />
    <glyph glyph-name="afii10075" unicode="&#x439;" horiz-adv-x="498" 
d="M111 647h41q31 -67 96 -67q61 0 97 67h39q-44 -114 -135 -114q-87 0 -138 114zM436 0h-48v366l-299 -370h-27v453h48v-367l299 367h27v-449z" />
    <glyph glyph-name="afii10076" unicode="&#x43a;" horiz-adv-x="401" 
d="M113 215h-6v-215h-44v449h44v-195h20q66 0 94 70l22 56q29 69 99 69h19v-44h-19q-23 0 -35.5 -9.5t-22.5 -33.5l-21 -50q-12 -28 -32 -51t-37 -27q29 -10 51.5 -32.5t53.5 -73.5l77 -128h-53l-78 130q-28 46 -57.5 65.5t-74.5 19.5z" />
    <glyph glyph-name="afii10077" unicode="&#x43b;" horiz-adv-x="427" 
d="M0 0l204 458h30l193 -458h-47l-162 378l-169 -378h-49z" />
    <glyph glyph-name="afii10078" unicode="&#x43c;" horiz-adv-x="604" 
d="M84 449h28l189 -364l189 364h28l30 -449h-46l-23 336l-178 -336l-182 336l-19 -336h-46z" />
    <glyph glyph-name="afii10079" unicode="&#x43d;" horiz-adv-x="498" 
d="M388 253v196h48v-449h-48v214h-278v-214h-48v449h48v-196h278z" />
    <glyph glyph-name="afii10080" unicode="&#x43e;" horiz-adv-x="542" 
d="M499 224q0 -99 -65 -167q-64 -66 -163 -66q-98 0 -164 66q-65 68 -65 167t65 167q66 67 164 67q99 0 163 -67q65 -67 65 -167zM271 411q-77 0 -128 -53q-50 -53 -50 -134q0 -80 50 -133q51 -53 128 -53q76 0 126 53q51 53 51 133t-51 133q-49 54 -126 54z" />
    <glyph glyph-name="afii10081" unicode="&#x43f;" horiz-adv-x="498" 
d="M62 0v449h374v-449h-48v410h-278v-410h-48z" />
    <glyph glyph-name="afii10082" unicode="&#x440;" horiz-adv-x="510" 
d="M63 449h48v-25q68 34 135 34q96 0 159 -66t63 -166q0 -99 -65 -167t-159 -68q-65 0 -133 34v-255h-48v679zM111 378v-306q62 -34 124 -34q81 0 130.5 50.5t49.5 133.5q0 82 -53 135q-52 54 -133 54q-57 0 -118 -33z" />
    <glyph glyph-name="afii10083" unicode="&#x441;" horiz-adv-x="417" 
d="M387 64v-50q-71 -23 -125 -23q-98 0 -160 62q-60 63 -60 165q0 106 61 173t157 67q52 0 119 -22v-53q-65 28 -117 28q-75 0 -122 -52t-47 -136q0 -85 47 -135t126 -50q55 0 121 26z" />
    <glyph glyph-name="afii10084" unicode="&#x442;" horiz-adv-x="465" 
d="M8 405v44h448v-44h-200v-405h-48v405h-200z" />
    <glyph glyph-name="afii10085" unicode="&#x443;" horiz-adv-x="417" 
d="M219 135l155 314h49l-336 -679h-49l157 317l-189 362h50z" />
    <glyph glyph-name="afii10086" unicode="&#x444;" horiz-adv-x="648" 
d="M302 44v361q-92 0 -151 -50q-58 -49 -58 -131q0 -81 58 -130q59 -50 151 -50zM346 405v-361q91 0 150 50t59 131q0 80 -59 130t-150 50zM346 0v-230h-44v230q-113 0 -187 62q-73 63 -73 162q0 101 73 162q73 63 187 63v233h44v-233q114 0 187 -63q73 -61 73 -161
t-73 -163q-74 -62 -187 -62z" />
    <glyph glyph-name="afii10087" unicode="&#x445;" horiz-adv-x="479" 
d="M482 0h-62l-176 197l-176 -197h-62l205 230l-205 219h62l176 -186l176 186h62l-206 -219z" />
    <glyph glyph-name="afii10088" unicode="&#x446;" horiz-adv-x="497" 
d="M379 39v410h48v-410h60v-132h-44v93h-381v449h48v-410h269z" />
    <glyph glyph-name="afii10089" unicode="&#x447;" horiz-adv-x="445" 
d="M335 291v158h48v-449h-48v226q-48 -63 -141 -63q-70 0 -117 42t-47 141v103h48v-106q0 -141 126 -141q50 0 86 23t45 66z" />
    <glyph glyph-name="afii10090" unicode="&#x448;" horiz-adv-x="660" 
d="M598 0h-536v449h48v-410h196v410h48v-410h196v410h48v-449z" />
    <glyph glyph-name="afii10091" unicode="&#x449;" horiz-adv-x="668" 
d="M614 -93v93h-552v449h48v-410h196v410h48v-410h196v410h48v-410h60v-132h-44z" />
    <glyph glyph-name="afii10092" unicode="&#x44a;" horiz-adv-x="473" 
d="M5 405v44h159v-169h122q92 0 130 -40t38 -96q0 -68 -45.5 -106t-117.5 -38h-175v405h-111zM289 241h-125v-202h132q53 0 80 29t27 76q0 46 -29.5 71.5t-84.5 25.5z" />
    <glyph glyph-name="afii10093" unicode="&#x44b;" horiz-adv-x="583" 
d="M237 0h-175v449h48v-169h122q92 0 130 -40t38 -96q0 -68 -45.5 -106t-117.5 -38zM235 241h-125v-202h132q53 0 80 29t27 76q0 46 -29.5 71.5t-84.5 25.5zM473 0v449h48v-449h-48z" />
    <glyph glyph-name="afii10094" unicode="&#x44c;" horiz-adv-x="419" 
d="M237 0h-175v449h48v-169h122q92 0 130 -40t38 -96q0 -68 -45.5 -106t-117.5 -38zM235 241h-125v-202h132q53 0 80 29t27 76q0 46 -29.5 71.5t-84.5 25.5z" />
    <glyph glyph-name="afii10095" unicode="&#x44d;" horiz-adv-x="417" 
d="M95 203v44h228q-7 74 -52.5 119t-115.5 45q-52 0 -117 -28v53q67 22 119 22q96 0 157 -67t61 -173q0 -103 -61 -165q-60 -62 -159 -62q-54 0 -125 23v50q66 -26 121 -26q75 0 121 44t51 121h-228z" />
    <glyph glyph-name="afii10096" unicode="&#x44e;" horiz-adv-x="687" 
d="M70 449h48v-207h71q6 94 70 155t158 61q99 0 163 -67q65 -67 65 -167q0 -99 -65 -167q-64 -66 -163 -66q-92 0 -157 59q-64 61 -71 153h-71v-203h-48v449zM417 411q-77 0 -128 -53q-50 -53 -50 -134q0 -80 50 -133q51 -53 128 -53q76 0 126 53q51 53 51 133t-51 133
q-49 54 -126 54z" />
    <glyph glyph-name="afii10097" unicode="&#x44f;" horiz-adv-x="454" 
d="M247 449h145v-449h-48v186h-75q-47 0 -76 -18.5t-61 -65.5l-68 -102h-58l78 117q42 64 81 77q-103 31 -103 133q0 59 49.5 90.5t135.5 31.5zM222 225h122v185h-87q-75 0 -109.5 -19.5t-34.5 -71.5q0 -44 28 -69t81 -25z" />
    <glyph glyph-name="uni0450" unicode="&#x450;" horiz-adv-x="477" 
d="M441 242h-352q-3 -100 50 -153q55 -53 126 -53q87 0 168 69v-54q-77 -60 -173 -60q-104 0 -164 71q-60 70 -60 168q0 93 56 161q57 67 150 67q65 0 111.5 -32.5t68.5 -84.5q18 -40 19 -99zM94 280h290q-9 44 -27 72q-37 63 -115 63q-53 0 -94.5 -36t-53.5 -99zM254 521
l-152 156h81l105 -156h-34z" />
    <glyph glyph-name="afii10071" unicode="&#x451;" horiz-adv-x="479" 
d="M437 105v-54q-78 -60 -173 -60q-98 0 -161 67q-63 68 -63 172q0 99 58 163q59 65 148 65q80 0 139 -56q60 -55 60 -161h-354q-1 -5 -1 -23q0 -75 53 -128q53 -52 127 -52q85 0 167 67zM97 280h291q-26 131 -142 131q-56 0 -96 -35t-53 -96zM297 623q13 13 31 13t31 -13
t13 -31t-13 -31t-31 -13t-31 13t-13 31t13 31zM120 623q13 13 31 13t31 -13t13 -31t-13 -31t-31 -13t-31 13t-13 31t13 31z" />
    <glyph glyph-name="afii10099" unicode="&#x452;" horiz-adv-x="481" 
d="M110 682v-64h197v-44h-197v-203h2q31 47 65 67t83 20q70 0 114 -49t44 -134v-301q0 -204 -149 -204h-58v44h67q43 0 67.5 37t24.5 98v307q0 72 -29.5 113.5t-83.5 41.5q-47 0 -80.5 -22.5t-66.5 -73.5v-315h-48v574h-62v44h62v64h48z" />
    <glyph glyph-name="afii10100" unicode="&#x453;" horiz-adv-x="358" 
d="M70 0v449h280v-44h-232v-405h-48zM129 506l104 156h81l-152 -156h-33z" />
    <glyph glyph-name="afii10101" unicode="&#x454;" horiz-adv-x="417" 
d="M94 245h227v-44h-227q6 -75 52 -119t120 -44q55 0 121 26v-50q-71 -23 -125 -23q-98 0 -160 62q-60 63 -60 165q0 106 61 173t157 67q52 0 119 -22v-53q-65 28 -117 28q-70 0 -116 -45.5t-52 -120.5z" />
    <glyph glyph-name="afii10102" unicode="&#x455;" horiz-adv-x="354" 
d="M41 32v47q82 -41 141 -41q41 0 68 22t27 56q0 54 -83 82q-81 31 -108 52q-42 34 -42 85q0 53 42 87q42 36 103 36q53 0 120 -38v-52q-70 46 -123 46q-41 0 -68.5 -22t-27.5 -54q0 -52 82 -81q29 -10 42.5 -15t38.5 -18.5t37 -26.5t22.5 -34.5t10.5 -47.5q0 -53 -43 -89
q-43 -35 -104 -35q-67 0 -135 41z" />
    <glyph glyph-name="afii10103" unicode="&#x456;" horiz-adv-x="188" 
d="M70 0v449h48v-449h-48zM70 600v82h48v-82h-48z" />
    <glyph glyph-name="afii10104" unicode="&#x457;" horiz-adv-x="188" 
d="M70 0v449h48v-449h-48zM152 623q13 13 31 13t31 -13t13 -31t-13 -31t-31 -13t-31 13t-13 31t13 31zM-25 623q13 13 31 13t31 -13t13 -31t-13 -31t-31 -13t-31 13t-13 31t13 31z" />
    <glyph glyph-name="afii10105" unicode="&#x458;" horiz-adv-x="188" 
d="M68 -49v498h48v-499q0 -87 -37 -134t-96 -46l-11 41q50 2 73 33.5t23 106.5zM68 600v82h48v-82h-48z" />
    <glyph glyph-name="afii10106" unicode="&#x459;" horiz-adv-x="606" 
d="M0 0l204 458h30l83 -196h104q89 0 132.5 -35.5t43.5 -92.5q0 -65 -48 -99.5t-125 -34.5h-44l-162 378l-169 -378h-49zM333 223l78 -184h18q56 0 86.5 26.5t30.5 68.5q0 89 -132 89h-81z" />
    <glyph glyph-name="afii10107" unicode="&#x45a;" horiz-adv-x="728" 
d="M547 0h-159v214h-278v-214h-48v449h48v-196h278v196h48v-196h108q89 0 132.5 -34.5t43.5 -89.5q0 -64 -47 -96.5t-126 -32.5zM537 214h-101v-175h116q56 0 86.5 24t30.5 65q0 86 -132 86z" />
    <glyph glyph-name="afii10108" unicode="&#x45b;" horiz-adv-x="490" 
d="M110 682v-59h236v-44h-236v-208h2q31 47 65 67t83 20q76 0 121.5 -48.5t45.5 -134.5v-275h-48v256q0 155 -122 155q-47 0 -80.5 -22.5t-66.5 -73.5v-315h-48v579h-62v44h62v59h48z" />
    <glyph glyph-name="afii10109" unicode="&#x45c;" horiz-adv-x="401" 
d="M113 215h-6v-215h-44v449h44v-195h20q66 0 94 70l22 56q29 69 99 69h19v-44h-19q-23 0 -35.5 -9.5t-22.5 -33.5l-21 -50q-12 -28 -32 -51t-37 -27q29 -10 51.5 -32.5t53.5 -73.5l77 -128h-53l-78 130q-28 46 -57.5 65.5t-74.5 19.5zM151 509l104 156h81l-152 -156h-33z
" />
    <glyph glyph-name="uni045D" unicode="&#x45d;" horiz-adv-x="498" 
d="M436 0h-48v366l-299 -370h-27v453h48v-367l299 367h27v-449zM276 521l-152 156h81l105 -156h-34z" />
    <glyph glyph-name="afii10110" unicode="&#x45e;" horiz-adv-x="417" 
d="M219 135l155 314h49l-336 -679h-49l157 317l-189 362h50zM81 647h41q31 -67 96 -67q61 0 97 67h39q-44 -114 -135 -114q-87 0 -138 114z" />
    <glyph glyph-name="afii10193" unicode="&#x45f;" horiz-adv-x="498" 
d="M436 0h-163v-93h-48v93h-163v449h48v-410h278v410h48v-449z" />
    <glyph glyph-name="afii10146" unicode="&#x462;" horiz-adv-x="605" 
d="M1 591h145v91h52v-92h146v-44h-146v-160h151q113 0 173.5 -50.5t60.5 -139.5q0 -85 -65 -141q-64 -55 -173 -55h-199v547h-145v44zM339 342h-141v-298h141q53 0 91.5 14t58 37t28.5 48t9 53q0 61 -43 103q-43 43 -144 43z" />
    <glyph glyph-name="afii10194" unicode="&#x463;" horiz-adv-x="473" 
d="M117 503v180h47v-180h113v-43h-113v-180h122q92 0 130 -40t38 -96q0 -68 -45.5 -106t-117.5 -38h-175v460h-111v43h112zM289 241h-125v-202h132q53 0 80 29t27 76q0 46 -29.5 71.5t-84.5 25.5z" />
    <glyph glyph-name="afii10147" unicode="&#x472;" horiz-adv-x="823" 
d="M411 -9q-150 0 -256 101q-104 102 -104 249t104 248q105 102 256 102q152 0 257 -102q105 -101 105 -248t-105 -249q-106 -101 -257 -101zM715 314h-605q10 -118 96 -196t207 -78t206 78q86 78 96 196zM108 358h608q-7 121 -94 202q-85 82 -209 82t-211 -81
q-86 -80 -94 -203z" />
    <glyph glyph-name="afii10195" unicode="&#x473;" horiz-adv-x="542" 
d="M499 224q0 -99 -65 -167q-64 -66 -163 -66q-98 0 -164 66q-65 68 -65 167t65 167q66 67 164 67q99 0 163 -67q65 -67 65 -167zM95 245h352q-7 72 -57 119t-119 47q-70 0 -120 -47q-49 -46 -56 -119zM447 201h-353q8 -72 57 -117.5t120 -45.5q69 0 119 45q50 47 57 118z
" />
    <glyph glyph-name="afii10148" unicode="&#x474;" horiz-adv-x="594" 
d="M484 573l-208 -580h-15l-259 689h57l210 -569l176 500q29 78 102 78q23 0 47 -8v-49q-27 9 -43 9q-40 0 -67 -70z" />
    <glyph glyph-name="afii10196" unicode="&#x475;" horiz-adv-x="427" 
d="M457 454v-42q-15 12 -42 13q-19 0 -32.5 -16t-27.5 -55l-138 -363h-27l-184 458h44l153 -378l117 304q19 50 40 71t53 21q17 0 44 -13z" />
    <glyph glyph-name="afii10050" unicode="&#x490;" horiz-adv-x="454" 
d="M401 682v55h48v-99h-318v-638h-53v682h323z" />
    <glyph glyph-name="afii10098" unicode="&#x491;" horiz-adv-x="357" 
d="M302 449v40h48v-84h-232v-405h-48v449h232z" />
    <glyph glyph-name="uni0492" unicode="&#x492;" horiz-adv-x="454" 
d="M78 323h-68v44h68v315h371v-44h-318v-271h190v-44h-190v-323h-53v323z" />
    <glyph glyph-name="uni0493" unicode="&#x493;" horiz-adv-x="357" 
d="M70 255v194h280v-44h-232v-150h153v-44h-153v-211h-48v211h-60v44h60z" />
    <glyph glyph-name="uni0496" unicode="&#x496;" horiz-adv-x="857" 
d="M795 -118v118h-27l-117 200q-75 127 -169 127h-27v-327h-53v327h-27q-94 0 -169 -127l-117 -200h-67l134 215q41 65 69 93.5t68 39.5q-22 9 -50 43q-28 36 -44 72l-53 116q-18 38 -30.5 48.5t-43.5 10.5h-25v44h24q43 0 68 -16.5t46 -61.5l63 -135q25 -54 56.5 -76
t83.5 -22h14v311h53v-311h14q52 0 83.5 22t56.5 76l63 135q21 45 46 61.5t68 16.5h24v-44h-25q-31 0 -43.5 -10.5t-30.5 -48.5l-53 -116q-16 -37 -45 -72q-27 -34 -49 -43q40 -11 68 -39.5t69 -93.5l106 -171h41v-162h-53z" />
    <glyph glyph-name="uni0497" unicode="&#x497;" horiz-adv-x="620" 
d="M518 128l53 -89h36v-132h-44v93h-21l-78 130q-28 46 -57.5 65.5t-74.5 19.5v-215h-44v215q-45 0 -74.5 -19.5t-57.5 -65.5l-78 -130h-53l77 128q31 51 53.5 73.5t51.5 32.5q-17 4 -37 27t-32 51l-21 50q-10 24 -22.5 33.5t-35.5 9.5h-19v44h19q71 0 99 -69l22 -56
q28 -70 94 -70h14v195h44v-195h14q66 0 94 70l22 56q28 69 99 69h19v-44h-19q-23 0 -35.5 -9.5t-22.5 -33.5l-21 -50q-12 -28 -32 -51t-37 -27q29 -10 51.5 -32.5t53.5 -73.5z" />
    <glyph glyph-name="uni049A" unicode="&#x49a;" horiz-adv-x="547" 
d="M391 215l106 -171h41v-162h-53v118h-27l-117 200q-40 68 -78 97.5t-85 29.5h-46v-327h-53v682h53v-311h27q52 0 83.5 22t56.5 76l63 135q21 45 46 61.5t68 16.5h24v-44h-25q-31 0 -43.5 -10.5t-30.5 -48.5l-53 -116q-17 -36 -44 -73q-26 -34 -45 -42q34 -6 61.5 -35.5
t70.5 -97.5z" />
    <glyph glyph-name="uni049B" unicode="&#x49b;" horiz-adv-x="401" 
d="M344 0h-21l-78 130q-28 46 -57.5 65.5t-74.5 19.5h-6v-215h-44v449h44v-195h20q66 0 94 70l22 56q29 69 99 69h19v-44h-19q-23 0 -35.5 -9.5t-22.5 -33.5l-21 -50q-12 -28 -32 -51t-37 -27q29 -10 51.5 -32.5t53.5 -73.5l53 -89h36v-132h-44v93z" />
    <glyph glyph-name="uni04A2" unicode="&#x4a2;" horiz-adv-x="727" 
d="M664 -118v118h-77v323h-455v-323h-53v682h53v-315h455v315h53v-638h77v-162h-53z" />
    <glyph glyph-name="uni04A3" unicode="&#x4a3;" horiz-adv-x="506" 
d="M452 0h-64v214h-278v-214h-48v449h48v-196h278v196h48v-410h60v-132h-44v93z" />
    <glyph glyph-name="uni04AE" unicode="&#x4ae;" horiz-adv-x="583" 
d="M519 682h64l-265 -316v-366h-53v366l-265 316h64l228 -270z" />
    <glyph glyph-name="uni04AF" unicode="&#x4af;" horiz-adv-x="427" 
d="M380 449h47l-184 -408v-271h-48v270l-195 409h49l169 -358z" />
    <glyph glyph-name="uni04B0" unicode="&#x4b0;" horiz-adv-x="583" 
d="M519 682h64l-265 -316v-47h218v-47h-218v-272h-53v272h-218v47h218v47l-265 316h64l228 -270z" />
    <glyph glyph-name="uni04B1" unicode="&#x4b1;" horiz-adv-x="427" 
d="M380 449h47l-184 -378v-27h154v-44h-154v-230h-48v230h-165v44h165v26l-195 379h49l169 -338z" />
    <glyph glyph-name="uni04B2" unicode="&#x4b2;" horiz-adv-x="688" 
d="M635 0h-15l-276 312l-276 -312h-68l309 349l-293 333h68l260 -294l259 294h68l-293 -333l276 -310h34v-157h-53v118z" />
    <glyph glyph-name="uni04B3" unicode="&#x4b3;" horiz-adv-x="479" 
d="M435 0h-15l-176 197l-176 -197h-62l205 230l-205 219h62l176 -186l176 186h62l-206 -219l171 -191h32v-132h-44v93z" />
    <glyph glyph-name="uni04B6" unicode="&#x4b6;" horiz-adv-x="590" 
d="M527 0h-77v283q-73 -16 -142 -16q-266 0 -266 263v152h53v-157q0 -209 211 -209q69 0 144 14v352h53v-643h77v-157h-53v118z" />
    <glyph glyph-name="uni04B7" unicode="&#x4b7;" horiz-adv-x="453" 
d="M399 0h-64v226q-48 -63 -141 -63q-70 0 -117 42t-47 141v103h48v-106q0 -141 126 -141q50 0 86 23t45 66v158h48v-410h60v-132h-44v93z" />
    <glyph glyph-name="uni04BA" unicode="&#x4ba;" horiz-adv-x="582" 
d="M132 395v-395h-53v682h53v-240q73 16 142 16q266 0 266 -262v-196h-53v201q0 105 -52 156.5t-159 51.5q-69 0 -144 -14z" />
    <glyph glyph-name="uni04BB" unicode="&#x4bb;" horiz-adv-x="478" 
d="M110 330v-330h-48v682h48v-283q50 59 141 59q71 0 117 -42q47 -42 47 -141v-275h-48v283q0 136 -126 136q-50 0 -86 -23t-45 -66z" />
    <glyph glyph-name="uni04C0" unicode="&#x4c0;" horiz-adv-x="208" 
d="M78 682h53v-682h-53v682z" />
    <glyph glyph-name="uni04CF" unicode="&#x4cf;" horiz-adv-x="188" 
d="M70 682h48v-682h-48v682z" />
    <glyph glyph-name="uni04D8" unicode="&#x4d8;" horiz-adv-x="724" 
d="M361 -9q-137 0 -218 93q-81 94 -88 232h561q0 2 0.5 12t0.5 14q0 134 -75 217q-74 83 -205 83q-127 0 -258 -90v55q53 41 122 62.5t135 21.5q153 0 245 -98q93 -97 93 -251q0 -153 -93 -252t-220 -99zM364 40q93 0 160 64q68 65 86 168h-493q20 -112 84.5 -172t162.5 -60
z" />
    <glyph glyph-name="uni04D9" unicode="&#x4d9;" horiz-adv-x="479" 
d="M48 344v54q78 60 173 60q98 0 161 -68t63 -171q0 -99 -59 -164q-58 -64 -147 -64q-79 0 -140 56q-59 56 -59 161h354q1 5 1 23q0 75 -54 128q-52 52 -126 52q-85 0 -167 -67zM388 169h-291q26 -131 142 -131q56 0 96 35t53 96z" />
    <glyph glyph-name="uni04E2" unicode="&#x4e2;" horiz-adv-x="719" 
d="M132 88l474 594h34v-682h-53v588l-470 -588h-38v682h53v-594zM225 820h267v-51h-267v51z" />
    <glyph glyph-name="uni04E3" unicode="&#x4e3;" horiz-adv-x="498" 
d="M436 0h-48v366l-299 -370h-27v453h48v-367l299 367h27v-449zM115 583h267v-51h-267v51z" />
    <glyph glyph-name="uni04E8" unicode="&#x4e8;" horiz-adv-x="823" 
d="M411 -9q-150 0 -256 101q-104 102 -104 249t104 248q105 102 256 102q152 0 257 -102q105 -101 105 -248t-105 -249q-106 -101 -257 -101zM715 314h-605q10 -118 96 -196t207 -78t206 78q86 78 96 196zM108 358h608q-7 121 -94 202q-85 82 -209 82t-211 -81
q-86 -80 -94 -203z" />
    <glyph glyph-name="uni04E9" unicode="&#x4e9;" horiz-adv-x="542" 
d="M499 224q0 -99 -65 -167q-64 -66 -163 -66q-98 0 -164 66q-65 68 -65 167t65 167q66 67 164 67q99 0 163 -67q65 -67 65 -167zM95 245h352q-7 72 -57 119t-119 47q-70 0 -120 -47q-49 -46 -56 -119zM447 201h-353q8 -72 57 -117.5t120 -45.5q69 0 119 45q50 47 57 118z
" />
    <glyph glyph-name="uni04EE" unicode="&#x4ee;" horiz-adv-x="594" 
d="M56 682l252 -615l230 615h53l-241 -634q-31 -83 -64.5 -119.5t-79.5 -36.5q-66 0 -89 26v57q23 -36 88 -36q28 0 50 20.5t26 54.5l-278 668h53zM163 820h267v-51h-267v51z" />
    <glyph glyph-name="uni04EF" unicode="&#x4ef;" horiz-adv-x="417" 
d="M219 135l155 314h49l-336 -679h-49l157 317l-189 362h50zM85 583h267v-51h-267v51z" />
    <glyph glyph-name="Wgrave" unicode="&#x1e80;" horiz-adv-x="1031" 
d="M979 682h53l-272 -687h-16l-229 574l-227 -574h-16l-273 687h54l226 -566l228 566h17l227 -566zM352 856h122l122 -128h-49z" />
    <glyph glyph-name="wgrave" unicode="&#x1e81;" horiz-adv-x="708" 
d="M660 449h48l-194 -458h-23l-138 365l-139 -365h-22l-192 458h47l153 -366l141 366h26l137 -366zM338 521l-152 156h81l105 -156h-34z" />
    <glyph glyph-name="Wacute" unicode="&#x1e82;" horiz-adv-x="1031" 
d="M979 682h53l-272 -687h-16l-229 574l-227 -574h-16l-273 687h54l226 -566l228 566h17l227 -566zM435 728l122 128h122l-195 -128h-49z" />
    <glyph glyph-name="wacute" unicode="&#x1e83;" horiz-adv-x="708" 
d="M660 449h48l-194 -458h-23l-138 365l-139 -365h-22l-192 458h47l153 -366l141 366h26l137 -366zM442 677h81l-152 -156h-33z" />
    <glyph glyph-name="Wdieresis" unicode="&#x1e84;" horiz-adv-x="1031" 
d="M979 682h53l-272 -687h-16l-229 574l-227 -574h-16l-273 687h54l226 -566l228 566h17l227 -566zM390 828q13 13 31 13t31 -13t13 -31t-13 -31q-13 -12 -31 -12t-31 12q-12 13 -12 31t12 31zM653 796q0 -17 -12.5 -30t-30.5 -13t-30.5 12.5t-12.5 30.5t12.5 31t30.5 13
t30.5 -13t12.5 -31z" />
    <glyph glyph-name="wdieresis" unicode="&#x1e85;" horiz-adv-x="708" 
d="M660 449h48l-194 -458h-23l-138 365l-139 -365h-22l-192 458h47l153 -366l141 366h26l137 -366zM234 623q13 13 31 13t30 -13q13 -12 13 -30t-13 -31q-12 -13 -30 -13t-31 13q-12 13 -12 31t12 30zM444 636q18 0 31 -12.5t13 -30.5t-13 -31t-31 -13q-17 0 -30 13t-13 31
t13 30.5t30 12.5z" />
    <glyph glyph-name="Ygrave" unicode="&#x1ef2;" horiz-adv-x="584" 
d="M519 682h65l-267 -316v-366h-53v366l-264 316h64l227 -270zM98 856h122l122 -128h-49z" />
    <glyph glyph-name="ygrave" unicode="&#x1ef3;" horiz-adv-x="411" 
d="M368 449h49l-336 -679h-49l157 317l-189 362h49l164 -314zM186 521l-152 156h81l105 -156h-34z" />
    <glyph glyph-name="endash" unicode="&#x2013;" 
d="M-6 266h512v-32h-512v32z" />
    <glyph glyph-name="emdash" unicode="&#x2014;" horiz-adv-x="1000" 
d="M-6 266h1012v-32h-1012v32z" />
    <glyph glyph-name="quoteleft" unicode="&#x2018;" horiz-adv-x="177" 
d="M121 470h-65v58q0 107 65 154v-34q-21 -38 -20 -82h20v-96z" />
    <glyph glyph-name="quoteright" unicode="&#x2019;" horiz-adv-x="177" 
d="M56 682h65v-58q0 -107 -65 -154v34q21 39 21 83h-21v95z" />
    <glyph glyph-name="quotesinglbase" unicode="&#x201a;" horiz-adv-x="177" 
d="M56 96h65v-59q0 -107 -65 -154v35q21 38 21 82h-21v96z" />
    <glyph glyph-name="quotedblleft" unicode="&#x201c;" horiz-adv-x="396" 
d="M340 470h-65v58q0 107 65 154v-34q-22 -34 -21 -82h21v-96zM121 470h-65v58q0 107 65 154v-34q-21 -38 -20 -82h20v-96z" />
    <glyph glyph-name="quotedblright" unicode="&#x201d;" horiz-adv-x="396" 
d="M56 682h65v-58q0 -107 -65 -154v34q22 37 21 83h-21v95zM274 682h66v-58q0 -108 -66 -154v34q22 37 21 83h-21v95z" />
    <glyph glyph-name="quotedblbase" unicode="&#x201e;" horiz-adv-x="396" 
d="M58 95h65v-58q0 -107 -65 -154v34q21 40 20 83h-20v95zM273 95h65v-58q0 -107 -65 -154v34q21 40 20 83h-20v95z" />
    <glyph glyph-name="dagger" unicode="&#x2020;" horiz-adv-x="490" 
d="M211 691h66l-18 -283l205 13v-55l-205 13l18 -609h-66l18 609l-204 -13v55l204 -13z" />
    <glyph glyph-name="daggerdbl" unicode="&#x2021;" horiz-adv-x="479" 
d="M208 691h64l-18 -253l199 11v-52l-199 14l14 -181l-14 -181l199 13v-54l-199 15l18 -253h-64l19 253l-201 -15v54l201 -13l-14 181l14 181l-201 -14v52l201 -11z" />
    <glyph glyph-name="bullet" unicode="&#x2022;" 
d="M164 427q36 36 86 36t86 -36q36 -35 36 -86t-36 -87q-37 -35 -86 -35t-86 35q-36 36 -36 87t36 86z" />
    <glyph glyph-name="ellipsis" unicode="&#x2026;" horiz-adv-x="1000" 
d="M134 97h65v-97h-65v97zM467 97h66v-97h-66v97zM801 97h65v-97h-65v97z" />
    <glyph glyph-name="perthousand" unicode="&#x2030;" horiz-adv-x="1052" 
d="M583 691h49l-550 -700h-49zM177 648q-48 0 -83 -35t-35 -83q0 -50 34 -84t84 -34q49 0 83 34q35 35 35 84q0 48 -35 83t-83 35zM588 234q-35 35 -83 35q-49 0 -84 -35q-34 -34 -34 -83q0 -50 34 -84t84 -34q49 0 83 34q35 35 35 84q0 48 -35 83zM177 691q67 0 114 -47
t47 -113q0 -67 -47 -114t-114 -47q-65 0 -114 47q-47 47 -47 114q0 66 47 113q49 47 114 47zM505 312q67 0 114 -47t47 -113q0 -67 -47 -114t-114 -47q-66 0 -113 47t-47 114q0 66 47 113t113 47zM875 312q67 0 114 -47t47 -113q0 -67 -47 -114t-114 -47q-65 0 -114 47
q-47 47 -47 114q0 66 47 113q49 47 114 47zM958 234q-35 35 -83 35q-49 0 -84 -35q-34 -34 -34 -83q0 -50 34 -84t84 -34q49 0 83 34q35 35 35 84q0 48 -35 83z" />
    <glyph glyph-name="guilsinglleft" unicode="&#x2039;" horiz-adv-x="281" 
d="M77 231l188 -224h-60l-189 224l189 224h60z" />
    <glyph glyph-name="guilsinglright" unicode="&#x203a;" horiz-adv-x="281" 
d="M204 231l-188 224h60l189 -224l-189 -224h-60z" />
    <glyph glyph-name="fraction" unicode="&#x2044;" horiz-adv-x="135" 
d="M311 691h39l-526 -718h-39z" />
    <glyph glyph-name="Euro" unicode="&#x20ac;" horiz-adv-x="559" 
d="M529 109v-55q-93 -63 -178 -63q-56 0 -111 27q-125 61 -150 242h-74l9 48h61q-1 28 0 64h-70l9 48h65q16 117 86 194q71 77 180 77q81 0 179 -50l-10 -51q-92 51 -167 51q-86 0 -141 -63q-55 -61 -70 -158h344l-9 -48h-340q-2 -26 0 -64h329l-9 -48h-315q17 -93 49 -137
q62 -81 157 -81q76 0 176 67z" />
    <glyph glyph-name="uni20B4" unicode="&#x20b4;" 
d="M84 590v58q79 43 158 43q84 0 140 -44t56 -117q0 -64 -40 -110h76v-44h-127q-15 -10 -72 -38q-59 -29 -67 -34h266v-44h-324q-22 -21 -29.5 -43.5t-7.5 -60.5q0 -55 39.5 -85.5t104.5 -30.5q40 0 77.5 16t94.5 57v-62q-90 -60 -175 -60q-86 0 -142 45t-56 122
q0 58 29 102h-60v44h100q21 18 70 40t63 32h-233v44h297q33 24 46 49.5t13 62.5q0 53 -39.5 81.5t-104.5 28.5q-63 0 -153 -52z" />
    <glyph glyph-name="afii61289" unicode="&#x2113;" horiz-adv-x="464" 
d="M380 56q-56 -68 -121 -68q-45 0 -70 27q-34 35 -34 111v135l-60 -69q-17 15 -30 28l90 107v243q0 77 27.5 117.5t76.5 40.5q40 0 62.5 -28.5t22.5 -67.5q0 -115 -109 -269q-15 -23 -30 -41v-203q0 -44 16.5 -66t44.5 -22q41 0 89 54q3 -4 13 -14.5t12 -14.5zM296 628
q0 57 -38 57q-53 0 -53 -119v-173q9 11 18 26q73 115 73 209z" />
    <glyph glyph-name="afii61352" unicode="&#x2116;" horiz-adv-x="1112" 
d="M122 682l464 -596v500q0 96 99 96h58v-46h-55q-28 0 -38.5 -11t-10.5 -43v-582h-44l-464 588v-588h-53v682h44zM744 338q0 69 49 117q49 49 121 49t121 -49q50 -48 50 -117q0 -68 -50 -118q-49 -49 -121 -49t-121 48q-49 49 -49 119zM1000 422q-35 35 -86 35t-86 -35
q-33 -34 -33 -85t33 -85q34 -34 86 -34t86 34t34 85t-34 85zM754 68v46h324v-46h-324z" />
    <glyph glyph-name="trademark" unicode="&#x2122;" horiz-adv-x="938" 
d="M99 639v43h310v-43h-130v-356h-50v356h-130zM455 283v399h75l100 -319l103 319h76v-399h-45v356l-118 -356h-34l-112 356v-356h-45z" />
    <glyph glyph-name="Omega" unicode="&#x2126;" horiz-adv-x="722" 
d="M481 44h185v-44h-246v46q106 78 154 156t48 176q0 118 -74 190q-73 73 -187 73q-36 0 -71 -8t-70 -28t-61 -49t-42.5 -75t-16.5 -103q0 -99 48 -177.5t153 -154.5v-46h-245v44h184q-112 82 -156 160q-43 76 -43 175q0 138 91 225t229 87q137 0 228 -85q92 -86 92 -227
q0 -98 -43 -175q-45 -79 -157 -160z" />
    <glyph glyph-name="estimated" unicode="&#x212e;" horiz-adv-x="637" 
d="M601 285h-439v-196q64 -64 155 -64q134 0 210 130q28 -17 36 -22q-50 -75 -107 -110t-139 -35q-125 0 -201 85t-76 212t75 212q76 85 203 85q128 0 203 -84q76 -85 80 -213zM162 322h313v158q-68 65 -158 65q-94 0 -155 -64v-159z" />
    <glyph glyph-name="onethird" unicode="&#x2153;" horiz-adv-x="771" 
d="M142 687h42v-355h-42v355zM617 691h39l-526 -718h-39zM481 15v32q43 -22 95 -22q40 0 64 19.5t24 52.5q0 76 -104 74v31q51 0 75.5 19t24.5 45q0 29 -25.5 46t-61.5 17q-43 0 -89 -28v34q43 25 91 25q56 0 91 -26.5t35 -65.5q0 -56 -68 -80q72 -22 72 -90q0 -50 -40 -77
q-40 -26 -85 -26q-54 0 -99 20z" />
    <glyph glyph-name="twothirds" unicode="&#x2154;" horiz-adv-x="781" 
d="M636 691h39l-526 -718h-39zM112 363h184v-31h-273q52 42 110 105q82 87 82 153q0 31 -25.5 51t-59.5 20q-25 0 -45 -10t-52 -35v41q49 34 100 34q55 0 89 -31q35 -32 35 -71q0 -56 -48 -116q-30 -39 -43 -53q-16 -20 -54 -57zM488 15v32q45 -22 95 -22q40 0 64.5 19.5
t24.5 52.5q0 75 -105 74v31q30 0 51.5 7t31 18t13.5 20.5t4 18.5q0 29 -25.5 46t-60.5 17q-43 0 -89 -28v34q38 25 91 25q55 0 90 -26t35 -66q0 -56 -67 -80q72 -22 72 -90q0 -52 -40 -77q-40 -26 -86 -26q-51 0 -99 20z" />
    <glyph glyph-name="oneeighth" unicode="&#x215b;" horiz-adv-x="771" 
d="M671 185q58 -34 58 -87q0 -43 -35 -73q-34 -30 -85 -30q-48 0 -86 29q-36 30 -36 72q0 57 59 89q-50 30 -50 79q0 36 32 66t79 30q45 0 80 -29q34 -28 34 -67q0 -50 -50 -79zM680 264q0 28 -22 46t-51 18q-30 0 -50.5 -19.5t-20.5 -46.5t21.5 -45t51.5 -18q31 0 51 18.5
t20 46.5zM687 100q0 30 -24.5 49t-55.5 19q-32 0 -54.5 -20.5t-22.5 -50.5t23.5 -49.5t56.5 -19.5t55 20t22 52zM142 687h42v-355h-42v355zM623 691h39l-526 -718h-39z" />
    <glyph glyph-name="threeeighths" unicode="&#x215c;" horiz-adv-x="771" 
d="M671 185q58 -34 58 -87q0 -43 -35 -73q-34 -30 -85 -30q-48 0 -86 29q-36 30 -36 72q0 57 59 89q-50 30 -50 79q0 36 32 66t79 30q45 0 80 -29q34 -28 34 -67q0 -50 -50 -79zM680 264q0 28 -22 46t-51 18q-30 0 -50.5 -19.5t-20.5 -46.5t21.5 -45t51.5 -18q31 0 51 18.5
t20 46.5zM687 100q0 30 -24.5 49t-55.5 19q-32 0 -54.5 -20.5t-22.5 -50.5t23.5 -49.5t56.5 -19.5t55 20t22 52zM620 691h39l-526 -718h-39zM36 346v32q50 -21 95 -21q40 0 64 19.5t24 52.5q0 38 -28.5 56.5t-75.5 17.5v31q51 0 75.5 19t24.5 45q0 29 -25.5 46t-61.5 17
q-43 0 -89 -28v34q40 24 91 24q56 0 91 -26t35 -65q0 -56 -68 -80q72 -22 72 -90q0 -50 -40 -77q-40 -26 -85 -26q-55 0 -99 19z" />
    <glyph glyph-name="fiveeighths" unicode="&#x215d;" horiz-adv-x="750" 
d="M661 185q57 -33 57 -87q0 -43 -35 -73t-85 -30q-48 0 -85 29q-36 30 -36 72q0 58 58 89q-50 30 -50 79q0 36 32 66q33 30 80 30q45 0 79 -29q34 -28 34 -67q0 -51 -49 -79zM669 264q0 28 -21.5 46t-51.5 18t-50 -19.5t-20 -46.5t21 -45t51 -18q31 0 51 18.5t20 46.5z
M676 100q0 30 -24 49t-55 19q-32 0 -55 -20.5t-23 -50.5t23.5 -49.5t56.5 -19.5q34 0 55.5 20t21.5 52zM610 691h39l-527 -718h-39zM57 687h182v-30h-142v-104q59 5 99 -12q66 -29 66 -98q0 -49 -38.5 -82.5t-97.5 -33.5q-51 0 -102 25v38q62 -32 103 -32q39 0 65.5 22.5
t26.5 60.5q0 26 -12 45t-31 26q-30 13 -56 13q-20 0 -63 -8v170z" />
    <glyph glyph-name="seveneighths" unicode="&#x215e;" horiz-adv-x="750" 
d="M662 185q57 -33 57 -87q0 -43 -35 -73q-34 -30 -85 -30q-48 0 -85 29q-36 30 -36 72q0 58 58 89q-50 30 -50 79q0 37 32 66q32 30 80 30q45 0 79 -29q34 -28 34 -67q0 -51 -49 -79zM670 264q0 28 -21.5 46t-51.5 18t-50 -19.5t-20 -46.5t21 -45t51 -18q31 0 51 18.5
t20 46.5zM677 100q0 30 -24 49t-55 19q-32 0 -55 -20.5t-23 -50.5t23.5 -49.5t56.5 -19.5q34 0 55.5 20t21.5 52zM-7 691h276l-188 -364l-36 14l166 317h-218v33zM608 691h38l-526 -718h-39z" />
    <glyph glyph-name="partialdiff" unicode="&#x2202;" horiz-adv-x="537" 
d="M487 505q0 -90 -26 -199q-30 -121 -89 -210q-32 -49 -77.5 -77.5t-97.5 -28.5q-69 0 -110.5 48t-41.5 128q0 136 77 236q76 99 179 99q91 0 128 -75h2q6 43 6 79q0 177 -135 177q-46 0 -87 -25l-16 39q47 29 108 29q86 0 133 -56.5t47 -163.5zM422 365q-12 43 -43.5 68
t-79.5 25q-82 0 -143 -88t-61 -205q0 -62 28.5 -97t76.5 -35q74 0 132.5 87.5t89.5 244.5z" />
    <glyph glyph-name="increment" unicode="&#x2206;" horiz-adv-x="662" 
d="M659 0h-656l312 687h32zM79 45h504l-252 555z" />
    <glyph glyph-name="product" unicode="&#x220f;" horiz-adv-x="667" 
d="M582 700v-930h-50v886h-396v-886h-50v930h496z" />
    <glyph glyph-name="summation" unicode="&#x2211;" horiz-adv-x="589" 
d="M561 -187v-43h-538v19l328 450l-303 436v25h487v-43h-418l289 -417l-310 -427h465z" />
    <glyph glyph-name="minus" unicode="&#x2212;" horiz-adv-x="660" 
d="M592 318h-524v46h524v-46z" />
    <glyph glyph-name="uni2215" unicode="&#x2215;" horiz-adv-x="135" 
d="M311 691h39l-526 -718h-39z" />
    <glyph glyph-name="uni2219" unicode="&#x2219;" horiz-adv-x="281" 
d="M141 399q22 0 37.5 -15.5t15.5 -38.5q0 -22 -16 -37.5t-37 -15.5q-22 0 -38 15.5t-16 37.5t15.5 38t38.5 16z" />
    <glyph glyph-name="radical" unicode="&#x221a;" horiz-adv-x="461" 
d="M427 728h46l-187 -740h-42l-136 359l-52 -28q-2 8 -18 37l98 51l127 -336z" />
    <glyph glyph-name="infinity" unicode="&#x221e;" horiz-adv-x="723" 
d="M669 294q0 -63 -40 -106q-39 -43 -101 -43q-104 0 -167 107h-2q-68 -107 -159 -107q-67 0 -107 40.5t-40 103.5q0 66 39 107.5t104 41.5q100 0 164 -106h2q69 106 161 106q64 0 105 -39.5t41 -104.5zM620 293q0 46 -25.5 74t-71.5 28q-76 0 -140 -103q59 -104 139 -104
q47 0 72.5 29t25.5 76zM339 292q-25 46 -63.5 74.5t-76.5 28.5q-47 0 -72 -28.5t-25 -77.5q0 -45 27.5 -73t69.5 -28q75 0 140 104z" />
    <glyph glyph-name="integral" unicode="&#x222b;" horiz-adv-x="462" 
d="M394 737l-12 -41q-18 9 -43 9q-83 0 -83 -102v-677q0 -68 -35.5 -106.5t-96.5 -38.5q-38 0 -57 10l12 41q26 -8 43 -8q84 0 84 101v679q0 67 35.5 105.5t97.5 38.5q38 0 55 -11z" />
    <glyph glyph-name="approxequal" unicode="&#x2248;" horiz-adv-x="660" 
d="M528 451l32 -31q-55 -81 -131 -81q-53 0 -106 34q-55 34 -93 34q-55 0 -97 -66l-32 32q56 80 130 80q55 0 106 -33q56 -35 93 -35q54 0 98 66zM528 244l32 -32q-57 -80 -131 -80q-53 0 -106 34q-55 34 -93 34q-55 0 -97 -67l-32 33q56 80 130 80q54 0 106 -34
q53 -34 93 -34q54 0 98 66z" />
    <glyph glyph-name="notequal" unicode="&#x2260;" horiz-adv-x="660" 
d="M548 211v-46h-259l-68 -142h-48l69 142h-129v46h152l78 162h-230v46h252l68 142h48l-69 -142h136v-46h-158l-78 -162h236z" />
    <glyph glyph-name="lessequal" unicode="&#x2264;" horiz-adv-x="660" 
d="M548 46v-46h-435v46h435zM548 181v-52l-435 207v22l435 206v-52l-353 -164v-2z" />
    <glyph glyph-name="greaterequal" unicode="&#x2265;" horiz-adv-x="660" 
d="M548 46v-46h-435v46h435zM548 358v-22l-435 -207v52l353 164v2l-353 165v52z" />
    <glyph glyph-name="lozenge" unicode="&#x25ca;" horiz-adv-x="516" 
d="M272 700l187 -350l-187 -350h-30l-187 349l187 351h30zM256 65l154 285l-153 285l-153 -285z" />
    <glyph glyph-name="NULL" horiz-adv-x="0" 
 />
    <glyph glyph-name="CR" horiz-adv-x="333" 
 />
    <glyph glyph-name="ampersand.sc" horiz-adv-x="454" 
d="M345 109l100 -109h-66l-65 69q-72 -75 -151 -75q-56 0 -94 34q-38 35 -38 84q0 92 109 146l-27 32q-30 44 -30 84q0 47 34 81t86 34q49 0 80.5 -31.5t31.5 -78.5q0 -79 -96 -135l90 -97q26 42 45 101h54q-27 -83 -63 -139zM186 279q80 38 80 97q0 27 -18 46t-47 19
q-30 0 -49.5 -19t-19.5 -46q0 -43 54 -97zM280 106l-110 117q-30 -16 -52 -34q-32 -26 -32 -69q0 -34 21.5 -56t59.5 -22q59 0 113 64z" />
    <glyph glyph-name="zero.oldstyle" 
d="M249 458q97 0 158 -63q62 -64 62 -170q0 -108 -63 -171q-62 -63 -157 -63q-99 0 -159 66q-59 67 -59 168q0 102 59 167q60 66 159 66zM80 225q0 -90 48 -142q18 -18 46 -31q41 -17 78 -17q67 0 117 46q51 47 51 147q0 84 -46 134q-46 52 -122 52q-38 0 -78 -18
q-94 -40 -94 -171z" />
    <glyph glyph-name="one.oldstyle" horiz-adv-x="331" 
d="M231 458v-458h-50v378l-135 -102l-22 39l185 143h22z" />
    <glyph glyph-name="two.oldstyle" horiz-adv-x="432" 
d="M149 46h236v-46h-354v8q147 110 213 177q67 68 67 127q0 43 -28 72t-74 29q-42 0 -76 -20q-37 -22 -80 -62v59q19 16 44 34q50 35 113 35q72 0 111 -43q39 -44 39 -97q0 -29 -15 -61q-19 -41 -70 -95q-60 -63 -126 -117z" />
    <glyph glyph-name="three.oldstyle" horiz-adv-x="432" 
d="M20 403v46h367l-197 -309q68 -3 114 -28q37 -21 57 -60.5t20 -83.5q0 -83 -61 -141q-59 -58 -148 -58q-71 0 -147 47v49q44 -26 48 -28q52 -27 100 -27q63 0 111 42q48 40 48 117q0 61 -48 96q-47 35 -112 35q-29 0 -62 -5l189 308h-279z" />
    <glyph glyph-name="four.oldstyle" horiz-adv-x="495" 
d="M314 -230v230h-305v11l342 447h11v-417h124v-41h-124v-230h-48zM314 347l-229 -306h229v306z" />
    <glyph glyph-name="five.oldstyle" horiz-adv-x="446" 
d="M151 449h282v-46h-239l-43 -256q93 0 147 -23q50 -20 80 -63.5t30 -97.5q0 -78 -60 -135q-58 -58 -151 -58q-77 0 -168 53l2 56q91 -64 169 -64q70 0 113 43q44 44 44 104q0 65 -50.5 103t-135.5 38q-39 0 -75 -4z" />
    <glyph glyph-name="six.oldstyle" horiz-adv-x="464" 
d="M315 691l30 -36q-208 -141 -253 -339q74 53 151 53q73 0 132 -50q58 -49 58 -136q0 -85 -55 -139q-56 -53 -138 -53q-92 0 -151 62q-58 62 -58 178q0 254 284 460zM83 257q-2 -18 -2 -42q0 -50 28 -106q16 -31 49.5 -50.5t77.5 -19.5q65 0 105 40q41 41 41 97
q0 52 -37 98q-38 47 -109 47q-83 0 -153 -64z" />
    <glyph glyph-name="seven.oldstyle" horiz-adv-x="416" 
d="M12 449h393l-312 -679l-44 19l288 614h-325v46z" />
    <glyph glyph-name="eight.oldstyle" horiz-adv-x="471" 
d="M312 355q118 -58 118 -173q0 -76 -55 -134q-55 -57 -138 -57q-81 0 -139 56q-57 55 -57 132q0 79 61 137q22 20 59 39q-106 61 -106 157q0 66 51 122q51 57 129 57q76 0 128 -55q53 -55 53 -123q0 -96 -104 -158zM367 511q0 55 -39 92q-40 38 -95 38t-92 -39
q-37 -38 -37 -93q0 -56 38 -94q38 -37 94 -37t94 38q37 38 37 95zM379 189q0 60 -43 99q-43 40 -102 40q-60 0 -100 -42q-41 -43 -41 -102q0 -61 42 -101q44 -41 103 -41q62 0 101 42q40 41 40 105z" />
    <glyph glyph-name="nine.oldstyle" horiz-adv-x="463" 
d="M143 -230l-28 37q44 33 82 63q22 18 68 65q77 80 106 197q-80 -50 -150 -50q-75 0 -133 49t-58 136q0 83 56 137q55 54 140 54q99 0 153 -64.5t54 -172.5q0 -68 -23 -135q-22 -63 -52 -109q-28 -43 -75 -90t-74 -68q-21 -18 -66 -49zM380 193q9 220 -152 220
q-58 0 -102 -41q-43 -40 -43 -101q0 -59 39 -100q41 -41 100 -41q88 0 158 63z" />
    <glyph glyph-name="a.sc" horiz-adv-x="480" 
d="M417 0l-66 145h-226l-63 -145h-54l218 486h31l214 -486h-54zM238 410l-90 -221h183z" />
    <glyph glyph-name="b.sc" horiz-adv-x="389" 
d="M189 0h-126v483h78q79 0 112 -16q31 -13 51.5 -43.5t20.5 -66.5q0 -29 -13 -51q-8 -14 -16 -23t-13.5 -13.5t-23.5 -16.5q106 -34 106 -122q0 -67 -48 -98q-29 -20 -55.5 -26.5t-72.5 -6.5zM140 438h-26v-172h35q34 0 59 5q63 17 63 81q0 60 -47 74q-34 12 -84 12z
M169 221h-55v-176h71h22q40 3 54 11q49 24 49 77q0 31 -13.5 48t-37.5 29q-13 7 -32 8q-25 3 -58 3z" />
    <glyph glyph-name="c.sc" horiz-adv-x="487" 
d="M457 447v-57q-92 50 -162 50q-87 0 -143 -56q-54 -55 -54 -143q0 -87 54 -142t141 -55q69 0 168 51v-54q-86 -47 -169 -47q-102 0 -176 68q-73 67 -73 179q0 114 76 181t169 67q80 0 169 -42z" />
    <glyph glyph-name="d.sc" horiz-adv-x="529" 
d="M208 0h-145v483h145q69 0 124 -19.5t84 -49.5q28 -27 45 -63q25 -52 25 -105q0 -66 -30 -125q-30 -58 -76 -85q-38 -21 -75 -28.5t-97 -7.5zM213 438h-100v-393h100q52 0 80.5 5.5t57.5 23.5q36 22 58 68.5t22 98.5q0 56 -27.5 104t-73.5 70q-48 23 -117 23z" />
    <glyph glyph-name="e.sc" horiz-adv-x="362" 
d="M63 483h264v-45h-213v-172h208v-45h-208v-176h218v-45h-269v483z" />
    <glyph glyph-name="f.sc" horiz-adv-x="328" 
d="M63 483h249v-45h-199v-163h180v-45h-180v-230h-50v483z" />
    <glyph glyph-name="g.sc" horiz-adv-x="515" 
d="M459 446v-59q-79 53 -170 53q-76 0 -133 -54t-57 -145q0 -87 57 -143q56 -55 132 -55q59 0 129 26v114h-96v45h147v-192q-92 -42 -179 -42q-98 0 -171 70q-74 71 -74 179q0 105 71 176q70 70 180 70q74 0 164 -43z" />
    <glyph glyph-name="h.sc" horiz-adv-x="515" 
d="M114 483v-216h288v216h50v-483h-50v222h-288v-222h-51v483h51z" />
    <glyph glyph-name="i.sc" horiz-adv-x="174" 
d="M62 483h50v-483h-50v483z" />
    <glyph glyph-name="j.sc" horiz-adv-x="174" 
d="M65 19v464h51v-468q0 -146 -110 -146q-14 0 -30 6v43q18 -6 32 -6q39 0 49 37q8 27 8 70z" />
    <glyph glyph-name="k.sc" horiz-adv-x="412" 
d="M111 483v-227l207 227h64l-222 -234l245 -249h-73l-221 224v-224h-51v483h51z" />
    <glyph glyph-name="l.sc" horiz-adv-x="348" 
d="M63 483h50v-438h225v-45h-275v483z" />
    <glyph glyph-name="m.sc" horiz-adv-x="579" 
d="M106 483l184 -237l183 237h44v-483h-50v401l-174 -228h-7l-174 228v-401h-50v483h44z" />
    <glyph glyph-name="n.sc" horiz-adv-x="549" 
d="M62 483h44l331 -395v395h50v-483h-41l-333 398v-398h-51v483z" />
    <glyph glyph-name="o.sc" horiz-adv-x="584" 
d="M541 243q0 -108 -73 -178q-73 -71 -176 -71q-105 0 -177 72t-72 176q0 101 70 174t179 73q108 0 179 -72q70 -71 70 -174zM486 244q0 78 -54 137t-139 59q-84 0 -139 -58q-56 -58 -56 -141q0 -82 55 -140t138 -58q81 0 137 55q58 55 58 146z" />
    <glyph glyph-name="p.sc" horiz-adv-x="375" 
d="M113 0h-51v483h100q56 0 79 -4q24 -3 49 -17q61 -34 61 -109q0 -39 -17.5 -69.5t-46.5 -44.5q-43 -20 -120 -20h-54v-219zM163 438h-50v-173h56q47 0 81 10q46 16 46 76q0 47 -31 68q-10 8 -33 13q-24 6 -69 6z" />
    <glyph glyph-name="q.sc" horiz-adv-x="584" 
d="M513 -55l9 -8l-44 -54q-34 6 -57 12q-21 6 -69 32q-44 24 -88 68q-98 10 -161 82q-60 72 -60 164q0 102 71 175q70 73 178 73q110 0 179 -72q70 -71 70 -175q0 -74 -37.5 -134t-98.5 -88q-15 -8 -66 -22q88 -71 141 -71q14 0 33 18zM98 242q0 -83 55 -141t138 -58
q77 0 136 56t59 142q0 85 -55 141q-55 58 -138 58q-82 0 -139 -59q-56 -59 -56 -139z" />
    <glyph glyph-name="r.sc" horiz-adv-x="434" 
d="M112 0h-50v483h97q77 0 111 -15q32 -13 53 -44t21 -67q0 -79 -89 -114q21 -12 34 -31q12 -16 63 -98q58 -94 76 -114h-63l-90 145q-24 39 -44 56q-19 17 -32 20.5t-46 3.5h-41v-225zM162 438h-50v-168h42q78 0 104 20q31 24 31 66q0 46 -38 68q-30 14 -89 14z" />
    <glyph glyph-name="s.sc" horiz-adv-x="348" 
d="M292 462l-1 -52q-44 32 -102 32q-30 0 -51 -10t-29.5 -25t-12 -26.5t-3.5 -20.5q0 -26 16 -45q15 -17 29 -24t51 -21q44 -16 80 -44q41 -32 41 -96q0 -62 -43 -99q-41 -37 -96 -37q-61 0 -125 33v54q70 -39 118 -39q50 0 72 28t22 59q0 28 -16 47q-10 13 -22 22t-20 12.5
t-29 11.5q-45 16 -83 40q-47 32 -47 96q0 52 39 91q39 40 98 40q56 0 114 -27z" />
    <glyph glyph-name="t.sc" horiz-adv-x="417" 
d="M12 483h393v-45h-171v-438h-51v438h-171v45z" />
    <glyph glyph-name="u.sc" horiz-adv-x="501" 
d="M53 239v244h50v-250q0 -75 24 -120q38 -71 123 -71q41 0 75 18.5t49 50.5q24 49 24 122v250h50v-244q0 -58 -6.5 -92t-26.5 -65q-55 -88 -163 -88q-52 0 -96.5 22.5t-68.5 63.5q-22 38 -28 72q-6 33 -6 87z" />
    <glyph glyph-name="v.sc" horiz-adv-x="432" 
d="M227 -3h-23l-196 486h52l156 -397l155 397h52z" />
    <glyph glyph-name="w.sc" horiz-adv-x="727" 
d="M350 483h27l145 -397l145 397h52l-186 -486h-23l-147 390l-146 -390h-23l-186 486h52l145 -397z" />
    <glyph glyph-name="x.sc" horiz-adv-x="510" 
d="M15 0l209 248l-198 235h62l167 -198l167 198h62l-198 -235l209 -248h-62l-178 211l-178 -211h-62z" />
    <glyph glyph-name="y.sc" horiz-adv-x="433" 
d="M68 483l148 -199l149 199h62l-186 -244v-239h-51v239l-184 244h62z" />
    <glyph glyph-name="z.sc" horiz-adv-x="459" 
d="M16 20l334 418h-310v45h387v-22l-330 -416h336v-45h-417v20z" />
    <glyph glyph-name="lslash.sc" horiz-adv-x="348" 
d="M113 483v-254l157 126l1 -54l-158 -127v-129h225v-45h-275v136l-63 -52v55l63 52v292h50z" />
    <glyph glyph-name="scaron.sc" horiz-adv-x="348" 
d="M292 462l-1 -52q-44 32 -102 32q-30 0 -51 -10t-29.5 -25t-12 -26.5t-3.5 -20.5q0 -26 16 -45q15 -17 29 -24t51 -21q44 -16 80 -44q41 -32 41 -96q0 -62 -43 -99q-41 -37 -96 -37q-61 0 -125 33v54q70 -39 118 -39q50 0 72 28t22 59q0 28 -16 47q-10 13 -22 22t-20 12.5
t-29 11.5q-45 16 -83 40q-47 32 -47 96q0 52 39 91q39 40 98 40q56 0 114 -27zM298 674h51l-127 -137h-78l-124 137h53l111 -88z" />
    <glyph glyph-name="zcaron.sc" horiz-adv-x="459" 
d="M16 20l334 418h-310v45h387v-22l-330 -416h336v-45h-417v20zM343 674h51l-127 -137h-78l-124 137h53l111 -88z" />
    <glyph glyph-name="agrave.sc" horiz-adv-x="480" 
d="M417 0l-66 145h-226l-63 -145h-54l218 486h31l214 -486h-54zM238 410l-90 -221h183zM77 665h122l122 -128h-49z" />
    <glyph glyph-name="aacute.sc" horiz-adv-x="480" 
d="M417 0l-66 145h-226l-63 -145h-54l218 486h31l214 -486h-54zM238 410l-90 -221h183zM153 537l123 128h122l-195 -128h-50z" />
    <glyph glyph-name="acircumflex.sc" horiz-adv-x="480" 
d="M417 0l-66 145h-226l-63 -145h-54l218 486h31l214 -486h-54zM238 410l-90 -221h183zM278 674l127 -137h-51l-114 88l-111 -88h-53l124 137h78z" />
    <glyph glyph-name="atilde.sc" horiz-adv-x="480" 
d="M417 0l-66 145h-226l-63 -145h-54l218 486h31l214 -486h-54zM238 410l-90 -221h183zM116 547h-41q-2 51 10 76q9 20 29 31.5t43 11.5q40 0 118 -38q42 -19 59 -21t22 8t9 45q1 6 1 9h41q-1 -51 -10 -75q-19 -46 -66 -46q-43 0 -120 37q-48 23 -62 23q-19 0 -25 -12.5
t-8 -48.5z" />
    <glyph glyph-name="adieresis.sc" horiz-adv-x="480" 
d="M417 0l-66 145h-226l-63 -145h-54l218 486h31l214 -486h-54zM238 410l-90 -221h183zM190 608q0 -18 -13 -30.5t-31 -12.5t-30.5 12.5t-12.5 30.5t12.5 31t30.5 13t31 -12.5t13 -31.5zM335 651q18 0 30.5 -13t12.5 -30q0 -28 -26.5 -39t-47.5 8q-19 21 -8 47.5t39 26.5z
" />
    <glyph glyph-name="aring.sc" horiz-adv-x="480" 
d="M417 0l-66 145h-226l-63 -145h-54l218 486h31l214 -486h-54zM238 410l-90 -221h183zM241 744q43 0 73.5 -30.5t30.5 -73.5t-30.5 -73.5t-73.5 -30.5t-74 30.5t-31 73.5t30.5 73.5t74.5 30.5zM239 714q-30 0 -52 -21.5t-22 -52.5t22 -52.5t52 -21.5q31 0 52.5 21.5
t21.5 52.5q0 30 -21.5 52t-52.5 22z" />
    <glyph glyph-name="ae.sc" horiz-adv-x="626" 
d="M320 0v174h-152l-101 -174h-59l290 483h286v-45h-213v-172h208v-45h-208v-176h219v-45h-270zM320 443l-126 -225h126v225z" />
    <glyph glyph-name="ccedilla.sc" horiz-adv-x="487" 
d="M299 -6l-17 -36q79 -1 79 -65q0 -25 -18 -45.5t-54 -29.5q-43 -14 -105 -9l7 37q115 3 115 48q0 23 -28 29q-19 4 -52 5l31 68q-91 16 -142 67q-72 71 -72 179q0 113 76 180t169 67q80 0 169 -42v-57q-92 50 -162 50q-87 0 -143 -56q-54 -55 -54 -143q0 -87 54 -142
t141 -55q69 0 168 51v-54q-80 -44 -162 -47z" />
    <glyph glyph-name="egrave.sc" horiz-adv-x="362" 
d="M63 483h264v-45h-213v-172h208v-45h-208v-176h218v-45h-269v483zM18 665h122l122 -128h-49z" />
    <glyph glyph-name="eacute.sc" horiz-adv-x="362" 
d="M63 483h264v-45h-213v-172h208v-45h-208v-176h218v-45h-269v483zM109 537l123 128h122l-195 -128h-50z" />
    <glyph glyph-name="ecircumflex.sc" horiz-adv-x="362" 
d="M63 483h264v-45h-213v-172h208v-45h-208v-176h218v-45h-269v483zM219 674l127 -137h-51l-114 88l-111 -88h-53l124 137h78z" />
    <glyph glyph-name="edieresis.sc" horiz-adv-x="362" 
d="M63 483h264v-45h-213v-172h208v-45h-208v-176h218v-45h-269v483zM131 608q0 -18 -13 -30.5t-31 -12.5t-30.5 12.5t-12.5 30.5t12.5 31t30.5 13t31 -12.5t13 -31.5zM276 651q18 0 30.5 -13t12.5 -30q0 -28 -26.5 -39t-47.5 8q-19 21 -8 47.5t39 26.5z" />
    <glyph glyph-name="igrave.sc" horiz-adv-x="174" 
d="M62 483h50v-483h-50v483zM-76 665h122l122 -128h-49z" />
    <glyph glyph-name="iacute.sc" horiz-adv-x="174" 
d="M62 483h50v-483h-50v483zM0 537l123 128h122l-195 -128h-50z" />
    <glyph glyph-name="icircumflex.sc" horiz-adv-x="174" 
d="M62 483h50v-483h-50v483zM125 674l127 -137h-51l-114 88l-111 -88h-53l124 137h78z" />
    <glyph glyph-name="idieresis.sc" horiz-adv-x="174" 
d="M62 483h50v-483h-50v483zM37 608q0 -18 -13 -30.5t-31 -12.5t-30.5 12.5t-12.5 30.5t12.5 31t30.5 13t31 -12.5t13 -31.5zM182 651q18 0 30.5 -13t12.5 -30q0 -28 -26.5 -39t-47.5 8q-19 21 -8 47.5t39 26.5z" />
    <glyph glyph-name="eth.sc" horiz-adv-x="529" 
d="M63 0v219h-61v45h61v219h145q69 0 124 -19.5t84 -49.5q28 -27 45 -63q25 -52 25 -105q0 -66 -30 -125q-30 -58 -76 -85q-38 -21 -75 -28.5t-97 -7.5h-145zM268 264v-45h-155v-174h100q52 0 80.5 5.5t57.5 23.5q36 22 58 68.5t22 98.5q0 56 -27.5 104t-73.5 70
q-48 23 -117 23h-100v-174h155z" />
    <glyph glyph-name="ntilde.sc" horiz-adv-x="549" 
d="M62 483h44l331 -395v395h50v-483h-41l-333 398v-398h-51v483zM150 547h-41q-2 51 10 76q9 20 29 31.5t43 11.5q40 0 118 -38q42 -19 59 -21t22 8t9 45q1 6 1 9h41q-1 -51 -10 -75q-19 -46 -66 -46q-43 0 -120 37q-48 23 -62 23q-19 0 -25 -12.5t-8 -48.5z" />
    <glyph glyph-name="ograve.sc" horiz-adv-x="584" 
d="M541 243q0 -108 -73 -178q-73 -71 -176 -71q-105 0 -177 72t-72 176q0 101 70 174t179 73q108 0 179 -72q70 -71 70 -174zM486 244q0 78 -54 137t-139 59q-84 0 -139 -58q-56 -58 -56 -141q0 -82 55 -140t138 -58q81 0 137 55q58 55 58 146zM129 665h122l122 -128h-49z
" />
    <glyph glyph-name="oacute.sc" horiz-adv-x="584" 
d="M541 243q0 -108 -73 -178q-73 -71 -176 -71q-105 0 -177 72t-72 176q0 101 70 174t179 73q108 0 179 -72q70 -71 70 -174zM486 244q0 78 -54 137t-139 59q-84 0 -139 -58q-56 -58 -56 -141q0 -82 55 -140t138 -58q81 0 137 55q58 55 58 146zM205 537l123 128h122
l-195 -128h-50z" />
    <glyph glyph-name="ocircumflex.sc" horiz-adv-x="584" 
d="M541 243q0 -108 -73 -178q-73 -71 -176 -71q-105 0 -177 72t-72 176q0 101 70 174t179 73q108 0 179 -72q70 -71 70 -174zM486 244q0 78 -54 137t-139 59q-84 0 -139 -58q-56 -58 -56 -141q0 -82 55 -140t138 -58q81 0 137 55q58 55 58 146zM330 674l127 -137h-51
l-114 88l-111 -88h-53l124 137h78z" />
    <glyph glyph-name="otilde.sc" horiz-adv-x="584" 
d="M541 243q0 -108 -73 -178q-73 -71 -176 -71q-105 0 -177 72t-72 176q0 101 70 174t179 73q108 0 179 -72q70 -71 70 -174zM486 244q0 78 -54 137t-139 59q-84 0 -139 -58q-56 -58 -56 -141q0 -82 55 -140t138 -58q81 0 137 55q58 55 58 146zM168 547h-41q-2 51 10 76
q9 20 29 31.5t43 11.5q40 0 118 -38q42 -19 59 -21t22 8t9 45q1 6 1 9h41q-1 -51 -10 -75q-19 -46 -66 -46q-43 0 -120 37q-48 23 -62 23q-19 0 -25 -12.5t-8 -48.5z" />
    <glyph glyph-name="odieresis.sc" horiz-adv-x="584" 
d="M541 243q0 -108 -73 -178q-73 -71 -176 -71q-105 0 -177 72t-72 176q0 101 70 174t179 73q108 0 179 -72q70 -71 70 -174zM486 244q0 78 -54 137t-139 59q-84 0 -139 -58q-56 -58 -56 -141q0 -82 55 -140t138 -58q81 0 137 55q58 55 58 146zM242 608q0 -18 -13 -30.5
t-31 -12.5t-30.5 12.5t-12.5 30.5t12.5 31t30.5 13t31 -12.5t13 -31.5zM387 651q18 0 30.5 -13t12.5 -30q0 -28 -26.5 -39t-47.5 8q-19 21 -8 47.5t39 26.5z" />
    <glyph glyph-name="oe.sc" horiz-adv-x="633" 
d="M320 483h273v-45h-215v-173h210v-45h-210v-175h220v-45h-278q-49 0 -64 1q-69 7 -119 42q-100 72 -100 198q0 62 29 116t80 88q25 18 59 27q32 8 55 10q15 1 60 1zM327 45v393q-67 0 -97 -8q-53 -13 -96 -64q-42 -50 -42 -125q0 -62 31 -109t74 -67q48 -20 130 -20z" />
    <glyph glyph-name="oslash.sc" horiz-adv-x="584" 
d="M150 37l-37 -43h-58l62 71q-74 71 -74 178q0 100 69 173q70 73 180 73q83 0 151 -48l35 40h57l-60 -69q66 -70 66 -170q0 -105 -73 -177q-73 -71 -176 -71q-81 0 -142 43zM440 371l-257 -296q50 -32 108 -32q80 0 138 56q57 57 57 142q0 75 -46 130zM151 104l258 298
q-50 38 -117 38q-83 0 -138 -58q-56 -58 -56 -141q0 -78 53 -137z" />
    <glyph glyph-name="ugrave.sc" horiz-adv-x="501" 
d="M53 239v244h50v-250q0 -75 24 -120q38 -71 123 -71q41 0 75 18.5t49 50.5q24 49 24 122v250h50v-244q0 -58 -6.5 -92t-26.5 -65q-55 -88 -163 -88q-52 0 -96.5 22.5t-68.5 63.5q-22 38 -28 72q-6 33 -6 87zM87 665h122l122 -128h-49z" />
    <glyph glyph-name="uacute.sc" horiz-adv-x="501" 
d="M53 239v244h50v-250q0 -75 24 -120q38 -71 123 -71q41 0 75 18.5t49 50.5q24 49 24 122v250h50v-244q0 -58 -6.5 -92t-26.5 -65q-55 -88 -163 -88q-52 0 -96.5 22.5t-68.5 63.5q-22 38 -28 72q-6 33 -6 87zM163 537l123 128h122l-195 -128h-50z" />
    <glyph glyph-name="ucircumflex.sc" horiz-adv-x="501" 
d="M53 239v244h50v-250q0 -75 24 -120q38 -71 123 -71q41 0 75 18.5t49 50.5q24 49 24 122v250h50v-244q0 -58 -6.5 -92t-26.5 -65q-55 -88 -163 -88q-52 0 -96.5 22.5t-68.5 63.5q-22 38 -28 72q-6 33 -6 87zM288 674l127 -137h-51l-114 88l-111 -88h-53l124 137h78z" />
    <glyph glyph-name="udieresis.sc" horiz-adv-x="501" 
d="M53 239v244h50v-250q0 -75 24 -120q38 -71 123 -71q41 0 75 18.5t49 50.5q24 49 24 122v250h50v-244q0 -58 -6.5 -92t-26.5 -65q-55 -88 -163 -88q-52 0 -96.5 22.5t-68.5 63.5q-22 38 -28 72q-6 33 -6 87zM200 608q0 -18 -13 -30.5t-31 -12.5t-30.5 12.5t-12.5 30.5
t12.5 31t30.5 13t31 -12.5t13 -31.5zM345 651q18 0 30.5 -13t12.5 -30q0 -28 -26.5 -39t-47.5 8q-19 21 -8 47.5t39 26.5z" />
    <glyph glyph-name="yacute.sc" horiz-adv-x="433" 
d="M68 483l148 -199l149 199h62l-186 -244v-239h-51v239l-184 244h62zM149 537l123 128h122l-195 -128h-50z" />
    <glyph glyph-name="thorn.sc" horiz-adv-x="375" 
d="M113 0h-51v483h51v-108h49q40 0 51 -1q42 0 77 -20q61 -34 61 -110q0 -38 -17.5 -68.5t-46.5 -44.5q-19 -11 -39 -15q-27 -5 -81 -5h-54v-111zM163 329h-50v-173h56q38 0 65 5q62 15 62 82q0 46 -31 67q-10 8 -33 13q-24 6 -69 6z" />
    <glyph glyph-name="ydieresis.sc" horiz-adv-x="433" 
d="M68 483l148 -199l149 199h62l-186 -244v-239h-51v239l-184 244h62zM166 608q0 -18 -13 -30.5t-31 -12.5t-30.5 12.5t-12.5 30.5t12.5 31t30.5 13t31 -12.5t13 -31.5zM311 651q18 0 30.5 -13t12.5 -30q0 -28 -26.5 -39t-47.5 8q-19 21 -8 47.5t39 26.5z" />
    <glyph glyph-name="zero.fitted" 
d="M468 338q0 -178 -72 -267q-65 -80 -144 -80q-92 0 -156 90q-64 89 -64 248q0 167 49 249q65 113 169 113q91 0 154 -91q64 -89 64 -262zM418 344q0 35 -4.5 72.5t-16.5 79.5t-30.5 74t-48.5 53.5t-67 21.5q-55 0 -94 -47q-74 -87 -74 -256q0 -128 44 -216q45 -86 121 -86
q44 0 78 28.5t53.5 74.5t29 97t9.5 104z" />
    <glyph glyph-name="one.fitted" horiz-adv-x="189" 
d="M69 682h51v-682h-51v682z" />
    <glyph glyph-name="two.fitted" horiz-adv-x="462" 
d="M135 48h317v-48h-435q117 107 224 260q93 134 93 239q0 65 -47 106q-46 40 -105 40q-42 0 -76.5 -17.5t-78.5 -57.5v59q74 62 159 62q88 0 143 -58q57 -59 57 -135q0 -108 -102 -260q-31 -47 -149 -190z" />
    <glyph glyph-name="three.fitted" horiz-adv-x="434" 
d="M17 25v47q75 -35 152 -35q72 0 116 40t44 106q0 25 -8 49.5t-26 48.5t-55.5 39t-88.5 15v48q85 1 127 42q43 40 43 91q0 58 -47 93t-110 35q-73 0 -141 -46v49q62 44 144 44q94 0 148 -51q55 -49 55 -121q0 -113 -123 -157q35 -12 60 -29q67 -40 71 -146q0 -52 -20 -92
t-52 -61.5t-65.5 -32t-65.5 -10.5q-89 0 -158 34z" />
    <glyph glyph-name="four.fitted" horiz-adv-x="497" 
d="M354 691h19v-387h95v-41h-95v-263h-51v263h-311v17zM82 304h240v288z" />
    <glyph glyph-name="five.fitted" horiz-adv-x="470" 
d="M90 682h287v-46h-241v-217q27 4 54 4q62 0 109.5 -20t71.5 -54q46 -63 46 -137q0 -92 -62 -157q-61 -64 -159 -64q-74 0 -164 45v58q97 -56 165 -56q67 0 117 45t50 125q0 99 -67 138q-54 32 -111 32q-34 0 -96 -13v317z" />
    <glyph glyph-name="six.fitted" horiz-adv-x="473" 
d="M321 691l30 -36q-57 -40 -133 -117q-45 -46 -78 -106t-43 -116q74 53 151 53q73 0 132 -50t59 -136q0 -85 -55 -139q-56 -53 -139 -53q-91 0 -150 62q-58 62 -58 178q0 167 121 310q69 81 163 150zM88 257q0 -1 -1 -17t-1 -23q0 -50 29 -109q16 -31 49.5 -50t77.5 -19
q65 0 105 40q41 41 41 97q0 52 -37 98q-38 47 -110 47q-80 0 -153 -64z" />
    <glyph glyph-name="seven.fitted" horiz-adv-x="485" 
d="M14 682h446l-312 -691l-44 19l282 625h-372v47z" />
    <glyph glyph-name="eight.fitted" 
d="M344 355q101 -62 101 -169q0 -81 -56 -139q-56 -56 -137 -56t-139 55q-57 56 -57 136q0 77 52 135q20 21 50 38q-89 60 -89 154q0 71 51 126q53 56 129 56q75 0 128 -54q54 -53 54 -127q0 -68 -44 -118q-14 -17 -43 -37zM381 511q0 55 -39 92q-38 38 -94 38
q-54 0 -92 -39q-38 -40 -38 -93q0 -56 38 -94q38 -37 95 -37t93 38q37 38 37 95zM393 189q0 60 -43 99q-41 40 -101 40q-59 0 -101 -42q-41 -43 -41 -102q0 -61 42 -101q44 -41 103 -41q62 0 101 42q40 41 40 105z" />
    <glyph glyph-name="nine.fitted" horiz-adv-x="473" 
d="M146 -9l-28 37q15 11 36 28t22 18q22 16 60 54q43 41 62 68q61 84 76 169q-85 -50 -150 -50q-74 0 -132 49t-58 137q0 79 52 134q53 56 140 56q95 0 152.5 -63t57.5 -176q-4 -151 -86 -264q-46 -65 -108 -120q-42 -36 -51 -43q-24 -20 -45 -34zM383 426q5 74 -12 122
q-15 45 -52.5 71.5t-89.5 26.5q-63 0 -103 -42q-40 -41 -40 -100q0 -60 39 -100q41 -41 100 -41q87 0 158 63z" />
    <glyph glyph-name="zero.taboldstyle" 
d="M92 55q-61 64 -61 170q0 105 61 169t158 64q96 0 157 -64q62 -65 62 -169q0 -105 -62 -170q-61 -64 -157 -64q-97 0 -158 64zM250 36q78 0 123.5 50t45.5 139t-45 138.5t-124 49.5t-124 -49.5t-45 -138.5t45 -139t124 -50z" />
    <glyph glyph-name="one.taboldstyle" 
d="M324 458v-458h-50v378l-135 -102l-22 39l185 143h22z" />
    <glyph glyph-name="two.taboldstyle" 
d="M209 67l-26 -22h236v-45h-354v8l34 27l41 33q10 10 39 33q38 32 43 37l37 36q27 27 35 37q55 70 50 101q0 48 -29.5 74.5t-71.5 26.5q-74 0 -156 -82v59q35 28 45 34q52 34 112 34q68 0 109 -38t41 -101q0 -32 -24 -78q-11 -21 -58 -77q-9 -12 -36 -37l-34 -31z" />
    <glyph glyph-name="three.taboldstyle" 
d="M54 404v45h367l-197 -309q88 0 139.5 -45.5t51.5 -126.5q0 -87 -62 -143q-61 -55 -147 -55q-71 0 -147 47v49q29 -18 49 -28q52 -28 99 -28q66 0 112 43q47 44 47 116q0 59 -45 95t-115 36q-24 0 -62 -5l189 309h-279z" />
    <glyph glyph-name="four.taboldstyle" 
d="M316 -230v230h-305v11l342 447h13v-418h122v-40h-122v-230h-50zM316 347l-229 -307h229v307z" />
    <glyph glyph-name="five.taboldstyle" 
d="M178 449h282v-45h-239l-43 -257q122 6 189 -48q68 -54 68 -136q0 -87 -64 -139q-63 -54 -147 -54q-77 0 -168 53l2 56q91 -64 169 -64q59 0 108 37q50 38 50 109q0 9 -1.5 18.5t-7 27t-16 30.5t-29.5 29.5t-47 23.5t-68 12t-93 -4z" />
    <glyph glyph-name="six.taboldstyle" 
d="M333 691l30 -36q-208 -141 -253 -339q70 53 151 53q79 0 134 -52q56 -53 56 -134q0 -88 -58 -140t-135 -52q-86 0 -148 59q-61 60 -61 181q0 254 284 460zM100 253q-1 -5 -1 -41q0 -66 40 -118q41 -53 115 -53q64 0 105.5 37.5t41.5 97.5q0 28 -14 61q-15 34 -51 58
t-82 24q-35 0 -68 -11q-44 -14 -86 -55z" />
    <glyph glyph-name="seven.taboldstyle" 
d="M54 449h393l-312 -679l-44 19l288 615h-325v45z" />
    <glyph glyph-name="eight.taboldstyle" 
d="M326 355q118 -58 118 -173q0 -76 -55 -134q-55 -57 -138 -57q-82 0 -139 57q-57 58 -57 134q0 58 33.5 104t86.5 69q-106 61 -106 157q0 72 53 125q54 54 127 54q70 0 125 -52q56 -51 56 -126q0 -96 -104 -158zM380 511q0 55 -39 92q-38 38 -94 38q-53 0 -91 -39
q-37 -37 -37 -93t38 -94q37 -37 93 -37q57 0 93 38q37 38 37 95zM394 182q0 52 -41 99t-105 47q-60 0 -102 -44q-41 -44 -41 -102q0 -56 39 -99q40 -42 105 -42q66 0 105.5 40t39.5 101z" />
    <glyph glyph-name="nine.taboldstyle" 
d="M162 -230l-30 36q217 146 257 327q-70 -53 -151 -53q-80 0 -135 52t-55 134q0 88 58 140t135 52q87 0 148 -60q61 -58 61 -180q0 -126 -71.5 -234.5t-216.5 -213.5zM399 196q1 5 1 41q0 64 -41 120t-115 56q-66 0 -107 -42q-39 -41 -39 -98q0 -53 41 -99q41 -44 106 -44
q100 0 154 66z" />
    <glyph glyph-name="zero.denominator" horiz-adv-x="313" 
d="M291 176q0 -88 -41 -135q-40 -46 -93 -46q-58 0 -96.5 47t-38.5 129q0 103 46 150q38 39 88 39q58 0 96.5 -48t38.5 -136zM249 179q0 29 -8 63q-7 35 -30 61t-54 26q-44 0 -69 -46q-24 -45 -24 -105q0 -66 25 -108.5t66 -42.5q47 0 70 47q24 48 24 105z" />
    <glyph glyph-name="one.denominator" horiz-adv-x="312" 
d="M135 355h42v-355h-42v355z" />
    <glyph glyph-name="two.denominator" horiz-adv-x="323" 
d="M100 31h184v-31h-273q23 18 70 61q38 36 80 95q42 58 42 102q0 31 -25.5 51.5t-59.5 20.5q-25 0 -44 -9.5t-52 -36.5v41q47 35 99 35q55 0 89 -31q35 -32 35 -71q0 -34 -24 -78q-25 -45 -49 -72q-31 -35 -72 -77z" />
    <glyph glyph-name="three.denominator" horiz-adv-x="313" 
d="M29 15v32q43 -22 95 -22q40 0 64.5 19.5t24.5 52.5q0 75 -105 74v31q51 0 75.5 19t24.5 45q0 29 -25.5 46t-60.5 17q-43 0 -89 -28v34q38 25 91 25q55 0 90 -26t35 -66q0 -56 -68 -80q73 -22 73 -90q0 -50 -40 -77q-41 -26 -86 -26q-54 0 -99 20z" />
    <glyph glyph-name="four.denominator" horiz-adv-x="312" 
d="M216 360h20v-198h57v-28h-57v-134h-41v134h-184v13zM195 293l-127 -131h127v131z" />
    <glyph glyph-name="five.denominator" horiz-adv-x="312" 
d="M61 355h181v-30h-142v-104q58 5 99 -12q67 -27 67 -98q0 -49 -38.5 -82.5t-97.5 -33.5q-49 0 -103 25v38q66 -32 103 -32q39 0 66 23t27 60q0 36 -23 56q-29 28 -76 28q-23 0 -63 -8v170z" />
    <glyph glyph-name="six.denominator" horiz-adv-x="312" 
d="M207 362l23 -25q-55 -31 -99 -79q-30 -31 -50 -84q45 21 81 21q45 0 82 -26q37 -25 37 -73q0 -44 -34.5 -72.5t-85.5 -28.5q-55 0 -92 32.5t-37 94.5q0 131 175 240zM74 134q-5 -51 18.5 -79.5t66.5 -28.5q35 0 57.5 19.5t22.5 47.5q0 25 -20 48q-19 24 -61.5 23
t-83.5 -30z" />
    <glyph glyph-name="seven.denominator" horiz-adv-x="323" 
d="M-4 357h277l-188 -362l-36 14l165 317h-218v31z" />
    <glyph glyph-name="eight.denominator" horiz-adv-x="313" 
d="M220 185q57 -36 57 -87q0 -43 -35 -73t-85 -30q-48 0 -85 29q-36 30 -36 72q0 58 58 89q-50 30 -50 79q0 37 32 66q32 30 80 30q45 0 79 -29q34 -28 34 -67q0 -51 -49 -79zM228 264q0 28 -22 46t-51 18q-30 0 -50.5 -19.5t-20.5 -46.5t21.5 -45t51.5 -18q31 0 51 18.5
t20 46.5zM235 100q0 30 -24 49t-55 19q-33 0 -55.5 -20.5t-22.5 -50.5t23.5 -49.5t56.5 -19.5q34 0 55.5 20t21.5 52z" />
    <glyph glyph-name="nine.denominator" horiz-adv-x="313" 
d="M134 22l-41 -27l-22 25q19 12 46 32q14 10 40 33q45 41 64 99q-45 -21 -81 -21q-45 0 -82 26q-36 27 -36 72q0 43 33 72t86 29q40 0 78 -21q51 -26 51 -105q0 -66 -45 -129q-17 -23 -46 -49t-45 -36zM228 224q4 108 -86 108q-34 0 -56 -19.5t-22 -49.5q0 -29 21.5 -49
t55.5 -20q47 0 87 30z" />
    <glyph glyph-name="zero.numerator" horiz-adv-x="313" 
d="M291 507q0 -88 -41 -135q-40 -45 -93 -45q-58 0 -96.5 47t-38.5 129q0 102 46 149q35 39 88 39q58 0 96.5 -48t38.5 -136zM249 511q0 31 -7.5 63t-29.5 59.5t-55 27.5q-44 0 -69 -46q-24 -45 -24 -105q0 -66 25 -109t66 -43q47 0 70 47q24 48 24 106z" />
    <glyph glyph-name="one.numerator" horiz-adv-x="312" 
d="M135 687h42v-355h-42v355z" />
    <glyph glyph-name="two.numerator" horiz-adv-x="323" 
d="M117 363h184v-31h-273q52 42 110 105q82 87 82 153q0 31 -25.5 51t-59.5 20q-25 0 -43 -9t-54 -36v41q49 34 100 34q53 0 88.5 -30.5t35.5 -71.5q0 -35 -24 -78q-23 -42 -49 -71q-7 -7 -72 -77z" />
    <glyph glyph-name="three.numerator" horiz-adv-x="313" 
d="M29 346v32q50 -21 95 -21q40 0 64.5 19.5t24.5 52.5q0 38 -28.5 56.5t-76.5 17.5v31q51 0 75.5 19t24.5 45q0 29 -25.5 46t-60.5 17q-42 0 -89 -29v34q34 25 91 25q56 0 90.5 -26t34.5 -65q0 -56 -68 -80q73 -24 73 -90q0 -50 -40 -77q-41 -26 -86 -26q-55 0 -99 19z" />
    <glyph glyph-name="four.numerator" horiz-adv-x="312" 
d="M216 691h20v-197h57v-28h-57v-134h-41v134h-184v12zM68 494h127v131z" />
    <glyph glyph-name="five.numerator" horiz-adv-x="312" 
d="M61 687h181v-30h-142v-104q58 5 99 -12q67 -28 67 -98q0 -49 -38.5 -82.5t-97.5 -33.5q-49 0 -103 25v38q66 -32 103 -32q40 0 66.5 22.5t26.5 60.5q0 26 -12 45t-31 26q-30 13 -56 13q-23 0 -63 -8v170z" />
    <glyph glyph-name="six.numerator" horiz-adv-x="312" 
d="M207 693l23 -24q-54 -31 -100 -80q-27 -28 -49 -83q45 21 81 21q45 0 82 -26q37 -25 37 -73q0 -44 -34.5 -72.5t-85.5 -28.5q-55 0 -92 32.5t-37 94.5q0 133 175 239zM74 466q-5 -51 18.5 -79.5t66.5 -28.5q35 0 57.5 19t22.5 47q0 29 -21 50.5t-60 21.5q-44 0 -84 -30z
" />
    <glyph glyph-name="seven.numerator" horiz-adv-x="323" 
d="M24 689h276l-188 -362l-36 14l166 317h-218v31z" />
    <glyph glyph-name="eight.numerator" horiz-adv-x="313" 
d="M220 516q57 -32 57 -87q0 -43 -35 -73q-35 -29 -85 -29q-49 0 -86 29q-35 29 -35 72q0 57 58 88q-50 30 -50 79q0 37 32 66q32 30 80 30t80 -28q33 -29 33 -68q0 -48 -49 -79zM155 659q-30 0 -50.5 -19t-20.5 -46t21.5 -45t51.5 -18q31 0 51 18.5t20 46.5q0 27 -22 45
t-51 18zM235 432q0 29 -24 48t-55 19q-33 0 -55.5 -20t-22.5 -51q0 -30 23.5 -49.5t56.5 -19.5t55 20t22 53z" />
    <glyph glyph-name="nine.numerator" horiz-adv-x="313" 
d="M134 351l-41 -27l-22 25q65 42 99.5 78t50.5 86q-39 -21 -81 -21q-45 0 -82 26q-36 27 -36 72q0 43 33 72t86 29q14 0 29 -2.5t33.5 -10.5t32.5 -21t24 -37t10 -56q0 -67 -45 -128q-17 -23 -46 -49q-29 -25 -45 -36zM228 552q4 109 -86 109q-34 0 -56 -19.5t-22 -49.5
t21 -49.5t56 -19.5q47 0 87 29z" />
    <glyph glyph-name="abreve.sc" horiz-adv-x="480" 
d="M417 0l-66 145h-226l-63 -145h-54l218 486h31l214 -486h-54zM238 410l-90 -221h183zM75 650h50q45 -60 116 -60t113 60h52q-13 -39 -37 -63q-53 -50 -128 -50q-79 0 -132 54q-21 22 -34 59z" />
    <glyph glyph-name="amacron.sc" horiz-adv-x="480" 
d="M417 0l-66 145h-226l-63 -145h-54l218 486h31l214 -486h-54zM238 410l-90 -221h183zM81 633h319v-50h-319v50z" />
    <glyph glyph-name="aogonek.sc" horiz-adv-x="480" 
d="M496 -127v-38q-33 -5 -41 -5q-43 0 -68 23.5t-25 58.5q0 52 55 88l-66 145h-226l-63 -145h-54l218 486h31l214 -486h-15q-26 -24 -34.5 -39t-8.5 -33q0 -5 0.5 -10t5 -14.5t12.5 -16.5t25 -11.5t40 -2.5zM238 410l-90 -221h183z" />
    <glyph glyph-name="aeacute.sc" horiz-adv-x="626" 
d="M320 0v174h-152l-101 -174h-59l290 483h286v-45h-213v-172h208v-45h-208v-176h219v-45h-270zM320 443l-126 -225h126v225zM356 537l123 128h122l-195 -128h-50z" />
    <glyph glyph-name="cacute.sc" horiz-adv-x="487" 
d="M457 447v-57q-92 50 -162 50q-87 0 -143 -56q-54 -55 -54 -143q0 -87 54 -142t141 -55q69 0 168 51v-54q-86 -47 -169 -47q-102 0 -176 68q-73 67 -73 179q0 114 76 181t169 67q80 0 169 -42zM206 537l123 128h122l-195 -128h-50z" />
    <glyph glyph-name="ccaron.sc" horiz-adv-x="487" 
d="M457 447v-57q-92 50 -162 50q-87 0 -143 -56q-54 -55 -54 -143q0 -87 54 -142t141 -55q69 0 168 51v-54q-86 -47 -169 -47q-102 0 -176 68q-73 67 -73 179q0 114 76 181t169 67q80 0 169 -42zM397 674h51l-127 -137h-78l-124 137h53l111 -88z" />
    <glyph glyph-name="ccircumflex.sc" horiz-adv-x="487" 
d="M457 447v-57q-92 50 -162 50q-87 0 -143 -56q-54 -55 -54 -143q0 -87 54 -142t141 -55q69 0 168 51v-54q-86 -47 -169 -47q-102 0 -176 68q-73 67 -73 179q0 114 76 181t169 67q80 0 169 -42zM321 674l127 -137h-51l-114 88l-111 -88h-53l124 137h78z" />
    <glyph glyph-name="cdotaccent.sc" horiz-adv-x="487" 
d="M457 447v-57q-92 50 -162 50q-87 0 -143 -56q-54 -55 -54 -143q0 -87 54 -142t141 -55q69 0 168 51v-54q-86 -47 -169 -47q-102 0 -176 68q-73 67 -73 179q0 114 76 181t169 67q80 0 169 -42zM289 651q17 0 30 -12.5t13 -30.5q0 -28 -26.5 -39t-47.5 8q-19 21 -8 47.5
t39 26.5z" />
    <glyph glyph-name="dcaron.sc" horiz-adv-x="529" 
d="M208 0h-145v483h145q69 0 124 -19.5t84 -49.5q28 -27 45 -63q25 -52 25 -105q0 -66 -30 -125q-30 -58 -76 -85q-38 -21 -75 -28.5t-97 -7.5zM213 438h-100v-393h100q52 0 80.5 5.5t57.5 23.5q36 22 58 68.5t22 98.5q0 56 -27.5 104t-73.5 70q-48 23 -117 23zM343 674h51
l-127 -137h-78l-124 137h53l111 -88z" />
    <glyph glyph-name="dcroat.sc" horiz-adv-x="529" 
d="M63 0v219h-61v45h61v219h145q69 0 124 -19.5t84 -49.5q28 -27 45 -63q25 -52 25 -105q0 -66 -30 -125q-30 -58 -76 -85q-38 -21 -75 -28.5t-97 -7.5h-145zM268 264v-45h-155v-174h100q52 0 80.5 5.5t57.5 23.5q36 22 58 68.5t22 98.5q0 56 -27.5 104t-73.5 70
q-48 23 -117 23h-100v-174h155z" />
    <glyph glyph-name="ebreve.sc" horiz-adv-x="362" 
d="M63 483h264v-45h-213v-172h208v-45h-208v-176h218v-45h-269v483zM26 650h50q45 -60 116 -60t113 60h52q-13 -39 -37 -63q-53 -50 -128 -50q-80 0 -132 54q-21 22 -34 59z" />
    <glyph glyph-name="ecaron.sc" horiz-adv-x="362" 
d="M63 483h264v-45h-213v-172h208v-45h-208v-176h218v-45h-269v483zM305 674h51l-127 -137h-78l-124 137h53l111 -88z" />
    <glyph glyph-name="edotaccent.sc" horiz-adv-x="362" 
d="M63 483h264v-45h-213v-172h208v-45h-208v-176h218v-45h-269v483zM200 651q17 0 30 -12.5t13 -30.5q0 -28 -26.5 -39t-47.5 8q-19 21 -8 47.5t39 26.5z" />
    <glyph glyph-name="emacron.sc" horiz-adv-x="362" 
d="M63 483h264v-45h-213v-172h208v-45h-208v-176h218v-45h-269v483zM32 633h319v-50h-319v50z" />
    <glyph glyph-name="eng.sc" horiz-adv-x="480" 
d="M382 111v124q0 29 -1 38q0 52 -10 79q-17 48 -39 63q-33 26 -87 26q-46 0 -77 -16q-21 -10 -34 -20.5t-17.5 -18t-17.5 -28.5v-358h-51v484h51v-59q21 23 28 29q15 13 48.5 25t71.5 12q81 0 124 -43q45 -42 53 -95q8 -48 8 -111v-128q0 -123 -104 -123q-10 0 -28 2l-5 45
q18 -3 31 -3q30 0 43 18.5t13 57.5z" />
    <glyph glyph-name="eogonek.sc" horiz-adv-x="362" 
d="M332 -127v-38q-30 -5 -39 -5q-44 0 -69 23.5t-25 58.5q0 52 55 88h-191v483h264v-45h-213v-172h208v-45h-208v-176h218v-45h-39q-26 -24 -34.5 -39t-8.5 -33q0 -7 2.5 -15t9.5 -20t25 -17.5t45 -2.5z" />
    <glyph glyph-name="gbreve.sc" horiz-adv-x="515" 
d="M459 446v-59q-79 53 -170 53q-76 0 -133 -54t-57 -145q0 -87 57 -143q56 -55 132 -55q59 0 129 26v114h-96v45h147v-192q-92 -42 -179 -42q-98 0 -171 70q-74 71 -74 179q0 105 71 176q70 70 180 70q74 0 164 -43zM112 650h50q45 -60 116 -60t113 60h52q-13 -39 -37 -63
q-53 -50 -128 -50q-80 0 -132 54q-21 22 -34 59z" />
    <glyph glyph-name="gcircumflex.sc" horiz-adv-x="515" 
d="M459 446v-59q-79 53 -170 53q-76 0 -133 -54t-57 -145q0 -87 57 -143q56 -55 132 -55q59 0 129 26v114h-96v45h147v-192q-92 -42 -179 -42q-98 0 -171 70q-74 71 -74 179q0 105 71 176q70 70 180 70q74 0 164 -43zM313 674l127 -137h-51l-114 88l-111 -88h-53l124 137h78
z" />
    <glyph glyph-name="gcommaaccent.sc" horiz-adv-x="515" 
d="M459 446v-59q-79 53 -170 53q-76 0 -133 -54t-57 -145q0 -87 57 -143q56 -55 132 -55q59 0 129 26v114h-96v45h147v-192q-92 -42 -179 -42q-98 0 -171 70q-74 71 -74 179q0 105 71 176q70 70 180 70q74 0 164 -43zM163 -189l7 36q20 -3 39 -3q92 0 92 44t-115 40l7 36
q9 1 38 1q121 0 121 -73q0 -38 -34 -62t-100 -24q-25 0 -55 5z" />
    <glyph glyph-name="gdotaccent.sc" horiz-adv-x="515" 
d="M459 446v-59q-79 53 -170 53q-76 0 -133 -54t-57 -145q0 -87 57 -143q56 -55 132 -55q59 0 129 26v114h-96v45h147v-192q-92 -42 -179 -42q-98 0 -171 70q-74 71 -74 179q0 105 71 176q70 70 180 70q74 0 164 -43zM293 651q17 0 30 -12.5t13 -30.5q0 -28 -26.5 -39
t-47.5 8q-19 21 -8 47.5t39 26.5z" />
    <glyph glyph-name="hbar.sc" horiz-adv-x="515" 
d="M114 390h288v93h50v-93h45v-46h-45v-344h-50v222h-288v-222h-51v344h-45v46h45v93h51v-93zM114 267h288v77h-288v-77z" />
    <glyph glyph-name="hcircumflex.sc" horiz-adv-x="515" 
d="M114 483v-216h288v216h50v-483h-50v222h-288v-222h-51v483h51zM295 674l127 -137h-51l-114 88l-111 -88h-53l124 137h78z" />
    <glyph glyph-name="ibreve.sc" horiz-adv-x="174" 
d="M62 483h50v-483h-50v483zM-78 650h50q45 -60 116 -60t113 60h52q-13 -39 -37 -63q-53 -50 -128 -50q-80 0 -132 54q-21 22 -34 59z" />
    <glyph glyph-name="ij.sc" horiz-adv-x="348" 
d="M62 483h50v-483h-50v483zM239 19v464h51v-468q0 -146 -110 -146q-14 0 -30 6v43q18 -6 32 -6q39 0 49 37q8 27 8 70z" />
    <glyph glyph-name="imacron.sc" horiz-adv-x="174" 
d="M62 483h50v-483h-50v483zM-72 633h319v-50h-319v50z" />
    <glyph glyph-name="iogonek.sc" horiz-adv-x="174" 
d="M136 -127v-38q-33 -5 -41 -5q-43 0 -68.5 23.5t-25.5 58.5q0 54 61 91v480h50v-483h-16q-26 -26 -34.5 -40t-8.5 -32q0 -5 0.5 -10t5 -14.5t12.5 -16.5t25 -11.5t40 -2.5z" />
    <glyph glyph-name="itilde.sc" horiz-adv-x="174" 
d="M64 483h50v-483h-50v483zM-35 547h-41q-2 51 10 76q9 20 29 31.5t43 11.5q40 0 118 -38q42 -19 59 -21t22 8t9 45q1 6 1 9h41q-1 -51 -10 -75q-19 -46 -66 -46q-43 0 -120 37q-48 23 -62 23q-19 0 -25 -12.5t-8 -48.5z" />
    <glyph glyph-name="jcircumflex.sc" horiz-adv-x="174" 
d="M65 19v464h51v-468q0 -146 -110 -146q-14 0 -30 6v43q18 -6 32 -6q39 0 49 37q8 27 8 70zM125 674l127 -137h-51l-114 88l-111 -88h-53l124 137h78z" />
    <glyph glyph-name="kcommaaccent.sc" horiz-adv-x="412" 
d="M111 483v-227l207 227h64l-222 -234l245 -249h-73l-221 224v-224h-51v483h51zM112 -189l7 36q19 -3 39 -3q92 0 92 44t-115 40l7 36q9 1 38 1q121 0 121 -73q0 -38 -34 -62t-100 -24q-25 0 -55 5z" />
    <glyph glyph-name="lacute.sc" horiz-adv-x="348" 
d="M63 483h50v-438h225v-45h-275v483zM87 537l123 128h122l-195 -128h-50z" />
    <glyph glyph-name="lcaron.sc" horiz-adv-x="348" 
d="M63 483h50v-438h225v-45h-275v483zM205 483h65v-58q0 -107 -65 -154v34q22 34 21 82h-21v96z" />
    <glyph glyph-name="lcommaaccent.sc" horiz-adv-x="348" 
d="M63 483h50v-438h225v-45h-275v483zM80 -189l7 36q19 -3 39 -3q92 0 92 44t-115 40l7 36q9 1 38 1q121 0 121 -73q0 -38 -34 -62t-100 -24q-25 0 -55 5z" />
    <glyph glyph-name="ldot.sc" horiz-adv-x="348" 
d="M63 483h50v-438h225v-45h-275v483zM226 304q18 0 31 -12.5t13 -30.5t-13 -30.5t-31 -12.5t-30.5 12.5t-12.5 30.5t13 30.5t30 12.5z" />
    <glyph glyph-name="nacute.sc" horiz-adv-x="549" 
d="M62 483h44l331 -395v395h50v-483h-41l-333 398v-398h-51v483zM187 537l123 128h122l-195 -128h-50z" />
    <glyph glyph-name="ncaron.sc" horiz-adv-x="549" 
d="M62 483h44l331 -395v395h50v-483h-41l-333 398v-398h-51v483zM388 674h51l-127 -137h-78l-124 137h53l111 -88z" />
    <glyph glyph-name="ncommaaccent.sc" horiz-adv-x="549" 
d="M62 483h44l331 -395v395h50v-483h-41l-333 398v-398h-51v483zM180 -189l7 36q19 -3 39 -3q92 0 92 44t-115 40l7 36q9 1 38 1q121 0 121 -73q0 -38 -34 -62t-100 -24q-25 0 -55 5z" />
    <glyph glyph-name="obreve.sc" horiz-adv-x="584" 
d="M541 243q0 -108 -73 -178q-73 -71 -176 -71q-105 0 -177 72t-72 176q0 101 70 174t179 73q108 0 179 -72q70 -71 70 -174zM486 244q0 78 -54 137t-139 59q-84 0 -139 -58q-56 -58 -56 -141q0 -82 55 -140t138 -58q81 0 137 55q58 55 58 146zM127 650h50q45 -60 116 -60
t113 60h52q-13 -39 -37 -63q-53 -50 -128 -50q-79 0 -132 54q-21 22 -34 59z" />
    <glyph glyph-name="ohungarumlaut.sc" horiz-adv-x="584" 
d="M541 243q0 -108 -73 -178q-73 -71 -176 -71q-105 0 -177 72t-72 176q0 101 70 174t179 73q108 0 179 -72q70 -71 70 -174zM486 244q0 78 -54 137t-139 59q-84 0 -139 -58q-56 -58 -56 -141q0 -82 55 -140t138 -58q81 0 137 55q58 55 58 146zM261 665h105l-147 -128h-37z
M410 665h104l-146 -128h-38z" />
    <glyph glyph-name="omacron.sc" horiz-adv-x="584" 
d="M541 243q0 -108 -73 -178q-73 -71 -176 -71q-105 0 -177 72t-72 176q0 101 70 174t179 73q108 0 179 -72q70 -71 70 -174zM486 244q0 78 -54 137t-139 59q-84 0 -139 -58q-56 -58 -56 -141q0 -82 55 -140t138 -58q81 0 137 55q58 55 58 146zM133 633h319v-50h-319v50z
" />
    <glyph glyph-name="oslashacute.sc" horiz-adv-x="584" 
d="M150 37l-37 -43h-58l62 71q-74 71 -74 178q0 100 69 173q70 73 180 73q83 0 151 -48l35 40h57l-60 -69q66 -70 66 -170q0 -105 -73 -177q-73 -71 -176 -71q-81 0 -142 43zM440 371l-257 -296q50 -32 108 -32q80 0 138 56q57 57 57 142q0 75 -46 130zM151 104l258 298
q-50 38 -117 38q-83 0 -138 -58q-56 -58 -56 -141q0 -78 53 -137zM205 537l123 128h122l-195 -128h-50z" />
    <glyph glyph-name="racute.sc" horiz-adv-x="434" 
d="M112 0h-50v483h97q77 0 111 -15q32 -13 53 -44t21 -67q0 -79 -89 -114q21 -12 34 -31q12 -16 63 -98q58 -94 76 -114h-63l-90 145q-24 39 -44 56q-19 17 -32 20.5t-46 3.5h-41v-225zM162 438h-50v-168h42q78 0 104 20q31 24 31 66q0 46 -38 68q-30 14 -89 14zM130 537
l123 128h122l-195 -128h-50z" />
    <glyph glyph-name="rcaron.sc" horiz-adv-x="434" 
d="M112 0h-50v483h97q77 0 111 -15q32 -13 53 -44t21 -67q0 -79 -89 -114q21 -12 34 -31q12 -16 63 -98q58 -94 76 -114h-63l-90 145q-24 39 -44 56q-19 17 -32 20.5t-46 3.5h-41v-225zM162 438h-50v-168h42q78 0 104 20q31 24 31 66q0 46 -38 68q-30 14 -89 14zM321 674h51
l-127 -137h-78l-124 137h53l111 -88z" />
    <glyph glyph-name="rcommaaccent.sc" horiz-adv-x="434" 
d="M112 0h-50v483h97q77 0 111 -15q32 -13 53 -44t21 -67q0 -79 -89 -114q21 -12 34 -31q12 -16 63 -98q58 -94 76 -114h-63l-90 145q-24 39 -44 56q-19 17 -32 20.5t-46 3.5h-41v-225zM162 438h-50v-168h42q78 0 104 20q31 24 31 66q0 46 -38 68q-30 14 -89 14zM123 -189
l7 36q20 -3 39 -3q92 0 92 44t-115 40l7 36q9 1 38 1q121 0 121 -73q0 -38 -34 -62t-100 -24q-25 0 -55 5z" />
    <glyph glyph-name="sacute.sc" horiz-adv-x="348" 
d="M292 462l-1 -52q-44 32 -102 32q-30 0 -51 -10t-29.5 -25t-12 -26.5t-3.5 -20.5q0 -26 16 -45q15 -17 29 -24t51 -21q44 -16 80 -44q41 -32 41 -96q0 -62 -43 -99q-41 -37 -96 -37q-61 0 -125 33v54q70 -39 118 -39q50 0 72 28t22 59q0 28 -16 47q-10 13 -22 22t-20 12.5
t-29 11.5q-45 16 -83 40q-47 32 -47 96q0 52 39 91q39 40 98 40q56 0 114 -27zM102 537l123 128h122l-195 -128h-50z" />
    <glyph glyph-name="scedilla.sc" horiz-adv-x="348" 
d="M175 -6l-8 -29q20 -6 38 -16q24 -13 24 -47t-26.5 -55.5t-73.5 -21.5q-9 0 -42 5l5 32q24 -2 30 -2q68 0 68 39q0 35 -63 39l18 57q-41 4 -99 32v54q70 -39 118 -39q50 0 72 28t22 59q0 28 -16 47q-10 13 -22 22t-20 12.5t-29 11.5q-45 16 -83 40q-47 32 -47 96
q0 52 39 91q39 40 98 40q56 0 114 -27l-1 -52q-44 32 -102 32q-30 0 -51 -10t-29.5 -25t-12 -26.5t-3.5 -20.5q0 -26 16 -45q15 -17 29 -24t51 -21q44 -16 80 -44q41 -32 41 -96q0 -59 -41 -97t-94 -39z" />
    <glyph glyph-name="scircumflex.sc" horiz-adv-x="348" 
d="M292 462l-1 -52q-44 32 -102 32q-30 0 -51 -10t-29.5 -25t-12 -26.5t-3.5 -20.5q0 -26 16 -45q15 -17 29 -24t51 -21q44 -16 80 -44q41 -32 41 -96q0 -62 -43 -99q-41 -37 -96 -37q-61 0 -125 33v54q70 -39 118 -39q50 0 72 28t22 59q0 28 -16 47q-10 13 -22 22t-20 12.5
t-29 11.5q-45 16 -83 40q-47 32 -47 96q0 52 39 91q39 40 98 40q56 0 114 -27zM212 674l127 -137h-51l-114 88l-111 -88h-53l124 137h78z" />
    <glyph glyph-name="scommaaccent.sc" horiz-adv-x="348" 
d="M292 462l-1 -52q-44 32 -102 32q-30 0 -51 -10t-29.5 -25t-12 -26.5t-3.5 -20.5q0 -26 16 -45q15 -17 29 -24t51 -21q44 -16 80 -44q41 -32 41 -96q0 -62 -43 -99q-41 -37 -96 -37q-61 0 -125 33v54q70 -39 118 -39q50 0 72 28t22 59q0 28 -16 47q-10 13 -22 22t-20 12.5
t-29 11.5q-45 16 -83 40q-47 32 -47 96q0 52 39 91q39 40 98 40q56 0 114 -27zM80 -189l7 36q19 -3 39 -3q92 0 92 44t-115 40l7 36q9 1 38 1q121 0 121 -73q0 -38 -34 -62t-100 -24q-25 0 -55 5z" />
    <glyph glyph-name="tbar.sc" horiz-adv-x="417" 
d="M234 438v-191h142v-45h-142v-202h-51v202h-142v45h142v191h-171v45h393v-45h-171z" />
    <glyph glyph-name="tcaron.sc" horiz-adv-x="417" 
d="M12 483h393v-45h-171v-438h-51v438h-171v45zM322 674h51l-127 -137h-78l-124 137h53l111 -88z" />
    <glyph glyph-name="tcommaaccent.sc" horiz-adv-x="417" 
d="M12 483h393v-45h-171v-438h-51v438h-171v45zM114 -189l7 36q19 -3 39 -3q92 0 92 44t-115 40l7 36q9 1 38 1q121 0 121 -73q0 -38 -34 -62t-100 -24q-25 0 -55 5z" />
    <glyph glyph-name="ubreve.sc" horiz-adv-x="501" 
d="M53 239v244h50v-250q0 -75 24 -120q38 -71 123 -71q41 0 75 18.5t49 50.5q24 49 24 122v250h50v-244q0 -58 -6.5 -92t-26.5 -65q-55 -88 -163 -88q-52 0 -96.5 22.5t-68.5 63.5q-22 38 -28 72q-6 33 -6 87zM85 650h50q45 -60 116 -60t113 60h52q-13 -39 -37 -63
q-53 -50 -128 -50q-79 0 -132 54q-21 22 -34 59z" />
    <glyph glyph-name="uhungarumlaut.sc" horiz-adv-x="501" 
d="M53 239v244h50v-250q0 -75 24 -120q38 -71 123 -71q41 0 75 18.5t49 50.5q24 49 24 122v250h50v-244q0 -58 -6.5 -92t-26.5 -65q-55 -88 -163 -88q-52 0 -96.5 22.5t-68.5 63.5q-22 38 -28 72q-6 33 -6 87zM219 665h105l-147 -128h-37zM368 665h104l-146 -128h-38z" />
    <glyph glyph-name="umacron.sc" horiz-adv-x="501" 
d="M53 239v244h50v-250q0 -75 24 -120q38 -71 123 -71q41 0 75 18.5t49 50.5q24 49 24 122v250h50v-244q0 -58 -6.5 -92t-26.5 -65q-55 -88 -163 -88q-52 0 -96.5 22.5t-68.5 63.5q-22 38 -28 72q-6 33 -6 87zM91 633h319v-50h-319v50z" />
    <glyph glyph-name="uogonek.sc" horiz-adv-x="501" 
d="M367 -127v-38q-37 -5 -42 -5q-42 0 -67.5 23.5t-25.5 58.5q0 48 49 84q-16 -2 -28 -2q-52 0 -97 22.5t-69 63.5q-22 38 -28 72q-6 33 -6 87v244h50v-250q0 -75 24 -120q38 -71 123 -71q41 0 75 18.5t49 50.5q24 49 24 122v250h50v-244q0 -65 -14 -117q-17 -65 -93 -108
q-35 -33 -46 -49.5t-11 -36.5q0 -5 0.5 -10t5 -14.5t12.5 -16.5t25 -11.5t40 -2.5z" />
    <glyph glyph-name="uring.sc" horiz-adv-x="501" 
d="M53 239v244h50v-250q0 -75 24 -120q38 -71 123 -71q41 0 75 18.5t49 50.5q24 49 24 122v250h50v-244q0 -58 -6.5 -92t-26.5 -65q-55 -88 -163 -88q-52 0 -96.5 22.5t-68.5 63.5q-22 38 -28 72q-6 33 -6 87zM251 744q43 0 73.5 -30.5t30.5 -73.5t-30.5 -73.5t-73.5 -30.5
t-74 30.5t-31 73.5t30.5 73.5t74.5 30.5zM249 714q-30 0 -52 -21.5t-22 -52.5t22 -52.5t52 -21.5q31 0 52.5 21.5t21.5 52.5q0 30 -21.5 52t-52.5 22z" />
    <glyph glyph-name="utilde.sc" horiz-adv-x="501" 
d="M53 239v244h50v-250q0 -75 24 -120q38 -71 123 -71q41 0 75 18.5t49 50.5q24 49 24 122v250h50v-244q0 -58 -6.5 -92t-26.5 -65q-55 -88 -163 -88q-52 0 -96.5 22.5t-68.5 63.5q-22 38 -28 72q-6 33 -6 87zM126 547h-41q-2 51 10 76q9 20 29 31.5t43 11.5q40 0 118 -38
q42 -19 59 -21t22 8t9 45q1 6 1 9h41q-1 -51 -10 -75q-19 -46 -66 -46q-43 0 -120 37q-48 23 -62 23q-19 0 -25 -12.5t-8 -48.5z" />
    <glyph glyph-name="wacute.sc" horiz-adv-x="727" 
d="M350 483h27l145 -397l145 397h52l-186 -486h-23l-147 390l-146 -390h-23l-186 486h52l145 -397zM276 537l123 128h122l-195 -128h-50z" />
    <glyph glyph-name="wcircumflex.sc" horiz-adv-x="727" 
d="M350 483h27l145 -397l145 397h52l-186 -486h-23l-147 390l-146 -390h-23l-186 486h52l145 -397zM401 674l127 -137h-51l-114 88l-111 -88h-53l124 137h78z" />
    <glyph glyph-name="wdieresis.sc" horiz-adv-x="727" 
d="M350 483h27l145 -397l145 397h52l-186 -486h-23l-147 390l-146 -390h-23l-186 486h52l145 -397zM313 608q0 -18 -13 -30.5t-31 -12.5t-30.5 12.5t-12.5 30.5t12.5 31t30.5 13t31 -12.5t13 -31.5zM458 651q18 0 30.5 -13t12.5 -30q0 -28 -26.5 -39t-47.5 8q-19 21 -8 47.5
t39 26.5z" />
    <glyph glyph-name="wgrave.sc" horiz-adv-x="727" 
d="M350 483h27l145 -397l145 397h52l-186 -486h-23l-147 390l-146 -390h-23l-186 486h52l145 -397zM200 665h122l122 -128h-49z" />
    <glyph glyph-name="ycircumflex.sc" horiz-adv-x="433" 
d="M68 483l148 -199l149 199h62l-186 -244v-239h-51v239l-184 244h62zM260 674l127 -137h-51l-114 88l-111 -88h-53l124 137h78z" />
    <glyph glyph-name="ygrave.sc" horiz-adv-x="433" 
d="M68 483l148 -199l149 199h62l-186 -244v-239h-51v239l-184 244h62zM53 665h122l122 -128h-49z" />
    <glyph glyph-name="zacute.sc" horiz-adv-x="459" 
d="M16 20l334 418h-310v45h387v-22l-330 -416h336v-45h-417v20zM152 537l123 128h122l-195 -128h-50z" />
    <glyph glyph-name="zdotaccent.sc" horiz-adv-x="459" 
d="M16 20l334 418h-310v45h387v-22l-330 -416h336v-45h-417v20zM230 651q17 0 30 -12.5t13 -30.5q0 -28 -26.5 -39t-47.5 8q-19 21 -8 47.5t39 26.5z" />
    <glyph glyph-name="idotaccent.sc" horiz-adv-x="174" 
d="M62 483h50v-483h-50v483zM88 651q17 0 30 -12.5t13 -30.5q0 -28 -26.5 -39t-47.5 8q-19 21 -8 47.5t39 26.5z" />
    <glyph glyph-name="one.alt" 
d="M320 691v-691h-52v609l-175 -145l-25 37l231 190h21z" />
    <glyph glyph-name="afii10066.ital" horiz-adv-x="542" 
d="M45 564q0 61 47 94.5t141 33.5q3 0 11 -0.5t22 -1t27 -0.5q66 -2 86 -2q48 0 98 11l-6 -51q-31 -7 -74 -9q-5 0 -71 2q-50 3 -72 3q-96 0 -127 -22t-31 -62q0 -35 46 -69q46 -33 129 -33q100 0 164 -64t64 -170q0 -99 -65 -167q-64 -66 -163 -66q-98 0 -164 66
q-65 68 -65 167q0 66 38 125q37 58 95 81q-44 11 -87 46q-43 36 -43 88zM448 224q0 85 -49 136t-128 51q-77 0 -128 -53q-50 -53 -50 -134q0 -80 50 -133q51 -53 128 -53q76 0 126 53q51 53 51 133z" />
    <glyph glyph-name="A.sc" horiz-adv-x="480" 
d="M417 0l-66 145h-226l-63 -145h-54l218 486h31l214 -486h-54zM238 410l-90 -221h183z" />
    <glyph glyph-name="B.sc" horiz-adv-x="389" 
d="M189 0h-126v483h78q79 0 112 -16q31 -13 51.5 -43.5t20.5 -66.5q0 -29 -13 -51q-8 -14 -16 -23t-13.5 -13.5t-23.5 -16.5q106 -34 106 -122q0 -67 -48 -98q-29 -20 -55.5 -26.5t-72.5 -6.5zM140 438h-26v-172h35q34 0 59 5q63 17 63 81q0 60 -47 74q-34 12 -84 12z
M169 221h-55v-176h71h22q40 3 54 11q49 24 49 77q0 31 -13.5 48t-37.5 29q-13 7 -32 8q-25 3 -58 3z" />
    <glyph glyph-name="C.sc" horiz-adv-x="487" 
d="M457 447v-57q-92 50 -162 50q-87 0 -143 -56q-54 -55 -54 -143q0 -87 54 -142t141 -55q69 0 168 51v-54q-86 -47 -169 -47q-102 0 -176 68q-73 67 -73 179q0 114 76 181t169 67q80 0 169 -42z" />
    <glyph glyph-name="D.sc" horiz-adv-x="529" 
d="M208 0h-145v483h145q69 0 124 -19.5t84 -49.5q28 -27 45 -63q25 -52 25 -105q0 -66 -30 -125q-30 -58 -76 -85q-38 -21 -75 -28.5t-97 -7.5zM213 438h-100v-393h100q52 0 80.5 5.5t57.5 23.5q36 22 58 68.5t22 98.5q0 56 -27.5 104t-73.5 70q-48 23 -117 23z" />
    <glyph glyph-name="E.sc" horiz-adv-x="362" 
d="M63 483h264v-45h-213v-172h208v-45h-208v-176h218v-45h-269v483z" />
    <glyph glyph-name="F.sc" horiz-adv-x="328" 
d="M63 483h249v-45h-199v-163h180v-45h-180v-230h-50v483z" />
    <glyph glyph-name="G.sc" horiz-adv-x="515" 
d="M459 446v-59q-79 53 -170 53q-76 0 -133 -54t-57 -145q0 -87 57 -143q56 -55 132 -55q59 0 129 26v114h-96v45h147v-192q-92 -42 -179 -42q-98 0 -171 70q-74 71 -74 179q0 105 71 176q70 70 180 70q74 0 164 -43z" />
    <glyph glyph-name="H.sc" horiz-adv-x="515" 
d="M114 483v-216h288v216h50v-483h-50v222h-288v-222h-51v483h51z" />
    <glyph glyph-name="I.sc" horiz-adv-x="174" 
d="M62 483h50v-483h-50v483z" />
    <glyph glyph-name="J.sc" horiz-adv-x="174" 
d="M65 19v464h51v-468q0 -146 -110 -146q-14 0 -30 6v43q18 -6 32 -6q39 0 49 37q8 27 8 70z" />
    <glyph glyph-name="K.sc" horiz-adv-x="412" 
d="M111 483v-227l207 227h64l-222 -234l245 -249h-73l-221 224v-224h-51v483h51z" />
    <glyph glyph-name="L.sc" horiz-adv-x="348" 
d="M63 483h50v-438h225v-45h-275v483z" />
    <glyph glyph-name="M.sc" horiz-adv-x="579" 
d="M106 483l184 -237l183 237h44v-483h-50v401l-174 -228h-7l-174 228v-401h-50v483h44z" />
    <glyph glyph-name="N.sc" horiz-adv-x="549" 
d="M62 483h44l331 -395v395h50v-483h-41l-333 398v-398h-51v483z" />
    <glyph glyph-name="O.sc" horiz-adv-x="584" 
d="M541 243q0 -108 -73 -178q-73 -71 -176 -71q-105 0 -177 72t-72 176q0 101 70 174t179 73q108 0 179 -72q70 -71 70 -174zM486 244q0 78 -54 137t-139 59q-84 0 -139 -58q-56 -58 -56 -141q0 -82 55 -140t138 -58q81 0 137 55q58 55 58 146z" />
    <glyph glyph-name="P.sc" horiz-adv-x="375" 
d="M113 0h-51v483h100q56 0 79 -4q24 -3 49 -17q61 -34 61 -109q0 -39 -17.5 -69.5t-46.5 -44.5q-43 -20 -120 -20h-54v-219zM163 438h-50v-173h56q47 0 81 10q46 16 46 76q0 47 -31 68q-10 8 -33 13q-24 6 -69 6z" />
    <glyph glyph-name="Q.sc" horiz-adv-x="584" 
d="M513 -55l9 -8l-44 -54q-34 6 -57 12q-21 6 -69 32q-44 24 -88 68q-98 10 -161 82q-60 72 -60 164q0 102 71 175q70 73 178 73q110 0 179 -72q70 -71 70 -175q0 -74 -37.5 -134t-98.5 -88q-15 -8 -66 -22q88 -71 141 -71q14 0 33 18zM98 242q0 -83 55 -141t138 -58
q77 0 136 56t59 142q0 85 -55 141q-55 58 -138 58q-82 0 -139 -59q-56 -59 -56 -139z" />
    <glyph glyph-name="R.sc" horiz-adv-x="434" 
d="M112 0h-50v483h97q77 0 111 -15q32 -13 53 -44t21 -67q0 -79 -89 -114q21 -12 34 -31q12 -16 63 -98q58 -94 76 -114h-63l-90 145q-24 39 -44 56q-19 17 -32 20.5t-46 3.5h-41v-225zM162 438h-50v-168h42q78 0 104 20q31 24 31 66q0 46 -38 68q-30 14 -89 14z" />
    <glyph glyph-name="S.sc" horiz-adv-x="348" 
d="M292 462l-1 -52q-44 32 -102 32q-30 0 -51 -10t-29.5 -25t-12 -26.5t-3.5 -20.5q0 -26 16 -45q15 -17 29 -24t51 -21q44 -16 80 -44q41 -32 41 -96q0 -62 -43 -99q-41 -37 -96 -37q-61 0 -125 33v54q70 -39 118 -39q50 0 72 28t22 59q0 28 -16 47q-10 13 -22 22t-20 12.5
t-29 11.5q-45 16 -83 40q-47 32 -47 96q0 52 39 91q39 40 98 40q56 0 114 -27z" />
    <glyph glyph-name="T.sc" horiz-adv-x="417" 
d="M12 483h393v-45h-171v-438h-51v438h-171v45z" />
    <glyph glyph-name="U.sc" horiz-adv-x="501" 
d="M53 239v244h50v-250q0 -75 24 -120q38 -71 123 -71q41 0 75 18.5t49 50.5q24 49 24 122v250h50v-244q0 -58 -6.5 -92t-26.5 -65q-55 -88 -163 -88q-52 0 -96.5 22.5t-68.5 63.5q-22 38 -28 72q-6 33 -6 87z" />
    <glyph glyph-name="V.sc" horiz-adv-x="432" 
d="M227 -3h-23l-196 486h52l156 -397l155 397h52z" />
    <glyph glyph-name="W.sc" horiz-adv-x="727" 
d="M350 483h27l145 -397l145 397h52l-186 -486h-23l-147 390l-146 -390h-23l-186 486h52l145 -397z" />
    <glyph glyph-name="X.sc" horiz-adv-x="510" 
d="M15 0l209 248l-198 235h62l167 -198l167 198h62l-198 -235l209 -248h-62l-178 211l-178 -211h-62z" />
    <glyph glyph-name="Y.sc" horiz-adv-x="433" 
d="M68 483l148 -199l149 199h62l-186 -244v-239h-51v239l-184 244h62z" />
    <glyph glyph-name="Z.sc" horiz-adv-x="459" 
d="M16 20l334 418h-310v45h387v-22l-330 -416h336v-45h-417v20z" />
    <glyph glyph-name="Lslash.sc" horiz-adv-x="348" 
d="M113 483v-254l157 126l1 -54l-158 -127v-129h225v-45h-275v136l-63 -52v55l63 52v292h50z" />
    <glyph glyph-name="Scaron.sc" horiz-adv-x="348" 
d="M292 462l-1 -52q-44 32 -102 32q-30 0 -51 -10t-29.5 -25t-12 -26.5t-3.5 -20.5q0 -26 16 -45q15 -17 29 -24t51 -21q44 -16 80 -44q41 -32 41 -96q0 -62 -43 -99q-41 -37 -96 -37q-61 0 -125 33v54q70 -39 118 -39q50 0 72 28t22 59q0 28 -16 47q-10 13 -22 22t-20 12.5
t-29 11.5q-45 16 -83 40q-47 32 -47 96q0 52 39 91q39 40 98 40q56 0 114 -27zM298 674h51l-127 -137h-78l-124 137h53l111 -88z" />
    <glyph glyph-name="Zcaron.sc" horiz-adv-x="459" 
d="M16 20l334 418h-310v45h387v-22l-330 -416h336v-45h-417v20zM343 674h51l-127 -137h-78l-124 137h53l111 -88z" />
    <glyph glyph-name="Agrave.sc" horiz-adv-x="480" 
d="M417 0l-66 145h-226l-63 -145h-54l218 486h31l214 -486h-54zM238 410l-90 -221h183zM77 665h122l122 -128h-49z" />
    <glyph glyph-name="Aacute.sc" horiz-adv-x="480" 
d="M417 0l-66 145h-226l-63 -145h-54l218 486h31l214 -486h-54zM238 410l-90 -221h183zM153 537l123 128h122l-195 -128h-50z" />
    <glyph glyph-name="Acircumflex.sc" horiz-adv-x="480" 
d="M417 0l-66 145h-226l-63 -145h-54l218 486h31l214 -486h-54zM238 410l-90 -221h183zM278 674l127 -137h-51l-114 88l-111 -88h-53l124 137h78z" />
    <glyph glyph-name="Atilde.sc" horiz-adv-x="480" 
d="M417 0l-66 145h-226l-63 -145h-54l218 486h31l214 -486h-54zM238 410l-90 -221h183zM116 547h-41q-2 51 10 76q9 20 29 31.5t43 11.5q40 0 118 -38q42 -19 59 -21t22 8t9 45q1 6 1 9h41q-1 -51 -10 -75q-19 -46 -66 -46q-43 0 -120 37q-48 23 -62 23q-19 0 -25 -12.5
t-8 -48.5z" />
    <glyph glyph-name="Adieresis.sc" horiz-adv-x="480" 
d="M417 0l-66 145h-226l-63 -145h-54l218 486h31l214 -486h-54zM238 410l-90 -221h183zM190 608q0 -18 -13 -30.5t-31 -12.5t-30.5 12.5t-12.5 30.5t12.5 31t30.5 13t31 -12.5t13 -31.5zM335 651q18 0 30.5 -13t12.5 -30q0 -28 -26.5 -39t-47.5 8q-19 21 -8 47.5t39 26.5z
" />
    <glyph glyph-name="Aring.sc" horiz-adv-x="480" 
d="M417 0l-66 145h-226l-63 -145h-54l218 486h31l214 -486h-54zM238 410l-90 -221h183zM241 744q43 0 73.5 -30.5t30.5 -73.5t-30.5 -73.5t-73.5 -30.5t-74 30.5t-31 73.5t30.5 73.5t74.5 30.5zM239 714q-30 0 -52 -21.5t-22 -52.5t22 -52.5t52 -21.5q31 0 52.5 21.5
t21.5 52.5q0 30 -21.5 52t-52.5 22z" />
    <glyph glyph-name="AE.sc" horiz-adv-x="626" 
d="M320 0v174h-152l-101 -174h-59l290 483h286v-45h-213v-172h208v-45h-208v-176h219v-45h-270zM320 443l-126 -225h126v225z" />
    <glyph glyph-name="Ccedilla.sc" horiz-adv-x="487" 
d="M299 -6l-17 -36q79 -1 79 -65q0 -25 -18 -45.5t-54 -29.5q-43 -14 -105 -9l7 37q115 3 115 48q0 23 -28 29q-19 4 -52 5l31 68q-91 16 -142 67q-72 71 -72 179q0 113 76 180t169 67q80 0 169 -42v-57q-92 50 -162 50q-87 0 -143 -56q-54 -55 -54 -143q0 -87 54 -142
t141 -55q69 0 168 51v-54q-80 -44 -162 -47z" />
    <glyph glyph-name="Egrave.sc" horiz-adv-x="362" 
d="M63 483h264v-45h-213v-172h208v-45h-208v-176h218v-45h-269v483zM18 665h122l122 -128h-49z" />
    <glyph glyph-name="Eacute.sc" horiz-adv-x="362" 
d="M63 483h264v-45h-213v-172h208v-45h-208v-176h218v-45h-269v483zM109 537l123 128h122l-195 -128h-50z" />
    <glyph glyph-name="Ecircumflex.sc" horiz-adv-x="362" 
d="M63 483h264v-45h-213v-172h208v-45h-208v-176h218v-45h-269v483zM219 674l127 -137h-51l-114 88l-111 -88h-53l124 137h78z" />
    <glyph glyph-name="Edieresis.sc" horiz-adv-x="362" 
d="M63 483h264v-45h-213v-172h208v-45h-208v-176h218v-45h-269v483zM131 608q0 -18 -13 -30.5t-31 -12.5t-30.5 12.5t-12.5 30.5t12.5 31t30.5 13t31 -12.5t13 -31.5zM276 651q18 0 30.5 -13t12.5 -30q0 -28 -26.5 -39t-47.5 8q-19 21 -8 47.5t39 26.5z" />
    <glyph glyph-name="Igrave.sc" horiz-adv-x="174" 
d="M62 483h50v-483h-50v483zM-76 665h122l122 -128h-49z" />
    <glyph glyph-name="Iacute.sc" horiz-adv-x="174" 
d="M62 483h50v-483h-50v483zM0 537l123 128h122l-195 -128h-50z" />
    <glyph glyph-name="Icircumflex.sc" horiz-adv-x="174" 
d="M62 483h50v-483h-50v483zM125 674l127 -137h-51l-114 88l-111 -88h-53l124 137h78z" />
    <glyph glyph-name="Idieresis.sc" horiz-adv-x="174" 
d="M62 483h50v-483h-50v483zM37 608q0 -18 -13 -30.5t-31 -12.5t-30.5 12.5t-12.5 30.5t12.5 31t30.5 13t31 -12.5t13 -31.5zM182 651q18 0 30.5 -13t12.5 -30q0 -28 -26.5 -39t-47.5 8q-19 21 -8 47.5t39 26.5z" />
    <glyph glyph-name="Eth.sc" horiz-adv-x="529" 
d="M63 0v219h-61v45h61v219h145q69 0 124 -19.5t84 -49.5q28 -27 45 -63q25 -52 25 -105q0 -66 -30 -125q-30 -58 -76 -85q-38 -21 -75 -28.5t-97 -7.5h-145zM268 264v-45h-155v-174h100q52 0 80.5 5.5t57.5 23.5q36 22 58 68.5t22 98.5q0 56 -27.5 104t-73.5 70
q-48 23 -117 23h-100v-174h155z" />
    <glyph glyph-name="Ntilde.sc" horiz-adv-x="549" 
d="M62 483h44l331 -395v395h50v-483h-41l-333 398v-398h-51v483zM150 547h-41q-2 51 10 76q9 20 29 31.5t43 11.5q40 0 118 -38q42 -19 59 -21t22 8t9 45q1 6 1 9h41q-1 -51 -10 -75q-19 -46 -66 -46q-43 0 -120 37q-48 23 -62 23q-19 0 -25 -12.5t-8 -48.5z" />
    <glyph glyph-name="Ograve.sc" horiz-adv-x="584" 
d="M541 243q0 -108 -73 -178q-73 -71 -176 -71q-105 0 -177 72t-72 176q0 101 70 174t179 73q108 0 179 -72q70 -71 70 -174zM486 244q0 78 -54 137t-139 59q-84 0 -139 -58q-56 -58 -56 -141q0 -82 55 -140t138 -58q81 0 137 55q58 55 58 146zM129 665h122l122 -128h-49z
" />
    <glyph glyph-name="Oacute.sc" horiz-adv-x="584" 
d="M541 243q0 -108 -73 -178q-73 -71 -176 -71q-105 0 -177 72t-72 176q0 101 70 174t179 73q108 0 179 -72q70 -71 70 -174zM486 244q0 78 -54 137t-139 59q-84 0 -139 -58q-56 -58 -56 -141q0 -82 55 -140t138 -58q81 0 137 55q58 55 58 146zM205 537l123 128h122
l-195 -128h-50z" />
    <glyph glyph-name="Ocircumflex.sc" horiz-adv-x="584" 
d="M541 243q0 -108 -73 -178q-73 -71 -176 -71q-105 0 -177 72t-72 176q0 101 70 174t179 73q108 0 179 -72q70 -71 70 -174zM486 244q0 78 -54 137t-139 59q-84 0 -139 -58q-56 -58 -56 -141q0 -82 55 -140t138 -58q81 0 137 55q58 55 58 146zM330 674l127 -137h-51
l-114 88l-111 -88h-53l124 137h78z" />
    </font>
</defs>
</svg>
