<?xml version="1.0" standalone="no"?>
<!DOCTYPE svg PUBLIC "-//W3C//DTD SVG 1.1//EN" "http://www.w3.org/Graphics/SVG/1.1/DTD/svg11.dtd" >
<svg>
<metadata>
Created by FontForge 20110222 at Fri Aug  1 05:32:45 2014
 By Orthosie Webhosting
Font software Copyright 2001 Adobe Systems Incorporated. Typeface designs Copyright The Monotype Corporation. All Rights Reserved.
</metadata>
<defs>
<font id="GillSansProCyrillicMediumItalic" horiz-adv-x="469" >
  <font-face 
    font-family="GillSansProCyrillicMediumItalic"
    font-weight="500"
    font-style="italic"
    font-stretch="normal"
    units-per-em="1000"
    panose-1="2 11 6 2 2 1 4 9 2 3"
    ascent="800"
    descent="-200"
    x-height="449"
    cap-height="682"
    bbox="-201 -233 1066 931"
    underline-thickness="50"
    underline-position="-50"
    slope="-8"
    unicode-range="U+0020-FB04"
  />
<missing-glyph horiz-adv-x="500" 
d="M487 0h-475v665h475v-665zM411 618h-323l162 -243zM221 333l-161 242v-484l40 61l80 120zM440 90v485l-162 -242zM88 48h323l-161 242z" />
    <glyph glyph-name="f_f" unicode="ff" horiz-adv-x="521" 
d="M453 449h68l-8 -75h-70l-84 -563h-84l84 563h-163l-85 -563h-83l83 563h-74l12 75h72q15 85 31 127q15 37 44 66q49 49 119 49q77 0 138 -45q61 45 129 45q52 0 91 -21l-13 -72q-47 15 -74 15q-65 0 -103 -56q-19 -29 -30 -108zM206 449h161q19 99 37 139q-40 31 -88 31
q-90 0 -110 -170z" />
    <glyph glyph-name="fi" unicode="fi" horiz-adv-x="479" 
d="M203 449h96l-12 -73h-94l-84 -565h-83l83 565h-66l11 73h65q0 2 13 74q16 65 57 115q47 53 130 53q30 0 59 -10q92 -25 92 -117h-83q-5 22 -21 36q-20 18 -49 18q-45 0 -75 -34q-10 -13 -19 -40l-12 -44q-5 -26 -8 -51zM369 449h83l-65 -449h-85z" />
    <glyph glyph-name="fl" unicode="fl" horiz-adv-x="477" 
d="M208 449h98l-14 -74h-93l-86 -564h-83l83 564h-65l11 74h64q5 24 6 39q11 56 26 91q26 55 57 79q43 33 107 33q29 0 51 -9l-10 -69q-28 5 -37 5q-54 0 -79.5 -41.5t-35.5 -127.5zM407 682h86l-102 -682h-85z" />
    <glyph glyph-name="f_f_i" unicode="ffi" horiz-adv-x="729" 
d="M456 449h95l-11 -75h-93l-86 -563h-83l83 563h-164l-83 -563h-83l83 563h-73l11 75h73l13 73q13 60 41 99q52 70 133 70q79 0 135 -44q55 44 121 44q21 0 44.5 -5.5t49.5 -18.5t43 -40t17 -64h-83q-14 53 -73 53q-95 0 -110 -167zM209 449h162q9 87 37 138q-47 31 -87 31
q-57 0 -87 -61q-14 -30 -25 -108zM621 449h84l-67 -449h-87z" />
    <glyph glyph-name="f_f_l" unicode="ffl" horiz-adv-x="722" 
d="M452 449h101l-14 -75h-95l-83 -563h-84l84 563h-164l-84 -563h-83l83 563h-74l12 75h73q10 88 39 145q21 43 63 70t90 27q72 0 136 -44q47 44 114 44q30 0 51 -9l-11 -70q-16 4 -34 4q-58 0 -84 -40t-36 -127zM209 449h161q14 84 36 138q-44 30 -89 30q-25 0 -48 -16.5
t-35 -43.5q-14 -34 -25 -108zM654 682h84l-101 -682h-84z" />
    <glyph glyph-name=".notdef" horiz-adv-x="500" 
d="M487 0h-475v665h475v-665zM411 618h-323l162 -243zM221 333l-161 242v-484l40 61l80 120zM440 90v485l-162 -242zM88 48h323l-161 242z" />
    <glyph glyph-name=".null" horiz-adv-x="0" 
 />
    <glyph glyph-name="nonmarkingreturn" horiz-adv-x="333" 
 />
    <glyph glyph-name="space" unicode=" " horiz-adv-x="278" 
 />
    <glyph glyph-name="exclam" unicode="!" horiz-adv-x="250" 
d="M130 165h-37q9 63 29 375q7 151 66 151q17 0 28.5 -14t11.5 -42q0 -48 -31 -171q-35 -134 -45 -189q-7 -30 -22 -110zM149 41q0 -22 -16.5 -38.5t-39.5 -16.5q-22 0 -38 16t-16 38t15.5 38t38.5 16t39.5 -16t16.5 -37z" />
    <glyph glyph-name="quotedbl" unicode="&#x22;" horiz-adv-x="355" 
d="M143 429h-55l6 134l26 119h100l-26 -119zM305 429h-54l6 134l25 119h100l-25 -119z" />
    <glyph glyph-name="numbersign" unicode="#" horiz-adv-x="584" 
d="M57 341v69h155l41 195h72l-41 -195h194l41 195h71l-41 -195h92v-69h-106l-35 -170h141v-71h-155l-41 -193h-71l40 193h-195l-40 -193h-71l40 193h-91v71h106l34 170h-140zM429 171l35 170h-195l-35 -170h195z" />
    <glyph glyph-name="dollar" unicode="$" horiz-adv-x="500" 
d="M483 604l-13 -90q-64 41 -130 53l-30 -214q152 -80 152 -185q0 -85 -73 -134q-46 -34 -131 -43l-14 -101h-75l15 101q-88 15 -144 54l14 98q70 -45 143 -64l30 214q-80 46 -115 86t-35 98q0 69 56 119q55 50 145 55l6 40h74l-6 -40q79 -10 131 -47zM242 395l24 175
q-33 -5 -55 -17t-30 -27t-10.5 -23.5t-2.5 -16.5q0 -47 74 -91zM296 254l-26 -181q45 4 73.5 28.5t28.5 58.5q0 54 -76 94z" />
    <glyph glyph-name="percent" unicode="%" horiz-adv-x="708" 
d="M531 297q62 0 107 -45q45 -44 45 -107t-45 -108q-46 -44 -107 -44q-62 0 -108 44q-45 45 -45 108t45 107q45 45 108 45zM530 223q-32 0 -55 -22.5t-23 -55.5t23 -56t55 -23q33 0 56 23t23 56t-23 55.5t-56 22.5zM361 537q0 -62 -45 -107q-44 -45 -107 -45t-108 45
q-44 46 -44 107q0 64 44 108q45 45 108 45t107 -45q45 -45 45 -108zM129 537q0 -32 23.5 -55.5t55.5 -23.5q33 0 56 23.5t23 55.5q0 33 -23.5 56t-55.5 23t-55.5 -23t-23.5 -56zM555 692h75l-449 -701h-75z" />
    <glyph glyph-name="ampersand" unicode="&#x26;" horiz-adv-x="688" 
d="M669 66l-33 -70q-8 -5 -19 -5q-77 0 -151 75q-98 -75 -210 -75q-113 0 -159 73q-36 62 -36 113q0 72 48 126t111 81q-38 87 -38 144q0 64 44 114q45 49 112 49q65 0 100 -44t35 -95q0 -76 -56 -130q-41 -38 -88 -66q46 -79 137 -184q67 67 109 171h88q-61 -148 -139 -223
q57 -57 124 -57q12 0 21 3zM291 423q20 10 36 22q22 17 41 45.5t19 56.5q0 29 -16 48.5t-42 19.5q-27 0 -46.5 -24.5t-19.5 -64.5q0 -44 28 -103zM408 118q-94 105 -149 196q-106 -58 -106 -137q0 -50 38 -82q37 -30 81 -30q59 0 136 53z" />
    <glyph glyph-name="quotesingle" unicode="'" horiz-adv-x="191" 
d="M142 429h-55l6 134l26 119h100l-26 -119z" />
    <glyph glyph-name="parenleft" unicode="(" horiz-adv-x="292" 
d="M196 -230h-42q-15 28 -30 59q-20 45 -44 137q-26 99 -26 188q0 189 117 377q25 38 52 78q36 53 64 82h47q-70 -89 -124 -217q-39 -91 -59 -210q-18 -116 -18 -190q0 -169 63 -304z" />
    <glyph glyph-name="parenright" unicode=")" horiz-adv-x="292" 
d="M83 691h41q22 -41 53 -123q48 -123 48 -261q0 -187 -117 -378q-70 -109 -117 -159h-47q71 91 124 217q40 93 58 210q19 113 19 190q0 169 -62 304z" />
    <glyph glyph-name="asterisk" unicode="*" horiz-adv-x="448" 
d="M285 528l85 80q25 25 46 25q13 0 22 -10t9 -25q0 -18 -10.5 -28t-37.5 -18l-107 -39q2 -10 2 -12q0 -3 -2 -11l101 -35q55 -21 55 -51q0 -11 -9.5 -22.5t-23.5 -11.5q-22 0 -56 34l-74 72q-7 -10 -19 -10l19 -103q5 -28 5 -46q0 -42 -35 -42q-15 0 -23.5 12.5t-8.5 30.5
t3 28q2 5 4 11l1 6l19 103q-9 0 -19 10l-78 -72q-36 -33 -55 -33q-14 0 -23 11t-9 22q4 32 60 51l99 35q-2 6 -2 12q0 5 2 11l-113 42q-44 15 -44 42q0 15 10.5 26t23.5 11q15 0 44 -26l85 -80q8 8 19 10l-19 101q-6 31 -6 45q0 19 8 30q9 12 26 12q33 0 33 -39
q0 -16 -7 -48l-19 -101q13 0 19 -10z" />
    <glyph glyph-name="plus" unicode="+" horiz-adv-x="584" 
d="M348 105h-82v195h-195v82h195v195h82v-195h196v-82h-196v-195z" />
    <glyph glyph-name="comma" unicode="," horiz-adv-x="198" 
d="M-24 -144l6 44q66 21 66 86q-39 17 -39 52q0 26 18 42t43 16q29 0 47 -22t18 -56q0 -50 -39 -96q-38 -48 -120 -66z" />
    <glyph glyph-name="hyphen" unicode="-" horiz-adv-x="250" 
d="M12 265h238l-12 -85h-238z" />
    <glyph glyph-name="period" unicode="." horiz-adv-x="198" 
d="M68 109q23 2 41 -17.5t19 -43.5t-18 -44q-25 -30 -64 -13t-37 56q0 27 17.5 44.5t41.5 17.5z" />
    <glyph glyph-name="slash" unicode="/" horiz-adv-x="281" 
d="M45 -9h-75l295 700h74z" />
    <glyph glyph-name="zero" unicode="0" horiz-adv-x="521" 
d="M501 449q0 -143 -60 -288q-31 -77 -87.5 -123.5t-127.5 -46.5q-94 0 -137 73q-38 62 -38 165q0 121 39 238q33 100 92 162t145 62q100 0 146 -91q28 -57 28 -151zM409 435q0 40 -5 79q-10 88 -80 95q-53 0 -96 -67q-43 -65 -64 -151q-21 -85 -21 -157q0 -163 88 -163
q52 0 95 70q44 71 63 152q20 85 20 142z" />
    <glyph glyph-name="one" unicode="1" horiz-adv-x="521" 
d="M284 682h89l-107 -682h-90z" />
    <glyph glyph-name="two" unicode="2" horiz-adv-x="521" 
d="M183 82h260l-12 -82h-414q17 17 104 127q94 120 128 169q7 9 53 77q18 27 40 75q22 45 22 75q0 38 -27 59.5t-70 21.5q-69 0 -149 -57l14 97q79 47 153 47q76 0 121 -46q45 -47 45 -111q0 -55 -24 -108.5t-80 -132.5q-59 -83 -164 -211z" />
    <glyph glyph-name="three" unicode="3" horiz-adv-x="521" 
d="M24 29l12 81q82 -38 150 -38q76 0 111 39q36 39 36 90q0 60 -41 87q-40 27 -85 24l11 79q57 8 80 20q72 36 72 104q0 49 -35 72q-34 22 -71 22q-70 0 -135 -42l13 94q67 30 137 30q78 0 132 -45q55 -43 55 -127q0 -119 -133 -168q45 -19 68.5 -57t23.5 -90
q0 -84 -60 -148q-60 -65 -173 -65q-81 0 -168 38z" />
    <glyph glyph-name="four" unicode="4" horiz-adv-x="521" 
d="M401 691h54l-63 -408h99l-12 -73h-100l-33 -210h-87l36 210h-256v39zM160 283h146l34 215z" />
    <glyph glyph-name="five" unicode="5" horiz-adv-x="521" 
d="M199 682h278l-15 -84h-196l-27 -171q99 -4 147 -62q48 -57 48 -134q0 -87 -57 -159q-66 -81 -198 -81q-97 0 -164 51l31 79q61 -47 134 -47q71 0 115 43q45 44 45 109q0 58 -38.5 89.5t-100.5 31.5q-31 0 -63 -8z" />
    <glyph glyph-name="six" unicode="6" horiz-adv-x="521" 
d="M314 682h100l-196 -288q41 23 91 23q73 0 117 -48q44 -47 44 -117q0 -99 -68 -181q-68 -80 -167 -80q-83 0 -133 57q-48 57 -48 142q0 48 20 105q21 55 42 90q52 79 65 99zM382 240q0 41 -25 69t-72 28q-62 0 -103 -47q-39 -46 -39 -104q0 -45 26.5 -77t72.5 -32
q61 0 100 50q40 50 40 113z" />
    <glyph glyph-name="seven" unicode="7" horiz-adv-x="521" 
d="M133 682h395v-6l-319 -685h-93l279 606h-274z" />
    <glyph glyph-name="eight" unicode="8" horiz-adv-x="521" 
d="M376 356q91 -36 91 -141q0 -89 -64 -156q-63 -68 -171 -68q-88 0 -140 54q-52 53 -52 132q0 91 61 146q34 29 85 44q-77 50 -77 131q0 79 57 136q58 57 147 57q80 0 129 -49q50 -50 50 -120q0 -27 -8 -57q-9 -31 -38 -62.5t-70 -46.5zM404 515q0 40 -26 66.5t-68 26.5
q-49 0 -82 -35q-32 -35 -32 -80q0 -42 27 -67.5t69 -25.5q54 0 83 38t29 77zM377 211q0 50 -30.5 78t-78.5 28q-61 0 -100 -42q-38 -43 -38 -98q0 -52 35 -78t76 -26q55 0 95 39q41 41 41 99z" />
    <glyph glyph-name="nine" unicode="9" horiz-adv-x="521" 
d="M234 0h-100l196 288q-41 -23 -91 -23q-74 0 -118 47q-43 47 -43 118q0 100 68 180q68 81 167 81q84 0 132 -57q49 -56 49 -142q0 -50 -21 -106q-21 -57 -42 -89q-11 -18 -64 -99zM166 442q0 -41 25 -69t72 -28q63 0 102 46q40 46 40 105q0 45 -26.5 77t-72.5 32
q-60 0 -101 -51q-39 -50 -39 -112z" />
    <glyph glyph-name="colon" unicode=":" horiz-adv-x="198" 
d="M126 350q-22 0 -39 17t-17 40t16 39.5t39 16.5q24 0 39.5 -16t15.5 -39q0 -24 -15.5 -41t-38.5 -17zM127 40q0 -22 -16 -38t-40 -16q-23 0 -38 16t-15 39t15.5 38.5t37.5 15.5q24 0 40 -16t16 -39z" />
    <glyph glyph-name="semicolon" unicode=";" horiz-adv-x="198" 
d="M-10 -144l6 44q66 22 66 86q-40 16 -40 52q0 26 18.5 42t42.5 16q29 0 47.5 -22.5t18.5 -55.5q0 -50 -39 -96q-39 -48 -120 -66zM135 463q24 0 39.5 -16t15.5 -39q0 -24 -15 -41t-38 -17t-40 17t-17 40t16 39.5t39 16.5z" />
    <glyph glyph-name="less" unicode="&#x3c;" horiz-adv-x="584" 
d="M544 99l-473 202v82l473 200v-87l-376 -154l376 -156v-87z" />
    <glyph glyph-name="equal" unicode="=" horiz-adv-x="584" 
d="M544 273v-82h-473v82h473zM544 491v-82h-473v82h473z" />
    <glyph glyph-name="greater" unicode="&#x3e;" horiz-adv-x="584" 
d="M71 583l473 -202v-82l-473 -200v87l376 154l-376 156v87z" />
    <glyph glyph-name="question" unicode="?" horiz-adv-x="354" 
d="M157 166h-55q1 79 28 137q24 53 76 115q38 44 52.5 69t14.5 49q0 33 -21 53t-51 20q-48 0 -113 -56l14 100q59 38 113 38q64 0 105 -41.5t41 -107.5q0 -34 -14 -67q-15 -34 -29 -51l-54 -62q-46 -51 -73 -93q-23 -40 -34 -103zM115 -14q-24 0 -39.5 16t-15.5 38
q0 21 16 37t38 16q23 0 39 -15.5t16 -37.5t-15.5 -38t-38.5 -16z" />
    <glyph glyph-name="at" unicode="@" horiz-adv-x="1010" 
d="M651 418l16 76h88l-71 -328q-14 -73 -14 -76q0 -14 10.5 -23t22.5 -9q21 0 53 19.5t62 52.5q32 35 53 88.5t21 110.5q0 135 -102 221q-100 87 -247 87q-123 0 -218 -60q-92 -58 -140.5 -152.5t-48.5 -208.5q0 -84 25 -150t65 -107.5t96 -68.5t113.5 -38t121.5 -11
q150 0 240 56q72 45 103 91h88q-17 -38 -68 -88q-34 -35 -80 -63q-48 -29 -123.5 -49t-158.5 -20q-126 0 -223.5 35.5t-156.5 98.5q-114 124 -114 306q0 61 14 124.5t49.5 132t88.5 121.5t139 87.5t193 34.5q97 0 178.5 -32t132.5 -88q106 -112 106 -261q0 -111 -54 -192
q-54 -80 -119 -122q-55 -36 -122 -36q-61 0 -79 29q-11 20 -15 52q-69 -81 -149 -81q-76 0 -127 63q-50 65 -50 156q-2 71 33 144.5t95 121.5t125 46q93 0 148 -90zM340 189q0 -62 30.5 -100.5t73.5 -38.5q67 0 123 74q56 76 56 172q0 64 -32 102t-81 38q-52 0 -93 -44
q-77 -83 -77 -203z" />
    <glyph glyph-name="A" unicode="A" horiz-adv-x="521" 
d="M266 686h86l133 -686h-84l-41 214h-214l-90 -214h-91zM176 286h170l-53 280z" />
    <glyph glyph-name="B" unicode="B" horiz-adv-x="530" 
d="M38 0l97 682h79q85 0 129 -16q109 -44 109 -150q0 -67 -39 -103q-24 -22 -56 -39q70 -24 105 -71t35 -108q0 -60 -32.5 -105.5t-90.5 -69.5q-54 -20 -138 -20h-198zM214 604l-27 -195q47 -2 85 4q41 8 63 35.5t22 64.5q0 103 -143 91zM176 334l-37 -258h45q99 0 135 9
q37 10 61 39t24 69q0 42 -27 78t-71 52q-33 11 -130 11z" />
    <glyph glyph-name="C" unicode="C" horiz-adv-x="550" 
d="M570 691l-18 -86q-122 1 -210 -27q-56 -18 -98.5 -54.5t-65 -80t-32.5 -84.5t-10 -79q0 -92 48 -147q48 -56 123 -56q105 0 211 84l-13 -110q-104 -60 -203 -60q-108 0 -186 75q-77 75 -77 213q0 11 2 35q10 82 29 127q58 143 199 203q112 52 301 47z" />
    <glyph glyph-name="D" unicode="D" horiz-adv-x="656" 
d="M39 0l97 682h86q182 0 289 -90q106 -90 106 -252q0 -198 -148 -291q-34 -21 -83 -34q-52 -12 -82 -13q-46 -2 -88 -2h-177zM216 600l-74 -519h41q132 0 195 23q67 26 105 89.5t38 146.5q0 160 -135 227q-42 23 -79 27q-36 6 -91 6z" />
    <glyph glyph-name="E" unicode="E" horiz-adv-x="510" 
d="M137 682h361l-11 -81h-273l-30 -214h241l-11 -81h-242l-33 -225h359l-12 -81h-448z" />
    <glyph glyph-name="F" unicode="F" horiz-adv-x="417" 
d="M130 682h325l-11 -81h-237l-30 -212h218l-12 -83h-218l-43 -306h-91z" />
    <glyph glyph-name="G" unicode="G" horiz-adv-x="604" 
d="M389 299h189l-35 -248q-113 -60 -225 -60q-129 0 -207 86q-77 88 -77 214q0 82 34.5 159t91.5 129q124 112 345 112q65 0 116 -9l-12 -82q-50 8 -107 8q-174 0 -272 -89q-97 -88 -97 -224q0 -99 54 -161q55 -61 135 -61q70 0 137 33l17 118h-98z" />
    <glyph glyph-name="H" unicode="H" horiz-adv-x="698" 
d="M592 682h94l-94 -682h-94l43 302h-369l-42 -302h-95l95 682h95l-42 -296h370z" />
    <glyph glyph-name="I" unicode="I" horiz-adv-x="240" 
d="M134 682h95l-95 -682h-95z" />
    <glyph glyph-name="J" unicode="J" horiz-adv-x="240" 
d="M143 682h91l-100 -699q-4 -35 -9 -54q-3 -22 -16 -55q-14 -35 -31 -54q-19 -22 -52.5 -36.5t-73.5 -14.5q-34 0 -63 7l-24 87q43 -8 70 -8q54 0 76 25.5t31 91.5z" />
    <glyph glyph-name="K" unicode="K" horiz-adv-x="563" 
d="M469 682h120l-314 -315l289 -367h-107l-280 357l-53 -357h-90l97 682h90l-44 -294z" />
    <glyph glyph-name="L" unicode="L" horiz-adv-x="417" 
d="M132 682h89l-89 -605h280l-11 -77h-367z" />
    <glyph glyph-name="M" unicode="M" horiz-adv-x="813" 
d="M653 682h78l17 -682h-88l-7 517l-276 -517l-120 524l-169 -524h-89l225 682h79l106 -462z" />
    <glyph glyph-name="N" unicode="N" horiz-adv-x="688" 
d="M593 682h85l-97 -682h-48l-338 498l-71 -498h-85l97 682h45l341 -502z" />
    <glyph glyph-name="O" unicode="O" horiz-adv-x="656" 
d="M625 409q0 -43 -13 -110q-20 -103 -79 -181q-42 -57 -103.5 -92t-135.5 -35q-100 0 -172 76q-72 77 -72 213q0 95 38 188t116 158q79 65 176 65q69 0 119.5 -29t76.5 -74.5t37.5 -90.5t11.5 -88zM527 417q0 16 -1 23q-3 54 -18 84q-37 88 -128 88q-56 0 -103 -33.5
t-75 -89.5q-56 -110 -56 -226q0 -99 45 -147t106 -48q68 0 123 53q107 106 107 296z" />
    <glyph glyph-name="P" unicode="P" horiz-adv-x="448" 
d="M33 0l95 682h95q89 0 136 -18q109 -46 109 -167q0 -65 -33.5 -118t-91.5 -74q-45 -17 -124 -17h-52l-39 -288h-95zM212 602l-33 -233q52 -3 84 1q35 4 59 19t34 36.5t14 38.5t4 33q0 31 -20.5 60t-59.5 39q-26 6 -82 6z" />
    <glyph glyph-name="Q" unicode="Q" horiz-adv-x="656" 
d="M627 0h11q0 -42 -15 -82q-32 -110 -153 -113q-89 0 -158 77q-33 36 -64 118q-64 15 -102 49q-96 79 -96 237q0 55 14 111.5t42 109t67 93.5t93.5 66t116.5 25q112 0 175 -78t63 -208q0 -90 -27 -171q-27 -82 -91 -147q-63 -65 -154 -87q20 -53 59 -82.5t82 -29.5
q60 0 105 51q19 22 32 61zM528 416q0 89 -39 141t-107 52q-58 0 -106 -34.5t-76 -91.5q-55 -110 -55 -224q0 -92 42.5 -143.5t108.5 -51.5q72 0 126 56q106 109 106 296z" />
    <glyph glyph-name="R" unicode="R" horiz-adv-x="531" 
d="M37 0l94 682h124q99 0 145 -25q87 -49 87 -154q0 -63 -35.5 -109.5t-104.5 -63.5q20 -13 34 -34.5t36 -67.5l109 -228h-98q-66 137 -69 143q-40 82 -71 124q-7 8 -13 14t-14.5 10t-12.5 6t-15.5 3t-15.5 1.5t-21.5 0.5h-23.5l-41 -302h-94zM251 603h-36l-32 -220
q87 0 106 4q51 9 76.5 41t25.5 75q0 55 -36 78q-13 10 -37 15q-25 7 -67 7z" />
    <glyph glyph-name="S" unicode="S" horiz-adv-x="458" 
d="M440 664l-14 -93q-51 36 -111 36q-58 0 -93.5 -26.5t-35.5 -71.5q0 -25 13 -48q20 -33 69 -71q39 -32 57 -48q12 -10 44 -46q48 -51 48 -124q0 -71 -53 -127q-52 -54 -149 -54q-86 0 -165 49l14 100q32 -29 76.5 -46.5t81.5 -17.5q39 0 70 22q33 22 33 65q0 38 -26 67
q-27 31 -88 81q-48 39 -73 70q-44 55 -44 124q0 81 64 133q65 53 158 53q62 0 124 -27z" />
    <glyph glyph-name="T" unicode="T" horiz-adv-x="510" 
d="M80 682h474l-13 -86h-188l-85 -596h-93l85 596h-193z" />
    <glyph glyph-name="U" unicode="U" horiz-adv-x="635" 
d="M543 682h93l-58 -406q-17 -113 -53 -170q-75 -115 -230 -115q-114 0 -174 61q-59 62 -59 149q0 35 6 75l57 406h92l-62 -432q-3 -18 -3 -50q0 -50 37 -87q38 -38 111 -38q53 0 93 22.5t60 59.5q19 32 34 128z" />
    <glyph glyph-name="V" unicode="V" horiz-adv-x="510" 
d="M471 682h94l-332 -686h-36l-133 686h88l90 -476z" />
    <glyph glyph-name="W" unicode="W" horiz-adv-x="927" 
d="M891 682h95l-329 -686h-36l-132 482l-231 -482h-37l-161 686h86l112 -483l231 483h35l133 -491z" />
    <glyph glyph-name="X" unicode="X" horiz-adv-x="667" 
d="M584 682h119l-292 -331l222 -351h-107l-177 281l-245 -281h-122l317 361l-202 321h104l161 -251z" />
    <glyph glyph-name="Y" unicode="Y" horiz-adv-x="490" 
d="M445 682h104l-238 -342l-49 -340h-91l49 340l-161 342h95l117 -250z" />
    <glyph glyph-name="Z" unicode="Z" horiz-adv-x="583" 
d="M87 682h560l-497 -597h404l-12 -85h-574l495 597h-388z" />
    <glyph glyph-name="bracketleft" unicode="[" horiz-adv-x="333" 
d="M166 682h211l-10 -67h-128l-110 -769h129l-10 -67h-211z" />
    <glyph glyph-name="backslash" unicode="\" horiz-adv-x="281" 
d="M240 -9h-66l-98 700h67z" />
    <glyph glyph-name="bracketright" unicode="]" horiz-adv-x="333" 
d="M162 -221h-211l9 67h129l109 769h-128l9 67h211z" />
    <glyph glyph-name="asciicircum" unicode="^" 
d="M251 583l-117 -292h-90l172 391h71l173 -391h-88z" />
    <glyph glyph-name="underscore" unicode="_" horiz-adv-x="500" 
d="M-6 -125v50h512v-50h-512z" />
    <glyph glyph-name="grave" unicode="`" horiz-adv-x="333" 
d="M109 657h101l68 -146h-56z" />
    <glyph glyph-name="a" unicode="a" 
d="M446 449l-64 -449h-84l7 54q-60 -60 -123 -60q-66 0 -107 54q-40 55 -40 117q0 34 12 91q15 70 70 125q82 82 222 82q57 0 107 -14zM316 132l37 257q-59 4 -105.5 -13.5t-71.5 -46.5q-20 -23 -35 -62q-17 -47 -17 -87q0 -52 25 -85.5t63 -33.5q32 0 60 24q31 28 44 47z
" />
    <glyph glyph-name="b" unicode="b" horiz-adv-x="471" 
d="M123 682h90l-39 -269q53 50 110 50q74 0 116 -59q43 -58 43 -146q0 -121 -76 -197q-77 -75 -222 -75q-70 0 -115 7zM163 332l-40 -276q1 0 14.5 -0.5t19.5 -0.5q66 0 106 22q92 53 92 183q0 71 -31 99q-31 29 -67 29q-25 0 -57 -15q-31 -15 -37 -41z" />
    <glyph glyph-name="c" unicode="c" horiz-adv-x="385" 
d="M400 455l-11 -75q-39 7 -65 7q-99 0 -151 -61q-53 -62 -53 -133q0 -16 4 -34.5t15.5 -42t38.5 -39t65 -15.5q64 0 125 46l-13 -90q-59 -32 -125 -32q-54 0 -94.5 19.5t-62 51t-31.5 65.5t-10 70q0 96 66 178q35 43 94.5 68t135.5 25q32 0 72 -8z" />
    <glyph glyph-name="d" unicode="d" horiz-adv-x="471" 
d="M394 682h86l-98 -682q-58 -14 -115 -14q-115 0 -176 56q-60 57 -60 146q0 79 50 153q49 73 134 103q57 19 148 18zM305 58l48 334q-65 0 -104 -14q-64 -22 -97 -75q-32 -53 -32 -111q0 -62 37.5 -99.5t109.5 -37.5q23 0 38 3z" />
    <glyph glyph-name="e" unicode="e" horiz-adv-x="438" 
d="M389 125l-13 -89q-71 -50 -149 -50q-85 0 -138 60q-51 60 -51 153q0 110 59 187q60 77 151 77q71 0 117 -52q46 -50 46 -134q0 -27 -4 -44h-281q-2 -42 -2 -44q0 -59 33 -97q33 -36 77 -36q64 0 155 69zM140 292h188q1 47 -21 74.5t-59 27.5q-74 0 -108 -102z" />
    <glyph glyph-name="f" unicode="f" horiz-adv-x="271" 
d="M196 449h91l-11 -76h-91l-72 -562h-83l71 562h-71l11 76h72q9 103 48 159q59 83 167 83q49 0 109 -21l-12 -84q-44 25 -92 25q-62 0 -96.5 -43.5t-40.5 -118.5z" />
    <glyph glyph-name="g" unicode="g" horiz-adv-x="427" 
d="M246 449h199l-9 -67h-87q42 -66 25.5 -134.5t-73.5 -102.5q-11 -7 -37 -17q-16 -6 -33 -10l-46 -7q-7 -1 -18 -3.5t-29 -13t-18 -22.5q0 -15 21 -24.5t81 -22.5q145 -37 145 -127q0 -47 -47 -88t-137 -41q-77 0 -136 32q-58 31 -58 82q0 45 48 68q35 17 81 27
q-23 9 -47 23q-31 20 -31 56q0 27 24.5 50t64.5 34q-81 37 -81 129q0 25 8 57q7 29 37 65q29 35 77 49q27 8 76 8zM298 289q0 40 -23 65.5t-56 25.5q-40 0 -66 -35q-24 -35 -24 -72t22.5 -63t57.5 -26q38 0 63.5 31t25.5 74zM186 -46q-117 -27 -117 -70q0 -24 36 -37
q37 -14 80 -14q46 0 72.5 16.5t26.5 39.5q0 20 -27 37.5t-71 27.5z" />
    <glyph glyph-name="h" unicode="h" 
d="M118 682h85l-44 -307q79 88 161 88q43 0 72.5 -31.5t29.5 -89.5q0 -25 -5 -57l-40 -285h-86l41 292q4 19 4 41q0 26 -11 42q-16 22 -41 22q-37 0 -82 -45q-33 -33 -54 -60l-43 -292h-85z" />
    <glyph glyph-name="i" unicode="i" horiz-adv-x="188" 
d="M86 449h85l-64 -449h-85zM196 592q3 -29 -29.5 -43t-53.5 9q-21 22 -9.5 51.5t43.5 29.5q21 0 35 -14t14 -33z" />
    <glyph glyph-name="j" unicode="j" horiz-adv-x="183" 
d="M78 449h85l-64 -505q-9 -67 -23 -97q-40 -78 -132 -78q-28 0 -55 10l11 75q18 -5 37 -5q36 0 53 22q8 7 12 24q8 20 12 56zM188 593q0 -19 -13.5 -32.5t-33.5 -13.5t-34 14t-14 32t13.5 32t33.5 14t34 -14t14 -32z" />
    <glyph glyph-name="k" unicode="k" horiz-adv-x="458" 
d="M120 682h84l-63 -428l192 195h114l-206 -212l217 -237h-111l-206 228l-34 -228h-84z" />
    <glyph glyph-name="l" unicode="l" horiz-adv-x="188" 
d="M119 682h85l-97 -682h-85z" />
    <glyph glyph-name="m" unicode="m" horiz-adv-x="740" 
d="M86 449h84l-11 -80q78 87 157 87q39 0 67 -24.5t36 -75.5q78 100 167 100q41 0 73 -28q33 -27 33 -95q0 -23 -6 -67l-38 -266h-85l41 285q3 33 3 38q0 67 -48 67q-35 0 -72 -33q-39 -33 -68 -72l-42 -285h-85l35 245q7 49 7 81q0 33 -15 48t-37 15q-55 0 -135 -104
l-41 -285h-84z" />
    <glyph glyph-name="n" unicode="n" horiz-adv-x="471" 
d="M86 449h86l-12 -81q75 88 150 88q59 0 86 -42t27 -89q0 -17 -5 -55l-41 -270h-85l36 270q5 38 5 54q0 25 -14 43.5t-37 18.5q-26 0 -59 -24q-45 -33 -75 -76l-41 -286h-85z" />
    <glyph glyph-name="o" unicode="o" horiz-adv-x="448" 
d="M418 266q0 -134 -66 -207q-64 -73 -150 -73q-62 0 -109 41q-57 52 -57 160q0 132 67 203q67 73 149 73q75 0 120.5 -53.5t45.5 -143.5zM251 392q-54 0 -92 -65q-36 -65 -36 -161q0 -57 26 -86q25 -28 52 -28q40 0 71.5 34.5t44.5 85.5q12 50 13.5 99t-19.5 85t-60 36z
" />
    <glyph glyph-name="p" unicode="p" horiz-adv-x="490" 
d="M125 563h83l-16 -114q28 9 48 12q18 2 31 2q59 0 103 -35q80 -66 80 -178q0 -83 -48 -152q-48 -68 -122 -95q-51 -18 -159 -16l-31 -208h-82l82 559q-38 -29 -65 -71q-8 -11 -11 -11q-4 0 -4 6q0 18 20 55q23 40 66 83zM183 386l-47 -328q16 -2 30 -2q54 0 95 19t63 50
t32.5 63t10.5 64q0 66 -39 107q-37 40 -89 40q-23 0 -56 -13z" />
    <glyph glyph-name="q" unicode="q" 
d="M382 462h63l-96 -683h-87l33 234q-54 -27 -97 -27q-76 0 -122 58t-46 143q0 39 10 75q11 42 41.5 85.5t75.5 68.5q79 46 225 46zM304 76l45 317q-69 0 -117 -18q-55 -22 -84.5 -75t-29.5 -118q0 -66 35 -98q36 -30 79 -30q27 0 72 22z" />
    <glyph glyph-name="r" unicode="r" horiz-adv-x="313" 
d="M100 449h84l-13 -96q52 103 122 103q17 0 37 -7v-96q-28 15 -51 15q-46 0 -92 -64q-19 -27 -30 -51l-36 -253h-85z" />
    <glyph glyph-name="s" unicode="s" horiz-adv-x="354" 
d="M323 413v-89q-79 59 -137 59q-26 0 -42.5 -12.5t-16.5 -31.5q0 -12 12 -27t57 -47q40 -29 60 -45q50 -42 50 -103q0 -52 -38 -92q-37 -39 -103 -39q-40 0 -74 13t-80 46l14 82q88 -67 141 -67q24 0 40 14t16 35q0 16 -12 31q-10 16 -27 28l-62 46q-75 52 -75 121
q0 54 37.5 89.5t101.5 35.5t138 -47z" />
    <glyph glyph-name="t" unicode="t" horiz-adv-x="292" 
d="M213 449h87l-11 -66h-89l-30 -171q-16 -89 -16 -114q0 -36 49 -36q39 0 80 29l-5 -85q-51 -20 -93 -20q-59 0 -89 29t-30 71q0 20 17 111l32 186h-79l10 66h82l17 92h84z" />
    <glyph glyph-name="u" unicode="u" 
d="M351 449h85l-64 -449h-85l11 77q-82 -82 -150 -82q-49 0 -79 32.5t-30 86.5q0 20 9 82l36 253h85l-38 -274q-6 -36 -6 -53q1 -26 12.5 -42t21.5 -19t16 -1q41 0 87 46q34 34 48 51z" />
    <glyph glyph-name="v" unicode="v" horiz-adv-x="375" 
d="M324 449h87l-231 -458h-42l-102 458h85l59 -276z" />
    <glyph glyph-name="w" unicode="w" horiz-adv-x="615" 
d="M564 449h83l-231 -458h-40l-59 294l-153 -294h-39l-93 458h83l55 -293l147 293h42l57 -293z" />
    <glyph glyph-name="x" unicode="x" horiz-adv-x="427" 
d="M338 449h105l-181 -222l114 -227h-91l-82 159l-130 -159h-104l196 238l-106 211h91l71 -142z" />
    <glyph glyph-name="y" unicode="y" horiz-adv-x="375" 
d="M307 449h89l-323 -679h-89l122 257l-85 422h85l59 -300z" />
    <glyph glyph-name="z" unicode="z" horiz-adv-x="458" 
d="M63 449h385l-299 -373h261l-16 -76h-407l293 372h-228z" />
    <glyph glyph-name="braceleft" unicode="{" horiz-adv-x="333" 
d="M299 682h27v-74h-15q-61 0 -73 -26q-11 -27 -11 -143q1 -103 -23 -146q-23 -42 -79 -68q38 -19 55.5 -34.5t27.5 -43.5q2 -7 4 -13.5t4 -13.5t3 -10q4 -13 6 -49q2 -46 2 -54v-66q0 -61 17 -80q16 -18 67 -18h15v-75h-27q-41 0 -73 9q-64 19 -79 127q-1 16 -3 90
q-1 49 -1 80q-6 112 -99 113v77q64 -3 87 57q7 13 9 39q5 44 5 88q0 82 5 124q4 37 28 67q15 19 39 30q32 13 82 13z" />
    <glyph glyph-name="bar" unicode="|" horiz-adv-x="260" 
d="M184 -232h-76v914h76v-914z" />
    <glyph glyph-name="braceright" unicode="}" horiz-adv-x="333" 
d="M66 -232h-28v75h16q61 0 72 26q12 27 11 142q0 73 13 115q12 42 31 61t59 38q-32 12 -51 31q-20 20 -30 39.5t-15 55.5q-4 39 -6 68v91q0 61 -17 80q-17 18 -67 18h-16v74h28q41 0 72 -9q66 -19 79 -127q0 -1 2 -48l2 -75q1 -26 1 -47q6 -111 99 -112v-77q-61 2 -88 -57
q-6 -14 -9 -40q-4 -47 -4 -88q0 -86 -6 -123q-5 -38 -27 -68q-15 -19 -39 -30q-32 -13 -82 -13z" />
    <glyph glyph-name="asciitilde" unicode="~" horiz-adv-x="584" 
d="M58 262v99q51 59 136 59q55 0 133 -34q71 -31 104 -31q60 0 126 66v-103q-61 -56 -135 -56q-53 0 -119 30q-79 36 -118 36q-27 0 -53 -12q-17 -7 -30 -16t-19 -14.5t-25 -23.5z" />
    <glyph glyph-name="uni00A0" unicode="&#xa0;" horiz-adv-x="278" 
 />
    <glyph glyph-name="exclamdown" unicode="&#xa1;" horiz-adv-x="250" 
d="M115 291h40q-18 -106 -22 -270q0 -70 -9 -136q-11 -77 -54 -77q-17 0 -29.5 13.5t-12.5 41.5q0 38 53 252q19 65 34 176zM207 417q0 -22 -16 -39t-39 -17t-39 16t-16 39t15.5 39.5t38.5 16.5t39.5 -16.5t16.5 -38.5z" />
    <glyph glyph-name="cent" unicode="&#xa2;" horiz-adv-x="385" 
d="M394 454l-11 -74q-3 0 -30.5 3.5t-32.5 3.5l-100 -325q72 -6 142 46l-11 -90q-53 -32 -122 -32q-10 0 -32 5l-56 -179h-46l58 188q-37 14 -60 34q-65 59 -65 157q0 110 73 187q74 79 197 83l53 176h49l-55 -176q36 -3 49 -7zM177 74l96 309q-75 -15 -116.5 -67.5
t-41.5 -119.5q0 -83 62 -122z" />
    <glyph glyph-name="sterling" unicode="&#xa3;" 
d="M506 682l-11 -87q-29 10 -52 10q-59 0 -107 -67q-40 -56 -77 -163h109l-25 -80h-110l-67 -201q22 2 28 2q24 0 75 -9q56 -8 76 -8q50 0 113 27l-14 -93q-47 -22 -111 -22q-26 0 -72 7q-56 10 -106 10q-52 0 -93 -11q-22 -5 -26 -5l104 303h-88l26 80h88l34 89
q14 32 42 83q24 44 52 75q64 69 149 69q29 0 63 -9z" />
    <glyph glyph-name="currency" unicode="&#xa4;" horiz-adv-x="552" 
d="M119 456l-68 67l56 58l68 -69q51 36 116 36q63 0 116 -36l67 69l57 -58l-68 -67q35 -55 35 -115t-35 -115l68 -66l-57 -58l-67 68q-53 -36 -116 -36q-65 0 -116 36l-68 -68l-56 58l68 66q-35 53 -35 115t35 115zM164 341q0 -53 37 -90t89 -37t89 37q38 38 38 90t-38 90
q-37 37 -89 37t-89 -37t-37 -90z" />
    <glyph glyph-name="yen" unicode="&#xa5;" horiz-adv-x="552" 
d="M73 361h170l-129 355h88l58 -154q52 -139 64 -185q22 48 63 105l169 234h111l-266 -355h167l-14 -68h-201l-16 -77h203l-14 -68h-204l-31 -148h-89l32 148h-203l14 68h203l16 77h-205z" />
    <glyph glyph-name="brokenbar" unicode="&#xa6;" horiz-adv-x="260" 
d="M184 -232h-76v374h76v-374zM184 309h-76v373h76v-373z" />
    <glyph glyph-name="section" unicode="&#xa7;" horiz-adv-x="490" 
d="M26 -87l77 43q-2 -18 -2 -24q0 -91 86 -91q43 0 67 22.5t24 52.5t-20 58t-71 72q-12 10 -54 49q-16 15 -41 43q-42 49 -42 105q0 51 35 100q34 49 113 67q-30 36 -42 59.5t-12 56.5q0 66 48 115q50 50 136 50q67 0 102 -32.5t35 -87.5q0 -12 -3 -27l-79 -29q10 21 10 40
q0 32 -20.5 48t-48.5 16q-36 0 -64.5 -23.5t-28.5 -57.5q0 -29 17.5 -52.5t63.5 -61.5q32 -26 48 -42q14 -13 42 -44q49 -55 49 -120q0 -57 -37 -102q-16 -19 -36 -34q-32 -22 -62 -36q21 -28 25 -36q26 -37 26 -86q0 -60 -45 -106q-45 -48 -134 -48q-79 0 -121 38t-41 105z
M264 350q-58 -2 -92.5 -30.5t-34.5 -69.5q0 -30 26 -62q29 -32 93 -86q45 12 75.5 40t30.5 66q0 31 -25 65q-37 54 -73 77z" />
    <glyph glyph-name="dieresis" unicode="&#xa8;" horiz-adv-x="333" 
d="M93 618q19 21 44.5 12t32.5 -32.5t-12 -44.5q-13 -13 -32 -13t-33 13q-13 14 -13 33t13 32zM281 618q19 21 44.5 12t32.5 -32.5t-12 -44.5q-13 -13 -32 -13t-33 13q-13 14 -13 33t13 32z" />
    <glyph glyph-name="copyright" unicode="&#xa9;" horiz-adv-x="740" 
d="M497 263l60 -18q-15 -64 -63.5 -98.5t-113.5 -34.5q-87 0 -140 56.5t-53 153.5q0 96 52 151.5t145 55.5q62 0 105.5 -29.5t60.5 -85.5l-58 -14q-13 31 -31 46q-34 29 -79 29q-67 0 -98 -46t-31 -109q0 -72 33.5 -111.5t89.5 -39.5q18 -1 39 4.5t46.5 28.5t35.5 61z
M379 691q153 0 261 -108q108 -107 108 -260q0 -151 -108 -261q-108 -108 -261 -108q-152 0 -260 108t-108 261t108 260q108 108 260 108zM596 540q-90 90 -217 90t-217 -90q-90 -89 -90 -217t90 -218t217 -90t217 90t90 218t-90 217z" />
    <glyph glyph-name="ordfeminine" unicode="&#xaa;" horiz-adv-x="312" 
d="M327 682l-42 -270h-66l4 23q-35 -26 -71 -26q-46 0 -73 33t-27 71q0 79 53 128.5t147 49.5q40 0 75 -9zM232 493l23 149q-39 0 -63 -9q-33 -12 -52.5 -44t-19.5 -68q0 -28 14 -47.5t37 -19.5q27 0 61 39z" />
    <glyph glyph-name="guillemotleft" unicode="&#xab;" horiz-adv-x="438" 
d="M173 0h-68l-88 225l165 224h78l-171 -234zM358 0h-67l-84 214l186 235h79l-193 -247z" />
    <glyph glyph-name="logicalnot" unicode="&#xac;" horiz-adv-x="584" 
d="M544 491v-300h-82v218h-391v82h473z" />
    <glyph glyph-name="uni00AD" unicode="&#xad;" horiz-adv-x="323" 
d="M40 269h243v-95h-243v95z" />
    <glyph glyph-name="registered" unicode="&#xae;" horiz-adv-x="740" 
d="M282 119h-65v396h137q98 0 131 -27q38 -33 38 -80q0 -42 -30 -75t-83 -37q20 -7 40 -27q19 -19 52 -73l48 -77h-78l-35 63q-40 68 -59 85q-22 20 -59 20h-37v-168zM354 461h-72v-119h77q96 0 96 61q0 41 -37 51q-24 7 -64 7zM379 691q153 0 261 -108q108 -107 108 -260
q0 -151 -108 -261q-108 -108 -261 -108q-152 0 -260 108t-108 261t108 260q108 108 260 108zM596 540q-90 90 -217 90t-217 -90q-90 -89 -90 -217t90 -218t217 -90t217 90t90 218t-90 217z" />
    <glyph glyph-name="overscore" unicode="&#xaf;" horiz-adv-x="333" 
d="M53 617h322l-8 -64h-322z" />
    <glyph glyph-name="degree" unicode="&#xb0;" horiz-adv-x="396" 
d="M104 556q0 56 39 95q40 40 96 40t96 -40q40 -39 40 -95q0 -57 -40 -97q-41 -39 -96 -39t-96 39q-39 41 -39 97zM181 614q-24 -24 -24 -58t24 -59q24 -24 58 -24t58 24q25 25 25 59t-25 58q-24 24 -58 24t-58 -24z" />
    <glyph glyph-name="plusminus" unicode="&#xb1;" horiz-adv-x="584" 
d="M544 70v-82h-473v82h473zM348 116h-82v195h-195v82h195v196h82v-196h196v-82h-196v-195z" />
    <glyph glyph-name="two.superior" unicode="&#xb2;" horiz-adv-x="323" 
d="M140 321h151l-8 -48h-260q11 9 67 70q41 46 76 87q66 81 66 113q0 38 -51 38q-41 0 -96 -35l10 60q54 26 96 26q47 0 75.5 -23.5t28.5 -60.5q0 -46 -49 -107q-41 -50 -106 -120z" />
    <glyph glyph-name="three.superior" unicode="&#xb3;" horiz-adv-x="323" 
d="M56 289l8 49q51 -22 93 -22q41 0 61 18t20 45q0 28 -21.5 42t-53.5 11l8 46q28 4 51 11q38 14 38 50q-2 26 -21.5 36t-35.5 9q-43 0 -87 -27l10 58q45 17 86 17q50 0 83 -24t33 -67q0 -60 -74 -86q50 -21 50 -75q0 -46 -38.5 -79t-104.5 -33q-51 0 -105 21z" />
    <glyph glyph-name="acute" unicode="&#xb4;" horiz-adv-x="333" 
d="M151 511l68 146h101l-113 -146h-56z" />
    <glyph glyph-name="mu" unicode="&#xb5;" horiz-adv-x="501" 
d="M223 -13q-71 0 -102 73l-41 -289h-85l97 678h86l-39 -264q-1 -6 -1 -31q0 -40 24.5 -65t65.5 -25q77 0 93 106l41 279h85l-41 -285q-5 -33 -5 -49q0 -48 38 -48q19 0 49 11l-10 -73q-45 -18 -75 -18q-37 3 -52.5 13.5t-24.5 32.5q-55 -46 -103 -46z" />
    <glyph glyph-name="paragraph" unicode="&#xb6;" horiz-adv-x="542" 
d="M307 -232h-81v510q-96 4 -148 61q-50 58 -50 137q-2 95 62 152.5t169 53.5h309v-84h-70v-830h-82v830h-109v-830z" />
    <glyph glyph-name="middot" unicode="&#xb7;" horiz-adv-x="260" 
d="M130 360q23 0 38.5 -16t15.5 -39q0 -22 -16 -38t-38 -16t-38 16t-16 38q0 23 16 39t38 16z" />
    <glyph glyph-name="cedilla" unicode="&#xb8;" horiz-adv-x="333" 
d="M146 7h34l-9 -24q46 -21 46 -67q0 -34 -28 -60.5t-80 -26.5q-37 0 -66 7l12 46q25 -7 42 -7q19 0 33 9.5t14 27.5q0 12 -5.5 19t-21.5 17z" />
    <glyph glyph-name="one.superior" unicode="&#xb9;" horiz-adv-x="323" 
d="M188 628h65l-64 -355h-65z" />
    <glyph glyph-name="ordmasculine" unicode="&#xba;" horiz-adv-x="302" 
d="M316 572q0 -81 -44 -125q-43 -43 -99 -43q-31 0 -66 18q-47 25 -47 103t44 122q46 44 100 44q49 0 80.5 -32.5t31.5 -86.5zM249 575q0 29 -12 48.5t-33 19.5q-33 0 -55 -38t-22 -92q0 -29 14.5 -46.5t31.5 -17.5q36 0 55 40q21 41 21 86z" />
    <glyph glyph-name="guillemotright" unicode="&#xbb;" horiz-adv-x="438" 
d="M268 449h68l88 -226l-165 -223h-78l171 232zM83 449h67l84 -215l-186 -234h-79l193 246z" />
    <glyph glyph-name="onequarter" unicode="&#xbc;" horiz-adv-x="844" 
d="M737 360h41l-37 -209h59l-9 -43h-58l-20 -108h-63l21 108h-151v23zM607 151h72l16 91zM660 691h67l-541 -718h-70zM197 686h65l-64 -355h-65z" />
    <glyph glyph-name="onehalf" unicode="&#xbd;" horiz-adv-x="844" 
d="M199 687h65l-64 -355h-65zM636 691h68l-542 -718h-69zM620 48h150l-8 -48h-259l39 40l53 59l25 28q92 107 92 143q0 39 -52 39q-40 0 -95 -36l10 59q52 28 96 28q47 0 75.5 -24t28.5 -61q0 -43 -49 -107q-24 -32 -106 -120z" />
    <glyph glyph-name="threequarters" unicode="&#xbe;" horiz-adv-x="844" 
d="M44 348l8 49q51 -22 93 -22q41 0 61 18t20 45q0 28 -21.5 41.5t-53.5 11.5l8 46q28 4 51 11q38 14 38 50q-2 26 -21.5 36t-35.5 9q-43 0 -87 -27l10 58q45 17 86 17q50 0 83 -24t33 -67q0 -60 -74 -86q50 -21 50 -75q0 -47 -38.5 -79.5t-104.5 -32.5q-51 0 -105 21z
M677 691h68l-541 -718h-70zM737 360h41l-37 -209h59l-9 -43h-58l-20 -108h-63l21 108h-151v23zM607 151h72l16 91z" />
    <glyph glyph-name="questiondown" unicode="&#xbf;" horiz-adv-x="354" 
d="M282 -49l-16 -102q-59 -41 -126 -41q-61 0 -101 43q-40 41 -40 105q0 49 24 85q26 36 91 103q34 36 55 66q19 29 22 44q3 10 5 36h58q-2 -66 -21 -114q-19 -47 -81 -109q-18 -18 -32 -34q-33 -38 -33 -72q0 -28 21 -50.5t52 -22.5q50 0 122 63zM293 416q0 -22 -16 -39
t-39 -17q-22 0 -38.5 16t-16.5 39t16 39.5t39 16.5t39 -17t16 -38z" />
    <glyph glyph-name="Agrave" unicode="&#xc0;" horiz-adv-x="521" 
d="M266 686h86l133 -686h-84l-41 214h-214l-90 -214h-91zM176 286h170l-53 280zM164 879h143l74 -150h-51z" />
    <glyph glyph-name="Aacute" unicode="&#xc1;" horiz-adv-x="521" 
d="M266 686h86l133 -686h-84l-41 214h-214l-90 -214h-91zM176 286h170l-53 280zM338 879h145l-166 -150h-52z" />
    <glyph glyph-name="Acircumflex" unicode="&#xc2;" horiz-adv-x="521" 
d="M266 686h86l133 -686h-84l-41 214h-214l-90 -214h-91zM176 286h170l-53 280zM400 879l68 -150h-48l-81 85l-141 -85h-60l138 150h124z" />
    <glyph glyph-name="Atilde" unicode="&#xc3;" horiz-adv-x="521" 
d="M266 686h86l133 -686h-84l-41 214h-214l-90 -214h-91zM176 286h170l-53 280zM196 729h-52q0 63 33 91q33 30 70 30q30 0 78 -24l30 -16q16 -8 30 -8q31 0 38 48h52q0 -53 -27 -87t-73 -34q-37 0 -84 25q-44 23 -57 23q-17 0 -27 -14.5t-11 -33.5z" />
    <glyph glyph-name="Adieresis" unicode="&#xc4;" horiz-adv-x="521" 
d="M266 686h86l133 -686h-84l-41 214h-214l-90 -214h-91zM176 286h170l-53 280zM383 842q16 16 38 16t37 -16q16 -15 16 -37t-16 -38q-15 -15 -37 -15t-38 15q-15 16 -15 38t15 37zM268 805q0 -21 -15 -37t-38 -16q-35 0 -48.5 33t10.5 57q25 25 58 11.5t33 -48.5z" />
    <glyph glyph-name="Aring" unicode="&#xc5;" horiz-adv-x="521" 
d="M266 686h86l133 -686h-84l-41 214h-214l-90 -214h-91zM176 286h170l-53 280zM319 931q44 0 73 -32q28 -31 28 -69q0 -42 -28.5 -71.5t-72.5 -29.5t-72.5 29.5t-28.5 71.5t29.5 71.5t71.5 29.5zM280 791q16 -16 39 -16t39 16q16 17 16 39t-16 38q-16 17 -39 17t-39 -17
q-16 -16 -16 -38t16 -39z" />
    <glyph glyph-name="AE" unicode="&#xc6;" horiz-adv-x="833" 
d="M368 682h433l-10 -83h-263l-29 -209h245l-11 -81h-246l-32 -227h357l-11 -82h-448l44 309h-151l-170 -309h-97zM285 381h124l31 226h-31z" />
    <glyph glyph-name="Ccedilla" unicode="&#xc7;" horiz-adv-x="547" 
d="M518 160l-12 -109q-100 -58 -191 -59q29 -7 42 -17q27 -23 27 -58q0 -39 -39 -74q-37 -34 -120 -34q-46 0 -81 8l16 53q44 -12 83 -3t39 41t-42 39l27 45q-55 9 -99 34t-70 58q-25 34 -37 69q-22 60 -22 122q0 65 21 135q15 47 38 88q26 44 71 84t102 64q124 51 296 45
l-15 -84l-81 -3q-72 -2 -155 -35q-50 -20 -88 -57.5t-57 -81.5q-35 -83 -35 -149q0 -94 49 -149q50 -56 126 -56q59 0 116 28q59 29 91 56z" />
    <glyph glyph-name="Egrave" unicode="&#xc8;" horiz-adv-x="510" 
d="M137 682h361l-11 -81h-273l-30 -214h241l-11 -81h-242l-33 -225h359l-12 -81h-448zM169 879h143l74 -150h-51z" />
    <glyph glyph-name="Eacute" unicode="&#xc9;" horiz-adv-x="510" 
d="M137 682h361l-11 -81h-273l-30 -214h241l-11 -81h-242l-33 -225h359l-12 -81h-448zM373 879h145l-166 -150h-52z" />
    <glyph glyph-name="Ecircumflex" unicode="&#xca;" horiz-adv-x="510" 
d="M137 682h361l-11 -81h-273l-30 -214h241l-11 -81h-242l-33 -225h359l-12 -81h-448zM405 879l68 -150h-48l-81 85l-141 -85h-60l138 150h124z" />
    <glyph glyph-name="Edieresis" unicode="&#xcb;" horiz-adv-x="510" 
d="M137 682h361l-11 -81h-273l-30 -214h241l-11 -81h-242l-33 -225h359l-12 -81h-448zM388 842q16 16 38 16t37 -16q16 -15 16 -37t-16 -38q-15 -15 -37 -15t-38 15q-15 16 -15 38t15 37zM273 805q0 -21 -15 -37t-38 -16q-35 0 -48.5 33t10.5 57q26 25 58.5 11.5t32.5 -48.5
z" />
    <glyph glyph-name="Igrave" unicode="&#xcc;" horiz-adv-x="240" 
d="M134 682h95l-95 -682h-95zM18 879h143l74 -150h-51z" />
    <glyph glyph-name="Iacute" unicode="&#xcd;" horiz-adv-x="240" 
d="M134 682h95l-95 -682h-95zM217 879h145l-166 -150h-52z" />
    <glyph glyph-name="Icircumflex" unicode="&#xce;" horiz-adv-x="240" 
d="M134 682h95l-95 -682h-95zM270 879l68 -150h-48l-81 85l-141 -85h-60l138 150h124z" />
    <glyph glyph-name="Idieresis" unicode="&#xcf;" horiz-adv-x="240" 
d="M134 682h95l-95 -682h-95zM253 842q16 16 38 16t37 -16q16 -15 16 -37t-16 -38q-15 -15 -37 -15t-38 15q-15 16 -15 38t15 37zM138 805q0 -21 -15 -37t-38 -16q-35 0 -48.5 33t10.5 57q25 25 58 11.5t33 -48.5z" />
    <glyph glyph-name="Eth" unicode="&#xd0;" horiz-adv-x="656" 
d="M39 0l44 308h-79l8 66h80l44 308h86q182 0 289 -90q106 -90 106 -252q0 -198 -148 -291q-34 -21 -83 -34q-52 -12 -82 -13q-46 -2 -88 -2h-177zM341 374l-9 -66h-158l-32 -227h41q132 0 195 23q68 26 105.5 89t37.5 147q0 133 -94 202q-35 26 -78 40q-44 15 -66 16
q-34 2 -67 2l-33 -226h158z" />
    <glyph glyph-name="Ntilde" unicode="&#xd1;" horiz-adv-x="688" 
d="M593 682h85l-97 -682h-48l-338 498l-71 -498h-85l97 682h45l341 -502zM305 729h-52q0 63 33 91q33 30 70 30q30 0 78 -24l30 -16q16 -8 30 -8q30 0 38 48h52q0 -53 -27 -87t-73 -34q-37 0 -84 25q-44 23 -57 23q-17 0 -27 -14.5t-11 -33.5z" />
    <glyph glyph-name="Ograve" unicode="&#xd2;" horiz-adv-x="656" 
d="M625 409q0 -43 -13 -110q-20 -103 -79 -181q-42 -57 -103.5 -92t-135.5 -35q-100 0 -172 76q-72 77 -72 213q0 95 38 188t116 158q79 65 176 65q69 0 119.5 -29t76.5 -74.5t37.5 -90.5t11.5 -88zM527 417q0 16 -1 23q-3 54 -18 84q-37 88 -128 88q-56 0 -103 -33.5
t-75 -89.5q-56 -110 -56 -226q0 -99 45 -147t106 -48q68 0 123 53q107 106 107 296zM252 879h143l74 -150h-51z" />
    <glyph glyph-name="Oacute" unicode="&#xd3;" horiz-adv-x="656" 
d="M625 409q0 -43 -13 -110q-20 -103 -79 -181q-42 -57 -103.5 -92t-135.5 -35q-100 0 -172 76q-72 77 -72 213q0 95 38 188t116 158q79 65 176 65q69 0 119.5 -29t76.5 -74.5t37.5 -90.5t11.5 -88zM527 417q0 16 -1 23q-3 54 -18 84q-37 88 -128 88q-56 0 -103 -33.5
t-75 -89.5q-56 -110 -56 -226q0 -99 45 -147t106 -48q68 0 123 53q107 106 107 296zM406 879h145l-166 -150h-52z" />
    <glyph glyph-name="Ocircumflex" unicode="&#xd4;" horiz-adv-x="656" 
d="M625 409q0 -43 -13 -110q-20 -103 -79 -181q-42 -57 -103.5 -92t-135.5 -35q-100 0 -172 76q-72 77 -72 213q0 95 38 188t116 158q79 65 176 65q69 0 119.5 -29t76.5 -74.5t37.5 -90.5t11.5 -88zM527 417q0 16 -1 23q-3 54 -18 84q-37 88 -128 88q-56 0 -103 -33.5
t-75 -89.5q-56 -110 -56 -226q0 -99 45 -147t106 -48q68 0 123 53q107 106 107 296zM488 879l68 -150h-48l-81 85l-141 -85h-60l138 150h124z" />
    <glyph glyph-name="Otilde" unicode="&#xd5;" horiz-adv-x="656" 
d="M625 409q0 -43 -13 -110q-20 -103 -79 -181q-42 -57 -103.5 -92t-135.5 -35q-100 0 -172 76q-72 77 -72 213q0 95 38 188t116 158q79 65 176 65q69 0 119.5 -29t76.5 -74.5t37.5 -90.5t11.5 -88zM527 417q0 16 -1 23q-3 54 -18 84q-37 88 -128 88q-56 0 -103 -33.5
t-75 -89.5q-56 -110 -56 -226q0 -99 45 -147t106 -48q68 0 123 53q107 106 107 296zM279 729h-52q0 63 33 91q33 30 70 30q30 0 78 -24l30 -16q16 -8 30 -8q31 0 38 48h52q0 -53 -27 -87t-73 -34q-37 0 -84 25q-44 23 -57 23q-17 0 -27 -14.5t-11 -33.5z" />
    <glyph glyph-name="Odieresis" unicode="&#xd6;" horiz-adv-x="656" 
d="M625 409q0 -43 -13 -110q-20 -103 -79 -181q-42 -57 -103.5 -92t-135.5 -35q-100 0 -172 76q-72 77 -72 213q0 95 38 188t116 158q79 65 176 65q69 0 119.5 -29t76.5 -74.5t37.5 -90.5t11.5 -88zM527 417q0 16 -1 23q-3 54 -18 84q-37 88 -128 88q-56 0 -103 -33.5
t-75 -89.5q-56 -110 -56 -226q0 -99 45 -147t106 -48q68 0 123 53q107 106 107 296zM461 842q16 16 38 16t37 -16q16 -15 16 -37t-16 -38q-15 -15 -37 -15t-38 15q-15 16 -15 38t15 37zM346 805q0 -21 -15 -37t-38 -16q-35 0 -48.5 33t10.5 57q25 25 58 11.5t33 -48.5z" />
    <glyph glyph-name="multiply" unicode="&#xd7;" horiz-adv-x="583" 
d="M154 128l-59 60l154 153l-154 153l59 60l154 -153l153 153l59 -60l-153 -153l153 -153l-59 -60l-153 154z" />
    <glyph glyph-name="Oslash" unicode="&#xd8;" horiz-adv-x="656" 
d="M613 700l38 -45l-66 -78q40 -65 40 -176q0 -169 -95 -290q-95 -120 -232 -120q-89 0 -156 56l-75 -88l-38 41l74 92q-21 29 -36 79.5t-15 105.5q0 141 84 273q41 64 107.5 102.5t142.5 38.5q102 0 165 -66zM520 499l-324 -387q45 -45 103 -45q74 0 128 58
q103 109 103 288q0 53 -10 86zM164 164l333 393q-40 55 -111 55q-58 0 -105.5 -33.5t-76.5 -89.5q-56 -110 -56 -222q0 -62 16 -103z" />
    <glyph glyph-name="Ugrave" unicode="&#xd9;" horiz-adv-x="635" 
d="M543 682h93l-58 -406q-17 -113 -53 -170q-75 -115 -230 -115q-114 0 -174 61q-59 62 -59 149q0 35 6 75l57 406h92l-62 -432q-3 -18 -3 -50q0 -50 37 -87q38 -38 111 -38q53 0 93 22.5t60 59.5q19 32 34 128zM216 879h143l74 -150h-51z" />
    <glyph glyph-name="Uacute" unicode="&#xda;" horiz-adv-x="635" 
d="M543 682h93l-58 -406q-17 -113 -53 -170q-75 -115 -230 -115q-114 0 -174 61q-59 62 -59 149q0 35 6 75l57 406h92l-62 -432q-3 -18 -3 -50q0 -50 37 -87q38 -38 111 -38q53 0 93 22.5t60 59.5q19 32 34 128zM410 879h145l-166 -150h-52z" />
    <glyph glyph-name="Ucircumflex" unicode="&#xdb;" horiz-adv-x="635" 
d="M543 682h93l-58 -406q-17 -113 -53 -170q-75 -115 -230 -115q-114 0 -174 61q-59 62 -59 149q0 35 6 75l57 406h92l-62 -432q-3 -18 -3 -50q0 -50 37 -87q38 -38 111 -38q53 0 93 22.5t60 59.5q19 32 34 128zM467 879l68 -150h-48l-81 85l-141 -85h-60l138 150h124z" />
    <glyph glyph-name="Udieresis" unicode="&#xdc;" horiz-adv-x="635" 
d="M543 682h93l-58 -406q-17 -113 -53 -170q-75 -115 -230 -115q-114 0 -174 61q-59 62 -59 149q0 35 6 75l57 406h92l-62 -432q-3 -18 -3 -50q0 -50 37 -87q38 -38 111 -38q53 0 93 22.5t60 59.5q19 32 34 128zM450 842q16 16 38 16t37 -16q16 -15 16 -37t-16 -38
q-15 -15 -37 -15t-38 15q-15 16 -15 38t15 37zM335 805q0 -21 -15 -37t-38 -16q-35 0 -48.5 33t10.5 57q26 25 58.5 11.5t32.5 -48.5z" />
    <glyph glyph-name="Yacute" unicode="&#xdd;" horiz-adv-x="490" 
d="M445 682h104l-238 -342l-49 -340h-91l49 340l-161 342h95l117 -250zM348 879h145l-166 -150h-52z" />
    <glyph glyph-name="Thorn" unicode="&#xde;" horiz-adv-x="448" 
d="M33 0l95 682h95l-19 -144h15q73 0 120 -18q49 -19 79.5 -61t30.5 -106q0 -65 -33.5 -118t-91.5 -74q-45 -17 -124 -17h-52l-20 -144h-95zM192 458l-33 -233q102 -6 144 20q47 33 52 108q0 31 -20.5 60t-60.5 39q-26 6 -82 6z" />
    <glyph glyph-name="germandbls" unicode="&#xdf;" horiz-adv-x="500" 
d="M125 0h-85l66 449q33 242 199 242q73 0 119 -45q47 -45 47 -113q0 -54 -30 -94t-81 -54q47 -22 69.5 -66t22.5 -95q0 -98 -58 -168t-138 -70q-30 0 -53 14l9 64q17 -4 34 -4q60 0 90 51q31 50 31 120q0 120 -112 133l8 58q57 -6 94.5 25.5t37.5 83.5q0 42 -26 68t-65 26
q-51 0 -76.5 -41t-37.5 -125z" />
    <glyph glyph-name="agrave" unicode="&#xe0;" 
d="M446 449l-64 -449h-84l7 54q-60 -60 -123 -60q-66 0 -107 54q-40 55 -40 117q0 34 12 91q15 70 70 125q82 82 222 82q57 0 107 -14zM316 132l37 257q-59 4 -105.5 -13.5t-71.5 -46.5q-20 -23 -35 -62q-17 -47 -17 -87q0 -52 25 -85.5t63 -33.5q32 0 60 24q31 28 44 47z
M202 657h101l68 -146h-56z" />
    <glyph glyph-name="aacute" unicode="&#xe1;" 
d="M446 449l-64 -449h-84l7 54q-60 -60 -123 -60q-66 0 -107 54q-40 55 -40 117q0 34 12 91q15 70 70 125q82 82 222 82q57 0 107 -14zM316 132l37 257q-59 4 -105.5 -13.5t-71.5 -46.5q-20 -23 -35 -62q-17 -47 -17 -87q0 -52 25 -85.5t63 -33.5q32 0 60 24q31 28 44 47z
M244 511l68 146h101l-113 -146h-56z" />
    <glyph glyph-name="acircumflex" unicode="&#xe2;" 
d="M446 449l-64 -449h-84l7 54q-60 -60 -123 -60q-66 0 -107 54q-40 55 -40 117q0 34 12 91q15 70 70 125q82 82 222 82q57 0 107 -14zM316 132l37 257q-59 4 -105.5 -13.5t-71.5 -46.5q-20 -23 -35 -62q-17 -47 -17 -87q0 -52 25 -85.5t63 -33.5q32 0 60 24q31 28 44 47z
M282 659h99l75 -148h-41l-83 99l-134 -99h-47z" />
    <glyph glyph-name="atilde" unicode="&#xe3;" 
d="M446 449l-64 -449h-84l7 54q-60 -60 -123 -60q-66 0 -107 54q-40 55 -40 117q0 34 12 91q15 70 70 125q82 82 222 82q57 0 107 -14zM316 132l37 257q-59 4 -105.5 -13.5t-71.5 -46.5q-20 -23 -35 -62q-17 -47 -17 -87q0 -52 25 -85.5t63 -33.5q32 0 60 24q31 28 44 47z
M191 539h-40q1 36 8 56q11 27 30 42q19 16 40 16q18 0 93 -26q34 -12 49 -12q31 0 35 37h39q-3 -35 -7 -48q-9 -30 -29.5 -48t-45.5 -18q-14 0 -69 20q-40 18 -71 18q-11 0 -21 -10t-11 -27z" />
    <glyph glyph-name="adieresis" unicode="&#xe4;" 
d="M446 449l-64 -449h-84l7 54q-60 -60 -123 -60q-66 0 -107 54q-40 55 -40 117q0 34 12 91q15 70 70 125q82 82 222 82q57 0 107 -14zM316 132l37 257q-59 4 -105.5 -13.5t-71.5 -46.5q-20 -23 -35 -62q-17 -47 -17 -87q0 -52 25 -85.5t63 -33.5q32 0 60 24q31 28 44 47z
M186 618q19 21 44.5 12t32.5 -32.5t-12 -44.5q-13 -13 -32 -13t-33 13q-13 14 -13 33t13 32zM374 618q19 21 44.5 12t32.5 -32.5t-12 -44.5q-13 -13 -32 -13t-33 13q-13 14 -13 33t13 32z" />
    <glyph glyph-name="aring" unicode="&#xe5;" 
d="M446 449l-64 -449h-84l7 54q-60 -60 -123 -60q-66 0 -107 54q-40 55 -40 117q0 34 12 91q15 70 70 125q82 82 222 82q57 0 107 -14zM316 132l37 257q-59 4 -105.5 -13.5t-71.5 -46.5q-20 -23 -35 -62q-17 -47 -17 -87q0 -52 25 -85.5t63 -33.5q32 0 60 24q31 28 44 47z
M314 696q36 0 63.5 -26.5t27.5 -65.5t-27 -66t-66 -27q-38 0 -65 26.5t-27 65.5t28 66t66 27zM311 656q-25 0 -40 -14.5t-15 -38.5t16.5 -40.5t40.5 -16.5q23 0 39.5 16.5t16.5 39.5t-17 38.5t-41 15.5z" />
    <glyph glyph-name="ae" unicode="&#xe6;" horiz-adv-x="646" 
d="M588 119l-12 -87q-70 -46 -146 -46q-104 0 -153 85q-78 -85 -156 -85q-44 0 -76.5 29t-32.5 75q0 64 65 109q29 19 66 31q48 16 63 19q21 6 56 12q8 32 8 61q0 34 -18.5 50.5t-44.5 16.5q-64 0 -147 -83l14 96q76 61 146 61q73 0 104 -61q26 28 64 44.5t72 16.5
q71 0 111 -58q41 -59 41 -150q0 -10 -3 -40h-267q-6 -24 -6 -50q0 -58 33 -83q34 -25 68 -25q68 0 151 62zM350 274h182q3 51 -20 85t-64 34q-52 0 -78 -48q-17 -34 -20 -71zM241 106l13 93q-56 -10 -105 -37q-47 -26 -47 -63q0 -18 12 -29.5t31 -11.5q43 0 96 48z" />
    <glyph glyph-name="ccedilla" unicode="&#xe7;" horiz-adv-x="383" 
d="M400 449l-13 -70q-38 6 -67 6q-52 0 -94 -19t-64 -51q-44 -61 -44 -121q0 -37 19 -79q26 -56 102 -56q71 0 127 49l-11 -91q-27 -13 -51 -21q-31 -9 -80 -10l-7 -16q31 -8 46.5 -27.5t15.5 -42.5q0 -48 -51 -74q-36 -18 -90 -18q-51 0 -86 11l14 45q38 -8 60 -8
q31 0 46.5 11.5t15.5 28.5q0 26 -39 36l32 54q-62 14 -106 64q-43 49 -43 134q0 125 83 202q85 77 202 77q46 0 83 -14z" />
    <glyph glyph-name="egrave" unicode="&#xe8;" horiz-adv-x="438" 
d="M389 125l-13 -89q-71 -50 -149 -50q-85 0 -138 60q-51 60 -51 153q0 110 59 187q60 77 151 77q71 0 117 -52q46 -50 46 -134q0 -27 -4 -44h-281q-2 -42 -2 -44q0 -59 33 -97q33 -36 77 -36q64 0 155 69zM140 292h188q1 47 -21 74.5t-59 27.5q-74 0 -108 -102zM162 657
h101l68 -146h-56z" />
    <glyph glyph-name="eacute" unicode="&#xe9;" horiz-adv-x="438" 
d="M389 125l-13 -89q-71 -50 -149 -50q-85 0 -138 60q-51 60 -51 153q0 110 59 187q60 77 151 77q71 0 117 -52q46 -50 46 -134q0 -27 -4 -44h-281q-2 -42 -2 -44q0 -59 33 -97q33 -36 77 -36q64 0 155 69zM140 292h188q1 47 -21 74.5t-59 27.5q-74 0 -108 -102zM194 511
l68 146h101l-113 -146h-56z" />
    <glyph glyph-name="ecircumflex" unicode="&#xea;" horiz-adv-x="438" 
d="M389 125l-13 -89q-71 -50 -149 -50q-85 0 -138 60q-51 60 -51 153q0 110 59 187q60 77 151 77q71 0 117 -52q46 -50 46 -134q0 -27 -4 -44h-281q-2 -42 -2 -44q0 -59 33 -97q33 -36 77 -36q64 0 155 69zM140 292h188q1 47 -21 74.5t-59 27.5q-74 0 -108 -102zM232 659h99
l75 -148h-41l-83 99l-134 -99h-47z" />
    <glyph glyph-name="edieresis" unicode="&#xeb;" horiz-adv-x="438" 
d="M389 125l-13 -89q-71 -50 -149 -50q-85 0 -138 60q-51 60 -51 153q0 110 59 187q60 77 151 77q71 0 117 -52q46 -50 46 -134q0 -27 -4 -44h-281q-2 -42 -2 -44q0 -59 33 -97q33 -36 77 -36q64 0 155 69zM140 292h188q1 47 -21 74.5t-59 27.5q-74 0 -108 -102zM136 618
q19 21 44.5 12t32.5 -32.5t-12 -44.5q-13 -13 -32 -13t-33 13q-13 14 -13 33t13 32zM324 618q19 21 44.5 12t32.5 -32.5t-12 -44.5q-13 -13 -32 -13t-33 13q-13 14 -13 33t13 32z" />
    <glyph glyph-name="igrave" unicode="&#xec;" horiz-adv-x="188" 
d="M86 449h85l-64 -449h-85zM37 657h101l68 -146h-56z" />
    <glyph glyph-name="iacute" unicode="&#xed;" horiz-adv-x="188" 
d="M86 449h85l-64 -449h-85zM79 511l68 146h101l-113 -146h-56z" />
    <glyph glyph-name="icircumflex" unicode="&#xee;" horiz-adv-x="188" 
d="M86 449h85l-64 -449h-85zM117 659h99l75 -148h-41l-83 99l-134 -99h-47z" />
    <glyph glyph-name="idieresis" unicode="&#xef;" horiz-adv-x="188" 
d="M86 449h85l-64 -449h-85zM21 618q19 21 44.5 12t32.5 -32.5t-12 -44.5q-13 -13 -32 -13t-33 13q-13 14 -13 33t13 32zM209 618q19 21 44.5 12t32.5 -32.5t-12 -44.5q-13 -13 -32 -13t-33 13q-13 14 -13 33t13 32z" />
    <glyph glyph-name="eth" unicode="&#xf0;" horiz-adv-x="448" 
d="M303 631l88 59l23 -37l-80 -52q91 -109 91 -278q0 -176 -69 -260q-65 -77 -156 -77q-73 0 -118.5 51.5t-45.5 149.5q0 129 67 202q68 74 151 74q32 0 71 -17q-9 40 -20 63.5t-35 49.5l-98 -62l-23 37l89 57q-33 24 -66 40l30 59q60 -19 101 -59zM334 275q0 53 -21.5 86
t-56.5 33q-44 0 -75 -37q-58 -69 -58 -185q0 -58 24.5 -88t57.5 -30q59 0 93 69q36 69 36 152z" />
    <glyph glyph-name="ntilde" unicode="&#xf1;" horiz-adv-x="471" 
d="M87 449h86l-12 -81q75 88 150 88q59 0 86 -42t27 -89q0 -17 -5 -55l-41 -270h-85l36 270q5 38 5 54q0 25 -14 43.5t-37 18.5q-26 0 -59 -24q-45 -33 -75 -76l-41 -286h-85zM182 539h-40q1 36 8 56q10 27 30 42q19 16 40 16q18 0 93 -26q35 -12 49 -12q31 0 35 37h39
q-3 -35 -7 -48q-9 -30 -29.5 -48t-45.5 -18q-14 0 -69 20q-40 18 -71 18q-11 0 -21 -10t-11 -27z" />
    <glyph glyph-name="ograve" unicode="&#xf2;" horiz-adv-x="448" 
d="M418 266q0 -134 -66 -207q-64 -73 -150 -73q-62 0 -109 41q-57 52 -57 160q0 132 67 203q67 73 149 73q75 0 120.5 -53.5t45.5 -143.5zM251 392q-54 0 -92 -65q-36 -65 -36 -161q0 -57 26 -86q25 -28 52 -28q40 0 71.5 34.5t44.5 85.5q12 50 13.5 99t-19.5 85t-60 36z
M167 657h101l68 -146h-56z" />
    <glyph glyph-name="oacute" unicode="&#xf3;" horiz-adv-x="448" 
d="M418 266q0 -134 -66 -207q-64 -73 -150 -73q-62 0 -109 41q-57 52 -57 160q0 132 67 203q67 73 149 73q75 0 120.5 -53.5t45.5 -143.5zM251 392q-54 0 -92 -65q-36 -65 -36 -161q0 -57 26 -86q25 -28 52 -28q40 0 71.5 34.5t44.5 85.5q12 50 13.5 99t-19.5 85t-60 36z
M209 511l68 146h101l-113 -146h-56z" />
    <glyph glyph-name="ocircumflex" unicode="&#xf4;" horiz-adv-x="448" 
d="M418 266q0 -134 -66 -207q-64 -73 -150 -73q-62 0 -109 41q-57 52 -57 160q0 132 67 203q67 73 149 73q75 0 120.5 -53.5t45.5 -143.5zM251 392q-54 0 -92 -65q-36 -65 -36 -161q0 -57 26 -86q25 -28 52 -28q40 0 71.5 34.5t44.5 85.5q12 50 13.5 99t-19.5 85t-60 36z
M247 659h99l75 -148h-41l-83 99l-134 -99h-47z" />
    <glyph glyph-name="otilde" unicode="&#xf5;" horiz-adv-x="448" 
d="M418 266q0 -134 -66 -207q-64 -73 -150 -73q-62 0 -109 41q-57 52 -57 160q0 132 67 203q67 73 149 73q75 0 120.5 -53.5t45.5 -143.5zM251 392q-54 0 -92 -65q-36 -65 -36 -161q0 -57 26 -86q25 -28 52 -28q40 0 71.5 34.5t44.5 85.5q12 50 13.5 99t-19.5 85t-60 36z
M143 539h-40q1 36 8 56q11 27 30 42q19 16 40 16q18 0 93 -26q34 -12 49 -12q31 0 35 37h39q-3 -35 -7 -48q-9 -30 -29.5 -48t-45.5 -18q-14 0 -69 20q-41 18 -71 18q-11 0 -21 -10t-11 -27z" />
    <glyph glyph-name="odieresis" unicode="&#xf6;" horiz-adv-x="448" 
d="M418 266q0 -134 -66 -207q-64 -73 -150 -73q-62 0 -109 41q-57 52 -57 160q0 132 67 203q67 73 149 73q75 0 120.5 -53.5t45.5 -143.5zM251 392q-54 0 -92 -65q-36 -65 -36 -161q0 -57 26 -86q25 -28 52 -28q40 0 71.5 34.5t44.5 85.5q12 50 13.5 99t-19.5 85t-60 36z
M151 618q19 21 44.5 12t32.5 -32.5t-12 -44.5q-13 -13 -32 -13t-33 13q-13 14 -13 33t13 32zM339 618q19 21 44.5 12t32.5 -32.5t-12 -44.5q-13 -13 -32 -13t-33 13q-13 14 -13 33t13 32z" />
    <glyph glyph-name="divide" unicode="&#xf7;" horiz-adv-x="584" 
d="M544 382v-82h-473v82h473zM307 540q23 0 38.5 -15.5t15.5 -37.5t-16 -37.5t-38 -15.5t-37.5 15.5t-15.5 37.5t15.5 37.5t37.5 15.5zM269 232q16 16 38 16t38 -16q16 -15 16 -37t-16 -38q-16 -15 -38 -15t-38 15q-15 16 -15 38t15 37z" />
    <glyph glyph-name="oslash" unicode="&#xf8;" horiz-adv-x="448" 
d="M401 461l29 -32l-40 -47q27 -46 27 -122q0 -122 -64 -198q-63 -76 -154 -76q-57 0 -112 43l-39 -45l-30 33l42 51q-25 47 -25 118q0 126 66 201q66 76 149 76q53 0 91 -26q8 -8 23 -19zM328 309l-188 -218q29 -38 63 -38q57 0 92 68q36 69 36 153q0 20 -3 35zM124 140
l187 217q-19 36 -59 36q-44 0 -75 -40q-55 -70 -55 -182q0 -7 2 -31z" />
    <glyph glyph-name="ugrave" unicode="&#xf9;" 
d="M351 449h85l-64 -449h-85l11 77q-82 -82 -150 -82q-49 0 -79 32.5t-30 86.5q0 20 9 82l36 253h85l-38 -274q-6 -36 -6 -53q1 -26 12.5 -42t21.5 -19t16 -1q41 0 87 46q34 34 48 51zM177 657h101l68 -146h-56z" />
    <glyph glyph-name="uacute" unicode="&#xfa;" 
d="M351 449h85l-64 -449h-85l11 77q-82 -82 -150 -82q-49 0 -79 32.5t-30 86.5q0 20 9 82l36 253h85l-38 -274q-6 -36 -6 -53q1 -26 12.5 -42t21.5 -19t16 -1q41 0 87 46q34 34 48 51zM219 511l68 146h101l-113 -146h-56z" />
    <glyph glyph-name="ucircumflex" unicode="&#xfb;" 
d="M351 449h85l-64 -449h-85l11 77q-82 -82 -150 -82q-49 0 -79 32.5t-30 86.5q0 20 9 82l36 253h85l-38 -274q-6 -36 -6 -53q1 -26 12.5 -42t21.5 -19t16 -1q41 0 87 46q34 34 48 51zM242 659h99l75 -148h-41l-83 99l-134 -99h-47z" />
    <glyph glyph-name="udieresis" unicode="&#xfc;" 
d="M351 449h85l-64 -449h-85l11 77q-82 -82 -150 -82q-49 0 -79 32.5t-30 86.5q0 20 9 82l36 253h85l-38 -274q-6 -36 -6 -53q1 -26 12.5 -42t21.5 -19t16 -1q41 0 87 46q34 34 48 51zM161 618q19 21 44.5 12t32.5 -32.5t-12 -44.5q-13 -13 -32 -13t-33 13q-13 14 -13 33
t13 32zM349 618q19 21 44.5 12t32.5 -32.5t-12 -44.5q-13 -13 -32 -13t-33 13q-13 14 -13 33t13 32z" />
    <glyph glyph-name="yacute" unicode="&#xfd;" horiz-adv-x="375" 
d="M311 449h89l-323 -679h-89l122 257l-85 422h85l59 -300zM172 511l68 146h101l-113 -146h-56z" />
    <glyph glyph-name="thorn" unicode="&#xfe;" horiz-adv-x="490" 
d="M142 682h83l-33 -233q28 9 48 12q18 2 31 2q59 0 103 -35q80 -66 80 -178q0 -83 -48 -152q-48 -68 -122 -95q-51 -18 -159 -16l-31 -208h-82zM183 386l-47 -328q16 -2 30 -2q54 0 95 19t63 50t32.5 63t10.5 64q0 66 -39 107q-37 40 -89 40q-23 0 -56 -13z" />
    <glyph glyph-name="ydieresis" unicode="&#xff;" horiz-adv-x="375" 
d="M311 449h89l-323 -679h-89l122 257l-85 422h85l59 -300zM114 618q19 21 44.5 12t32.5 -32.5t-12 -44.5q-13 -13 -32 -13t-33 13q-13 14 -13 33t13 32zM302 618q19 21 44.5 12t32.5 -32.5t-12 -44.5q-13 -13 -32 -13t-33 13q-13 14 -13 33t13 32z" />
    <glyph glyph-name="Amacron" unicode="&#x100;" horiz-adv-x="521" 
d="M266 686h86l133 -686h-84l-41 214h-214l-90 -214h-91zM176 286h170l-53 280zM175 824h282l-12 -70h-280z" />
    <glyph glyph-name="amacron" unicode="&#x101;" 
d="M446 449l-64 -449h-84l7 54q-60 -60 -123 -60q-66 0 -107 54q-40 55 -40 117q0 34 12 91q15 70 70 125q82 82 222 82q57 0 107 -14zM316 132l37 257q-59 4 -105.5 -13.5t-71.5 -46.5q-20 -23 -35 -62q-17 -47 -17 -87q0 -52 25 -85.5t63 -33.5q32 0 60 24q31 28 44 47z
M151 617h322l-8 -64h-322z" />
    <glyph glyph-name="Abreve" unicode="&#x102;" horiz-adv-x="521" 
d="M266 686h86l133 -686h-84l-41 214h-214l-90 -214h-91zM176 286h170l-53 280zM179 870h62q5 -66 70 -66q24 0 44 11q19 11 28 20.5t27 34.5h63q-9 -28 -47 -77q-21 -28 -54 -46t-68 -18q-74 0 -102 51q-23 45 -23 90z" />
    <glyph glyph-name="abreve" unicode="&#x103;" 
d="M446 449l-64 -449h-84l7 54q-60 -60 -123 -60q-66 0 -107 54q-40 55 -40 117q0 34 12 91q15 70 70 125q82 82 222 82q57 0 107 -14zM316 132l37 257q-59 4 -105.5 -13.5t-71.5 -46.5q-20 -23 -35 -62q-17 -47 -17 -87q0 -52 25 -85.5t63 -33.5q32 0 60 24q31 28 44 47z
M201 639h47q1 -26 18 -45t50 -19q53 0 89 64h49q-16 -56 -54 -92t-88 -36q-54 0 -84 39q-28 40 -27 89z" />
    <glyph glyph-name="Aogonek" unicode="&#x104;" horiz-adv-x="521" 
d="M567 -123l-10 -76q-43 -8 -67 -8q-60 0 -93 33q-32 32 -32 69q0 43 36 105l-41 214h-214l-90 -214h-91l301 686h86l133 -686q-26 -44 -26 -78q0 -20 20 -36t46 -16q14 0 42 7zM176 286h170l-53 280z" />
    <glyph glyph-name="aogonek" unicode="&#x105;" 
d="M447 -111l-9 -68q-40 -8 -61 -8q-50 0 -81 28t-31 64q0 39 33 95l7 54q-60 -60 -123 -60q-66 0 -107 54q-40 55 -40 117q0 34 12 91q15 70 70 125q82 82 222 82q57 0 107 -14l-64 -449h-7q-25 -44 -25 -69q0 -21 18.5 -34.5t40.5 -13.5q15 0 38 6zM316 132l37 257
q-59 4 -106 -13.5t-70 -46.5q-20 -23 -35 -62q-18 -50 -18 -87q0 -52 25 -85.5t63 -33.5q32 0 60 24q31 28 44 47z" />
    <glyph glyph-name="Cacute" unicode="&#x106;" horiz-adv-x="550" 
d="M570 691l-18 -86q-122 1 -210 -27q-56 -18 -98.5 -54.5t-65 -80t-32.5 -84.5t-10 -79q0 -92 48 -147q48 -56 123 -56q105 0 211 84l-13 -110q-104 -60 -203 -60q-108 0 -186 75q-77 75 -77 213q0 11 2 35q10 82 29 127q58 143 199 203q112 52 301 47zM439 879h145
l-166 -150h-52z" />
    <glyph glyph-name="cacute" unicode="&#x107;" horiz-adv-x="385" 
d="M400 455l-11 -75q-39 7 -65 7q-99 0 -151 -61q-53 -62 -53 -133q0 -16 4 -34.5t15.5 -42t38.5 -39t65 -15.5q64 0 125 46l-13 -90q-59 -32 -125 -32q-54 0 -94.5 19.5t-62 51t-31.5 65.5t-10 70q0 96 66 178q35 43 94.5 68t135.5 25q32 0 72 -8zM215 511l68 146h101
l-113 -146h-56z" />
    <glyph glyph-name="Ccircumflex" unicode="&#x108;" horiz-adv-x="550" 
d="M570 691l-18 -86q-122 1 -210 -27q-56 -18 -98.5 -54.5t-65 -80t-32.5 -84.5t-10 -79q0 -92 48 -147q48 -56 123 -56q105 0 211 84l-13 -110q-104 -60 -203 -60q-108 0 -186 75q-77 75 -77 213q0 11 2 35q10 82 29 127q58 143 199 203q112 52 301 47zM471 879l68 -150
h-48l-81 85l-141 -85h-60l138 150h124z" />
    <glyph glyph-name="ccircumflex" unicode="&#x109;" horiz-adv-x="385" 
d="M392 455l-11 -75q-39 7 -65 7q-99 0 -151 -61q-53 -62 -53 -133q0 -16 4 -34.5t15.5 -42t38.5 -39t65 -15.5q64 0 125 46l-13 -90q-59 -32 -125 -32q-54 0 -94.5 19.5t-62 51t-31.5 65.5t-10 70q0 96 66 178q35 43 94.5 68t135.5 25q32 0 72 -8zM230 659h99l75 -148h-41
l-83 99l-134 -99h-47z" />
    <glyph glyph-name="Cdotaccent" unicode="&#x10a;" horiz-adv-x="552" 
d="M580 691l-18 -86q-122 1 -210 -27q-56 -18 -98.5 -54.5t-65 -80t-32.5 -84.5t-10 -79q0 -92 48 -147q48 -56 123 -56q105 0 211 84l-13 -110q-103 -60 -203 -60q-108 0 -186 75q-77 75 -77 213q0 11 2 35q10 82 29 127q58 143 199 203q112 52 301 47zM462 805
q0 -21 -15 -37t-38 -16q-35 0 -48.5 33t10.5 57q25 25 58 11.5t33 -48.5z" />
    <glyph glyph-name="cdotaccent" unicode="&#x10b;" horiz-adv-x="385" 
d="M392 455l-11 -75q-39 7 -65 7q-99 0 -151 -61q-53 -62 -53 -133q0 -16 4 -34.5t15.5 -42t38.5 -39t65 -15.5q64 0 125 46l-13 -90q-59 -32 -125 -32q-54 0 -94.5 19.5t-62 51t-31.5 65.5t-10 70q0 96 66 178q35 43 94.5 68t135.5 25q32 0 72 -8zM238 618q19 21 44.5 12
t32.5 -32.5t-12 -44.5q-13 -13 -32 -13t-33 13q-13 14 -13 33t13 32z" />
    <glyph glyph-name="Ccaron" unicode="&#x10c;" horiz-adv-x="550" 
d="M570 691l-18 -86q-122 1 -210 -27q-56 -18 -98.5 -54.5t-65 -80t-32.5 -84.5t-10 -79q0 -92 48 -147q48 -56 123 -56q105 0 211 84l-13 -110q-104 -60 -203 -60q-108 0 -186 75q-77 75 -77 213q0 11 2 35q10 82 29 127q58 143 199 203q112 52 301 47zM545 880h59
l-136 -151h-123l-70 151h50l82 -86z" />
    <glyph glyph-name="ccaron" unicode="&#x10d;" horiz-adv-x="385" 
d="M400 455l-11 -75q-39 7 -65 7q-99 0 -151 -61q-53 -62 -53 -133q0 -16 4 -34.5t15.5 -42t38.5 -39t65 -15.5q64 0 125 46l-13 -90q-59 -32 -125 -32q-54 0 -94.5 19.5t-62 51t-31.5 65.5t-10 70q0 96 66 178q35 43 94.5 68t135.5 25q32 0 72 -8zM399 660h49l-132 -149
h-100l-74 149h40l84 -97z" />
    <glyph glyph-name="Dcaron" unicode="&#x10e;" horiz-adv-x="656" 
d="M39 0l97 682h86q182 0 289 -90q106 -90 106 -252q0 -198 -148 -291q-34 -21 -83 -34q-52 -12 -82 -13q-46 -2 -88 -2h-177zM216 600l-74 -519h41q132 0 195 23q67 26 105 89.5t38 146.5q0 160 -135 227q-42 23 -79 27q-36 6 -91 6zM472 880h59l-136 -151h-123l-70 151h50
l82 -86z" />
    <glyph glyph-name="dcaron" unicode="&#x10f;" horiz-adv-x="510" 
d="M395 682h86l-97 -682q-62 -14 -115 -14q-116 0 -177 56q-59 56 -59 146q0 79 50 153q49 72 133 103q57 19 148 18zM307 58l47 334q-65 0 -104 -14q-64 -22 -96 -75t-32 -111q0 -62 37 -99.5t109 -37.5q22 0 39 3zM488 449l6 45q66 22 66 85q-40 18 -40 53q0 26 18 42.5
t43 16.5q29 0 47.5 -22.5t18.5 -56.5q0 -51 -40 -98q-39 -48 -119 -65z" />
    <glyph glyph-name="Dcroat" unicode="&#x110;" horiz-adv-x="656" 
d="M39 0l44 308h-79l8 66h80l44 308h86q182 0 289 -90q106 -90 106 -252q0 -198 -148 -291q-34 -21 -83 -34q-52 -12 -82 -13q-46 -2 -88 -2h-177zM341 374l-9 -66h-158l-32 -227h41q132 0 195 23q68 26 105.5 89t37.5 147q0 133 -94 202q-35 26 -78 40q-44 15 -66 16
q-34 2 -67 2l-33 -226h158z" />
    <glyph glyph-name="dslash" unicode="&#x111;" 
d="M480 682l-14 -92h86l-7 -52h-86l-77 -538q-62 -14 -115 -14q-115 0 -176 56q-60 57 -60 146q0 79 50 153q49 73 134 103q57 19 148 18l10 76h-104l7 52h106l12 92h86zM305 58l48 334q-65 0 -104 -14q-64 -22 -97 -75q-32 -53 -32 -111q0 -62 37.5 -99.5t109.5 -37.5
q23 0 38 3z" />
    <glyph glyph-name="Emacron" unicode="&#x112;" horiz-adv-x="510" 
d="M137 682h361l-11 -81h-273l-30 -214h241l-11 -81h-242l-33 -225h359l-12 -81h-448zM190 824h282l-12 -70h-280z" />
    <glyph glyph-name="emacron" unicode="&#x113;" horiz-adv-x="438" 
d="M389 125l-13 -89q-71 -50 -149 -50q-85 0 -138 60q-51 60 -51 153q0 110 59 187q60 77 151 77q71 0 117 -52q46 -50 46 -134q0 -27 -4 -44h-281q-2 -42 -2 -44q0 -59 33 -97q33 -36 77 -36q64 0 155 69zM140 292h188q1 47 -21 74.5t-59 27.5q-74 0 -108 -102zM106 617
h322l-8 -64h-322z" />
    <glyph glyph-name="Ebreve" unicode="&#x114;" horiz-adv-x="510" 
d="M137 682h361l-11 -81h-273l-30 -214h241l-11 -81h-242l-33 -225h359l-12 -81h-448zM194 870h62q5 -66 70 -66q24 0 44 11q19 11 28 20.5t27 34.5h63q-9 -28 -47 -77q-21 -28 -54 -46t-68 -18q-74 0 -102 51q-23 45 -23 90z" />
    <glyph glyph-name="ebreve" unicode="&#x115;" horiz-adv-x="438" 
d="M389 125l-13 -89q-71 -50 -149 -50q-85 0 -138 60q-51 60 -51 153q0 110 59 187q60 77 151 77q71 0 117 -52q46 -50 46 -134q0 -27 -4 -44h-281q-2 -42 -2 -44q0 -59 33 -97q33 -36 77 -36q64 0 155 69zM140 292h188q1 47 -21 74.5t-59 27.5q-74 0 -108 -102zM151 639h47
q1 -26 18 -45t50 -19q53 0 89 64h49q-16 -56 -54 -92t-88 -36q-54 0 -84 39q-28 40 -27 89z" />
    <glyph glyph-name="Edotaccent" unicode="&#x116;" horiz-adv-x="510" 
d="M137 682h361l-11 -81h-273l-30 -214h241l-11 -81h-242l-33 -225h359l-12 -81h-448zM386 805q0 -21 -15 -37t-38 -16q-35 0 -48.5 33t10.5 57q25 25 58 11.5t33 -48.5z" />
    <glyph glyph-name="edotaccent" unicode="&#x117;" horiz-adv-x="438" 
d="M389 125l-13 -89q-71 -50 -149 -50q-85 0 -138 60q-51 60 -51 153q0 110 59 187q60 77 151 77q71 0 117 -52q46 -50 46 -134q0 -27 -4 -44h-281q-2 -42 -2 -44q0 -59 33 -97q33 -36 77 -36q64 0 155 69zM140 292h188q1 47 -21 74.5t-59 27.5q-74 0 -108 -102zM230 618
q19 21 44.5 12t32.5 -32.5t-12 -44.5q-13 -13 -32 -13t-33 13q-13 14 -13 33t13 32z" />
    <glyph glyph-name="Eogonek" unicode="&#x118;" horiz-adv-x="510" 
d="M486 -123l-8 -76q-46 -8 -68 -8q-59 0 -92 33q-32 32 -32 69q0 43 36 105h-284l99 682h362l-13 -81h-272l-30 -213h241l-11 -82h-242l-35 -225h362l-13 -81h-80q-28 -50 -28 -76q0 -25 20.5 -39.5t45.5 -14.5q14 0 42 7z" />
    <glyph glyph-name="eogonek" unicode="&#x119;" horiz-adv-x="438" 
d="M357 -111l-9 -68q-40 -8 -61 -8q-51 0 -81.5 28t-30.5 64q0 37 26 83q-77 10 -120 67.5t-43 143.5q0 110 59 187q60 77 151 77q71 0 117 -52q46 -50 46 -134q0 -27 -4 -44h-281q-2 -42 -2 -44q0 -59 33 -97q33 -36 77 -36q64 0 155 69l-13 -89q-45 -33 -95 -43
q-21 -31 -21 -63q0 -20 17.5 -33.5t41.5 -13.5q15 0 38 6zM140 292h188q1 47 -21 74.5t-59 27.5q-74 0 -108 -102z" />
    <glyph glyph-name="Ecaron" unicode="&#x11a;" horiz-adv-x="510" 
d="M137 682h361l-11 -81h-273l-30 -214h241l-11 -81h-242l-33 -225h359l-12 -81h-448zM454 880h59l-136 -151h-123l-70 151h50l82 -86z" />
    <glyph glyph-name="ecaron" unicode="&#x11b;" horiz-adv-x="438" 
d="M389 125l-13 -89q-71 -50 -149 -50q-85 0 -138 60q-51 60 -51 153q0 110 59 187q60 77 151 77q71 0 117 -52q46 -50 46 -134q0 -27 -4 -44h-281q-2 -42 -2 -44q0 -59 33 -97q33 -36 77 -36q64 0 155 69zM140 292h188q1 47 -21 74.5t-59 27.5q-74 0 -108 -102zM378 660h49
l-132 -149h-100l-74 149h40l84 -97z" />
    <glyph glyph-name="Gcircumflex" unicode="&#x11c;" horiz-adv-x="604" 
d="M389 299h189l-35 -248q-113 -60 -225 -60q-129 0 -207 86q-77 88 -77 214q0 82 34.5 159t91.5 129q124 112 345 112q65 0 116 -9l-12 -82q-50 8 -107 8q-174 0 -272 -89q-97 -88 -97 -224q0 -99 54 -161q55 -61 135 -61q70 0 137 33l17 118h-98zM522 879l68 -150h-48
l-81 85l-141 -85h-60l138 150h124z" />
    <glyph glyph-name="gcircumflex" unicode="&#x11d;" horiz-adv-x="427" 
d="M246 449h199l-9 -67h-87q42 -66 25.5 -134.5t-73.5 -102.5q-11 -7 -37 -17q-16 -6 -33 -10l-46 -7q-7 -1 -18 -3.5t-29 -13t-18 -22.5q0 -15 21 -24.5t81 -22.5q145 -37 145 -127q0 -47 -47 -88t-137 -41q-77 0 -136 32q-58 31 -58 82q0 45 48 68q35 17 81 27
q-23 9 -47 23q-31 20 -31 56q0 27 24.5 50t64.5 34q-81 37 -81 129q0 25 8 57q7 29 37 65q29 35 77 49q27 8 76 8zM298 289q0 40 -23 65.5t-56 25.5q-40 0 -66 -35q-24 -35 -24 -72t22.5 -63t57.5 -26q38 0 63.5 31t25.5 74zM186 -46q-117 -27 -117 -70q0 -24 36 -37
q37 -14 80 -14q46 0 72.5 16.5t26.5 39.5q0 20 -27 37.5t-71 27.5zM236 659h99l75 -148h-41l-83 99l-134 -99h-47z" />
    <glyph glyph-name="Gbreve" unicode="&#x11e;" horiz-adv-x="604" 
d="M389 299h189l-35 -248q-113 -60 -225 -60q-129 0 -207 86q-77 88 -77 214q0 82 34.5 159t91.5 129q124 112 345 112q65 0 116 -9l-12 -82q-50 8 -107 8q-174 0 -272 -89q-97 -88 -97 -224q0 -99 54 -161q55 -61 135 -61q70 0 137 33l17 118h-98zM311 870h62q5 -66 70 -66
q24 0 44 11q19 11 28 20.5t27 34.5h63q-9 -28 -47 -77q-21 -28 -54 -46t-68 -18q-74 0 -102 51q-23 45 -23 90z" />
    <glyph glyph-name="gbreve" unicode="&#x11f;" horiz-adv-x="427" 
d="M246 449h199l-9 -67h-87q42 -66 25.5 -134.5t-73.5 -102.5q-11 -7 -37 -17q-16 -6 -33 -10l-46 -7q-7 -1 -18 -3.5t-29 -13t-18 -22.5q0 -15 21 -24.5t81 -22.5q145 -37 145 -127q0 -47 -47 -88t-137 -41q-77 0 -136 32q-58 31 -58 82q0 45 48 68q35 17 81 27
q-23 9 -47 23q-31 20 -31 56q0 27 24.5 50t64.5 34q-81 37 -81 129q0 25 8 57q7 29 37 65q29 35 77 49q27 8 76 8zM298 289q0 40 -23 65.5t-56 25.5q-40 0 -66 -35q-24 -35 -24 -72t22.5 -63t57.5 -26q38 0 63.5 31t25.5 74zM186 -46q-117 -27 -117 -70q0 -24 36 -37
q37 -14 80 -14q46 0 72.5 16.5t26.5 39.5q0 20 -27 37.5t-71 27.5zM155 639h47q1 -26 18 -45t50 -19q53 0 89 64h49q-16 -56 -54 -92t-88 -36q-54 0 -84 39q-28 40 -27 89z" />
    <glyph glyph-name="Gdotaccent" unicode="&#x120;" horiz-adv-x="604" 
d="M389 299h189l-35 -248q-113 -60 -225 -60q-129 0 -207 86q-77 88 -77 214q0 82 34.5 159t91.5 129q124 112 345 112q65 0 116 -9l-12 -82q-50 8 -107 8q-174 0 -272 -89q-97 -88 -97 -224q0 -99 54 -161q55 -61 135 -61q70 0 137 33l17 118h-98zM493 805q0 -21 -15 -37
t-38 -16q-35 0 -48.5 33t10.5 57q26 25 58.5 11.5t32.5 -48.5z" />
    <glyph glyph-name="gdotaccent" unicode="&#x121;" horiz-adv-x="427" 
d="M246 449h199l-9 -67h-87q42 -66 25.5 -134.5t-73.5 -102.5q-11 -7 -37 -17q-16 -6 -33 -10l-46 -7q-7 -1 -18 -3.5t-29 -13t-18 -22.5q0 -15 21 -24.5t81 -22.5q145 -37 145 -127q0 -47 -47 -88t-137 -41q-77 0 -136 32q-58 31 -58 82q0 45 48 68q35 17 81 27
q-23 9 -47 23q-31 20 -31 56q0 27 24.5 50t64.5 34q-81 37 -81 129q0 25 8 57q7 29 37 65q29 35 77 49q27 8 76 8zM298 289q0 40 -23 65.5t-56 25.5q-40 0 -66 -35q-24 -35 -24 -72t22.5 -63t57.5 -26q38 0 63.5 31t25.5 74zM186 -46q-117 -27 -117 -70q0 -24 36 -37
q37 -14 80 -14q46 0 72.5 16.5t26.5 39.5q0 20 -27 37.5t-71 27.5zM234 618q19 21 44.5 12t32.5 -32.5t-12 -44.5q-13 -13 -32 -13t-33 13q-13 14 -13 33t13 32z" />
    <glyph glyph-name="Gcommaaccent" unicode="&#x122;" horiz-adv-x="604" 
d="M389 299h189l-35 -248q-113 -60 -225 -60q-129 0 -207 86q-77 88 -77 214q0 82 34.5 159t91.5 129q124 112 345 112q65 0 116 -9l-12 -82q-50 8 -107 8q-174 0 -272 -89q-97 -88 -97 -224q0 -99 54 -161q55 -61 135 -61q70 0 137 33l17 118h-98zM175 -211l16 51
q38 -8 58 -8q25 0 43 11t18 29q0 30 -35 36q-29 5 -63 5l20 50q74 0 114 -12q61 -17 61 -73q0 -39 -37.5 -68t-105.5 -29q-47 0 -89 8z" />
    <glyph glyph-name="gcommaaccent" unicode="&#x123;" horiz-adv-x="427" 
d="M246 449h199l-9 -67h-87q42 -66 25.5 -134.5t-73.5 -102.5q-11 -7 -37 -17q-16 -6 -33 -10l-46 -7q-7 -1 -18 -3.5t-29 -13t-18 -22.5q0 -15 21 -24.5t81 -22.5q145 -37 145 -127q0 -47 -47 -88t-137 -41q-77 0 -136 32q-58 31 -58 82q0 45 48 68q35 17 81 27
q-23 9 -47 23q-31 20 -31 56q0 27 24.5 50t64.5 34q-81 37 -81 129q0 25 8 57q7 29 37 65q29 35 77 49q27 8 76 8zM298 289q0 40 -23 65.5t-56 25.5q-40 0 -66 -35q-24 -35 -24 -72t22.5 -63t57.5 -26q38 0 63.5 31t25.5 74zM186 -46q-117 -27 -117 -70q0 -24 36 -37
q37 -14 80 -14q46 0 72.5 16.5t26.5 39.5q0 20 -27 37.5t-71 27.5zM355 701l-6 -39q-57 -20 -60 -78q36 -14 36 -46q0 -23 -16 -37.5t-39 -14.5q-26 0 -42.5 20t-16.5 50q0 42 33 85t111 60z" />
    <glyph glyph-name="Hcircumflex" unicode="&#x124;" horiz-adv-x="698" 
d="M592 682h94l-94 -682h-94l43 302h-369l-42 -302h-95l95 682h95l-42 -296h370zM499 879l68 -150h-48l-81 85l-141 -85h-60l138 150h124z" />
    <glyph glyph-name="hcircumflex" unicode="&#x125;" 
d="M118 682h85l-44 -307q79 88 161 88q43 0 72.5 -31.5t29.5 -89.5q0 -25 -5 -57l-40 -285h-86l41 292q4 19 4 41q0 26 -11 42q-16 22 -41 22q-37 0 -82 -45q-33 -33 -54 -60l-43 -292h-85zM257 871h99l75 -148h-41l-83 99l-134 -99h-47z" />
    <glyph glyph-name="Hbar" unicode="&#x126;" horiz-adv-x="698" 
d="M686 682l-18 -134h93l-9 -65h-93l-67 -483h-94l43 302h-369l-42 -302h-95l67 483h-86l7 65h89l18 134h95l-19 -134h368l18 134h94zM553 386l13 97h-369l-14 -97h370z" />
    <glyph glyph-name="hbar" unicode="&#x127;" 
d="M203 682l-14 -96h139l-9 -52h-137l-23 -159q79 88 161 88q43 0 72.5 -31.5t29.5 -89.5q0 -25 -5 -57l-40 -285h-86l41 292q4 19 4 41q0 26 -11 42q-16 22 -41 22q-37 0 -82 -45q-33 -33 -54 -60l-43 -292h-85l76 534h-92l8 52h92l14 96h85z" />
    <glyph glyph-name="Itilde" unicode="&#x128;" horiz-adv-x="240" 
d="M134 682h95l-95 -682h-95zM71 729h-52q0 63 33 91q33 30 70 30q30 0 78 -24l30 -16q16 -8 30 -8q30 0 38 48h52q0 -53 -27 -87t-73 -34q-37 0 -84 25q-44 23 -57 23q-17 0 -27 -14.5t-11 -33.5z" />
    <glyph glyph-name="itilde" unicode="&#x129;" horiz-adv-x="188" 
d="M41 539h-40q1 36 8 56q11 27 30 42q19 16 40 16q18 0 93 -26q35 -12 49 -12q31 0 35 37h39q-3 -35 -7 -48q-9 -30 -29.5 -48t-45.5 -18q-14 0 -69 20q-40 18 -71 18q-11 0 -21 -10t-11 -27zM86 449h85l-64 -449h-85z" />
    <glyph glyph-name="Imacron" unicode="&#x12a;" horiz-adv-x="240" 
d="M134 682h95l-95 -682h-95zM54 824h282l-12 -70h-280z" />
    <glyph glyph-name="imacron" unicode="&#x12b;" horiz-adv-x="188" 
d="M86 449h85l-64 -449h-85zM-19 617h322l-8 -64h-322z" />
    <glyph glyph-name="Ibreve" unicode="&#x12c;" horiz-adv-x="240" 
d="M134 682h95l-95 -682h-95zM67 870h62q5 -66 70 -66q24 0 44 11q19 11 28 20.5t27 34.5h63q-9 -28 -47 -77q-21 -28 -54 -46t-68 -18q-74 0 -102 51q-23 45 -23 90z" />
    <glyph glyph-name="ibreve" unicode="&#x12d;" horiz-adv-x="188" 
d="M86 449h85l-64 -449h-85zM36 639h47q1 -26 18 -45t50 -19q53 0 89 64h49q-16 -56 -54 -92t-88 -36q-54 0 -84 39q-28 40 -27 89z" />
    <glyph glyph-name="Iogonek" unicode="&#x12e;" horiz-adv-x="240" 
d="M203 -123l-8 -76q-43 -8 -67 -8q-59 0 -92 33q-33 32 -33 68q0 44 36 106l95 682h95l-95 -682h-11q-28 -50 -28 -76q0 -24 20.5 -39t45.5 -15q14 0 42 7z" />
    <glyph glyph-name="iogonek" unicode="&#x12f;" horiz-adv-x="188" 
d="M172 -111l-9 -68q-40 -8 -61 -8q-50 0 -81 28t-31 64q0 39 32 95l64 449h85l-64 -449h-7q-25 -44 -25 -69q0 -21 18.5 -34.5t40.5 -13.5q14 0 38 6zM196 592q3 -29 -29.5 -43t-53.5 9q-21 22 -9.5 51.5t43.5 29.5q21 0 35 -14t14 -33z" />
    <glyph glyph-name="Idot" unicode="&#x130;" horiz-adv-x="240" 
d="M134 682h95l-95 -682h-95zM241 805q0 -21 -15 -37t-38 -16q-35 0 -48.5 33t10.5 57q26 25 58.5 11.5t32.5 -48.5z" />
    <glyph glyph-name="dotlessi" unicode="&#x131;" horiz-adv-x="188" 
d="M86 449h85l-64 -449h-85z" />
    <glyph glyph-name="IJ" unicode="&#x132;" horiz-adv-x="479" 
d="M134 682h95l-95 -682h-95zM382 682h91l-99 -699l-6 -38q-10 -58 -23 -81q-21 -47 -53 -67q-43 -28 -100 -28q-35 0 -63 7l-25 87q43 -8 71 -8q54 0 75.5 25.5t30.5 91.5z" />
    <glyph glyph-name="ij" unicode="&#x133;" horiz-adv-x="375" 
d="M86 449h85l-64 -449h-85zM340 638q32 0 44.5 -30.5t-10.5 -53.5q-22 -22 -53 -9.5t-31 44.5q0 21 14.5 35t35.5 14zM281 449h83l-56 -449q-9 -73 -17 -106.5t-24 -59.5q-40 -64 -123 -64q-44 0 -89 21l24 70q30 -9 49 -9q53 0 68 30q14 27 25 118zM196 590
q0 -20 -14.5 -34.5t-34.5 -14.5t-34.5 14.5t-14.5 34.5q0 21 14.5 35t34.5 14t34.5 -14t14.5 -35z" />
    <glyph glyph-name="Jcircumflex" unicode="&#x134;" horiz-adv-x="240" 
d="M143 682h91l-100 -699q-4 -35 -9 -54q-3 -22 -16 -55q-14 -35 -31 -54q-19 -22 -52.5 -36.5t-73.5 -14.5q-34 0 -63 7l-24 87q43 -8 70 -8q54 0 76 25.5t31 91.5zM270 879l68 -150h-48l-81 85l-141 -85h-60l138 150h124z" />
    <glyph glyph-name="jcircumflex" unicode="&#x135;" horiz-adv-x="183" 
d="M89 449h85l-69 -541q-9 -67 -50 -103t-100 -36q-28 0 -55 10l11 75q18 -5 37 -5q38 0 54 22t23 80zM97 670h99l75 -148h-41l-83 99l-133 -99h-48z" />
    <glyph glyph-name="Kcommaaccent" unicode="&#x136;" horiz-adv-x="563" 
d="M469 682h120l-314 -315l289 -367h-107l-280 357l-53 -357h-90l97 682h90l-44 -294zM134 -211l16 51q38 -8 58 -8q25 0 43 11t18 29q0 30 -35 36q-29 5 -63 5l20 50q74 0 114 -12q61 -17 61 -73q0 -39 -37.5 -68t-105.5 -29q-47 0 -89 8z" />
    <glyph glyph-name="kcommaaccent" unicode="&#x137;" horiz-adv-x="458" 
d="M120 682h84l-63 -428l192 195h114l-206 -212l217 -237h-111l-206 228l-34 -228h-84zM106 -195l12 46q28 -7 44 -7q20 0 31 8.5t12.5 14.5t1.5 11q-2 12 -8.5 19t-13 9t-21.5 6v50q41 -4 64 -11q52 -15 52 -63q0 -39 -29.5 -64.5t-77.5 -25.5q-38 0 -67 7z" />
    <glyph glyph-name="kgreenlandic" unicode="&#x138;" horiz-adv-x="458" 
d="M87 449h84l-30 -195l192 195h114l-206 -212l217 -237h-111l-206 228l-34 -228h-84z" />
    <glyph glyph-name="Lacute" unicode="&#x139;" horiz-adv-x="417" 
d="M132 682h89l-89 -605h280l-11 -77h-367zM251 879h145l-166 -150h-52z" />
    <glyph glyph-name="lacute" unicode="&#x13a;" horiz-adv-x="188" 
d="M119 682h85l-97 -682h-85zM108 723l68 146h101l-113 -146h-56z" />
    <glyph glyph-name="Lcommaaccent" unicode="&#x13b;" horiz-adv-x="417" 
d="M132 682h89l-89 -605h280l-11 -77h-367zM71 -211l16 51q38 -8 58 -8q25 0 43 11t18 29q0 30 -35 36q-29 5 -63 5l20 50q74 0 114 -12q61 -17 61 -73q0 -39 -37.5 -68t-105.5 -29q-47 0 -89 8z" />
    <glyph glyph-name="lcommaaccent" unicode="&#x13c;" horiz-adv-x="188" 
d="M119 682h85l-97 -682h-85zM-29 -195l12 46q28 -7 44 -7q20 0 31 8.5t12.5 14.5t1.5 11q-2 12 -8.5 19t-13 9t-21.5 6v50q41 -4 64 -11q52 -15 52 -63q0 -39 -29.5 -64.5t-77.5 -25.5q-38 0 -67 7z" />
    <glyph glyph-name="Lcaron" unicode="&#x13d;" horiz-adv-x="417" 
d="M132 682h89l-89 -605h280l-11 -77h-367zM275 449l6 45q66 21 66 85q-39 18 -39 53q0 26 18 42.5t43 16.5q29 0 47 -22.5t18 -56.5q0 -51 -40 -98q-39 -48 -119 -65z" />
    <glyph glyph-name="lcaron" unicode="&#x13e;" horiz-adv-x="225" 
d="M118 682h85l-98 -682h-84zM209 449l7 45q61 19 66 85q-40 18 -40 53q0 26 18 42.5t43 16.5q29 0 47.5 -22.5t18.5 -56.5q0 -51 -40 -98q-41 -49 -120 -65z" />
    <glyph glyph-name="Ldot" unicode="&#x13f;" horiz-adv-x="417" 
d="M133 682h89l-89 -605h279l-11 -77h-367zM306 387q22 0 38 -15.5t16 -38.5q0 -22 -16 -38t-38 -16q-23 0 -39 16t-16 38q0 23 16 38.5t39 15.5z" />
    <glyph glyph-name="ldot" unicode="&#x140;" horiz-adv-x="292" 
d="M122 682h85l-97 -682h-85zM313 340q0 -21 -15.5 -37.5t-37.5 -16.5q-21 0 -36.5 15.5t-15.5 36.5t15.5 37t36.5 16q22 0 37.5 -15.5t15.5 -35.5z" />
    <glyph glyph-name="Lslash" unicode="&#x141;" horiz-adv-x="417" 
d="M9 287l75 62l48 333h89l-36 -249l129 107l-13 -91l-130 -108l-39 -264h280l-11 -77h-367l37 258l-74 -61z" />
    <glyph glyph-name="lslash" unicode="&#x142;" horiz-adv-x="188" 
d="M-5 273l75 60l49 349h85l-38 -271l75 61l-9 -63l-75 -60l-50 -349h-85l39 272l-76 -62z" />
    <glyph glyph-name="Nacute" unicode="&#x143;" horiz-adv-x="688" 
d="M593 682h85l-97 -682h-48l-338 498l-71 -498h-85l97 682h45l341 -502zM457 879h145l-166 -150h-52z" />
    <glyph glyph-name="nacute" unicode="&#x144;" horiz-adv-x="471" 
d="M87 449h86l-12 -81q75 88 150 88q59 0 86 -42t27 -89q0 -17 -5 -55l-41 -270h-85l36 270q5 38 5 54q0 25 -14 43.5t-37 18.5q-26 0 -59 -24q-45 -33 -75 -76l-41 -286h-85zM220 511l68 146h101l-113 -146h-56z" />
    <glyph glyph-name="Ncommaaccent" unicode="&#x145;" horiz-adv-x="688" 
d="M593 682h85l-97 -682h-48l-338 498l-71 -498h-85l97 682h45l341 -502zM197 -211l16 51q38 -8 58 -8q25 0 43 11t18 29q0 30 -35 36q-29 5 -63 5l20 50q74 0 114 -12q61 -17 61 -73q0 -39 -37.5 -68t-105.5 -29q-47 0 -89 8z" />
    <glyph glyph-name="ncommaaccent" unicode="&#x146;" 
d="M86 449h86l-12 -81q75 88 150 88q59 0 86 -42t27 -89q0 -17 -5 -55l-41 -270h-85l36 270q5 38 5 54q0 25 -14 43.5t-37 18.5q-26 0 -59 -24q-45 -33 -75 -76l-41 -286h-85zM111 -195l12 46q28 -7 44 -7q20 0 31 8.5t12.5 14.5t1.5 11q-2 12 -8.5 19t-13 9t-21.5 6v50
q41 -4 64 -11q52 -15 52 -63q0 -39 -29.5 -64.5t-77.5 -25.5q-38 0 -67 7z" />
    <glyph glyph-name="Ncaron" unicode="&#x147;" horiz-adv-x="688" 
d="M593 682h85l-97 -682h-48l-338 498l-71 -498h-85l97 682h45l341 -502zM553 880h59l-136 -151h-123l-70 151h50l82 -86z" />
    <glyph glyph-name="ncaron" unicode="&#x148;" 
d="M86 449h86l-12 -81q75 88 150 88q59 0 86 -42t27 -89q0 -17 -5 -55l-41 -270h-85l36 270q5 38 5 54q0 25 -14 43.5t-37 18.5q-26 0 -59 -24q-45 -33 -75 -76l-41 -286h-85zM403 660h49l-132 -149h-100l-74 149h40l84 -97z" />
    <glyph glyph-name="napostrophe" unicode="&#x149;" horiz-adv-x="635" 
d="M58 449l7 45q66 22 66 85q-40 18 -40 53q0 26 18 42.5t43 16.5q29 0 47.5 -22.5t18.5 -56.5q0 -51 -40 -98q-41 -49 -120 -65zM254 449h86l-12 -81q75 88 150 88q59 0 86 -42t27 -89q0 -17 -5 -55l-41 -270h-85l36 270q5 38 5 54q0 25 -14 43.5t-37 18.5q-26 0 -59 -24
q-45 -33 -75 -76l-41 -286h-85z" />
    <glyph glyph-name="Eng" unicode="&#x14a;" horiz-adv-x="691" 
d="M362 -2l-16 89q41 -10 71 -10q49 0 70.5 23t30.5 82l30 208q15 109 -31 165q-47 57 -121 57q-114 0 -197 -119l-69 -493h-95l95 682h94l-8 -73q97 82 203 82q95 0 167 -69q36 -35 51.5 -95.5t4.5 -135.5l-31 -218q-14 -99 -59 -140.5t-122 -41.5q-27 0 -68 7z" />
    <glyph glyph-name="eng" unicode="&#x14b;" 
d="M418 270l-44 -304q-4 -38 -9 -57q-4 -20 -15 -52q-14 -43 -43.5 -63.5t-83.5 -24.5q-25 0 -65 9l13 77q24 -7 41 -7q36 0 51 27q15 23 26 101l3 24l36 270q5 38 5 54q0 25 -14 43.5t-36 18.5q-26 0 -59 -24q-47 -35 -76 -76l-41 -286h-85l64 449h86l-12 -81q76 88 150 88
q56 0 85 -41q28 -40 28 -89q0 -18 -5 -56z" />
    <glyph glyph-name="Omacron" unicode="&#x14c;" horiz-adv-x="656" 
d="M625 409q0 -43 -13 -110q-20 -103 -79 -181q-42 -57 -103.5 -92t-135.5 -35q-100 0 -172 76q-72 77 -72 213q0 95 38 188t116 158q79 65 176 65q69 0 119.5 -29t76.5 -74.5t37.5 -90.5t11.5 -88zM527 417q0 16 -1 23q-3 54 -18 84q-37 88 -128 88q-56 0 -103 -33.5
t-75 -89.5q-56 -110 -56 -226q0 -99 45 -147t106 -48q68 0 123 53q107 106 107 296zM268 824h282l-12 -70h-280z" />
    <glyph glyph-name="omacron" unicode="&#x14d;" horiz-adv-x="448" 
d="M418 266q0 -134 -66 -207q-64 -73 -150 -73q-62 0 -109 41q-57 52 -57 160q0 132 67 203q67 73 149 73q75 0 120.5 -53.5t45.5 -143.5zM251 392q-54 0 -92 -65q-36 -65 -36 -161q0 -57 26 -86q25 -28 52 -28q40 0 71.5 34.5t44.5 85.5q12 50 13.5 99t-19.5 85t-60 36z
M111 617h322l-8 -64h-322z" />
    <glyph glyph-name="Obreve" unicode="&#x14e;" horiz-adv-x="656" 
d="M625 409q0 -43 -13 -110q-20 -103 -79 -181q-42 -57 -103.5 -92t-135.5 -35q-100 0 -172 76q-72 77 -72 213q0 95 38 188t116 158q79 65 176 65q69 0 119.5 -29t76.5 -74.5t37.5 -90.5t11.5 -88zM527 417q0 16 -1 23q-3 54 -18 84q-37 88 -128 88q-56 0 -103 -33.5
t-75 -89.5q-56 -110 -56 -226q0 -99 45 -147t106 -48q68 0 123 53q107 106 107 296zM267 870h62q5 -66 70 -66q24 0 44 11q19 11 28 20.5t27 34.5h63q-9 -28 -47 -77q-21 -28 -54 -46t-68 -18q-74 0 -102 51q-23 45 -23 90z" />
    <glyph glyph-name="obreve" unicode="&#x14f;" horiz-adv-x="448" 
d="M418 266q0 -134 -66 -207q-64 -73 -150 -73q-62 0 -109 41q-57 52 -57 160q0 132 67 203q67 73 149 73q75 0 120.5 -53.5t45.5 -143.5zM251 392q-54 0 -92 -65q-36 -65 -36 -161q0 -57 26 -86q25 -28 52 -28q40 0 71.5 34.5t44.5 85.5q12 50 13.5 99t-19.5 85t-60 36z
M166 639h47q1 -26 18 -45t50 -19q53 0 89 64h49q-16 -56 -54 -92t-88 -36q-54 0 -84 39q-28 40 -27 89z" />
    <glyph glyph-name="Ohungarumlaut" unicode="&#x150;" horiz-adv-x="656" 
d="M625 409q0 -43 -13 -110q-20 -103 -79 -181q-42 -57 -103.5 -92t-135.5 -35q-100 0 -172 76q-72 77 -72 213q0 95 38 188t116 158q79 65 176 65q69 0 119.5 -29t76.5 -74.5t37.5 -90.5t11.5 -88zM527 417q0 16 -1 23q-3 54 -18 84q-37 88 -128 88q-56 0 -103 -33.5
t-75 -89.5q-56 -110 -56 -226q0 -99 45 -147t106 -48q68 0 123 53q107 106 107 296zM307 879h122l-122 -150h-49zM469 879h122l-122 -150h-49z" />
    <glyph glyph-name="ohungarumlaut" unicode="&#x151;" horiz-adv-x="448" 
d="M418 266q0 -134 -66 -207q-64 -73 -150 -73q-62 0 -109 41q-57 52 -57 160q0 132 67 203q67 73 149 73q75 0 120.5 -53.5t45.5 -143.5zM251 392q-54 0 -92 -65q-36 -65 -36 -161q0 -57 26 -86q25 -28 52 -28q40 0 71.5 34.5t44.5 85.5q12 50 13.5 99t-19.5 85t-60 36z
M390 658h102l-114 -147h-55zM232 658h102l-114 -147h-55z" />
    <glyph glyph-name="OE" unicode="&#x152;" horiz-adv-x="969" 
d="M568 682h364l-12 -84h-272l-30 -209h256l-12 -82h-256l-32 -226h366l-11 -81h-451q-32 -2 -38 -2q-10 -1 -64 -1q-36 0 -70 2q-83 7 -146 54q-58 43 -84 111q-25 66 -25 131q0 44 11 91t36.5 96t62 89.5t92.5 70t123 37.5q28 4 116 4q9 -1 76 -1zM379 81h103l74 517h-52
q-18 0 -42 1q-10 0 -20 0.5t-15.5 1t-7.5 0.5q-66 0 -120 -23q-72 -31 -112 -112q-38 -81 -38 -176q0 -138 90 -187q27 -14 55 -19q29 -3 85 -3z" />
    <glyph glyph-name="oe" unicode="&#x153;" horiz-adv-x="719" 
d="M679 276v-41h-280q-5 -33 -5 -47q0 -52 21 -84q33 -48 99 -48q76 0 143 67l-12 -94q-65 -43 -134 -43q-107 0 -169 93q-16 -21 -36 -41q-19 -19 -52 -35.5t-66 -16.5q-28 0 -62 14q-95 32 -99 187q0 117 63 197q64 79 150 79q62 0 107 -42q17 -17 28 -38q65 80 146 80
q64 0 110 -46q48 -45 48 -141zM312 280q0 32 -7.5 54.5t-17 33.5t-22.5 17t-19 6.5t-12 0.5q-32 0 -58.5 -25t-39.5 -64q-25 -75 -25 -133q0 -52 24 -82.5t55 -30.5q53 0 88 65q34 64 34 158zM408 293h188q-1 52 -24.5 77.5t-56.5 25.5q-55 0 -86 -49q-13 -23 -21 -54z" />
    <glyph glyph-name="Racute" unicode="&#x154;" horiz-adv-x="531" 
d="M37 0l94 682h124q99 0 145 -25q87 -49 87 -154q0 -63 -35.5 -109.5t-104.5 -63.5q20 -13 34 -34.5t36 -67.5l109 -228h-98q-66 137 -69 143q-40 82 -71 124q-7 8 -13 14t-14.5 10t-12.5 6t-15.5 3t-15.5 1.5t-21.5 0.5h-23.5l-41 -302h-94zM251 603h-36l-32 -220
q87 0 106 4q51 9 76.5 41t25.5 75q0 55 -36 78q-13 10 -37 15q-25 7 -67 7zM325 879h145l-166 -150h-52z" />
    <glyph glyph-name="racute" unicode="&#x155;" horiz-adv-x="313" 
d="M100 449h84l-13 -96q52 103 122 103q17 0 37 -7v-96q-28 15 -51 15q-46 0 -92 -64q-19 -27 -30 -51l-36 -253h-85zM151 511l68 146h101l-113 -146h-56z" />
    <glyph glyph-name="Rcommaaccent" unicode="&#x156;" horiz-adv-x="531" 
d="M37 0l94 682h124q99 0 145 -25q87 -49 87 -154q0 -63 -35.5 -109.5t-104.5 -63.5q20 -13 34 -34.5t36 -67.5l109 -228h-98q-66 137 -69 143q-40 82 -71 124q-7 8 -13 14t-14.5 10t-12.5 6t-15.5 3t-15.5 1.5t-21.5 0.5h-23.5l-41 -302h-94zM251 603h-36l-32 -220
q87 0 106 4q51 9 76.5 41t25.5 75q0 55 -36 78q-13 10 -37 15q-25 7 -67 7zM128 -211l16 51q38 -8 58 -8q25 0 43 11t18 29q0 30 -35 36q-29 5 -63 5l20 50q74 0 114 -12q61 -17 61 -73q0 -39 -37.5 -68t-105.5 -29q-47 0 -89 8z" />
    <glyph glyph-name="rcommaaccent" unicode="&#x157;" horiz-adv-x="313" 
d="M100 449h84l-13 -96q52 103 122 103q17 0 37 -7v-96q-28 15 -51 15q-46 0 -92 -64q-19 -27 -30 -51l-36 -253h-85zM33 -195l12 46q28 -7 44 -7q20 0 31 8.5t12.5 14.5t1.5 11q-2 12 -8.5 19t-13 9t-21.5 6v50q41 -4 64 -11q52 -15 52 -63q0 -39 -29.5 -64.5t-77.5 -25.5
q-38 0 -67 7z" />
    <glyph glyph-name="Rcaron" unicode="&#x158;" horiz-adv-x="531" 
d="M37 0l94 682h124q99 0 145 -25q87 -49 87 -154q0 -63 -35.5 -109.5t-104.5 -63.5q20 -13 34 -34.5t36 -67.5l109 -228h-98q-66 137 -69 143q-40 82 -71 124q-7 8 -13 14t-14.5 10t-12.5 6t-15.5 3t-15.5 1.5t-21.5 0.5h-23.5l-41 -302h-94zM251 603h-36l-32 -220
q87 0 106 4q51 9 76.5 41t25.5 75q0 55 -36 78q-13 10 -37 15q-25 7 -67 7zM429 880h59l-136 -151h-123l-70 151h50l82 -86z" />
    <glyph glyph-name="rcaron" unicode="&#x159;" horiz-adv-x="313" 
d="M100 449h84l-13 -96q52 103 122 103q17 0 37 -7v-96q-28 15 -51 15q-46 0 -92 -64q-19 -27 -30 -51l-36 -253h-85zM335 660h49l-132 -149h-100l-74 149h40l84 -97z" />
    <glyph glyph-name="Sacute" unicode="&#x15a;" horiz-adv-x="458" 
d="M440 664l-14 -93q-51 36 -111 36q-58 0 -93.5 -26.5t-35.5 -71.5q0 -25 13 -48q20 -33 69 -71q39 -32 57 -48q12 -10 44 -46q48 -51 48 -124q0 -71 -53 -127q-52 -54 -149 -54q-86 0 -165 49l14 100q32 -29 76.5 -46.5t81.5 -17.5q39 0 70 22q33 22 33 65q0 38 -26 67
q-27 31 -88 81q-48 39 -73 70q-44 55 -44 124q0 81 64 133q65 53 158 53q62 0 124 -27zM342 879h145l-166 -150h-52z" />
    <glyph glyph-name="sacute" unicode="&#x15b;" horiz-adv-x="354" 
d="M323 413v-89q-79 59 -137 59q-26 0 -42.5 -12.5t-16.5 -31.5q0 -12 12 -27t57 -47q40 -29 60 -45q50 -42 50 -103q0 -52 -38 -92q-37 -39 -103 -39q-40 0 -74 13t-80 46l14 82q88 -67 141 -67q24 0 40 14t16 35q0 16 -12 31q-10 16 -27 28l-62 46q-75 52 -75 121
q0 54 37.5 89.5t101.5 35.5t138 -47zM162 511l68 146h101l-113 -146h-56z" />
    <glyph glyph-name="Scircumflex" unicode="&#x15c;" horiz-adv-x="458" 
d="M440 664l-14 -93q-51 36 -111 36q-58 0 -93.5 -26.5t-35.5 -71.5q0 -25 13 -48q20 -33 69 -71q39 -32 57 -48q12 -10 44 -46q48 -51 48 -124q0 -71 -53 -127q-52 -54 -149 -54q-86 0 -165 49l14 100q32 -29 76.5 -46.5t81.5 -17.5q39 0 70 22q33 22 33 65q0 38 -26 67
q-27 31 -88 81q-48 39 -73 70q-44 55 -44 124q0 81 64 133q65 53 158 53q62 0 124 -27zM389 879l68 -150h-48l-81 85l-141 -85h-60l138 150h124z" />
    <glyph glyph-name="scircumflex" unicode="&#x15d;" horiz-adv-x="354" 
d="M323 413v-89q-79 59 -137 59q-26 0 -42.5 -12.5t-16.5 -31.5q0 -12 12 -27t57 -47q40 -29 60 -45q50 -42 50 -103q0 -52 -38 -92q-37 -39 -103 -39q-40 0 -74 13t-80 46l14 82q88 -67 141 -67q24 0 40 14t16 35q0 16 -12 31q-10 16 -27 28l-62 46q-75 52 -75 121
q0 54 37.5 89.5t101.5 35.5t138 -47zM200 659h99l75 -148h-41l-83 99l-134 -99h-47z" />
    <glyph glyph-name="Scedilla" unicode="&#x15e;" horiz-adv-x="458" 
d="M239 -8l-14 -25q26 -8 42 -18q27 -17 27 -57t-39 -74q-37 -34 -120 -34q-46 0 -81 8l16 53q29 -7 58 -7q27 0 45.5 12.5t18.5 32.5q0 31 -42 39l3 6t6.5 12t7.5 14l21 38q-72 8 -138 48l14 100q32 -29 76.5 -46.5t81.5 -17.5q39 0 70 22q33 22 33 65q0 38 -26 67
q-27 31 -88 81q-48 39 -73 70q-44 55 -44 124q0 81 64 133q65 53 158 53q62 0 124 -27l-14 -93q-51 36 -111 36q-58 0 -93.5 -26.5t-35.5 -71.5q0 -25 13 -48q20 -33 69 -71q39 -32 57 -48q12 -10 44 -46q48 -51 48 -124q0 -64 -45 -118q-44 -53 -133 -62z" />
    <glyph glyph-name="scedilla" unicode="&#x15f;" horiz-adv-x="354" 
d="M169 -14l-7 -16q62 -21 62 -70q0 -48 -51 -74q-36 -18 -90 -18q-55 0 -85 11l13 45q38 -8 61 -8q30 0 45.5 11.5t15.5 28.5q0 26 -39 36l35 57q-54 11 -118 56l14 82q88 -67 141 -67q24 0 40 14t16 35q0 16 -12 31q-10 16 -27 28l-62 46q-75 52 -75 121q0 54 37.5 89.5
t101.5 35.5t138 -47v-89q-79 59 -137 59q-26 0 -42.5 -12.5t-16.5 -31.5q0 -12 12 -27t57 -47q40 -29 60 -45q50 -42 50 -103q0 -32 -23 -74q-28 -51 -114 -57z" />
    <glyph glyph-name="Scaron" unicode="&#x160;" horiz-adv-x="458" 
d="M440 664l-14 -93q-51 36 -111 36q-58 0 -93.5 -26.5t-35.5 -71.5q0 -25 13 -48q20 -33 69 -71q39 -32 57 -48q12 -10 44 -46q48 -51 48 -124q0 -71 -53 -127q-52 -54 -149 -54q-86 0 -165 49l14 100q32 -29 76.5 -46.5t81.5 -17.5q39 0 70 22q33 22 33 65q0 38 -26 67
q-27 31 -88 81q-48 39 -73 70q-44 55 -44 124q0 81 64 133q65 53 158 53q62 0 124 -27zM438 880h59l-136 -151h-123l-70 151h50l82 -86z" />
    <glyph glyph-name="scaron" unicode="&#x161;" horiz-adv-x="354" 
d="M323 413v-89q-79 59 -137 59q-26 0 -42.5 -12.5t-16.5 -31.5q0 -12 12 -27t57 -47q40 -29 60 -45q50 -42 50 -103q0 -52 -38 -92q-37 -39 -103 -39q-40 0 -74 13t-80 46l14 82q88 -67 141 -67q24 0 40 14t16 35q0 16 -12 31q-10 16 -27 28l-62 46q-75 52 -75 121
q0 54 37.5 89.5t101.5 35.5t138 -47zM346 660h49l-132 -149h-100l-74 149h40l84 -97z" />
    <glyph glyph-name="Tcommaaccent" unicode="&#x162;" horiz-adv-x="510" 
d="M80 682h474l-13 -86h-188l-85 -596h-93l85 596h-193zM108 -211l16 51q38 -8 58 -8q25 0 43 11t18 29q0 30 -35 36q-29 5 -63 5l20 50q74 0 114 -12q61 -17 61 -73q0 -39 -37.5 -68t-105.5 -29q-47 0 -89 8z" />
    <glyph glyph-name="tcommaaccent" unicode="&#x163;" horiz-adv-x="292" 
d="M213 449h87l-11 -66h-89l-30 -171q-16 -89 -16 -114q0 -36 49 -36q39 0 80 29l-5 -85q-51 -20 -93 -20q-59 0 -89 29t-30 71q0 20 17 111l32 186h-79l10 66h82l17 92h84zM31 -195l12 46q28 -7 44 -7q20 0 31 8.5t12.5 14.5t1.5 11q-2 12 -8.5 19t-13 9t-21.5 6v50
q41 -4 64 -11q52 -15 52 -63q0 -39 -29.5 -64.5t-77.5 -25.5q-38 0 -67 7z" />
    <glyph glyph-name="Tcaron" unicode="&#x164;" horiz-adv-x="510" 
d="M80 682h474l-13 -86h-188l-85 -596h-93l85 596h-193zM454 880h59l-136 -151h-123l-70 151h50l82 -86z" />
    <glyph glyph-name="tcaron" unicode="&#x165;" horiz-adv-x="320" 
d="M214 449h86l-11 -66h-88l-30 -171q-17 -100 -17 -114q0 -36 50 -36q39 0 80 29l-6 -85q-49 -20 -92 -20q-59 0 -89 29t-30 71q0 20 17 111l32 186h-80l11 66h82l16 92h85zM301 449l7 45q61 19 66 85q-40 18 -40 53q0 26 18 42.5t43 16.5q29 0 47.5 -22.5t18.5 -56.5
q0 -51 -40 -98q-41 -49 -120 -65z" />
    <glyph glyph-name="Tbar" unicode="&#x166;" horiz-adv-x="510" 
d="M353 596l-34 -240h185l-13 -65h-182l-41 -291h-93l41 291h-171l10 65h171l34 240h-193l13 86h474l-13 -86h-188z" />
    <glyph glyph-name="tbar" unicode="&#x167;" horiz-adv-x="281" 
d="M186 383l-17 -101h97l-9 -62h-99l-11 -62q-7 -39 -7 -60q0 -36 49 -36q39 0 80 29l-5 -85q-51 -20 -93 -20q-63 0 -91 31t-28 68q0 16 9 68l12 67h-76l8 62h79l17 101h-79l10 66h82l17 92h84l-16 -92h87l-11 -66h-89z" />
    <glyph glyph-name="Utilde" unicode="&#x168;" horiz-adv-x="635" 
d="M543 682h93l-58 -406q-17 -113 -53 -170q-75 -115 -230 -115q-114 0 -174 61q-59 62 -59 149q0 35 6 75l57 406h92l-62 -432q-3 -18 -3 -50q0 -50 37 -87q38 -38 111 -38q53 0 93 22.5t60 59.5q19 32 34 128zM268 729h-52q0 63 33 91q33 30 70 30q30 0 78 -24l30 -16
q16 -8 30 -8q31 0 38 48h52q0 -53 -27 -87t-73 -34q-37 0 -84 25q-44 23 -57 23q-17 0 -27 -14.5t-11 -33.5z" />
    <glyph glyph-name="utilde" unicode="&#x169;" 
d="M351 449h85l-64 -449h-85l11 77q-82 -82 -150 -82q-49 0 -79 32.5t-30 86.5q0 20 9 82l36 253h85l-38 -274q-6 -36 -6 -53q1 -26 12.5 -42t21.5 -19t16 -1q41 0 87 46q34 34 48 51zM181 539h-40q1 36 8 56q11 27 30 42q19 16 40 16q18 0 93 -26q34 -12 49 -12q31 0 35 37
h39q-3 -35 -7 -48q-9 -30 -29.5 -48t-45.5 -18q-14 0 -69 20q-40 18 -71 18q-11 0 -21 -10t-11 -27z" />
    <glyph glyph-name="Umacron" unicode="&#x16a;" horiz-adv-x="635" 
d="M543 682h93l-58 -406q-17 -113 -53 -170q-75 -115 -230 -115q-114 0 -174 61q-59 62 -59 149q0 35 6 75l57 406h92l-62 -432q-3 -18 -3 -50q0 -50 37 -87q38 -38 111 -38q53 0 93 22.5t60 59.5q19 32 34 128zM242 824h282l-12 -70h-280z" />
    <glyph glyph-name="umacron" unicode="&#x16b;" 
d="M351 449h85l-64 -449h-85l11 77q-82 -82 -150 -82q-49 0 -79 32.5t-30 86.5q0 20 9 82l36 253h85l-38 -274q-6 -36 -6 -53q1 -26 12.5 -42t21.5 -19t16 -1q41 0 87 46q34 34 48 51zM121 617h322l-8 -64h-322z" />
    <glyph glyph-name="Ubreve" unicode="&#x16c;" horiz-adv-x="635" 
d="M543 682h93l-58 -406q-17 -113 -53 -170q-75 -115 -230 -115q-114 0 -174 61q-59 62 -59 149q0 35 6 75l57 406h92l-62 -432q-3 -18 -3 -50q0 -50 37 -87q38 -38 111 -38q53 0 93 22.5t60 59.5q19 32 34 128zM256 870h62q4 -66 70 -66q24 0 44 11q19 11 28 20.5t27 34.5
h63q-9 -28 -47 -77q-21 -28 -54 -46t-68 -18q-74 0 -102 51q-23 45 -23 90z" />
    <glyph glyph-name="ubreve" unicode="&#x16d;" 
d="M351 449h85l-64 -449h-85l11 77q-82 -82 -150 -82q-49 0 -79 32.5t-30 86.5q0 20 9 82l36 253h85l-38 -274q-6 -36 -6 -53q1 -26 12.5 -42t21.5 -19t16 -1q41 0 87 46q34 34 48 51zM176 639h47q1 -26 18 -45t50 -19q53 0 89 64h49q-16 -56 -54 -92t-88 -36q-54 0 -84 39
q-28 40 -27 89z" />
    <glyph glyph-name="Uring" unicode="&#x16e;" horiz-adv-x="635" 
d="M543 682h93l-58 -406q-17 -113 -53 -170q-75 -115 -230 -115q-114 0 -174 61q-59 62 -59 149q0 35 6 75l57 406h92l-62 -432q-3 -18 -3 -50q0 -50 37 -87q38 -38 111 -38q53 0 93 22.5t60 59.5q19 32 34 128zM386 931q44 0 73 -32q28 -31 28 -69q0 -42 -28.5 -71.5
t-72.5 -29.5t-72.5 29.5t-28.5 71.5t29.5 71.5t71.5 29.5zM347 791q17 -16 39 -16t38 16q17 17 17 39t-17 38q-16 17 -38 17t-39 -17q-16 -16 -16 -38t16 -39z" />
    <glyph glyph-name="uring" unicode="&#x16f;" 
d="M351 449h85l-64 -449h-85l11 77q-82 -82 -150 -82q-49 0 -79 32.5t-30 86.5q0 20 9 82l36 253h85l-38 -274q-6 -36 -6 -53q1 -26 12.5 -42t21.5 -19t16 -1q41 0 87 46q34 34 48 51zM289 696q36 0 63.5 -26.5t27.5 -65.5t-27 -66t-66 -27q-38 0 -65 26.5t-27 65.5t28 66
t66 27zM286 656q-25 0 -40 -14.5t-15 -38.5t16.5 -40.5t40.5 -16.5q23 0 39.5 16.5t16.5 39.5t-17 38.5t-41 15.5z" />
    <glyph glyph-name="Uhungarumlaut" unicode="&#x170;" horiz-adv-x="635" 
d="M543 682h93l-58 -406q-17 -113 -53 -170q-75 -115 -230 -115q-114 0 -174 61q-59 62 -59 149q0 35 6 75l57 406h92l-62 -432q-3 -18 -3 -50q0 -50 37 -87q38 -38 111 -38q53 0 93 22.5t60 59.5q19 32 34 128zM301 879h122l-122 -150h-49zM463 879h122l-122 -150h-49z" />
    <glyph glyph-name="uhungarumlaut" unicode="&#x171;" 
d="M351 449h85l-64 -449h-85l11 77q-82 -82 -150 -82q-49 0 -79 32.5t-30 86.5q0 20 9 82l36 253h85l-38 -274q-6 -36 -6 -53q1 -26 12.5 -42t21.5 -19t16 -1q41 0 87 46q34 34 48 51zM365 658h102l-114 -147h-55zM207 658h102l-114 -147h-55z" />
    <glyph glyph-name="Uogonek" unicode="&#x172;" horiz-adv-x="635" 
d="M531 -123l-8 -76q-46 -8 -68 -8q-59 0 -92 33q-32 32 -32 68q0 43 34 104q-6 -2 -27 -5q-32 -2 -45 -2q-109 0 -171 60q-60 61 -60 150q0 35 6 75l57 406h92l-62 -432l-1 -2q0 -3 -0.5 -8t-0.5 -11q-1 -13 -1 -30q0 -49 37 -86q38 -38 111 -38q53 0 93 22.5t60 59.5
q19 32 34 128l56 397h93l-58 -406q-12 -88 -28 -122q-18 -40 -68 -108q-59 -82 -59 -123q0 -23 20.5 -38t45.5 -15q14 0 42 7z" />
    <glyph glyph-name="uogonek" unicode="&#x173;" 
d="M437 -111l-9 -68q-40 -8 -61 -8q-50 0 -81 28t-31 64q0 39 32 95l11 77q-82 -82 -150 -82q-49 0 -79 32.5t-30 86.5q0 20 9 82l36 253h85l-38 -274q-6 -36 -6 -53q1 -26 12.5 -42t21.5 -19t16 -1q41 0 87 46q34 34 48 51l41 292h85l-64 -449h-7q-25 -44 -25 -69
q0 -21 18.5 -34.5t40.5 -13.5q14 0 38 6z" />
    <glyph glyph-name="Wcircumflex" unicode="&#x174;" horiz-adv-x="927" 
d="M891 682h95l-329 -686h-36l-132 482l-231 -482h-37l-161 686h86l112 -483l231 483h35l133 -491zM598 879l68 -150h-48l-81 85l-141 -85h-60l138 150h124z" />
    <glyph glyph-name="wcircumflex" unicode="&#x175;" horiz-adv-x="615" 
d="M564 449h83l-231 -458h-40l-59 294l-153 -294h-39l-93 458h83l55 -293l147 293h42l57 -293zM330 659h99l75 -148h-41l-83 99l-134 -99h-47z" />
    <glyph glyph-name="Ycircumflex" unicode="&#x176;" horiz-adv-x="490" 
d="M445 682h104l-238 -342l-49 -340h-91l49 340l-161 342h95l117 -250zM395 879l68 -150h-48l-81 85l-141 -85h-60l138 150h124z" />
    <glyph glyph-name="ycircumflex" unicode="&#x177;" horiz-adv-x="375" 
d="M311 449h89l-323 -679h-89l122 257l-85 422h85l59 -300zM197 659h99l75 -148h-41l-83 99l-134 -99h-47z" />
    <glyph glyph-name="Ydieresis" unicode="&#x178;" horiz-adv-x="490" 
d="M445 682h104l-238 -342l-49 -340h-91l49 340l-161 342h95l117 -250zM360 842q16 16 38 16t37 -16q16 -15 16 -37t-16 -38q-15 -15 -37 -15t-38 15q-15 16 -15 38t15 37zM245 805q0 -21 -15 -37t-38 -16q-35 0 -48.5 33t10.5 57q26 25 58.5 11.5t32.5 -48.5z" />
    <glyph glyph-name="Zacute" unicode="&#x179;" horiz-adv-x="583" 
d="M87 682h560l-497 -597h404l-12 -85h-574l495 597h-388zM384 879h145l-166 -150h-52z" />
    <glyph glyph-name="zacute" unicode="&#x17a;" horiz-adv-x="458" 
d="M63 449h385l-299 -373h261l-16 -76h-407l293 372h-228zM214 511l68 146h101l-113 -146h-56z" />
    <glyph glyph-name="Zdotaccent" unicode="&#x17b;" horiz-adv-x="583" 
d="M87 682h560l-497 -597h404l-12 -85h-574l495 597h-388zM412 805q0 -21 -15 -37t-38 -16q-35 0 -48.5 33t10.5 57q25 25 58 11.5t33 -48.5z" />
    <glyph glyph-name="zdotaccent" unicode="&#x17c;" horiz-adv-x="458" 
d="M63 449h385l-299 -373h261l-16 -76h-407l293 372h-228zM250 618q19 21 44.5 12t32.5 -32.5t-12 -44.5q-13 -13 -32 -13t-33 13q-13 14 -13 33t13 32z" />
    <glyph glyph-name="Zcaron" unicode="&#x17d;" horiz-adv-x="583" 
d="M87 682h560l-497 -597h404l-12 -85h-574l495 597h-388zM490 880h59l-136 -151h-123l-70 151h50l82 -86z" />
    <glyph glyph-name="zcaron" unicode="&#x17e;" horiz-adv-x="458" 
d="M63 449h385l-299 -373h261l-16 -76h-407l293 372h-228zM398 660h49l-132 -149h-100l-74 149h40l84 -97z" />
    <glyph glyph-name="florin" unicode="&#x192;" horiz-adv-x="552" 
d="M23 -198l17 76q51 -11 74 -11t37 13q13 11 17 22t8 40l87 508h-98l11 68h99l11 66q9 47 22 77q13 33 40.5 48.5t77.5 19.5q38 0 104 -19l-17 -75q-49 12 -76 12q-31 0 -42.5 -16t-20.5 -62l-9 -51h99l-12 -68h-100l-93 -533q-12 -67 -40 -97t-85 -30q-50 0 -111 12z" />
    <glyph glyph-name="AEacute" unicode="&#x1fc;" horiz-adv-x="833" 
d="M368 682h433l-10 -83h-263l-29 -209h245l-11 -81h-246l-32 -227h357l-11 -82h-448l44 309h-151l-170 -309h-97zM285 381h124l31 226h-31zM604 879h145l-166 -150h-52z" />
    <glyph glyph-name="aeacute" unicode="&#x1fd;" horiz-adv-x="646" 
d="M588 119l-12 -87q-70 -46 -146 -46q-104 0 -153 85q-78 -85 -156 -85q-44 0 -76.5 29t-32.5 75q0 64 65 109q29 19 66 31q48 16 63 19q21 6 56 12q8 32 8 61q0 34 -18.5 50.5t-44.5 16.5q-64 0 -147 -83l14 96q76 61 146 61q73 0 104 -61q26 28 64 44.5t72 16.5
q71 0 111 -58q41 -59 41 -150q0 -10 -3 -40h-267q-6 -24 -6 -50q0 -58 33 -83q34 -25 68 -25q68 0 151 62zM350 274h182q3 51 -20 85t-64 34q-52 0 -78 -48q-17 -34 -20 -71zM241 106l13 93q-56 -10 -105 -37q-47 -26 -47 -63q0 -18 12 -29.5t31 -11.5q43 0 96 48zM308 511
l68 146h101l-113 -146h-56z" />
    <glyph glyph-name="Oslashacute" unicode="&#x1fe;" horiz-adv-x="656" 
d="M613 700l38 -45l-66 -78q40 -65 40 -176q0 -169 -95 -290q-95 -120 -232 -120q-89 0 -156 56l-75 -88l-38 41l74 92q-21 29 -36 79.5t-15 105.5q0 141 84 273q41 64 107.5 102.5t142.5 38.5q102 0 165 -66zM520 499l-324 -387q45 -45 103 -45q74 0 128 58
q103 109 103 288q0 53 -10 86zM164 164l333 393q-40 55 -111 55q-58 0 -105.5 -33.5t-76.5 -89.5q-56 -110 -56 -222q0 -62 16 -103zM406 879h145l-166 -150h-52z" />
    <glyph glyph-name="oslashacute" unicode="&#x1ff;" horiz-adv-x="448" 
d="M395 461l29 -32l-40 -47q27 -46 27 -122q0 -122 -64 -198q-63 -76 -154 -76q-57 0 -112 43l-39 -45l-30 33l42 51q-25 47 -25 118q0 126 66 201q66 76 149 76q53 0 91 -26q8 -8 23 -19zM322 309l-188 -218q29 -38 63 -38q57 0 92 68q36 69 36 153q0 20 -3 35zM118 140
l187 217q-19 36 -59 36q-44 0 -75 -40q-55 -70 -55 -182q0 -7 2 -31zM209 511l68 146h101l-113 -146h-56z" />
    <glyph glyph-name="Scommaaccent" unicode="&#x218;" horiz-adv-x="458" 
d="M440 664l-14 -93q-51 36 -111 36q-58 0 -93.5 -26.5t-35.5 -71.5q0 -25 13 -48q20 -33 69 -71q39 -32 57 -48q12 -10 44 -46q48 -51 48 -124q0 -71 -53 -127q-52 -54 -149 -54q-86 0 -165 49l14 100q32 -29 76.5 -46.5t81.5 -17.5q39 0 70 22q33 22 33 65q0 38 -26 67
q-27 31 -88 81q-48 39 -73 70q-44 55 -44 124q0 81 64 133q65 53 158 53q62 0 124 -27zM82 -211l16 51q38 -8 58 -8q25 0 43 11t18 29q0 30 -35 36q-29 5 -63 5l20 50q74 0 114 -12q61 -17 61 -73q0 -39 -37.5 -68t-105.5 -29q-47 0 -89 8z" />
    <glyph glyph-name="scommaaccent" unicode="&#x219;" horiz-adv-x="354" 
d="M323 413v-89q-79 59 -137 59q-26 0 -42.5 -12.5t-16.5 -31.5q0 -12 12 -27t57 -47q40 -29 60 -45q50 -42 50 -103q0 -52 -38 -92q-37 -39 -103 -39q-40 0 -74 13t-80 46l14 82q88 -67 141 -67q24 0 40 14t16 35q0 16 -12 31q-10 16 -27 28l-62 46q-75 52 -75 121
q0 54 37.5 89.5t101.5 35.5t138 -47zM54 -195l12 46q28 -7 44 -7q20 0 31 8.5t12.5 14.5t1.5 11q-2 12 -8.5 19t-13 9t-21.5 6v50q41 -4 64 -11q52 -15 52 -63q0 -39 -29.5 -64.5t-77.5 -25.5q-38 0 -67 7z" />
    <glyph glyph-name="uni021A" unicode="&#x21a;" horiz-adv-x="510" 
d="M80 682h474l-13 -86h-188l-85 -596h-93l85 596h-193zM108 -211l16 51q38 -8 58 -8q25 0 43 11t18 29q0 30 -35 36q-29 5 -63 5l20 50q74 0 114 -12q61 -17 61 -73q0 -39 -37.5 -68t-105.5 -29q-47 0 -89 8z" />
    <glyph glyph-name="uni021B" unicode="&#x21b;" horiz-adv-x="292" 
d="M213 449h87l-11 -66h-89l-30 -171q-16 -89 -16 -114q0 -36 49 -36q39 0 80 29l-5 -85q-51 -20 -93 -20q-59 0 -89 29t-30 71q0 20 17 111l32 186h-79l10 66h82l17 92h84zM31 -195l12 46q28 -7 44 -7q20 0 31 8.5t12.5 14.5t1.5 11q-2 12 -8.5 19t-13 9t-21.5 6v50
q41 -4 64 -11q52 -15 52 -63q0 -39 -29.5 -64.5t-77.5 -25.5q-38 0 -67 7z" />
    <glyph glyph-name="circumflex" unicode="&#x2c6;" horiz-adv-x="333" 
d="M189 659h99l75 -148h-41l-83 99l-134 -99h-47z" />
    <glyph glyph-name="caron" unicode="&#x2c7;" horiz-adv-x="333" 
d="M335 660h49l-132 -149h-100l-74 149h40l84 -97z" />
    <glyph glyph-name="uni02C9" unicode="&#x2c9;" horiz-adv-x="333" 
d="M53 617h322l-8 -64h-322z" />
    <glyph glyph-name="breve" unicode="&#x2d8;" horiz-adv-x="333" 
d="M110 639h47q1 -26 18 -45t50 -19q53 0 89 64h49q-16 -56 -54 -92t-88 -36q-54 0 -84 39q-28 40 -27 89z" />
    <glyph glyph-name="dotaccent" unicode="&#x2d9;" horiz-adv-x="333" 
d="M187 618q19 21 44.5 12t32.5 -32.5t-12 -44.5q-13 -13 -32 -13t-33 13q-13 14 -13 33t13 32z" />
    <glyph glyph-name="ring" unicode="&#x2da;" horiz-adv-x="333" 
d="M221 696q36 0 63.5 -26.5t27.5 -65.5t-27 -66t-66 -27q-38 0 -65 26.5t-27 65.5t28 66t66 27zM218 656q-25 0 -40 -14.5t-15 -38.5t16.5 -40.5t40.5 -16.5q23 0 39.5 16.5t16.5 39.5t-17 38.5t-41 15.5z" />
    <glyph glyph-name="ogonek" unicode="&#x2db;" horiz-adv-x="333" 
d="M220 -111l-9 -68q-40 -8 -61 -8q-50 0 -81 28t-31 64q0 44 37 102h77q-29 -53 -29 -76q0 -21 18 -34.5t41 -13.5q14 0 38 6z" />
    <glyph glyph-name="tilde" unicode="&#x2dc;" horiz-adv-x="333" 
d="M113 539h-40q1 36 8 56q11 27 30 42q19 16 40 16q18 0 93 -26q34 -12 49 -12q31 0 35 37h39q-3 -35 -7 -48q-9 -30 -29.5 -48t-45.5 -18q-14 0 -69 20q-40 18 -71 18q-11 0 -21 -10t-11 -27z" />
    <glyph glyph-name="hungarumlaut" unicode="&#x2dd;" horiz-adv-x="333" 
d="M297 658h102l-114 -147h-55zM139 658h102l-114 -147h-55z" />
    <glyph glyph-name="uni03A9" unicode="&#x3a9;" horiz-adv-x="680" 
d="M8 0l14 87h152q-31 23 -72 75q-51 67 -51 169q0 73 30 144.5t87 128.5q87 87 211 87q84 0 145.5 -44.5t89 -106t27.5 -126.5q0 -123 -52 -197q-52 -75 -142 -130h149l-14 -87h-230l14 88q99 79 140 151q42 71 42 164q0 55 -18 102q-37 103 -148 103q-73 0 -130 -45
q-55 -43 -83 -104.5t-28 -126.5q1 -72 27.5 -127.5t83.5 -116.5l-14 -88h-230z" />
    <glyph glyph-name="uni03BC" unicode="&#x3bc;" horiz-adv-x="501" 
d="M223 -13q-71 0 -102 73l-41 -289h-85l97 678h86l-39 -264q-1 -6 -1 -31q0 -40 24.5 -65t65.5 -25q77 0 93 106l41 279h85l-41 -285q-5 -33 -5 -49q0 -48 38 -48q19 0 49 11l-10 -73q-45 -18 -75 -18q-37 3 -52.5 13.5t-24.5 32.5q-55 -46 -103 -46z" />
    <glyph glyph-name="pi" unicode="&#x3c0;" horiz-adv-x="552" 
d="M152 0h-84l52 373q-3 0 -4 1h-3q-33 0 -87 -26l12 79q57 23 101 23h406l-11 -76h-60l-53 -374h-85l53 374h-184z" />
    <glyph glyph-name="uni0400" unicode="&#x400;" horiz-adv-x="510" 
d="M137 682h361l-11 -81h-273l-30 -214h241l-11 -81h-242l-33 -225h359l-12 -81h-448zM169 879h143l74 -150h-51z" />
    <glyph glyph-name="afii10023" unicode="&#x401;" horiz-adv-x="510" 
d="M38 0l99 682h361l-11 -81h-273l-30 -214h241l-11 -81h-242l-33 -225h359l-12 -81h-448zM394 843q19 21 44.5 12t32.5 -32.5t-12 -44.5q-13 -13 -32 -13t-33 13q-13 14 -13 33t13 32zM215 843q19 21 44.5 12t32.5 -32.5t-12 -44.5q-13 -13 -32 -13t-33 13q-13 14 -13 33
t13 32z" />
    <glyph glyph-name="afii10051" unicode="&#x402;" horiz-adv-x="680" 
d="M67 597l12 85h478l-12 -85h-192l-26 -187q61 53 152 53q74 0 120 -45.5t46 -127.5q0 -116 -72 -203q-71 -87 -174 -87l9 81q59 0 103 62q45 61 45 135q0 107 -114 107q-30 0 -69 -16q-40 -15 -59 -45l-45 -324h-94l84 597h-192z" />
    <glyph glyph-name="afii10052" unicode="&#x403;" horiz-adv-x="454" 
d="M38 0l99 682h361l-12 -85h-273l-85 -597h-90zM358 759h-56l68 146h101z" />
    <glyph glyph-name="afii10053" unicode="&#x404;" horiz-adv-x="552" 
d="M160 384h306l-14 -81h-306v-22q0 -93 48.5 -148.5t130.5 -55.5q49 0 107 20q57 21 97 64l-15 -110q-22 -30 -79 -45q-55 -15 -110 -15q-131 0 -204 78q-72 78 -72 206q0 178 126 296q126 120 340 120h65l-18 -86h-50q-155 0 -239 -62.5t-113 -158.5z" />
    <glyph glyph-name="afii10054" unicode="&#x405;" horiz-adv-x="458" 
d="M50 40l14 100q95 -65 160 -65q35 0 67 22q34 22 34 66q0 56 -82 122q-75 61 -101 93q-48 60 -48 127q0 81 66 133q67 53 154 53q64 0 125 -27l-13 -93q-56 36 -120 36q-55 0 -87.5 -28t-32.5 -75q0 -49 82 -115q33 -26 52 -42.5t45.5 -45.5t39 -61t12.5 -69
q0 -71 -54 -126q-53 -54 -148 -54q-83 0 -165 49z" />
    <glyph glyph-name="afii10055" unicode="&#x406;" horiz-adv-x="240" 
d="M39 0l96 682h94l-96 -682h-94z" />
    <glyph glyph-name="afii10056" unicode="&#x407;" horiz-adv-x="240" 
d="M39 0l96 682h94l-96 -682h-94zM259 843q19 21 44.5 12t32.5 -32.5t-12 -44.5q-13 -13 -32 -13t-33 13q-13 14 -13 33t13 32zM80 843q19 21 44.5 12t32.5 -32.5t-12 -44.5q-13 -13 -32 -13t-33 13q-13 14 -13 33t13 32z" />
    <glyph glyph-name="afii10057" unicode="&#x408;" horiz-adv-x="240" 
d="M40 -44l102 726h90l-103 -732q-25 -180 -176 -180q-32 0 -65 6l-21 84q40 -8 66 -8q49 0 74 24t33 80z" />
    <glyph glyph-name="afii10058" unicode="&#x409;" horiz-adv-x="772" 
d="M271 682h86l47 -293q54 18 120 18q96 0 154.5 -50t58.5 -144q0 -88 -70 -151q-71 -62 -176 -62h-111l-79 566h-4l-231 -566h-94zM495 329q-53 0 -79 -14l39 -239h27q75 0 119 37.5t44 97.5q0 64 -37.5 91t-112.5 27z" />
    <glyph glyph-name="afii10059" unicode="&#x40a;" horiz-adv-x="990" 
d="M713 329q-53 0 -79 -14l-33 -239h99q75 0 119 37.5t44 97.5q0 64 -37.5 91t-112.5 27zM593 682h93l-41 -292q42 17 97 17q96 0 154.5 -50t58.5 -144q0 -88 -70 -151q-71 -62 -176 -62h-212l43 312h-367l-44 -312h-94l96 682h93l-41 -294h369z" />
    <glyph glyph-name="afii10060" unicode="&#x40b;" horiz-adv-x="728" 
d="M545 597h-192l-24 -168q75 29 139 29q89 0 145 -35q66 -38 66 -158q0 -38 -6 -80l-25 -185h-93l23 179q7 43 7 83q0 62 -29 86.5t-105 24.5q-62 0 -134 -29l-48 -344h-94l84 597h-192l12 85h478z" />
    <glyph glyph-name="afii10061" unicode="&#x40c;" horiz-adv-x="588" 
d="M129 0h-94l95 682h94l-38 -277h4q64 0 99 23q34 24 72 98q43 82 79 118q19 18 41 25q37 13 97 13h15l-16 -81h-13q-48 0 -74 -21q-25 -22 -62 -97q-43 -91 -127 -120q33 -11 63.5 -49.5t70.5 -113.5l105 -200h-109l-82 176q-44 94 -79 123q-35 31 -91 31h-4zM368 728h-56
l68 146h101z" />
    <glyph glyph-name="uni040D" unicode="&#x40d;" horiz-adv-x="698" 
d="M150 158l483 524h54l-96 -682h-94l75 509l-483 -509h-54l96 682h93zM257 879h143l74 -150h-51z" />
    <glyph glyph-name="afii10062" unicode="&#x40e;" horiz-adv-x="599" 
d="M43 682h98l156 -553l253 553h96l-331 -685q-38 -78 -84 -109.5t-110 -31.5q-30 0 -66 11q-35 11 -48 30l33 74q26 -35 92 -35q76 0 105 81zM244 877h47q1 -29 20 -46.5t49 -17.5q54 0 88 64h49q-18 -61 -54.5 -94.5t-86.5 -33.5q-52 0 -83.5 37t-28.5 91z" />
    <glyph glyph-name="afii10145" unicode="&#x40f;" horiz-adv-x="675" 
d="M564 682h94l-96 -682h-216l-19 -121h-90l22 121h-222l96 682h93l-82 -597h337z" />
    <glyph glyph-name="afii10017" unicode="&#x410;" horiz-adv-x="515" 
d="M266 686h86l133 -686h-84l-41 214h-214l-90 -214h-91zM294 566h-2l-116 -280h170z" />
    <glyph glyph-name="afii10018" unicode="&#x411;" horiz-adv-x="510" 
d="M247 0h-208l95 682h361l-11 -85h-271l-30 -207q42 17 97 17q96 0 154.5 -50t58.5 -144q0 -88 -70 -151q-71 -62 -176 -62zM251 329q-53 0 -79 -14l-33 -239h99q75 0 119 37.5t44 97.5q0 64 -37.5 91t-112.5 27z" />
    <glyph glyph-name="afii10019" unicode="&#x412;" horiz-adv-x="510" 
d="M251 0h-212l95 682h100q107 0 161.5 -47t54.5 -126q0 -90 -94 -135q141 -50 141 -183q0 -87 -69 -139q-68 -52 -177 -52zM213 604l-27 -195h49q56 0 89.5 28t33.5 74q0 106 -145 93zM241 333h-66l-36 -257h103q78 0 120.5 30.5t42.5 88.5q0 59 -49 98q-47 40 -115 40z
" />
    <glyph glyph-name="afii10020" unicode="&#x413;" horiz-adv-x="454" 
d="M38 0l99 682h361l-12 -85h-273l-85 -597h-90z" />
    <glyph glyph-name="afii10021" unicode="&#x414;" horiz-adv-x="585" 
d="M-2 81h45l263 605h86l104 -605h49l-21 -202h-79l12 121h-394l-25 -121h-83zM412 81l-77 485h-4l-199 -485h280z" />
    <glyph glyph-name="afii10022" unicode="&#x415;" horiz-adv-x="510" 
d="M38 0l99 682h361l-11 -81h-273l-30 -214h241l-11 -81h-242l-33 -225h359l-12 -81h-448z" />
    <glyph glyph-name="afii10024" unicode="&#x416;" horiz-adv-x="883" 
d="M456 682h94l-39 -277q61 1 94 24q34 25 71 97q31 60 51 89t44 44q23 15 45 19t67 4h5l-16 -81h-5q-46 0 -66 -20q-19 -19 -58 -98q-47 -92 -127 -120q34 -11 60 -46.5t64 -116.5l95 -200h-109l-72 176q-38 93 -70 122q-32 31 -84 32l-46 -330h-94l46 330h-4
q-44 0 -85 -29q-40 -28 -117 -131l-128 -170h-117l160 196q72 88 114 125q41 35 75 42q-69 37 -89 120q-18 78 -36 97q-17 21 -69 21l7 81q76 0 112 -33q36 -32 59 -123q18 -76 43 -98q26 -23 82 -23h4z" />
    <glyph glyph-name="afii10025" unicode="&#x417;" horiz-adv-x="551" 
d="M233 306h-98l13 81h105q76 0 121.5 36t45.5 90q0 49 -36 73t-96 24q-36 0 -83 -12q-49 -13 -76 -31l13 94q69 30 160 30q85 0 149 -44q63 -43 63 -120q0 -72 -47 -121t-106 -59q114 -49 114 -164q0 -62 -56 -123q-28 -31 -79 -50t-112 -19q-45 0 -109 11q-62 12 -95 27
l12 81q33 -17 88 -27q58 -11 102 -11q68 0 111.5 31.5t43.5 81.5q0 54 -40 87.5t-108 33.5z" />
    <glyph glyph-name="afii10026" unicode="&#x418;" horiz-adv-x="698" 
d="M150 158l483 524h54l-96 -682h-94l75 509l-483 -509h-54l96 682h93z" />
    <glyph glyph-name="afii10027" unicode="&#x419;" horiz-adv-x="698" 
d="M150 158l483 524h54l-96 -682h-94l75 509l-483 -509h-54l96 682h93zM311 877h47q1 -29 20 -46.5t49 -17.5q54 0 88 64h49q-18 -61 -54.5 -94.5t-86.5 -33.5q-52 0 -83.5 37t-28.5 91z" />
    <glyph glyph-name="afii10028" unicode="&#x41a;" horiz-adv-x="588" 
d="M129 0h-94l95 682h94l-38 -277h4q64 0 99 23q34 24 72 98q43 82 79 118q19 18 41 25q37 13 97 13h15l-16 -81h-13q-48 0 -74 -21q-25 -22 -62 -97q-43 -91 -127 -120q33 -11 63.5 -49.5t70.5 -113.5l105 -200h-109l-82 176q-44 94 -79 123q-35 31 -91 31h-4z" />
    <glyph glyph-name="afii10029" unicode="&#x41b;" horiz-adv-x="510" 
d="M-28 0l300 686h86l118 -686h-86l-89 566h-4l-231 -566h-94z" />
    <glyph glyph-name="afii10030" unicode="&#x41c;" horiz-adv-x="813" 
d="M408 220l245 462h90v-682h-90v517h-2l-274 -517l-118 522h-2l-168 -522h-90l225 682h78z" />
    <glyph glyph-name="afii10031" unicode="&#x41d;" horiz-adv-x="698" 
d="M552 387l41 295h94l-96 -682h-94l43 302h-369l-42 -302h-94l96 682h93l-41 -295h369z" />
    <glyph glyph-name="afii10032" unicode="&#x41e;" horiz-adv-x="656" 
d="M623 405q0 -181 -97 -297q-98 -117 -232 -117q-107 0 -175 80q-68 82 -68 208q0 145 83 272q41 64 106.5 102t141.5 38q108 0 174 -79q67 -79 67 -207zM531 421q0 89 -40 138.5t-110 49.5q-77 0 -132 -57q-106 -106 -106 -286q0 -90 41.5 -141.5t111.5 -51.5
q96 0 165 102q70 101 70 246z" />
    <glyph glyph-name="afii10033" unicode="&#x41f;" horiz-adv-x="698" 
d="M35 0l96 682h556l-96 -682h-94l85 597h-370l-83 -597h-94z" />
    <glyph glyph-name="afii10034" unicode="&#x420;" horiz-adv-x="448" 
d="M121 0h-94l96 682h117q88 0 149 -39q72 -43 72 -154q0 -66 -47 -129q-24 -32 -69.5 -52t-101.5 -20h-82zM245 601h-40l-32 -232h66q62 0 96 35.5t34 87.5q0 48 -32 78.5t-92 30.5z" />
    <glyph glyph-name="afii10035" unicode="&#x421;" horiz-adv-x="552" 
d="M515 691h65l-18 -86h-50q-158 0 -252 -77q-59 -48 -86.5 -114.5t-27.5 -132.5q0 -93 48.5 -148.5t130.5 -55.5q43 0 100.5 23.5t103.5 60.5l-15 -110q-105 -60 -202 -60q-117 0 -190 79t-73 205q0 182 126 299q128 117 340 117z" />
    <glyph glyph-name="afii10036" unicode="&#x422;" horiz-adv-x="510" 
d="M67 597l12 85h478l-12 -85h-192l-84 -597h-94l84 597h-192z" />
    <glyph glyph-name="afii10037" unicode="&#x423;" horiz-adv-x="599" 
d="M43 682h98l156 -553l253 553h96l-331 -685q-38 -78 -84 -109.5t-110 -31.5q-30 0 -66 11q-35 11 -48 30l33 74q26 -35 92 -35q76 0 105 81z" />
    <glyph glyph-name="afii10038" unicode="&#x424;" horiz-adv-x="760" 
d="M381 619l10 72h94l-10 -72q113 0 189 -63q77 -62 77 -177q0 -131 -104 -217q-103 -85 -239 -85l-13 -86h-93l13 86q-112 0 -189 62q-77 63 -77 178q0 131 103 216q104 86 239 86zM463 541l-54 -386q99 0 169 67q71 68 71 166q0 72 -48.5 112.5t-137.5 40.5zM316 155
l54 386q-99 0 -169 -67t-70 -166q0 -72 48 -112.5t137 -40.5z" />
    <glyph glyph-name="afii10039" unicode="&#x425;" horiz-adv-x="667" 
d="M362 431l222 251h119l-292 -331l222 -351h-107l-177 281l-244 -281h-123l317 361l-202 321h103z" />
    <glyph glyph-name="afii10040" unicode="&#x426;" horiz-adv-x="695" 
d="M675 85l-29 -206h-89l16 121h-538l96 682h93l-82 -597h337l83 597h94l-83 -597h102z" />
    <glyph glyph-name="afii10041" unicode="&#x427;" horiz-adv-x="589" 
d="M440 374l44 308h94l-96 -682h-94l40 289q-78 -29 -139 -29q-87 0 -145 34q-66 41 -66 159q0 38 6 80l20 149h93l-18 -143q-7 -43 -7 -83q0 -62 29 -86.5t105 -24.5q59 0 134 29z" />
    <glyph glyph-name="afii10042" unicode="&#x428;" horiz-adv-x="875" 
d="M222 682l-82 -597h222l84 597h93l-82 -597h222l84 597h94l-94 -682h-730l96 682h93z" />
    <glyph glyph-name="afii10043" unicode="&#x429;" horiz-adv-x="898" 
d="M224 682l-82 -597h222l84 597h93l-82 -597h222l84 597h94l-83 -597h102l-28 -206h-91l16 121h-740l96 682h93z" />
    <glyph glyph-name="afii10044" unicode="&#x42a;" horiz-adv-x="577" 
d="M14 682h259l-41 -292q42 17 97 17q96 0 154.5 -50t58.5 -144q0 -88 -70 -151q-71 -62 -176 -62h-212l83 597h-165zM300 329q-53 0 -79 -14l-33 -239h99q75 0 119 37.5t44 97.5q0 64 -37.5 91t-112.5 27z" />
    <glyph glyph-name="afii10045" unicode="&#x42b;" horiz-adv-x="776" 
d="M247 0h-212l95 682h94l-41 -292q42 17 97 17q96 0 154.5 -50t58.5 -144q0 -88 -70 -151q-71 -62 -176 -62zM251 329q-53 0 -79 -14l-33 -239h99q75 0 119 37.5t44 97.5q0 64 -37.5 91t-112.5 27zM551 0l96 682h94l-96 -682h-94z" />
    <glyph glyph-name="afii10046" unicode="&#x42c;" horiz-adv-x="528" 
d="M247 0h-212l95 682h94l-41 -292q42 17 97 17q96 0 154.5 -50t58.5 -144q0 -88 -70 -151q-71 -62 -176 -62zM251 329q-53 0 -79 -14l-33 -239h99q75 0 119 37.5t44 97.5q0 64 -37.5 91t-112.5 27z" />
    <glyph glyph-name="afii10047" unicode="&#x42d;" horiz-adv-x="593" 
d="M96 -9h-65l18 86h50q161 0 249 75q78 66 104 161h-282l11 81h284v7q0 93 -48.5 148.5t-130.5 55.5q-44 0 -101 -24q-56 -22 -103 -60l15 110q105 60 202 60q115 0 189 -80t74 -204q0 -182 -127 -299q-126 -117 -339 -117z" />
    <glyph glyph-name="afii10048" unicode="&#x42e;" horiz-adv-x="868" 
d="M263 279v36h-90l-44 -315h-94l96 682h94l-41 -292h93q30 125 112 213t205 88q108 0 174 -79q67 -79 67 -207q0 -181 -97 -297q-98 -117 -232 -117q-107 0 -175 80q-68 82 -68 208zM743 421q0 89 -40 138.5t-110 49.5q-77 0 -132 -57q-106 -106 -106 -286
q0 -90 41.5 -141.5t111.5 -51.5q96 0 165 102q70 101 70 246z" />
    <glyph glyph-name="afii10049" unicode="&#x42f;" horiz-adv-x="582" 
d="M69 0h-117l136 171q20 26 49 60q51 57 101 75q-135 47 -135 176q0 90 79 145q80 57 188 57h201l-96 -684h-94l40 291h-27q-55 0 -102 -32q-48 -32 -113 -117zM335 371h98l32 232h-102q-71 0 -114.5 -35.5t-43.5 -90.5q0 -54 31 -80t99 -26z" />
    <glyph glyph-name="afii10065" unicode="&#x430;" 
d="M383 0h-85l8 52l-2 2q-58 -63 -121 -63q-62 0 -105 52t-43 126q0 56 17.5 106.5t52.5 93.5t96 68.5t139 25.5q61 0 106 -14zM316 130l37 259q-6 1 -26 1q-49 0 -87 -16t-59.5 -39.5t-35.5 -53.5t-18.5 -53.5t-4.5 -43.5q0 -54 25 -88.5t64 -34.5q23 0 53 20t52 49z" />
    <glyph glyph-name="afii10066" unicode="&#x431;" horiz-adv-x="448" 
d="M123 178q0 -53 22.5 -86t56.5 -33q54 0 91 60q38 62 38 153q0 57 -20 90.5t-56 33.5q-54 0 -93 -66q-39 -64 -39 -152zM129 380q53 83 126 83q75 0 119 -53t44 -143q0 -123 -62 -203q-62 -78 -151 -78q-80 0 -125 59.5t-45 162.5q0 104 25.5 190t76 150.5t133 100.5
t190.5 36h36l-25 -70h-41q-222 0 -301 -235z" />
    <glyph glyph-name="afii10067" unicode="&#x432;" horiz-adv-x="424" 
d="M214 0h-183l60 437q78 26 145 26q68 0 106 -30.5t38 -83.5q0 -85 -79 -110q36 -9 57.5 -36.5t21.5 -66.5q0 -64 -48 -100q-46 -36 -118 -36zM168 378l-18 -108h48q49 0 72 15t23 48q0 55 -69 55q-39 0 -56 -10zM210 211h-66l-18 -136h58q109 0 109 68q0 29 -23 48.5
t-60 19.5z" />
    <glyph glyph-name="afii10068" unicode="&#x433;" horiz-adv-x="320" 
d="M23 0l63 449h264l-12 -74h-178l-52 -375h-85z" />
    <glyph glyph-name="afii10069" unicode="&#x434;" 
d="M297 50q-19 -22 -49 -36t-59 -14q-79 0 -118.5 46.5t-39.5 131.5q0 104 69 188q36 45 101 71t148 26q48 0 95 -14l-61 -392q-22 -146 -83 -216.5t-164 -70.5q-95 0 -153 49v97q30 -38 67 -54.5t91 -16.5q63 0 99.5 47t56.5 158zM307 125l42 264q-1 1 -15 1
q-54 -2 -97 -20.5t-66 -44.5q-20 -23 -34 -57q-19 -48 -19 -95q0 -54 21.5 -78t66.5 -24q24 0 54 16t47 38z" />
    <glyph glyph-name="afii10070" unicode="&#x435;" horiz-adv-x="438" 
d="M405 233h-280q-15 -84 21 -131q36 -46 94 -46q64 0 146 61l-12 -81q-68 -50 -150 -50q-84 0 -137 59q-51 60 -51 158q0 111 61 185q61 75 152 75q76 0 123 -65q46 -64 33 -165zM138 292h188q0 46 -21 73.5t-60 27.5q-72 0 -107 -101z" />
    <glyph glyph-name="afii10072" unicode="&#x436;" horiz-adv-x="646" 
d="M290 264l25 185h88l-27 -185q28 2 47.5 15.5t39.5 46.5l38 64q35 59 110 59h25l-12 -75h-12q-20 0 -30 -6.5t-23 -28.5l-32 -54q-28 -49 -76 -55q42 -14 81 -97l62 -133h-94l-31 73q-12 28 -21 46t-21 38q-25 45 -60 47l-29 -204h-85l28 204h-9q-31 0 -60 -25
q-31 -24 -78 -103l-46 -76h-98l90 133q61 91 118 100q-53 5 -65 66l-7 34q-6 25 -16.5 33t-34.5 8h-14l12 75h23q86 0 103 -74l9 -41q9 -41 26 -55.5t56 -14.5z" />
    <glyph glyph-name="afii10073" unicode="&#x437;" horiz-adv-x="390" 
d="M132 195h-28l10 69h41q64 0 98.5 18t34.5 49q0 56 -83 56q-43 0 -86.5 -14t-67.5 -37l11 83q56 44 154 44q73 0 115 -29.5t42 -82.5q0 -42 -29 -73t-81 -45q88 -19 88 -101q0 -71 -59 -106t-140 -35q-32 0 -85 12q-54 14 -72 29l13 85q22 -22 70 -36q50 -14 82 -14
q50 0 77 19.5t27 50.5q0 32 -33 45t-99 13z" />
    <glyph glyph-name="afii10074" unicode="&#x438;" horiz-adv-x="479" 
d="M129 144l262 305h55l-63 -449h-85l43 285l-256 -285h-55l63 449h85z" />
    <glyph glyph-name="afii10075" unicode="&#x439;" horiz-adv-x="479" 
d="M129 144l262 305h55l-63 -449h-85l43 285l-256 -285h-55l63 449h85zM181 659h47q1 -29 20 -46.5t49 -17.5q54 0 88 64h49q-18 -61 -54.5 -94.5t-86.5 -33.5q-52 0 -83.5 37t-28.5 91z" />
    <glyph glyph-name="afii10076" unicode="&#x43a;" horiz-adv-x="435" 
d="M183 449l-28 -185q33 0 54.5 13.5t42.5 48.5l38 64q35 59 110 59h25l-14 -67h-7q-18 0 -29 -9t-27 -34l-32 -54q-28 -49 -76 -55q20 -6 42.5 -34.5t38.5 -62.5l62 -133h-94l-31 73q-9 23 -17 38q-4 9 -17 33q-29 53 -72 60h-6l-28 -204h-85l62 449h88z" />
    <glyph glyph-name="afii10077" unicode="&#x43b;" horiz-adv-x="438" 
d="M407 0h-95l-80 308l-171 -308h-90l271 468h38z" />
    <glyph glyph-name="afii10078" unicode="&#x43c;" horiz-adv-x="588" 
d="M8 0l95 459h90l98 -287l174 287h90l-34 -459h-84l22 325l-192 -325l-109 325l-66 -325h-84z" />
    <glyph glyph-name="afii10079" unicode="&#x43d;" horiz-adv-x="479" 
d="M336 274l25 175h85l-63 -449h-85l28 199h-183l-28 -199h-85l63 449h85l-24 -175h182z" />
    <glyph glyph-name="afii10080" unicode="&#x43e;" horiz-adv-x="448" 
d="M418 267q0 -123 -62 -203q-62 -78 -151 -78q-79 0 -124 53t-45 148q0 118 61 197t154 79q76 0 121.5 -53.5t45.5 -142.5zM123 178q0 -53 22.5 -86t56.5 -33q54 0 91 60q38 62 38 153q0 56 -21.5 90t-58.5 34q-53 0 -91 -66q-37 -64 -37 -152z" />
    <glyph glyph-name="afii10081" unicode="&#x43f;" 
d="M114 0h-84l63 449h85l-11 -79l3 -2q72 88 148 88q54 0 81.5 -39t27.5 -100q0 -30 -6 -63l-39 -254h-84l37 257q6 37 6 57q0 35 -14.5 53.5t-36.5 18.5q-59 0 -135 -100z" />
    <glyph glyph-name="afii10082" unicode="&#x440;" horiz-adv-x="490" 
d="M101 398l23 165h85l-16 -114q24 10 37 11q18 3 39 3q81 0 133 -60q53 -59 53 -149q0 -45 -15.5 -90t-46.5 -86t-85.5 -66.5t-123.5 -25.5h-56l-30 -216h-85l80 568q-11 -8 -22.5 -20t-20.5 -22.5t-16 -20.5t-11 -15t-5 -4q-4 0 -4 6q0 24 27 67t60 69zM184 386l-46 -328
h41q91 0 140 60q49 61 49 136q0 69 -36 107t-92 38q-29 0 -56 -13z" />
    <glyph glyph-name="afii10083" unicode="&#x441;" horiz-adv-x="385" 
d="M392 455l-11 -75q-29 7 -65 7q-90 0 -148 -57q-57 -57 -57 -132q0 -64 33 -100t90 -36q58 0 123 38l-10 -82q-61 -32 -125 -32q-91 0 -144.5 56t-53.5 151q0 113 81 191q80 79 210 79q29 0 77 -8z" />
    <glyph glyph-name="afii10084" unicode="&#x442;" horiz-adv-x="741" 
d="M155 285l-40 -285h-85l64 449h85l-12 -78l3 -2q76 87 154 87q38 0 66 -24.5t36 -76.5q83 101 168 101q48 0 77 -32.5t29 -93.5q0 -10 -5 -55l-39 -275h-85l40 279q4 31 4 43q0 67 -48 67q-61 0 -141 -104l-41 -285h-85l38 268q5 35 5 53q0 68 -53 68q-25 0 -62.5 -28.5
t-72.5 -75.5z" />
    <glyph glyph-name="afii10085" unicode="&#x443;" horiz-adv-x="375" 
d="M170 140l141 309h89l-322 -679h-90l122 257l-87 422h85l60 -309h2z" />
    <glyph glyph-name="afii10086" unicode="&#x444;" horiz-adv-x="696" 
d="M412 368l-38 -285q17 -20 62 -20q63 0 103 64t40 153q0 60 -22.5 84t-67.5 24q-57 0 -77 -20zM330 -230h-85l34 244q-38 -23 -92 -23q-73 0 -112 46t-39 135q0 120 69 203t170 83q37 0 63 -20l35 244h85l-35 -247q38 23 92 23q73 0 112 -46t39 -135q0 -121 -69 -204
q-69 -82 -170 -82q-37 0 -63 20zM290 81l38 285q-17 20 -62 20q-62 0 -103 -65q-40 -64 -40 -152q0 -60 22.5 -84t67.5 -24q57 0 77 20z" />
    <glyph glyph-name="afii10087" unicode="&#x445;" horiz-adv-x="427" 
d="M221 298l117 151h105l-181 -222l114 -227h-91l-82 168l-130 -168h-104l196 238l-106 211h91z" />
    <glyph glyph-name="afii10088" unicode="&#x446;" horiz-adv-x="490" 
d="M309 75l52 374h85l-52 -374h74l-22 -173h-79l13 98h-350l63 449h85l-52 -374h183z" />
    <glyph glyph-name="afii10089" unicode="&#x447;" horiz-adv-x="444" 
d="M300 263l26 186h85l-63 -449h-85l26 191q-55 -31 -113 -31q-136 0 -136 139q0 47 18 150h85q-17 -113 -17 -146q0 -41 14.5 -57t48.5 -16q24 0 57.5 9.5t53.5 23.5z" />
    <glyph glyph-name="afii10090" unicode="&#x448;" horiz-adv-x="665" 
d="M632 449l-61 -449h-548l63 449h85l-53 -374h147l51 374h85l-52 -374h147l51 374h85z" />
    <glyph glyph-name="afii10091" unicode="&#x449;" horiz-adv-x="684" 
d="M639 -98h-82l14 98h-541l63 449h85l-53 -374h147l51 374h85l-52 -374h147l51 374h85l-51 -374h74z" />
    <glyph glyph-name="afii10092" unicode="&#x44a;" horiz-adv-x="486" 
d="M242 0h-173l52 375h-121l11 74h205l-21 -157q47 14 94 14q77 0 119 -34t42 -94q0 -86 -61 -132q-59 -46 -147 -46zM186 228l-23 -161h64q62 0 98 27t36 75q0 31 -22.5 50.5t-61.5 19.5q-41 0 -91 -11z" />
    <glyph glyph-name="afii10093" unicode="&#x44b;" horiz-adv-x="639" 
d="M456 0l65 449h85l-65 -449h-85zM93 449h85l-22 -157q47 14 94 14q77 0 119 -34t42 -94q0 -86 -61 -132q-59 -46 -147 -46h-173zM147 228l-23 -161h64q62 0 98 27t36 75q0 31 -22.5 50.5t-61.5 19.5q-41 0 -91 -11z" />
    <glyph glyph-name="afii10094" unicode="&#x44c;" horiz-adv-x="447" 
d="M93 449h85l-22 -157q47 14 94 14q77 0 119 -34t42 -94q0 -86 -61 -132q-59 -46 -147 -46h-173zM147 228l-23 -161h64q62 0 98 27t36 75q0 31 -22.5 50.5t-61.5 19.5q-41 0 -91 -11z" />
    <glyph glyph-name="afii10095" unicode="&#x44d;" horiz-adv-x="397" 
d="M120 195l9 75h159q-4 55 -36.5 86t-85.5 31q-58 0 -123 -38l10 82q61 32 125 32q91 0 144.5 -56t53.5 -151q0 -125 -79 -198q-79 -72 -212 -72q-29 0 -77 8l11 75q29 -7 65 -7q161 0 196 133h-160z" />
    <glyph glyph-name="afii10096" unicode="&#x44e;" horiz-adv-x="609" 
d="M86 449h85l-26 -186h59q18 90 75 145q58 56 133 56q76 0 121.5 -53.5t45.5 -142.5q0 -123 -62 -203q-61 -78 -151 -78q-79 0 -124 53t-45 148v16h-60l-29 -204h-85zM284 179q0 -53 22.5 -86t56.5 -33q53 0 91 60q38 62 38 153q0 56 -21.5 90t-58.5 34q-54 0 -91 -66
q-37 -64 -37 -152z" />
    <glyph glyph-name="afii10097" unicode="&#x44f;" horiz-adv-x="477" 
d="M281 449h163l-63 -449h-85l25 174h-15q-42 0 -75.5 -17.5t-68.5 -63.5l-72 -93h-105l92 114q47 57 89 76q-77 38 -77 114q0 68 57 106q58 39 135 39zM262 233h66l20 141h-68q-49 0 -76.5 -19t-27.5 -54q0 -68 86 -68z" />
    <glyph glyph-name="uni0450" unicode="&#x450;" horiz-adv-x="438" 
d="M389 125l-13 -89q-71 -50 -149 -50q-85 0 -138 60q-51 60 -51 153q0 110 59 187q60 77 151 77q71 0 117 -52q46 -50 46 -134q0 -27 -4 -44h-281q-2 -42 -2 -44q0 -59 33 -97q33 -36 77 -36q64 0 155 69zM140 292h188q1 47 -21 74.5t-59 27.5q-74 0 -108 -102zM162 657
h101l68 -146h-56z" />
    <glyph glyph-name="afii10071" unicode="&#x451;" horiz-adv-x="438" 
d="M407 233h-280q-15 -84 21 -131q36 -46 94 -46q64 0 146 61l-12 -81q-68 -50 -150 -50q-84 0 -137 59q-51 60 -51 158q0 111 61 185q61 75 152 75q76 0 123 -65q46 -64 33 -165zM140 292h188q0 46 -21 73.5t-60 27.5q-72 0 -107 -101zM329 625q19 21 44.5 12t32.5 -32.5
t-12 -44.5q-13 -13 -32 -13t-33 13q-13 14 -13 33t13 32zM150 625q19 21 44.5 12t32.5 -32.5t-12 -44.5q-13 -13 -32 -13t-33 13q-13 14 -13 33t13 32z" />
    <glyph glyph-name="afii10099" unicode="&#x452;" 
d="M283 -57l50 369q6 42 -7.5 64.5t-43.5 22.5q-58 0 -136 -107l-41 -292h-84l77 547h-78l10 65h77l11 70h83l-10 -70h191l-10 -65h-190l-25 -175q78 91 159 91q57 0 84 -43.5t18 -113.5l-51 -372q-11 -78 -44 -120q-35 -44 -114 -44q-13 0 -39 6q-27 6 -36 13l11 75
q34 -14 65 -14q61 0 73 93z" />
    <glyph glyph-name="afii10100" unicode="&#x453;" horiz-adv-x="320" 
d="M23 0l63 449h261l-12 -75h-175l-52 -374h-85zM237 500h-56l68 146h101z" />
    <glyph glyph-name="afii10101" unicode="&#x454;" horiz-adv-x="385" 
d="M123 263h196l-10 -65h-198q0 -64 33 -100t90 -36q58 0 123 38l-10 -82q-61 -32 -125 -32q-91 0 -144.5 56t-53.5 151q0 113 81 191q80 79 210 79q29 0 77 -8l-11 -75q-29 7 -65 7q-68 0 -120 -34.5t-73 -89.5z" />
    <glyph glyph-name="afii10102" unicode="&#x455;" horiz-adv-x="354" 
d="M11 45l15 82q83 -67 138 -67q25 0 41.5 14t16.5 36q0 20 -18 39.5t-44 37t-52 37t-44 48t-18 62.5q0 58 38.5 93.5t102.5 35.5q68 0 136 -47v-89q-77 59 -135 59q-26 0 -43.5 -13.5t-17.5 -33.5q0 -17 18.5 -35t44.5 -35t52.5 -36.5t45 -49t18.5 -63.5q0 -59 -39 -96.5
t-100 -37.5q-42 0 -75 12.5t-81 46.5z" />
    <glyph glyph-name="afii10103" unicode="&#x456;" horiz-adv-x="188" 
d="M23 0l63 449h85l-63 -449h-85zM109 624q15 15 35 15t34 -15q15 -14 15 -34t-15 -35q-14 -14 -34 -14t-35 14q-14 15 -14 35t14 34z" />
    <glyph glyph-name="afii10104" unicode="&#x457;" horiz-adv-x="188" 
d="M23 0l63 449h85l-63 -449h-85zM204 625q19 21 44.5 12t32.5 -32.5t-12 -44.5q-13 -13 -32 -13t-33 13q-13 14 -13 33t13 32zM25 625q19 21 44.5 12t32.5 -32.5t-12 -44.5q-13 -13 -32 -13t-33 13q-13 14 -13 33t13 32z" />
    <glyph glyph-name="afii10105" unicode="&#x458;" horiz-adv-x="188" 
d="M-103 -221l11 75q51 -12 78 6t34 73l66 516h85l-69 -540q-9 -69 -50.5 -104t-104.5 -35q-29 0 -50 9zM177 624q15 -14 15 -34t-15 -35q-14 -14 -34 -14t-35 14q-14 15 -14 35t14 34q15 15 35 15t34 -15z" />
    <glyph glyph-name="afii10106" unicode="&#x459;" horiz-adv-x="664" 
d="M280 468l46 -191q63 29 131 29q85 0 128 -34.5t43 -98.5q0 -87 -60 -130q-59 -43 -148 -43h-123l-65 308l-171 -308h-90l271 468h38zM340 217l36 -150h29q64 0 99 25t35 72q0 34 -24 54.5t-70 20.5q-55 0 -105 -22z" />
    <glyph glyph-name="afii10107" unicode="&#x45a;" horiz-adv-x="715" 
d="M471 0h-174l29 199h-183l-28 -199h-85l63 449h85l-24 -175h182l25 175h85l-22 -157q47 14 94 14q77 0 119 -34t42 -94q0 -86 -61 -132q-59 -46 -147 -46zM415 228l-23 -161h64q62 0 98 27t36 75q0 31 -22.5 50.5t-61.5 19.5q-41 0 -91 -11z" />
    <glyph glyph-name="afii10108" unicode="&#x45b;" 
d="M21 0l77 546h-77l11 75h76l9 61h85l-9 -61h192l-10 -75h-192l-24 -169l2 -2q76 88 156 88q57 0 84 -43.5t18 -113.5l-43 -306h-85l43 311q6 41 -8.5 64.5t-42.5 23.5q-58 0 -136 -107l-41 -292h-85z" />
    <glyph glyph-name="afii10109" unicode="&#x45c;" horiz-adv-x="435" 
d="M183 449l-28 -185q33 0 54.5 13.5t42.5 48.5l38 64q35 59 110 59h25l-14 -67h-7q-18 0 -29 -9t-27 -34l-32 -54q-28 -49 -76 -55q20 -6 42.5 -34.5t38.5 -62.5l62 -133h-94l-31 73q-9 23 -17 38q-4 9 -17 33q-29 53 -72 60h-6l-28 -204h-85l62 449h88zM289 496h-56
l68 146h101z" />
    <glyph glyph-name="uni045D" unicode="&#x45d;" horiz-adv-x="479" 
d="M129 144l262 305h55l-63 -449h-85l43 285l-256 -285h-55l63 449h85zM162 657h101l68 -146h-56z" />
    <glyph glyph-name="afii10110" unicode="&#x45e;" horiz-adv-x="375" 
d="M170 140l141 309h89l-322 -679h-90l122 257l-87 422h85l60 -309h2zM110 659h47q1 -29 20 -46.5t49 -17.5q54 0 88 64h49q-18 -61 -54.5 -94.5t-86.5 -33.5q-52 0 -83.5 37t-28.5 91z" />
    <glyph glyph-name="afii10193" unicode="&#x45f;" horiz-adv-x="463" 
d="M309 75l52 374h85l-63 -449h-133l-13 -98h-79l15 98h-143l63 449h85l-52 -374h183z" />
    <glyph glyph-name="afii10146" unicode="&#x462;" horiz-adv-x="558" 
d="M277 0h-212l71 515h-137l12 78h136l13 89h94l-13 -89h157l-11 -78h-157l-17 -125q42 17 97 17q96 0 154.5 -50t58.5 -144q0 -88 -70 -151q-71 -62 -176 -62zM281 329q-53 0 -79 -14l-33 -239h99q75 0 119 37.5t44 97.5q0 64 -37.5 91t-112.5 27z" />
    <glyph glyph-name="afii10194" unicode="&#x463;" horiz-adv-x="682" 
d="M309 449h97l-21 -155q42 12 95 12q77 0 121.5 -36t44.5 -95q0 -83 -62 -134q-62 -50 -161 -50q-68 0 -104.5 36.5t-36.5 102.5q0 21 2 37l27 205q-7 0 -13.5 0.5t-10.5 1t-5 0.5q-38 0 -66.5 -26.5t-65.5 -94.5l-35 -253h-85l63 449h85l-13 -85l3 -2q34 49 67 68t74 19z
M463 239q-49 0 -86 -9l-6 -46q-3 -15 -3 -45q0 -34 17 -54t50 -20q53 0 87.5 29t34.5 72q0 35 -25 54t-69 19z" />
    <glyph glyph-name="afii10147" unicode="&#x472;" horiz-adv-x="656" 
d="M623 405q0 -181 -97 -297q-98 -117 -232 -117q-107 0 -175 80q-68 82 -68 208q0 145 83 272q41 64 106.5 102t141.5 38q108 0 174 -79q67 -79 67 -207zM158 384h371q2 32 2 37q0 89 -40 138.5t-110 49.5q-97 0 -156 -82q-46 -63 -67 -143zM517 305h-372l-2 -39
q0 -90 41.5 -141.5t111.5 -51.5q73 0 135 65t86 167z" />
    <glyph glyph-name="afii10195" unicode="&#x473;" horiz-adv-x="448" 
d="M418 267q0 -123 -62 -203q-62 -78 -151 -78q-79 0 -124 53t-45 148q0 118 61 197t154 79q76 0 121.5 -53.5t45.5 -142.5zM134 262h197v10q0 56 -21.5 90t-58.5 34q-38 0 -70 -37t-47 -97zM325 197h-202l-1 -15v-4q0 -53 22.5 -86.5t56.5 -33.5q47 0 80 43q34 44 44 96z
" />
    <glyph glyph-name="afii10148" unicode="&#x474;" horiz-adv-x="570" 
d="M241 206h2l178 368q29 60 58 89t70 29q39 0 63 -24l8 -9v-80q-45 30 -70.5 26t-43.5 -43q-34 -76 -39 -84q-6 -14 -19 -42q-21 -44 -28 -57l-63 -128l-125 -257h-35l-133 688h88z" />
    <glyph glyph-name="afii10196" unicode="&#x475;" horiz-adv-x="418" 
d="M179 164h2l100 198q28 54 56.5 79.5t67.5 25.5q16 0 55 -13l11 -5v-76q-18 20 -50 20q-38 -1 -60 -43l-181 -359h-42l-102 458h84z" />
    <glyph glyph-name="afii10050" unicode="&#x490;" horiz-adv-x="454" 
d="M412 682l11 71h82l-24 -156h-268l-85 -597h-90l99 682h275z" />
    <glyph glyph-name="afii10098" unicode="&#x491;" horiz-adv-x="320" 
d="M279 449l8 56h68l-20 -132h-175l-52 -373h-85l63 449h193z" />
    <glyph glyph-name="uni0492" unicode="&#x492;" horiz-adv-x="454" 
d="M82 302h-66l12 85h66l43 295h361l-11 -81h-273l-31 -214h184l-12 -85h-184l-43 -302h-90z" />
    <glyph glyph-name="uni0493" unicode="&#x493;" horiz-adv-x="330" 
d="M156 274h115l-10 -75h-116l-27 -199h-85l28 199h-53l11 75h52l25 175h264l-12 -74h-178z" />
    <glyph glyph-name="uni0496" unicode="&#x496;" horiz-adv-x="888" 
d="M304 363q-69 37 -89 120q-18 78 -36 97q-17 21 -69 21l7 81q76 0 112 -33q36 -32 59 -123q18 -76 43 -98q26 -23 82 -23h4l39 277h94l-39 -277q61 1 94 24q34 25 71 97q31 60 51 89t44 44q23 15 45 19t67 4h5l-16 -81h-5q-46 0 -66 -20q-19 -19 -58 -98
q-47 -92 -127 -120q34 -11 60 -46.5t64 -116.5l55 -115h70l-29 -206h-89l16 121h-37l-72 176q-38 93 -70 122q-32 31 -84 32l-46 -330h-94l46 330h-4q-44 0 -85 -29q-40 -28 -117 -131l-128 -170h-117l160 196q72 88 114 125q41 35 75 42z" />
    <glyph glyph-name="uni0497" unicode="&#x497;" horiz-adv-x="646" 
d="M532 133l26 -58h56l-22 -173h-79l13 98h-26l-31 73q-12 28 -21 46t-21 38q-25 45 -60 47l-29 -204h-85l28 204h-9q-31 0 -60 -25q-31 -24 -78 -103l-46 -76h-98l90 133q61 91 118 100q-53 5 -65 66l-7 34q-6 25 -16.5 33t-34.5 8h-14l12 75h23q86 0 103 -74l9 -41
q9 -41 26 -55.5t56 -14.5l25 185h88l-27 -185q28 2 47.5 15.5t39.5 46.5l38 64q35 59 110 59h25l-12 -75h-12q-20 0 -30 -6.5t-23 -28.5l-32 -54q-28 -49 -76 -55q43 -13 81 -97z" />
    <glyph glyph-name="uni049A" unicode="&#x49a;" horiz-adv-x="593" 
d="M468 0h-37l-82 176q-44 94 -79 123q-35 31 -91 31h-4l-46 -330h-94l95 682h94l-38 -277h4q64 0 99 23q34 24 72 98q43 82 79 118q19 18 41 25q37 13 97 13h15l-16 -81h-13q-48 0 -74 -21q-25 -22 -62 -97q-43 -91 -127 -120q33 -11 64 -49.5t70 -113.5l60 -115h75
l-29 -206h-89z" />
    <glyph glyph-name="uni049B" unicode="&#x49b;" horiz-adv-x="435" 
d="M317 0h-28l-31 73q-23 57 -43 87q-29 44 -63 44h-6l-28 -204h-85l62 449h88l-28 -185q33 0 54.5 13.5t42.5 48.5l38 64q35 59 110 59h25l-14 -67h-7q-18 0 -29 -9t-27 -34l-32 -54q-28 -49 -76 -55q20 -6 42.5 -34.5t38.5 -62.5l27 -58h55l-22 -173h-79z" />
    <glyph glyph-name="uni04A2" unicode="&#x4a2;" horiz-adv-x="725" 
d="M552 387l41 295h94l-84 -597h102l-29 -206h-89l16 121h-106l43 302h-369l-42 -302h-94l96 682h93l-41 -295h369z" />
    <glyph glyph-name="uni04A3" unicode="&#x4a3;" horiz-adv-x="489" 
d="M336 274l25 175h85l-53 -374h74l-22 -173h-79l13 98h-81l28 199h-183l-28 -199h-85l63 449h85l-24 -175h182z" />
    <glyph glyph-name="uni04AE" unicode="&#x4ae;" horiz-adv-x="490" 
d="M453 682h104l-239 -342l-48 -340h-90l48 340l-160 342h95l116 -250z" />
    <glyph glyph-name="uni04AF" unicode="&#x4af;" horiz-adv-x="375" 
d="M325 449h86l-202 -400l-38 -279h-85l39 277l-89 402h84l58 -285h4z" />
    <glyph glyph-name="uni04B0" unicode="&#x4b0;" horiz-adv-x="490" 
d="M453 682h104l-239 -342l-1 -7h186l-12 -85h-186l-35 -248h-90l35 248h-186l12 85h186l1 7l-160 342h95l116 -250z" />
    <glyph glyph-name="uni04B1" unicode="&#x4b1;" horiz-adv-x="375" 
d="M325 449h86l-196 -360l-2 -14h125l-10 -75h-126l-31 -230h-85l32 230h-125l11 75h125l2 12l-95 362h84l63 -255h4z" />
    <glyph glyph-name="uni04B2" unicode="&#x4b2;" horiz-adv-x="667" 
d="M545 0h-19l-177 281l-244 -281h-123l317 361l-202 321h103l162 -251l222 251h119l-292 -331l169 -266h67l-29 -206h-89z" />
    <glyph glyph-name="uni04B3" unicode="&#x4b3;" horiz-adv-x="427" 
d="M301 0h-16l-82 168l-130 -168h-104l196 238l-106 211h91l71 -151l117 151h105l-181 -222l76 -152h51l-22 -173h-79z" />
    <glyph glyph-name="uni04B6" unicode="&#x4b6;" horiz-adv-x="616" 
d="M494 0h-106l40 289q-82 -29 -139 -29q-87 0 -145 34q-66 41 -66 159q0 37 5 75l21 154h93l-18 -143q-7 -43 -7 -83q0 -62 29 -86.5t105 -24.5q56 0 134 29l44 308h94l-84 -597h102l-29 -206h-89z" />
    <glyph glyph-name="uni04B7" unicode="&#x4b7;" horiz-adv-x="454" 
d="M344 0h-81l26 191q-55 -31 -113 -31q-136 0 -136 139q0 47 18 150h85q-17 -113 -17 -146q0 -41 14.5 -57t48.5 -16q24 0 57.5 9.5t53.5 23.5l26 186h85l-53 -374h74l-22 -173h-79z" />
    <glyph glyph-name="uni04BA" unicode="&#x4ba;" horiz-adv-x="589" 
d="M178 344l-49 -344h-94l96 682h94l-35 -253q73 29 139 29q89 0 145 -35q66 -38 66 -158q0 -38 -6 -80l-25 -185h-93l23 179q7 43 7 83q0 62 -29 86.5t-105 24.5q-62 0 -134 -29z" />
    <glyph glyph-name="uni04BB" unicode="&#x4bb;" 
d="M117 682h85l-43 -305l2 -2q76 88 156 88q57 0 84 -43.5t18 -113.5l-43 -306h-85l43 311q6 41 -8.5 64.5t-42.5 23.5q-58 0 -136 -107l-41 -292h-85z" />
    <glyph glyph-name="uni04C0" unicode="&#x4c0;" horiz-adv-x="240" 
d="M135 682h94l-96 -682h-94z" />
    <glyph glyph-name="uni04CF" unicode="&#x4cf;" horiz-adv-x="188" 
d="M119 682h85l-97 -682h-85z" />
    <glyph glyph-name="uni04D8" unicode="&#x4d8;" horiz-adv-x="649" 
d="M108 508v99q104 84 252 84q115 0 185 -79q71 -79 71 -207q0 -181 -97 -297q-97 -117 -232 -117q-107 0 -175 80q-68 82 -68 208q0 2 5 55h468q7 46 7 87q0 87 -50 137q-50 51 -120 51q-58 0 -125.5 -27t-120.5 -74zM294 73q63 0 117.5 49t84.5 133h-360q3 -84 46 -133
t112 -49z" />
    <glyph glyph-name="uni04D9" unicode="&#x4d9;" horiz-adv-x="438" 
d="M52 216h280q15 84 -21 130q-36 47 -94 47q-64 0 -146 -61l12 81q68 50 150 50q85 0 136 -60q52 -58 52 -157q0 -109 -62 -185q-61 -75 -151 -75q-77 0 -124 65q-46 63 -32 165zM319 157h-188q0 -46 21 -73.5t60 -27.5q72 0 107 101z" />
    <glyph glyph-name="uni04E2" unicode="&#x4e2;" horiz-adv-x="698" 
d="M150 158l483 524h54l-96 -682h-94l75 509l-483 -509h-54l96 682h93zM268 835h322l-8 -64h-322z" />
    <glyph glyph-name="uni04E3" unicode="&#x4e3;" horiz-adv-x="479" 
d="M129 144l262 305h55l-63 -449h-85l43 285l-256 -285h-55l63 449h85zM454 635l-9 -64h-322l9 64h322z" />
    <glyph glyph-name="uni04E8" unicode="&#x4e8;" horiz-adv-x="656" 
d="M623 405q0 -181 -97 -297q-98 -117 -232 -117q-107 0 -175 80q-68 82 -68 208q0 145 83 272q41 64 106.5 102t141.5 38q108 0 174 -79q67 -79 67 -207zM158 384h371q2 32 2 37q0 89 -40 138.5t-110 49.5q-97 0 -156 -82q-46 -63 -67 -143zM517 305h-372l-2 -39
q0 -90 41.5 -141.5t111.5 -51.5q73 0 135 65t86 167z" />
    <glyph glyph-name="uni04E9" unicode="&#x4e9;" horiz-adv-x="448" 
d="M418 267q0 -123 -62 -203q-62 -78 -151 -78q-79 0 -124 53t-45 148q0 118 61 197t154 79q76 0 121.5 -53.5t45.5 -142.5zM134 262h197v10q0 56 -21.5 90t-58.5 34q-38 0 -70 -37t-47 -97zM325 197h-202l-1 -15v-4q0 -53 22.5 -86.5t56.5 -33.5q47 0 80 43q34 44 44 96z
" />
    <glyph glyph-name="uni04EE" unicode="&#x4ee;" horiz-adv-x="599" 
d="M43 682h98l156 -553l253 553h96l-331 -685q-38 -78 -84 -109.5t-110 -31.5q-30 0 -66 11q-35 11 -48 30l33 74q26 -35 92 -35q76 0 105 81zM207 835h322l-8 -64h-322z" />
    <glyph glyph-name="uni04EF" unicode="&#x4ef;" horiz-adv-x="375" 
d="M170 140l141 309h89l-322 -679h-90l122 257l-87 422h85l60 -309h2zM78 617h322l-8 -64h-322z" />
    <glyph glyph-name="Wgrave" unicode="&#x1e80;" horiz-adv-x="927" 
d="M891 682h95l-329 -686h-36l-132 482l-231 -482h-37l-161 686h86l112 -483l231 483h35l133 -491zM352 879h143l74 -150h-51z" />
    <glyph glyph-name="wgrave" unicode="&#x1e81;" horiz-adv-x="615" 
d="M564 449h83l-231 -458h-40l-59 294l-153 -294h-39l-93 458h83l55 -293l147 293h42l57 -293zM250 657h101l68 -146h-56z" />
    <glyph glyph-name="Wacute" unicode="&#x1e82;" horiz-adv-x="927" 
d="M891 682h95l-329 -686h-36l-132 482l-231 -482h-37l-161 686h86l112 -483l231 483h35l133 -491zM541 879h145l-166 -150h-52z" />
    <glyph glyph-name="wacute" unicode="&#x1e83;" horiz-adv-x="615" 
d="M564 449h83l-231 -458h-40l-59 294l-153 -294h-39l-93 458h83l55 -293l147 293h42l57 -293zM292 511l68 146h101l-113 -146h-56z" />
    <glyph glyph-name="Wdieresis" unicode="&#x1e84;" horiz-adv-x="927" 
d="M891 682h95l-329 -686h-36l-132 482l-231 -482h-37l-161 686h86l112 -483l231 483h35l133 -491zM586 842q16 16 38 16t37 -16q16 -15 16 -37t-16 -38q-15 -15 -37 -15t-38 15q-15 16 -15 38t15 37zM471 805q0 -21 -15 -37t-38 -16q-35 0 -48.5 33t10.5 57
q26 25 58.5 11.5t32.5 -48.5z" />
    <glyph glyph-name="wdieresis" unicode="&#x1e85;" horiz-adv-x="615" 
d="M564 449h83l-231 -458h-40l-59 294l-153 -294h-39l-93 458h83l55 -293l147 293h42l57 -293zM234 618q19 21 44.5 12t32.5 -32.5t-12 -44.5q-13 -13 -32 -13t-33 13q-13 14 -13 33t13 32zM422 618q19 21 44.5 12t32.5 -32.5t-12 -44.5q-13 -13 -32 -13t-33 13
q-13 14 -13 33t13 32z" />
    <glyph glyph-name="Ygrave" unicode="&#x1ef2;" horiz-adv-x="490" 
d="M445 682h104l-238 -342l-49 -340h-91l49 340l-161 342h95l117 -250zM134 879h143l74 -150h-51z" />
    <glyph glyph-name="ygrave" unicode="&#x1ef3;" horiz-adv-x="375" 
d="M311 449h89l-323 -679h-89l122 257l-85 422h85l59 -300zM130 657h101l68 -146h-56z" />
    <glyph glyph-name="endash" unicode="&#x2013;" horiz-adv-x="500" 
d="M-9 282h518v-63h-518v63z" />
    <glyph glyph-name="emdash" unicode="&#x2014;" horiz-adv-x="1000" 
d="M-9 285h1018v-64h-1018v64z" />
    <glyph glyph-name="quoteleft" unicode="&#x2018;" horiz-adv-x="198" 
d="M237 689l-7 -44q-61 -19 -66 -86q40 -15 40 -52q0 -25 -18 -41.5t-43 -16.5q-29 0 -47.5 22.5t-18.5 56.5q0 50 39 96q40 47 121 65z" />
    <glyph glyph-name="quoteright" unicode="&#x2019;" horiz-adv-x="198" 
d="M60 449l6 45q66 22 66 85q-40 18 -40 53q0 26 18 42.5t43 16.5q29 0 47.5 -22.5t18.5 -56.5q0 -51 -40 -98q-39 -48 -119 -65z" />
    <glyph glyph-name="quotesinglbase" unicode="&#x201a;" horiz-adv-x="198" 
d="M-24 -146l6 44q66 21 66 86q-39 17 -39 53q0 26 18 42.5t43 16.5q29 0 47 -22.5t18 -56.5q0 -52 -40 -98q-39 -48 -119 -65z" />
    <glyph glyph-name="quotedblleft" unicode="&#x201c;" horiz-adv-x="406" 
d="M439 691l-7 -44q-61 -19 -66 -86q40 -15 40 -52q0 -25 -18 -41.5t-43 -16.5q-29 0 -47.5 22.5t-18.5 56.5q0 50 39 96q40 47 121 65zM224 691l-6 -44q-62 -19 -67 -86q40 -15 40 -52q0 -25 -18 -41.5t-43 -16.5q-29 0 -47.5 22.5t-18.5 56.5q0 50 39 96q40 47 121 65z
" />
    <glyph glyph-name="quotedblright" unicode="&#x201d;" horiz-adv-x="406" 
d="M62 449l6 45q66 22 66 85q-40 18 -40 53q0 26 18 42.5t43 16.5q29 0 47.5 -22.5t18.5 -56.5q0 -51 -40 -98q-39 -48 -119 -65zM277 449l6 45q66 22 66 85q-40 18 -40 53q0 26 18 42.5t43 16.5q30 0 48 -22.5t18 -56.5q0 -52 -40 -99q-40 -48 -119 -64z" />
    <glyph glyph-name="quotedblbase" unicode="&#x201e;" horiz-adv-x="406" 
d="M-25 -144l7 44q66 22 66 86q-40 16 -40 52q0 26 18.5 42t42.5 16q30 0 48 -22t18 -56q0 -50 -39 -96q-39 -48 -121 -66zM190 -144l7 44q66 22 66 86q-40 16 -40 52q0 26 18.5 42t42.5 16q29 0 47.5 -22.5t18.5 -55.5q0 -50 -39 -96q-39 -48 -121 -66z" />
    <glyph glyph-name="dagger" unicode="&#x2020;" horiz-adv-x="479" 
d="M273 381q2 -74 -9 -221q-9 -152 -22 -238q-10 -67 -20 -100q-16 -52 -50 -52q-19 0 -30 19t-11 49q0 80 44 270q47 197 70 273q-95 -29 -137 -29q-26 0 -42 12.5t-16 27.5q0 18 18.5 29.5t44.5 11.5t96 -17q23 -8 36 -11q-5 122 -5 137q0 21 4 54q10 91 56 95
q39 0 39 -62q0 -85 -66 -224q81 29 140 29q23 0 40.5 -11t17.5 -28q0 -18 -15 -29q-22 -14 -49 -14q-24 0 -71 11q-44 11 -63 18z" />
    <glyph glyph-name="daggerdbl" unicode="&#x2021;" horiz-adv-x="458" 
d="M267 405q-7 -69 -7 -85q0 -2 0.5 -6.5t1 -12.5t0.5 -16t0.5 -16t1 -12t0.5 -5q0 -33 -22 -98l-28 -100q81 27 131 27q54 0 54 -38q0 -41 -63 -41q-59 0 -122 29q4 -113 4 -129q0 -132 -59 -132q-20 0 -30 15.5t-10 36.5q0 60 69 209q-80 -30 -123 -30q-70 0 -70 37
q0 19 18.5 31t48.5 12q45 0 126 -27q7 35 7 72t-4 62q0 1 -1 14t-1 18q0 19 30 103l5 15l17 67q-81 -28 -126 -28q-26 1 -41 10t-18 17t-2 15q0 17 16.5 30.5t44.5 13.5q48 0 126 -33q-4 60 -4 131q0 130 56 130q42 0 42 -53q0 -48 -34 -131q-24 -61 -34 -77q69 33 129 33
q62 0 62 -40q0 -43 -68 -43q-52 0 -123 25z" />
    <glyph glyph-name="bullet" unicode="&#x2022;" horiz-adv-x="354" 
d="M66 341q0 52 36 88t87 36q52 0 88 -37q36 -36 36 -87q0 -52 -37 -88q-36 -36 -87 -36t-87 36q-36 37 -36 88z" />
    <glyph glyph-name="ellipsis" unicode="&#x2026;" horiz-adv-x="1000" 
d="M834 110q25 0 42.5 -18t17.5 -43t-17.5 -43t-42.5 -18q-26 0 -43.5 18t-17.5 43t17.5 43t43.5 18zM500 109q25 0 43 -17.5t18 -43.5q0 -25 -18 -43t-43 -18t-43 18t-18 43q0 26 17.5 43.5t43.5 17.5zM166 108q26 0 43.5 -18t17.5 -43t-18 -43t-43 -18t-42.5 18t-17.5 43
t17.5 43t42.5 18z" />
    <glyph glyph-name="perthousand" unicode="&#x2030;" horiz-adv-x="1010" 
d="M378 252q45 45 108 45q64 0 107 -45q45 -44 45 -107t-45 -108q-44 -44 -107 -44q-62 0 -108 44q-44 46 -44 108q0 63 44 107zM486 223q-32 0 -55 -22.5t-23 -55.5t23 -56t55 -23q33 0 56 23t23 56t-23 55.5t-56 22.5zM317 537q0 -62 -45 -107q-44 -45 -107 -45t-108 45
q-44 46 -44 107q0 64 44 108q45 45 108 45t107 -45q45 -45 45 -108zM85 537q0 -32 23 -55.5t56 -23.5t56 23.5t23 55.5q0 33 -23.5 56t-55.5 23t-55.5 -23t-23.5 -56zM846 297q62 0 107 -45q45 -43 45 -107q0 -63 -45 -108q-44 -44 -107 -44q-62 0 -108 44q-44 46 -44 108
q0 63 44 107q45 45 108 45zM846 223q-33 0 -56 -22.5t-23 -55.5t23 -56t56 -23q32 0 55 23t23 56t-23 55.5t-55 22.5zM511 692h75l-449 -701h-76z" />
    <glyph glyph-name="guilsinglleft" unicode="&#x2039;" horiz-adv-x="229" 
d="M178 449h78l-174 -235l84 -214h-67l-89 224z" />
    <glyph glyph-name="guilsinglright" unicode="&#x203a;" horiz-adv-x="229" 
d="M60 449h68l89 -226l-165 -223h-79l172 232z" />
    <glyph glyph-name="fraction" unicode="&#x2044;" horiz-adv-x="208" 
d="M342 691h68l-542 -718h-69z" />
    <glyph glyph-name="Euro" unicode="&#x20ac;" horiz-adv-x="575" 
d="M224 440h282l-14 -72h-292q-7 -46 -8 -53h290l-14 -72h-276q1 -35 22 -92q29 -74 117 -74q87 0 191 66l-13 -105q-102 -47 -185 -47q-53 0 -104 26q-105 48 -122 226h-73l14 72h59q1 19 7 53h-80l14 72h87q33 88 97 146q116 105 278 105q45 0 102 -10l-16 -87
q-50 10 -93 10q-90 0 -161.5 -42t-108.5 -122z" />
    <glyph glyph-name="uni20B4" unicode="&#x20b4;" horiz-adv-x="521" 
d="M162 571l14 93q70 27 133 27q73 0 123 -39q50 -38 50 -101q0 -59 -34 -111h53l-14 -72h-106q-9 -8 -76 -53h173l-14 -72h-254q-62 -53 -62 -103q0 -32 29 -49q29 -16 60 -16q66 0 179 65l-15 -100q-97 -49 -179 -49q-77 0 -122 37.5t-45 94.5q0 65 38 120h-56l14 72h110
q9 7 39.5 27t38.5 26h-179l14 72h260q54 46 54 94q0 34 -25 53.5t-70 19.5q-64 0 -131 -36z" />
    <glyph glyph-name="afii61289" unicode="&#x2113;" horiz-adv-x="464" 
d="M351 100l29 -54q-58 -60 -124 -60q-53 0 -86 33q-39 39 -39 125v96l-53 -59l-34 45l87 95v224q0 89 35 136t94 47q50 0 76 -32t26 -79q0 -119 -111 -263l-29 -37v-168q0 -92 56 -92q34 0 73 43zM303 606q0 50 -35 50q-46 0 -46 -101v-150q6 7 14 20q67 95 67 181z" />
    <glyph glyph-name="afii61352" unicode="&#x2116;" horiz-adv-x="1088" 
d="M172 685l363 -527l55 417q9 59 47.5 94t107.5 35h77l-12 -88h-59q-34 0 -51 -17t-22 -58l-76 -541h-48l-365 511l-73 -511h-92l95 685h53zM807 311q0 -35 22 -58t63 -23q39 0 73 29q34 28 34 79q0 92 -87 92q-45 0 -75 -35t-30 -84zM922 493q62 0 103 -42q41 -41 41 -100
q0 -86 -57 -134t-125 -48q-62 0 -104 39q-41 39 -41 97q0 79 51 133q51 55 132 55zM1024 67h-310l7 52h310z" />
    <glyph glyph-name="trademark" unicode="&#x2122;" horiz-adv-x="1000" 
d="M326 285h-66v338h-129v59h325v-59h-130v-338zM561 285h-60v397h97l101 -318l97 318h96v-397h-61v333l-103 -333h-59l-108 338v-338z" />
    <glyph glyph-name="Omega" unicode="&#x2126;" horiz-adv-x="680" 
d="M8 0l14 87h152q-31 23 -72 75q-51 67 -51 169q0 73 30 144.5t87 128.5q87 87 211 87q84 0 145.5 -44.5t89 -106t27.5 -126.5q0 -123 -52 -197q-52 -75 -142 -130h149l-14 -87h-230l14 88q99 79 140 151q42 71 42 164q0 55 -18 102q-37 103 -148 103q-73 0 -130 -45
q-55 -43 -83 -104.5t-28 -126.5q1 -72 27.5 -127.5t83.5 -116.5l-14 -88h-230z" />
    <glyph glyph-name="estimated" unicode="&#x212e;" horiz-adv-x="637" 
d="M577 272h-420v-187q60 -60 149 -60q128 0 200 123l35 -21q-47 -71 -102.5 -105t-132.5 -34q-120 0 -193 81q-73 80 -73 203q0 122 72 203q74 81 194 81q123 0 194 -80q73 -80 77 -204zM157 309h299v148q-61 64 -151 64q-88 0 -148 -62v-150z" />
    <glyph glyph-name="onethird" unicode="&#x2153;" horiz-adv-x="844" 
d="M648 691h67l-541 -718h-69zM519 16l8 49q54 -22 94 -22t60 18t20 45q0 28 -21.5 42t-52.5 11l7 47q89 8 89 61q0 18 -12.5 29t-23 13t-20.5 2q-43 0 -87 -27l9 59q49 17 86 17q51 0 84 -25t33 -66q0 -61 -77 -87q53 -23 53 -75q0 -46 -38.5 -79t-104.5 -33q-46 0 -106 21
zM199 687h65l-64 -355h-65z" />
    <glyph glyph-name="twothirds" unicode="&#x2154;" horiz-adv-x="844" 
d="M144 380h151l-8 -48h-260q11 9 67 70q41 46 76 87q66 81 66 113q0 38 -51 38q-42 0 -95 -35l9 60q54 26 96 26q47 0 75.5 -23.5t28.5 -60.5q0 -46 -49 -107q-36 -47 -106 -120zM666 691h67l-541 -718h-70zM519 16l8 49q54 -22 94 -22t60 18t20 45q0 28 -21.5 42t-52.5 11
l7 47q89 8 89 61q0 18 -12.5 29t-23 13t-20.5 2q-43 0 -87 -27l9 59q49 17 86 17q51 0 84 -24.5t33 -67.5q0 -60 -74 -86q50 -21 50 -75q0 -46 -38.5 -79t-104.5 -33q-46 0 -106 21z" />
    <glyph glyph-name="oneeighth" unicode="&#x215b;" horiz-adv-x="844" 
d="M743 185q49 -22 49 -72q0 -47 -39 -83q-40 -35 -106 -35q-53 0 -85.5 28t-32.5 71q0 71 82 98q-42 24 -42 66t36.5 72t90.5 30q48 0 79.5 -26.5t31.5 -63.5q0 -61 -64 -85zM744 268q0 17 -13.5 30t-36.5 13q-27 0 -44 -16t-17 -40q0 -21 14 -32.5t36 -11.5q28 0 44.5 17
t16.5 40zM728 111q0 25 -17 38t-42 13q-33 0 -54.5 -20t-21.5 -48q0 -25 18 -38t42 -13q31 0 53 19.5t22 48.5zM654 691h67l-541 -718h-69zM199 687h65l-64 -355h-65z" />
    <glyph glyph-name="threeeighths" unicode="&#x215c;" horiz-adv-x="844" 
d="M611 192q-42 22 -42 66q0 42 36.5 72t90.5 30q48 0 79.5 -26t31.5 -65q0 -29 -21 -57q-4 -4 -29 -20l-8 -6l5 -4q5 -5 11 -10t7 -6q20 -23 20 -53q0 -46 -39 -82t-106 -36q-53 0 -85.5 28t-32.5 71q0 70 82 98zM744 268q0 17 -13.5 30t-36.5 13q-27 0 -44 -16t-17 -40
q0 -21 14 -32.5t36 -11.5q28 0 44.5 17t16.5 40zM728 111q0 25 -17 38t-42 13q-33 0 -54.5 -20t-21.5 -48q0 -25 18 -38t42 -13q31 0 53 19.5t22 48.5zM44 348l8 49q51 -22 93 -22q41 0 61 18t20 45q0 28 -21.5 41.5t-53.5 11.5l8 46q28 4 51 11q38 14 38 50q-2 26 -21.5 36
t-35.5 9q-43 0 -87 -27l10 58q45 17 86 17q50 0 83 -24t33 -67q0 -60 -74 -86q50 -21 50 -75q0 -47 -38.5 -79.5t-104.5 -32.5q-51 0 -105 21zM660 691h67l-541 -718h-72z" />
    <glyph glyph-name="fiveeighths" unicode="&#x215d;" horiz-adv-x="844" 
d="M743 185q49 -22 49 -72q0 -47 -39 -83q-40 -35 -106 -35q-53 0 -85.5 28t-32.5 71q0 70 82 98q-42 22 -42 66q0 42 36.5 72t90.5 30q48 0 79.5 -26.5t31.5 -63.5q0 -61 -64 -85zM744 268q0 17 -13.5 30t-36.5 13q-27 0 -44 -16t-17 -40q0 -21 14 -32.5t36 -11.5
q28 0 44.5 17t16.5 40zM728 111q0 25 -17 38t-42 13q-33 0 -54.5 -20t-21.5 -48q0 -25 18 -38t42 -13q31 0 53 19.5t22 48.5zM148 687h175l-10 -50h-115l-15 -81q50 -3 82 -30.5t32 -72.5q0 -49 -40 -88q-41 -38 -116 -38q-60 0 -103 29l21 47q44 -27 82 -27q40 0 64.5 21
t24.5 53q0 29 -21.5 44t-54.5 15q-11 0 -44 -5zM666 691h67l-541 -718h-70z" />
    <glyph glyph-name="seveneighths" unicode="&#x215e;" horiz-adv-x="844" 
d="M743 185q49 -22 49 -72q0 -47 -39 -83q-40 -35 -106 -35q-53 0 -85.5 28t-32.5 71q0 70 82 98q-42 22 -42 66q0 42 36.5 72t90.5 30q48 0 79.5 -26.5t31.5 -63.5q0 -61 -64 -85zM744 268q0 17 -13.5 30t-36.5 13q-27 0 -44 -16t-17 -40q0 -21 14 -32.5t36 -11.5
q28 0 44.5 17t16.5 40zM728 111q0 25 -17 38t-42 13q-33 0 -54.5 -20t-21.5 -48q0 -25 18 -38t42 -13q31 0 53 19.5t22 48.5zM103 687h244l-190 -360h-67l165 309h-160zM648 691h67l-541 -718h-69z" />
    <glyph glyph-name="partialdiff" unicode="&#x2202;" horiz-adv-x="537" 
d="M508 482q0 -92 -24 -193q-32 -126 -100 -212q-69 -87 -168 -87q-81 0 -130 52q-50 53 -50 136q0 141 76 229q77 89 176 89q40 0 71 -17t46 -44h2q5 55 5 67q0 75 -32 113t-91 38q-45 0 -86 -23l-22 67q49 31 120 31q97 0 152 -64t55 -182zM396 352q-22 73 -96 73
q-66 0 -116 -75q-49 -74 -49 -178q0 -49 22 -77.5t59 -28.5q63 0 111 80q48 79 69 206z" />
    <glyph glyph-name="increment" unicode="&#x2206;" horiz-adv-x="521" 
d="M264 686h86l137 -686h-522zM97 86h284l-89 457z" />
    <glyph glyph-name="product" unicode="&#x220f;" horiz-adv-x="667" 
d="M593 700v-930h-100v844h-318v-844h-100v930h518z" />
    <glyph glyph-name="summation" unicode="&#x2211;" horiz-adv-x="589" 
d="M535 -149v-81h-510v49l280 420l-260 406v55h469v-81h-353l244 -378l-260 -390h390z" />
    <glyph glyph-name="minus" unicode="&#x2212;" horiz-adv-x="583" 
d="M544 382v-82h-473v82h473z" />
    <glyph glyph-name="uni2215" unicode="&#x2215;" horiz-adv-x="208" 
d="M342 691h68l-542 -718h-69z" />
    <glyph glyph-name="uni2219" unicode="&#x2219;" horiz-adv-x="260" 
d="M130 360q23 0 38.5 -16t15.5 -39q0 -22 -16 -38t-38 -16t-38 16t-16 38q0 23 16 39t38 16z" />
    <glyph glyph-name="radical" unicode="&#x221a;" horiz-adv-x="461" 
d="M404 728h70l-160 -740h-86l-118 323l-51 -32l-33 53l129 84l115 -314z" />
    <glyph glyph-name="infinity" unicode="&#x221e;" horiz-adv-x="723" 
d="M522 128q-50 0 -94 27t-71 74h-2q-69 -101 -161 -101q-66 0 -113 44t-47 119t46 118q46 45 112 45q100 0 163 -100h2q27 44 69 72t93 28q68 0 114 -46q46 -45 46 -115t-45 -118q-45 -47 -112 -47zM599 293q0 40 -23 65.5t-63 25.5q-64 0 -120 -92q49 -94 120 -94
q40 0 63 27t23 68zM319 292q-54 92 -120 92q-40 0 -63 -26.5t-23 -67.5q0 -39 24.5 -65.5t61.5 -26.5q68 0 120 94z" />
    <glyph glyph-name="integral" unicode="&#x222b;" horiz-adv-x="462" 
d="M403 736l-20 -71q-15 7 -39 7q-71 0 -71 -91v-631q0 -82 -40 -129t-116 -47q-44 0 -71 11l18 72q16 -6 39 -6q71 0 71 90v631q0 83 41.5 130t118.5 47q50 0 69 -13z" />
    <glyph glyph-name="approxequal" unicode="&#x2248;" horiz-adv-x="583" 
d="M469 482l54 -61q-57 -86 -134 -86q-55 0 -104 31q-53 32 -88 32q-44 0 -82 -65l-54 61q29 44 60.5 65t73.5 21q53 0 103 -31q53 -32 89 -32q46 0 82 65zM469 258l54 -60q-56 -86 -134 -86q-55 0 -104 31q-53 32 -88 32q-44 0 -82 -65l-54 61q29 44 60.5 65t73.5 21
q53 0 103 -31q53 -32 89 -32q45 0 82 64z" />
    <glyph glyph-name="notequal" unicode="&#x2260;" horiz-adv-x="583" 
d="M499 226v-82h-233l-52 -117h-89l53 117h-94v82h131l64 142h-195v82h232l56 127h89l-57 -127h95v-82h-132l-64 -142h196z" />
    <glyph glyph-name="lessequal" unicode="&#x2264;" horiz-adv-x="583" 
d="M499 82v-82h-415v82h415zM499 224v-86l-415 186v68l415 186v-87l-306 -132v-2z" />
    <glyph glyph-name="greaterequal" unicode="&#x2265;" horiz-adv-x="583" 
d="M499 82v-82h-415v82h415zM499 393v-69l-415 -185v87l306 132v2l-306 132v87z" />
    <glyph glyph-name="lozenge" unicode="&#x25ca;" horiz-adv-x="516" 
d="M269 700l182 -350l-182 -350h-48l-181 349l181 351h48zM245 95l131 255l-131 255l-130 -255z" />
    <glyph glyph-name="NULL" horiz-adv-x="0" 
 />
    <glyph glyph-name="CR" horiz-adv-x="333" 
 />
    <glyph glyph-name="ampersand.sc" horiz-adv-x="462" 
d="M440 70l-32 -71q-12 -5 -23 -5q-23 0 -50.5 13.5t-47.5 34.5q-66 -48 -138 -48q-64 0 -100.5 39t-36.5 100q0 41 28 79.5t74 62.5q-22 48 -22 94q0 50 32 85q33 35 82 35q40 0 68.5 -30.5t28.5 -73.5q0 -81 -93 -137q29 -48 79 -109q35 38 65 113h78q-41 -108 -92 -162
q34 -29 68 -29q8 0 32 9zM163 367q0 -24 14 -57q51 30 51 72q0 17 -9 27t-22 10t-23.5 -15t-10.5 -37zM149 211q-58 -36 -58 -79q0 -31 20 -50.5t52 -19.5q30 0 74 29q-48 56 -88 120z" />
    <glyph glyph-name="zero.oldstyle" horiz-adv-x="510" 
d="M475 261q0 -117 -70 -193q-71 -77 -180 -77q-91 0 -147 56q-54 55 -54 144q0 63 27 123q27 62 87 105q62 44 142 44q93 0 144 -58q51 -57 51 -144zM381 272q0 48 -29.5 78.5t-77.5 30.5q-59 0 -107 -50q-48 -49 -48 -136q0 -56 31 -89.5t82 -33.5q68 0 108.5 55t40.5 145
z" />
    <glyph glyph-name="one.oldstyle" horiz-adv-x="362" 
d="M215 0h-88l51 326l-143 -82l16 95l198 124h37z" />
    <glyph glyph-name="two.oldstyle" horiz-adv-x="484" 
d="M73 331l17 93q72 39 153 39q56 3 100.5 -28t45.5 -97q0 -75 -59 -148q-28 -34 -51 -57q-24 -24 -55 -51h178l-11 -82h-365l125 113q73 66 113 125q29 44 29 79q0 33 -25.5 49t-62.5 16q-73 0 -132 -51z" />
    <glyph glyph-name="three.oldstyle" horiz-adv-x="448" 
d="M91 77l194 294h-236l12 83h378l-218 -319q53 -7 87 -39q57 -50 57 -125q0 -70 -51 -130q-59 -72 -182 -72q-78 0 -169 39l13 83q93 -40 159 -40q62 0 100 34.5t38 82.5q0 50 -41.5 81t-103.5 31q-13 0 -37 -3z" />
    <glyph glyph-name="four.oldstyle" horiz-adv-x="500" 
d="M428 463l-63 -390h111l-12 -73h-111l-40 -231h-80l39 231h-284v33l404 430h36zM328 305l-212 -232h169z" />
    <glyph glyph-name="five.oldstyle" horiz-adv-x="468" 
d="M190 454h244l-14 -83h-173l-61 -207q90 -7 141.5 -55.5t51.5 -122.5q0 -95 -69 -157q-68 -61 -178 -61q-84 0 -167 46l29 74q74 -40 144 -40q74 0 111 37q39 36 39 81q0 55 -45 91q-40 29 -112 29q-5 0 -51 -2z" />
    <glyph glyph-name="six.oldstyle" horiz-adv-x="475" 
d="M283 682l76 -38l-174 -253q40 26 94 26q75 0 118 -49q43 -47 43 -114q0 -62 -27 -121q-26 -59 -81 -101q-56 -41 -124 -41q-90 0 -137 59t-47 139q0 66 32 138q33 70 125 206zM348 237q0 48 -25 74t-68 26q-58 0 -99 -44q-40 -43 -40 -107q0 -49 26 -79t70 -30
q57 0 96 48q40 49 40 112z" />
    <glyph glyph-name="seven.oldstyle" horiz-adv-x="465" 
d="M341 371h-274l13 83h391l-319 -686l-87 37z" />
    <glyph glyph-name="eight.oldstyle" horiz-adv-x="521" 
d="M361 362q102 -41 102 -148q0 -88 -63 -155q-63 -68 -172 -68q-90 0 -141 55q-51 56 -51 129q0 79 47 126q18 19 44 33q32 18 67 27q-45 26 -67 57t-22 81q0 77 57 134q58 58 148 58q81 0 129 -50q49 -49 49 -118q0 -53 -31 -97t-96 -64zM306 608q-49 0 -82 -35
q-32 -35 -32 -80q0 -42 27 -67.5t69 -25.5q55 0 84 38t29 77q0 40 -26.5 66.5t-68.5 26.5zM373 211q0 50 -30.5 78t-78.5 28q-61 0 -100 -42q-38 -43 -38 -98q0 -52 35 -78t76 -26q55 0 95 39q41 41 41 99z" />
    <glyph glyph-name="nine.oldstyle" horiz-adv-x="476" 
d="M175 -231l-70 49l179 246q-47 -29 -99 -29q-81 0 -121 52t-40 111q0 100 69 183q69 82 170 82q47 0 83 -17.5t55.5 -47t29 -62t9.5 -68.5q0 -68 -30 -140q-30 -70 -105 -177zM348 265q0 55 -25.5 82.5t-68.5 27.5q-58 0 -98 -51q-40 -50 -40 -113q0 -49 25.5 -73
t64.5 -24q58 0 100 45t42 106z" />
    <glyph glyph-name="a.sc" horiz-adv-x="415" 
d="M364 0h-74l-27 146h-127l-60 -146h-79l206 485h70zM251 213l-27 152l-61 -152h88z" />
    <glyph glyph-name="b.sc" horiz-adv-x="352" 
d="M157 0h-149l65 483h73q73 0 112 -35t39 -92q0 -58 -50 -91q81 -37 81 -126q0 -64 -49 -101q-49 -38 -122 -38zM140 412l-15 -115h22q33 0 52.5 16.5t19.5 43.5q0 59 -79 55zM151 227h-36l-21 -157h57q99 0 99 72q0 36 -29 60.5t-70 24.5z" />
    <glyph glyph-name="c.sc" horiz-adv-x="388" 
d="M392 489l-16 -77h-40q-64 0 -112 -20.5t-73 -54t-36.5 -68t-11.5 -69.5q0 -60 30 -95t80 -35q68 0 145 64l-14 -102q-67 -38 -140 -38q-81 0 -132 56q-50 58 -50 146q0 127 86 210t230 83h54z" />
    <glyph glyph-name="d.sc" horiz-adv-x="430" 
d="M165 0h-157l66 483h61q121 0 197 -62q76 -61 76 -180q0 -103 -60 -172t-183 -69zM155 409h-12l-46 -336h44q59 0 88.5 9t53.5 33q44 42 44 128q0 84 -55 124q-54 42 -117 42z" />
    <glyph glyph-name="e.sc" horiz-adv-x="372" 
d="M331 73l-10 -73h-313l68 483h255l-10 -73h-179l-18 -128h159l-10 -73h-159l-19 -136h236z" />
    <glyph glyph-name="f.sc" horiz-adv-x="289" 
d="M304 483l-9 -73h-156l-17 -128h143l-11 -73h-143l-28 -209h-78l68 483h231z" />
    <glyph glyph-name="g.sc" horiz-adv-x="436" 
d="M428 481l-9 -73q-55 7 -88 7q-118 0 -177 -72q-50 -62 -50 -134q0 -64 33.5 -103t87.5 -39q36 0 79 20l8 66h-64l9 67h142l-25 -182q-83 -44 -153 -44q-95 0 -147 63q-52 62 -52 150q0 94 67 182q36 46 101.5 73t149.5 27q19 0 88 -8z" />
    <glyph glyph-name="h.sc" horiz-adv-x="468" 
d="M460 483l-66 -483h-80l28 206h-226l-28 -206h-80l66 483h79l-27 -201h226l28 201h80z" />
    <glyph glyph-name="i.sc" horiz-adv-x="158" 
d="M150 483l-64 -483h-78l64 483h78z" />
    <glyph glyph-name="j.sc" horiz-adv-x="169" 
d="M161 483l-69 -511q-18 -131 -124 -131q-18 0 -50 6l-18 77q41 -9 55 -9q28 0 42.5 14.5t18.5 49.5l68 504h77z" />
    <glyph glyph-name="k.sc" horiz-adv-x="398" 
d="M395 483l-216 -225l208 -258h-94l-175 230l-31 -230h-79l66 483h79l-28 -185l177 185h93z" />
    <glyph glyph-name="l.sc" horiz-adv-x="309" 
d="M275 70l-9 -70h-258l65 483h77l-58 -413h183z" />
    <glyph glyph-name="m.sc" horiz-adv-x="556" 
d="M503 0h-78v327l-173 -327l-81 332l-104 -332h-78l155 483h65l70 -281l150 281h74v-483z" />
    <glyph glyph-name="n.sc" horiz-adv-x="459" 
d="M451 483l-66 -483h-45l-214 324l-44 -324h-74l66 483h43l215 -327l44 327h75z" />
    <glyph glyph-name="o.sc" horiz-adv-x="439" 
d="M191 -6q-76 0 -122 58q-47 59 -47 147q0 99 56 191q28 45 73 72t98 27q75 0 122 -57q46 -56 46 -147q0 -126 -67 -208q-66 -83 -159 -83zM249 415q-67 0 -108 -71q-40 -70 -40 -154q0 -57 24.5 -88.5t67.5 -31.5q58 0 102 65q44 67 44 161q0 57 -24 88t-66 31z" />
    <glyph glyph-name="p.sc" horiz-adv-x="324" 
d="M160 196h-46l-27 -196h-79l65 483h85q64 0 109 -33q45 -32 45 -108q0 -52 -38 -99t-114 -47zM161 410h-18l-19 -141h33q37 0 57 21.5t20 53.5q0 30 -18 48t-55 18z" />
    <glyph glyph-name="q.sc" horiz-adv-x="439" 
d="M310 -135q-52 0 -93.5 34t-62.5 101q-62 15 -97 70t-35 137q0 61 24 124q24 64 78 110q54 48 124 48q79 0 124.5 -55t45.5 -150q0 -106 -49 -182q-48 -77 -130 -101q11 -29 33.5 -45.5t50.5 -16.5q24 0 46 17t33 50h26q-3 -63 -33 -102t-85 -39zM250 415q-49 0 -85 -41
q-64 -71 -64 -183q0 -120 96 -120q57 0 99 63q43 64 43 158q0 60 -23.5 91.5t-65.5 31.5z" />
    <glyph glyph-name="r.sc" horiz-adv-x="365" 
d="M354 0h-84l-53 116q-27 58 -43 73q-16 16 -43 16h-16l-27 -205h-80l65 483h89q83 0 122 -36q40 -37 40 -99q0 -41 -22.5 -72.5t-61.5 -45.5q18 -20 28 -44zM170 410h-27l-17 -132h21q49 0 72 20t23 53q0 59 -72 59z" />
    <glyph glyph-name="s.sc" horiz-adv-x="322" 
d="M293 467l-11 -84q-46 31 -86 31q-31 0 -51 -17q-50 -46 26 -111q7 -7 18 -16l20 -17q25 -20 35 -36q1 -2 7.5 -10.5t11 -16.5t6.5 -14q9 -29 9 -51q0 -50 -38 -91q-37 -40 -104 -40q-55 0 -117 38l12 88q71 -51 111 -51q22 0 40 14t18 37q0 32 -47 73l-28 24
q-39 33 -58 64.5t-19 71.5q0 61 46 98q47 38 107 38q45 0 92 -22z" />
    <glyph glyph-name="t.sc" horiz-adv-x="365" 
d="M383 483l-10 -76h-126l-56 -407h-79l55 407h-126l10 76h332z" />
    <glyph glyph-name="u.sc" horiz-adv-x="433" 
d="M439 483l-40 -297q-13 -95 -63.5 -143.5t-132.5 -48.5t-127.5 50.5t-34.5 131.5l42 307h78l-43 -315q-6 -47 19 -74t69 -27q48 0 80 33q24 24 36 108l37 275h80z" />
    <glyph glyph-name="v.sc" horiz-adv-x="397" 
d="M411 483l-228 -487h-36l-91 487h76l55 -307l142 307h82z" />
    <glyph glyph-name="w.sc" horiz-adv-x="682" 
d="M696 483l-228 -487h-35l-83 313l-146 -313h-37l-111 487h75l70 -313l145 313h36l84 -318l147 318h83z" />
    <glyph glyph-name="x.sc" horiz-adv-x="518" 
d="M514 483l-202 -236l152 -247h-92l-113 185l-157 -185h-105l219 256l-139 227h89l104 -165l141 165h103z" />
    <glyph glyph-name="y.sc" horiz-adv-x="380" 
d="M398 483l-166 -246l-32 -237h-77l33 239l-110 244h82l72 -162l108 162h90z" />
    <glyph glyph-name="z.sc" horiz-adv-x="461" 
d="M471 483l-329 -407h259l-10 -76h-406l327 407h-248l10 76h397z" />
    <glyph glyph-name="lslash.sc" horiz-adv-x="309" 
d="M92 70h183l-9 -70h-258l26 193l-46 -31l7 61l47 32l31 228h77l-24 -171l124 85l-9 -62l-124 -85z" />
    <glyph glyph-name="scaron.sc" horiz-adv-x="322" 
d="M293 467l-11 -84q-46 31 -86 31q-31 0 -51 -17q-50 -46 26 -111q7 -7 18 -16l20 -17q25 -20 35 -36q1 -2 7.5 -10.5t11 -16.5t6.5 -14q9 -29 9 -51q0 -50 -38 -91q-37 -40 -104 -40q-55 0 -117 38l12 88q71 -51 111 -51q22 0 40 14t18 37q0 32 -47 73l-28 24
q-39 33 -58 64.5t-19 71.5q0 61 46 98q47 38 107 38q45 0 92 -22zM346 688h59l-136 -151h-123l-70 151h50l82 -86z" />
    <glyph glyph-name="zcaron.sc" horiz-adv-x="461" 
d="M471 483l-329 -407h259l-10 -76h-406l327 407h-248l10 76h397zM415 688h59l-136 -151h-123l-70 151h50l82 -86z" />
    <glyph glyph-name="agrave.sc" horiz-adv-x="415" 
d="M364 0h-74l-27 146h-127l-60 -146h-79l206 485h70zM251 213l-27 152l-61 -152h88zM113 686h144l74 -149h-51z" />
    <glyph glyph-name="aacute.sc" horiz-adv-x="415" 
d="M364 0h-74l-27 146h-127l-60 -146h-79l206 485h70zM251 213l-27 152l-61 -152h88zM258 688h145l-166 -151h-52z" />
    <glyph glyph-name="acircumflex.sc" horiz-adv-x="415" 
d="M364 0h-74l-27 146h-127l-60 -146h-79l206 485h70zM251 213l-27 152l-61 -152h88zM336 688l68 -151h-48l-81 84l-141 -84h-60l138 151h124z" />
    <glyph glyph-name="atilde.sc" horiz-adv-x="415" 
d="M364 0h-74l-27 146h-127l-60 -146h-79l206 485h70zM251 213l-27 152l-61 -152h88zM135 537h-53q-1 49 28 86q28 36 76 36q21 0 35 -6q11 -3 15 -6l40 -20q36 -17 48 -17q30 0 37 49h53q-1 -58 -30 -90t-72 -32q-38 0 -81 25q-40 23 -58 23q-33 0 -38 -48z" />
    <glyph glyph-name="adieresis.sc" horiz-adv-x="415" 
d="M364 0h-74l-27 146h-127l-60 -146h-79l206 485h70zM251 213l-27 152l-61 -152h88zM404 610q0 -22 -15 -37.5t-38 -15.5q-22 0 -37 15.5t-15 36.5q0 22 14.5 37.5t36.5 15.5q23 0 38.5 -16t15.5 -36zM197 611q0 -21 -15 -37.5t-38 -16.5q-21 0 -36.5 16t-15.5 37t15 36.5
t37 15.5q23 0 38 -15t15 -36z" />
    <glyph glyph-name="aring.sc" horiz-adv-x="415" 
d="M364 0h-74l-27 146h-127l-60 -146h-79l206 485h70zM251 213l-27 152l-61 -152h88zM352 625q0 -42 -29 -71.5t-71 -29.5t-71 29t-29 71t29 71.5t71 29.5t71 -30t29 -70zM251 681q-23 0 -39 -16.5t-16 -39.5t16 -39.5t40 -16.5q23 0 39.5 17t16.5 39t-16.5 39t-40.5 17z
" />
    <glyph glyph-name="ae.sc" horiz-adv-x="615" 
d="M574 73l-9 -73h-314l28 211h-85l-113 -211h-84l267 483h303l-10 -73h-173l-17 -126h162l-9 -73h-163l-19 -138h236zM307 414h-5l-72 -137h58z" />
    <glyph glyph-name="ccedilla.sc" horiz-adv-x="388" 
d="M222 -5l-4 -12q46 -21 46 -68q0 -37 -30.5 -61.5t-75.5 -24.5q-36 0 -68 7l12 46q27 -7 42 -7q22 0 34.5 10.5t12.5 27.5q0 21 -27 35l22 47q-73 7 -119 62q-45 55 -45 139q0 127 86 210t230 83h54l-16 -77h-40q-64 0 -112 -20.5t-73 -54t-36.5 -68t-11.5 -69.5
q0 -60 30 -95t80 -35q68 0 145 64l-14 -102q-25 -16 -61.5 -26.5t-60.5 -10.5z" />
    <glyph glyph-name="egrave.sc" horiz-adv-x="372" 
d="M331 73l-10 -73h-313l68 483h255l-10 -73h-179l-18 -128h159l-10 -73h-159l-19 -136h236zM86 686h144l74 -149h-51z" />
    <glyph glyph-name="eacute.sc" horiz-adv-x="372" 
d="M331 73l-10 -73h-313l68 483h255l-10 -73h-179l-18 -128h159l-10 -73h-159l-19 -136h236zM241 688h145l-166 -151h-52z" />
    <glyph glyph-name="ecircumflex.sc" horiz-adv-x="372" 
d="M331 73l-10 -73h-313l68 483h255l-10 -73h-179l-18 -128h159l-10 -73h-159l-19 -136h236zM325 688l68 -151h-48l-81 84l-141 -84h-60l138 151h124z" />
    <glyph glyph-name="edieresis.sc" horiz-adv-x="372" 
d="M331 73l-10 -73h-313l68 483h255l-10 -73h-179l-18 -128h159l-10 -73h-159l-19 -136h236zM393 610q0 -22 -15 -37.5t-38 -15.5q-22 0 -37 15.5t-15 36.5q0 22 14.5 37.5t36.5 15.5q23 0 38.5 -16t15.5 -36zM186 611q0 -21 -15 -37.5t-38 -16.5q-21 0 -36.5 16t-15.5 37
t15 36.5t37 15.5q23 0 38 -15t15 -36z" />
    <glyph glyph-name="igrave.sc" horiz-adv-x="158" 
d="M150 483l-64 -483h-78l64 483h78zM-1 686h144l74 -149h-51z" />
    <glyph glyph-name="iacute.sc" horiz-adv-x="158" 
d="M150 483l-64 -483h-78l64 483h78zM144 688h145l-166 -151h-52z" />
    <glyph glyph-name="icircumflex.sc" horiz-adv-x="158" 
d="M150 483l-64 -483h-78l64 483h78zM217 688l68 -151h-48l-81 84l-141 -84h-60l138 151h124z" />
    <glyph glyph-name="idieresis.sc" horiz-adv-x="158" 
d="M150 483l-64 -483h-78l64 483h78zM285 610q0 -22 -15 -37.5t-38 -15.5q-22 0 -37 15.5t-15 36.5q0 22 14.5 37.5t36.5 15.5q23 0 38.5 -16t15.5 -36zM78 611q0 -21 -15 -37.5t-38 -16.5q-21 0 -36.5 16t-15.5 37t15 36.5t37 15.5q23 0 38 -15t15 -36z" />
    <glyph glyph-name="eth.sc" horiz-adv-x="430" 
d="M230 209h-114l-19 -136h62q168 0 168 170q0 73 -49 119q-50 47 -121 47h-14l-18 -133h116zM10 276h36l28 207h61q120 0 197 -62q76 -61 76 -180q0 -115 -65 -178t-178 -63h-157l29 209h-37z" />
    <glyph glyph-name="ntilde.sc" horiz-adv-x="459" 
d="M451 483l-66 -483h-45l-214 324l-44 -324h-74l66 483h43l215 -327l44 327h75zM167 537h-53q-1 49 28 86q28 36 76 36q21 0 35 -6q11 -3 15 -6l40 -20q36 -17 48 -17q30 0 37 49h53q-1 -58 -30 -90t-72 -32q-38 0 -81 25q-40 23 -58 23q-33 0 -38 -48z" />
    <glyph glyph-name="ograve.sc" horiz-adv-x="439" 
d="M191 -6q-76 0 -122 58q-47 59 -47 147q0 99 56 191q28 45 73 72t98 27q75 0 122 -57q46 -56 46 -147q0 -126 -67 -208q-66 -83 -159 -83zM249 415q-67 0 -108 -71q-40 -70 -40 -154q0 -57 24.5 -88.5t67.5 -31.5q58 0 102 65q44 67 44 161q0 57 -24 88t-66 31zM150 686
h144l74 -149h-51z" />
    <glyph glyph-name="oacute.sc" horiz-adv-x="439" 
d="M191 -6q-76 0 -122 58q-47 59 -47 147q0 99 56 191q28 45 73 72t98 27q75 0 122 -57q46 -56 46 -147q0 -126 -67 -208q-66 -83 -159 -83zM249 415q-67 0 -108 -71q-40 -70 -40 -154q0 -57 24.5 -88.5t67.5 -31.5q58 0 102 65q44 67 44 161q0 57 -24 88t-66 31zM295 688
h145l-166 -151h-52z" />
    <glyph glyph-name="ocircumflex.sc" horiz-adv-x="439" 
d="M191 -6q-76 0 -122 58q-47 59 -47 147q0 99 56 191q28 45 73 72t98 27q75 0 122 -57q46 -56 46 -147q0 -126 -67 -208q-66 -83 -159 -83zM249 415q-67 0 -108 -71q-40 -70 -40 -154q0 -57 24.5 -88.5t67.5 -31.5q58 0 102 65q44 67 44 161q0 57 -24 88t-66 31zM358 688
l68 -151h-48l-81 84l-141 -84h-60l138 151h124z" />
    <glyph glyph-name="otilde.sc" horiz-adv-x="439" 
d="M191 -6q-76 0 -122 58q-47 59 -47 147q0 99 56 191q28 45 73 72t98 27q75 0 122 -57q46 -56 46 -147q0 -126 -67 -208q-66 -83 -159 -83zM249 415q-67 0 -108 -71q-40 -70 -40 -154q0 -57 24.5 -88.5t67.5 -31.5q58 0 102 65q44 67 44 161q0 57 -24 88t-66 31zM169 537
h-53q-1 49 28 86q28 36 76 36q21 0 35 -6q11 -3 15 -6l40 -20q36 -17 48 -17q30 0 37 49h53q-1 -58 -30 -90t-72 -32q-38 0 -81 25q-40 23 -58 23q-33 0 -38 -48z" />
    <glyph glyph-name="odieresis.sc" horiz-adv-x="439" 
d="M191 -6q-76 0 -122 58q-47 59 -47 147q0 99 56 191q28 45 73 72t98 27q75 0 122 -57q46 -56 46 -147q0 -126 -67 -208q-66 -83 -159 -83zM249 415q-67 0 -108 -71q-40 -70 -40 -154q0 -57 24.5 -88.5t67.5 -31.5q58 0 102 65q44 67 44 161q0 57 -24 88t-66 31zM436 610
q0 -22 -15 -37.5t-38 -15.5q-22 0 -37 15.5t-15 36.5q0 22 14.5 37.5t36.5 15.5q23 0 38.5 -16t15.5 -36zM229 611q0 -21 -15 -37.5t-38 -16.5q-21 0 -36.5 16t-15.5 37t15 36.5t37 15.5q23 0 38 -15t15 -36z" />
    <glyph glyph-name="oe.sc" horiz-adv-x="672" 
d="M631 73l-10 -73h-307q-23 0 -32 -1q-40 -2 -47 -2q-59 0 -102 19t-66.5 51.5t-34 69.5t-10.5 78q0 76 55 164q29 47 82.5 75.5t120.5 28.5h346l-11 -73h-182l-17 -128h171l-10 -73h-171l-18 -136h243zM356 410h-27h-58q-76 0 -121.5 -54t-45.5 -147q0 -67 30.5 -101.5
t85.5 -34.5h90z" />
    <glyph glyph-name="oslash.sc" horiz-adv-x="439" 
d="M400 487l31 -31l-43 -50q29 -53 29 -121q0 -126 -67 -208q-66 -83 -159 -83q-67 0 -113 48l-44 -51l-28 34l45 53q-29 50 -29 121q0 99 56 191q28 45 73 72t98 27q68 0 113 -47zM106 143l207 243q-23 29 -64 29q-67 0 -108 -71q-40 -70 -40 -154q0 -29 5 -47zM339 296
q0 21 -5 46l-207 -242q24 -30 66 -30q58 0 102 65q44 67 44 161z" />
    <glyph glyph-name="ugrave.sc" horiz-adv-x="433" 
d="M439 483l-40 -297q-13 -95 -63.5 -143.5t-132.5 -48.5t-127.5 50.5t-34.5 131.5l42 307h78l-43 -315q-6 -47 19 -74t69 -27q48 0 80 33q24 24 36 108l37 275h80zM133 686h144l74 -149h-51z" />
    <glyph glyph-name="uacute.sc" horiz-adv-x="433" 
d="M439 483l-40 -297q-13 -95 -63.5 -143.5t-132.5 -48.5t-127.5 50.5t-34.5 131.5l42 307h78l-43 -315q-6 -47 19 -74t69 -27q48 0 80 33q24 24 36 108l37 275h80zM318 688h145l-166 -151h-52z" />
    <glyph glyph-name="ucircumflex.sc" horiz-adv-x="433" 
d="M439 483l-40 -297q-13 -95 -63.5 -143.5t-132.5 -48.5t-127.5 50.5t-34.5 131.5l42 307h78l-43 -315q-6 -47 19 -74t69 -27q48 0 80 33q24 24 36 108l37 275h80zM371 688l68 -151h-48l-81 84l-141 -84h-60l138 151h124z" />
    <glyph glyph-name="udieresis.sc" horiz-adv-x="433" 
d="M439 483l-40 -297q-13 -95 -63.5 -143.5t-132.5 -48.5t-127.5 50.5t-34.5 131.5l42 307h78l-43 -315q-6 -47 19 -74t69 -27q48 0 80 33q24 24 36 108l37 275h80zM429 610q0 -22 -15 -37.5t-38 -15.5q-22 0 -37 15.5t-15 36.5q0 22 14.5 37.5t36.5 15.5q23 0 38.5 -16
t15.5 -36zM222 611q0 -21 -15 -37.5t-38 -16.5q-21 0 -36.5 16t-15.5 37t15 36.5t37 15.5q23 0 38 -15t15 -36z" />
    <glyph glyph-name="yacute.sc" horiz-adv-x="380" 
d="M398 483l-166 -246l-32 -237h-77l33 239l-110 244h82l72 -162l108 162h90zM266 688h145l-166 -151h-52z" />
    <glyph glyph-name="thorn.sc" horiz-adv-x="324" 
d="M300 244q0 -52 -38 -99q-37 -45 -114 -47l-46 -1l-15 -97h-79l65 483h80l-12 -98q159 0 159 -141zM222 246q0 30 -18 48t-55 18h-18l-19 -141h33q37 0 57 21.5t20 53.5z" />
    <glyph glyph-name="ydieresis.sc" horiz-adv-x="380" 
d="M398 483l-166 -246l-32 -237h-77l33 239l-110 244h82l72 -162l108 162h90zM392 610q0 -22 -15 -37.5t-38 -15.5q-22 0 -37 15.5t-15 36.5q0 22 14.5 37.5t36.5 15.5q23 0 38.5 -16t15.5 -36zM185 611q0 -21 -15 -37.5t-38 -16.5q-21 0 -36.5 16t-15.5 37t15 36.5t37 15.5
q23 0 38 -15t15 -36z" />
    <glyph glyph-name="zero.fitted" horiz-adv-x="521" 
d="M501 449q0 -143 -60 -288q-31 -77 -87.5 -123.5t-127.5 -46.5q-94 0 -137 73q-38 62 -38 165q0 121 39 238q33 100 92 162t145 62q100 0 146 -91q28 -57 28 -151zM409 435q0 40 -5 79q-10 88 -80 95q-53 0 -96 -67q-43 -65 -64 -151q-21 -85 -21 -157q0 -163 88 -163
q52 0 95 70q44 71 63 152q20 85 20 142z" />
    <glyph glyph-name="one.fitted" horiz-adv-x="261" 
d="M156 691h89l-108 -691h-90z" />
    <glyph glyph-name="two.fitted" horiz-adv-x="473" 
d="M156 82h260l-12 -82h-414q17 17 104 127q94 120 128 169q7 9 53 77q18 27 40 75q22 45 22 75q0 38 -27 59.5t-70 21.5q-70 0 -149 -57l14 97q79 47 153 47q76 0 121 -46q45 -47 45 -111q0 -55 -24 -108.5t-80 -132.5q-59 -83 -164 -211z" />
    <glyph glyph-name="three.fitted" horiz-adv-x="472" 
d="M-1 29l12 81q82 -38 150 -38q77 0 111 39q36 39 36 90q0 60 -41 87q-40 27 -85 24l11 79q57 8 80 20q72 36 72 104q0 49 -35 72q-34 22 -71 22q-71 0 -135 -42l13 94q67 30 137 30q78 0 132 -45q55 -43 55 -127q0 -119 -133 -168q45 -19 68.5 -57t23.5 -90
q0 -84 -60 -148q-60 -65 -173 -65q-81 0 -168 38z" />
    <glyph glyph-name="four.fitted" horiz-adv-x="491" 
d="M371 691h54l-63 -408h99l-12 -73h-100l-33 -210h-87l36 210h-256v39zM130 283h146l34 215z" />
    <glyph glyph-name="five.fitted" horiz-adv-x="477" 
d="M174 682h278l-15 -84h-196l-27 -171q99 -4 147 -62q48 -57 48 -134q0 -87 -57 -159q-66 -81 -198 -81q-97 0 -164 51l31 79q61 -47 134 -47q71 0 115 43q45 44 45 109q0 58 -38.5 89.5t-100.5 31.5q-31 0 -63 -8z" />
    <glyph glyph-name="six.fitted" horiz-adv-x="521" 
d="M314 682h100l-196 -288q41 23 91 23q73 0 117 -48q44 -47 44 -117q0 -99 -68 -181q-68 -80 -167 -80q-83 0 -133 57q-48 57 -48 142q0 50 21 106q21 55 41 89l65 99zM382 240q0 41 -25 69t-72 28q-62 0 -103 -47q-39 -46 -39 -104q0 -45 26.5 -77t72.5 -32q61 0 100 50
q40 50 40 113z" />
    <glyph glyph-name="seven.fitted" horiz-adv-x="449" 
d="M91 682h395v-6l-319 -685h-93l279 606h-274z" />
    <glyph glyph-name="eight.fitted" horiz-adv-x="521" 
d="M376 356q91 -36 91 -141q0 -89 -64 -156q-63 -68 -171 -68q-88 0 -140 54q-52 53 -52 132q0 92 61 146q29 26 85 44q-77 50 -77 131q0 79 57 136q58 57 147 57q80 0 129 -49q50 -50 50 -120q0 -27 -8 -57q-9 -31 -38 -62.5t-70 -46.5zM404 515q0 40 -26 66.5t-68 26.5
q-49 0 -82 -35q-32 -35 -32 -80q0 -42 27 -67.5t69 -25.5q54 0 83 38t29 77zM377 211q0 50 -30.5 78t-78.5 28q-61 0 -100 -42q-38 -43 -38 -98q0 -52 35 -78t76 -26q55 0 95 39q41 41 41 99z" />
    <glyph glyph-name="nine.fitted" horiz-adv-x="521" 
d="M241 0h-100l196 288q-41 -23 -91 -23q-74 0 -118 47q-43 47 -43 118q0 100 68 180q67 81 167 81q84 0 132 -57q49 -56 49 -142q0 -50 -21 -106q-21 -57 -42 -89q-11 -18 -64 -99zM173 442q0 -41 25 -69t72 -28q63 0 102 46q40 46 40 105q0 45 -26.5 77t-72.5 32
q-61 0 -101 -51q-39 -50 -39 -112z" />
    <glyph glyph-name="zero.taboldstyle" horiz-adv-x="510" 
d="M476 261q0 -133 -82 -205q-74 -65 -169 -65q-91 0 -147 56q-54 55 -54 144q0 63 27 123q27 62 87 105q62 44 142 44q94 0 145 -59q51 -58 51 -143zM381 272q0 48 -30.5 78.5t-76.5 30.5q-62 0 -109 -53q-46 -52 -46 -133q0 -55 31 -88.5t82 -33.5q59 0 104 47
q45 46 45 152z" />
    <glyph glyph-name="one.taboldstyle" horiz-adv-x="510" 
d="M299 0h-88l51 326l-143 -82l16 95l198 124h37z" />
    <glyph glyph-name="two.taboldstyle" horiz-adv-x="510" 
d="M86 330l17 94q72 39 153 39q66 0 106 -33t40 -92q0 -75 -59 -148q-29 -34 -51 -57q-24 -24 -55 -51h178l-11 -82h-365l88 79q20 16 43 39l23 23q6 6 13.5 13t11.5 11t6 7l29 32q20 23 29 38q25 44 25 75t-24.5 47.5t-64.5 16.5q-72 0 -132 -51z" />
    <glyph glyph-name="three.taboldstyle" horiz-adv-x="510" 
d="M122 75l194 292h-236l12 82h378l-218 -316q144 -32 144 -164q0 -94 -68 -148t-165 -54q-75 0 -169 39l13 83q93 -40 159 -40q68 0 103 39q35 40 35 78q0 44 -37 78q-37 35 -106 35q-22 0 -39 -4z" />
    <glyph glyph-name="four.taboldstyle" horiz-adv-x="510" 
d="M437 463l-63 -390h107l-12 -73h-107l-39 -230h-84l38 230h-284v33l404 430h40zM333 305l-212 -232h169z" />
    <glyph glyph-name="five.taboldstyle" horiz-adv-x="510" 
d="M211 449h244l-14 -82h-173l-61 -204q90 -7 141.5 -55.5t51.5 -122.5q0 -96 -69 -157q-68 -61 -178 -61q-84 0 -167 46l29 76q70 -40 144 -40q90 0 123 48q26 36 26 68q0 51 -33 81q-56 52 -174 37z" />
    <glyph glyph-name="six.taboldstyle" horiz-adv-x="510" 
d="M300 682l76 -38l-174 -253q40 26 94 26q70 0 115 -48q46 -47 46 -115q0 -62 -27 -121q-26 -59 -81 -101q-56 -41 -124 -41q-86 0 -135 58t-49 140q0 66 32 138q33 70 125 206zM365 237q0 47 -25 72.5t-68 25.5q-48 0 -82 -28q-57 -47 -57 -121q0 -51 27 -80t69 -29
q55 0 95 45q41 47 41 115z" />
    <glyph glyph-name="seven.taboldstyle" horiz-adv-x="510" 
d="M363 367h-274l13 82h391l-319 -682l-87 37z" />
    <glyph glyph-name="eight.taboldstyle" horiz-adv-x="510" 
d="M355 362q102 -41 102 -148q0 -88 -63 -155q-63 -68 -172 -68q-90 0 -141 55q-51 56 -51 129q0 79 47 126q18 19 44 33q32 18 67 27q-45 26 -67 57t-22 81q0 77 57 134q58 58 148 58q81 0 129 -50q49 -49 49 -118q0 -53 -31 -97t-96 -64zM395 515q0 41 -28 67.5t-67 26.5
q-47 0 -80.5 -33t-33.5 -83q0 -41 28 -67.5t68 -26.5q50 0 82 35q31 34 31 81zM367 211q0 50 -30.5 78t-78.5 28q-61 0 -100 -42q-38 -43 -38 -98q0 -52 35 -78t76 -26q55 0 95 39q41 41 41 99z" />
    <glyph glyph-name="nine.taboldstyle" horiz-adv-x="510" 
d="M192 -233l-70 49l179 248q-47 -29 -99 -29q-67 0 -114 43q-47 44 -47 120q0 110 71 187q70 78 168 78q81 0 129 -55q48 -54 48 -140q0 -64 -29 -136q-29 -71 -106 -181zM365 265q0 53 -25.5 81.5t-68.5 28.5q-58 0 -98 -52q-40 -50 -40 -112q0 -46 24.5 -71t65.5 -25
q55 0 98 42q44 42 44 108z" />
    <glyph glyph-name="zero.denominator" horiz-adv-x="323" 
d="M292 231q0 -70 -35 -146q-19 -40 -54 -65t-79 -25q-74 0 -95 51q-15 40 -15 74q0 52 15 103q15 53 55 94q40 43 99 43q60 0 85 -39q11 -14 17 -36q7 -24 7 -54zM126 43q41 0 69 64q30 65 30 126q0 78 -44 78q-41 0 -71 -64q-29 -66 -29 -125q0 -79 45 -79z" />
    <glyph glyph-name="one.denominator" horiz-adv-x="323" 
d="M152 355h64l-63 -355h-65z" />
    <glyph glyph-name="two.denominator" horiz-adv-x="323" 
d="M99 48h151l-8 -48h-260q17 15 68 71q51 57 75 87q66 81 66 112q0 39 -52 39q-39 0 -95 -36l10 60q51 27 96 27t75.5 -24.5t28.5 -60.5q0 -43 -49 -107q-26 -34 -106 -120z" />
    <glyph glyph-name="three.denominator" horiz-adv-x="323" 
d="M-2 16l8 49q59 -22 94 -22q41 0 61 18t20 45q0 28 -21.5 42t-53.5 11l7 47q90 8 90 61q-2 26 -21.5 36t-35.5 8q-44 0 -87 -27l10 59q48 17 86 17q50 0 83 -24.5t33 -67.5q0 -60 -74 -86q50 -23 50 -75q0 -46 -38.5 -79t-104.5 -33q-46 0 -106 21z" />
    <glyph glyph-name="four.denominator" horiz-adv-x="323" 
d="M216 360h41l-36 -209h58l-8 -43h-59l-20 -108h-63l22 108h-151v23zM87 151h71l17 91z" />
    <glyph glyph-name="five.denominator" horiz-adv-x="323" 
d="M102 355h176l-10 -50h-116l-15 -81q50 -2 82.5 -29.5t32.5 -73.5q0 -48 -40 -87q-39 -39 -117 -39q-57 0 -103 29l22 47q64 -39 117.5 -21.5t53.5 68.5q0 29 -21 44t-55 15q-11 0 -44 -5z" />
    <glyph glyph-name="six.denominator" horiz-adv-x="323" 
d="M172 355h71l-110 -140q25 5 37 5q49 0 76 -26t27 -62q0 -53 -43 -95q-42 -42 -103 -42q-50 0 -80.5 30t-30.5 76q0 26 11 53q15 37 65 100zM209 125q0 47 -49 47q-33 0 -56 -22t-23 -52q0 -22 13.5 -37t36.5 -15q30 0 54 24.5t24 54.5z" />
    <glyph glyph-name="seven.denominator" horiz-adv-x="323" 
d="M58 355h244l-190 -360h-67l165 310h-161z" />
    <glyph glyph-name="eight.denominator" horiz-adv-x="323" 
d="M222 185q49 -22 49 -72q0 -46 -39 -82t-105 -36q-54 0 -86.5 28.5t-32.5 70.5q0 71 82 98q-42 22 -42 66q0 42 36.5 72t90.5 30q48 0 79.5 -26.5t31.5 -63.5q0 -61 -64 -85zM223 267q0 18 -13.5 31t-36.5 13q-27 0 -44 -16t-17 -40q0 -21 14 -32.5t36 -11.5q28 0 44.5 17
t16.5 39zM207 110q0 26 -17 39t-42 13q-33 0 -54 -20.5t-21 -47.5q0 -25 18 -38t41 -13q30 0 52.5 20t22.5 47z" />
    <glyph glyph-name="nine.denominator" horiz-adv-x="323" 
d="M123 0h-71l110 140q-25 -5 -37 -5q-49 0 -76 26t-27 62q0 53 42 95q43 42 104 42q50 0 80.5 -30t30.5 -76q0 -26 -11 -54q-10 -26 -24 -45q-19 -27 -41 -54zM86 230q0 -47 49 -47q33 0 56 22t23 52q0 22 -13.5 37t-36.5 15q-30 0 -54 -24.5t-24 -54.5z" />
    <glyph glyph-name="zero.numerator" horiz-adv-x="323" 
d="M339 564q0 -34 -9 -72t-27 -76.5t-52.5 -63.5t-79.5 -25q-56 0 -83 33.5t-27 90.5q0 52 15 104q17 53 56 94q41 42 98 42q76 0 96 -58q13 -38 13 -69zM174 374q39 0 69 64t30 127q0 78 -45 78q-41 0 -71 -64q-29 -66 -29 -125q0 -80 46 -80z" />
    <glyph glyph-name="one.numerator" horiz-adv-x="323" 
d="M199 687h65l-64 -355h-65z" />
    <glyph glyph-name="two.numerator" horiz-adv-x="323" 
d="M146 380h151l-8 -48h-260q11 9 67 70q41 46 76 87q66 81 66 113q0 38 -51 38q-41 0 -96 -35l10 60q54 26 96 26q47 0 75.5 -23.5t28.5 -60.5q0 -46 -49 -107q-26 -34 -106 -120z" />
    <glyph glyph-name="three.numerator" horiz-adv-x="323" 
d="M46 348l8 49q51 -22 93 -22q41 0 61 18t20 45q0 28 -21.5 42t-53.5 11l8 46q28 4 51 11q38 14 38 50q-2 26 -21.5 36t-35.5 9q-43 0 -87 -27l10 58q45 17 86 17q50 0 83 -24t33 -67q0 -60 -74 -86q50 -21 50 -75q0 -47 -38.5 -79.5t-104.5 -32.5q-51 0 -105 21z" />
    <glyph glyph-name="four.numerator" horiz-adv-x="323" 
d="M263 691h42l-37 -208h58l-8 -44h-59l-20 -107h-63l22 107h-151v23zM134 483h71l17 91z" />
    <glyph glyph-name="five.numerator" horiz-adv-x="323" 
d="M149 687h176l-10 -50h-115l-15 -81q50 -3 82 -30.5t32 -72.5q0 -49 -40 -88q-41 -38 -116 -38q-60 0 -103 29l21 47q43 -27 82 -27q40 0 64.5 21t24.5 53q0 29 -21.5 44t-54.5 15q-11 0 -44 -5z" />
    <glyph glyph-name="six.numerator" horiz-adv-x="323" 
d="M219 687h71l-110 -141q15 5 38 5q48 0 75 -25t27 -62q0 -53 -43 -95q-42 -42 -102 -42q-51 0 -81.5 29t-30.5 77q0 25 11 53q13 28 24 44l41 55zM256 457q0 47 -49 47q-33 0 -56 -22t-23 -52q0 -22 14 -37.5t36 -15.5q31 0 54.5 24.5t23.5 55.5z" />
    <glyph glyph-name="seven.numerator" horiz-adv-x="323" 
d="M105 687h244l-190 -360h-67l165 309h-160z" />
    <glyph glyph-name="eight.numerator" horiz-adv-x="323" 
d="M270 517q48 -23 48 -72q0 -46 -39 -82q-37 -36 -105 -36q-54 0 -86.5 28t-32.5 70q0 71 82 98q-42 25 -42 66q0 42 36.5 72t90.5 30q48 0 80 -26t32 -64q0 -26 -16 -49t-48 -35zM270 599q0 17 -13.5 30t-36.5 13q-27 0 -44 -16t-17 -40q0 -20 14 -32t36 -12q28 0 44.5 17
t16.5 40zM254 442q0 26 -16.5 39t-42.5 13q-32 0 -53.5 -20.5t-21.5 -47.5q0 -25 18 -38t42 -13q30 0 52 20t22 47z" />
    <glyph glyph-name="nine.numerator" horiz-adv-x="323" 
d="M167 327h-71l114 145q-23 -6 -40 -6q-48 0 -75 26t-27 61q0 51 42 95q43 43 106 43q48 0 79 -30t31 -75q0 -34 -15 -65t-49 -75zM261 588q0 22 -13.5 37t-38.5 15q-30 0 -53 -24.5t-23 -55.5q0 -47 49 -47q32 0 55.5 22t23.5 53z" />
    <glyph glyph-name="abreve.sc" horiz-adv-x="415" 
d="M364 0h-74l-27 146h-127l-60 -146h-79l206 485h70zM251 213l-27 152l-61 -152h88zM117 678h62q1 -14 11 -38q15 -28 60 -28q23 0 43 11q28 15 56 55h63q-9 -28 -47 -77q-21 -28 -54 -46t-68 -18q-75 0 -102 50q-22 42 -24 91z" />
    <glyph glyph-name="amacron.sc" horiz-adv-x="415" 
d="M364 0h-74l-27 146h-127l-60 -146h-79l206 485h70zM251 213l-27 152l-61 -152h88zM112 607h281l-11 -70h-281z" />
    <glyph glyph-name="aogonek.sc" horiz-adv-x="415" 
d="M251 213l-27 152l-61 -152h88zM439 -111l-10 -68q-34 -8 -62 -8q-46 0 -78 27t-32 66q0 38 33 94l-27 146h-127l-60 -146h-79l206 485h70l91 -485q-25 -43 -25 -67q0 -21 18.5 -35.5t43.5 -14.5q14 0 38 6z" />
    <glyph glyph-name="aeacute.sc" horiz-adv-x="615" 
d="M574 73l-9 -73h-314l28 211h-85l-113 -211h-84l267 483h303l-10 -73h-173l-17 -126h162l-9 -73h-163l-19 -138h236zM307 414h-5l-72 -137h58zM443 688h145l-166 -151h-52z" />
    <glyph glyph-name="cacute.sc" horiz-adv-x="388" 
d="M392 489l-16 -77h-40q-64 0 -112 -20.5t-73 -54t-36.5 -68t-11.5 -69.5q0 -60 30 -95t80 -35q68 0 145 64l-14 -102q-67 -38 -140 -38q-81 0 -132 56q-50 58 -50 146q0 127 86 210t230 83h54zM285 688h145l-166 -151h-52z" />
    <glyph glyph-name="ccaron.sc" horiz-adv-x="388" 
d="M392 489l-16 -77h-40q-64 0 -112 -20.5t-73 -54t-36.5 -68t-11.5 -69.5q0 -60 30 -95t80 -35q68 0 145 64l-14 -102q-67 -38 -140 -38q-81 0 -132 56q-50 58 -50 146q0 127 86 210t230 83h54zM394 688h59l-136 -151h-123l-70 151h50l82 -86z" />
    <glyph glyph-name="ccircumflex.sc" horiz-adv-x="388" 
d="M392 489l-16 -77h-40q-64 0 -112 -20.5t-73 -54t-36.5 -68t-11.5 -69.5q0 -60 30 -95t80 -35q68 0 145 64l-14 -102q-67 -38 -140 -38q-81 0 -132 56q-50 58 -50 146q0 127 86 210t230 83h54zM353 688l68 -151h-48l-81 84l-141 -84h-60l138 151h124z" />
    <glyph glyph-name="cdotaccent.sc" horiz-adv-x="388" 
d="M392 489l-16 -77h-40q-64 0 -112 -20.5t-73 -54t-36.5 -68t-11.5 -69.5q0 -60 30 -95t80 -35q68 0 145 64l-14 -102q-67 -38 -140 -38q-81 0 -132 56q-50 58 -50 146q0 127 86 210t230 83h54zM312 572q-15 -15 -37 -15t-38 15q-15 16 -15 38t15 37q16 16 38 16t37 -16
q16 -15 16 -37t-16 -38z" />
    <glyph glyph-name="dcaron.sc" horiz-adv-x="430" 
d="M165 0h-157l66 483h61q121 0 197 -62q76 -61 76 -180q0 -103 -60 -172t-183 -69zM155 409h-12l-46 -336h44q59 0 88.5 9t53.5 33q44 42 44 128q0 84 -55 124q-54 42 -117 42zM375 688h59l-136 -151h-123l-70 151h50l82 -86z" />
    <glyph glyph-name="dcroat.sc" horiz-adv-x="430" 
d="M230 209h-114l-19 -136h62q168 0 168 170q0 73 -49 119q-50 47 -121 47h-14l-18 -133h116zM10 276h36l28 207h61q120 0 197 -62q76 -61 76 -180q0 -115 -65 -178t-178 -63h-157l29 209h-37z" />
    <glyph glyph-name="ebreve.sc" horiz-adv-x="372" 
d="M331 73l-10 -73h-313l68 483h255l-10 -73h-179l-18 -128h159l-10 -73h-159l-19 -136h236zM90 678h62q1 -14 11 -38q15 -28 60 -28q23 0 43 11q28 15 56 55h63q-9 -28 -47 -77q-21 -28 -54 -46t-68 -18q-75 0 -102 50q-22 42 -24 91z" />
    <glyph glyph-name="ecaron.sc" horiz-adv-x="372" 
d="M331 73l-10 -73h-313l68 483h255l-10 -73h-179l-18 -128h159l-10 -73h-159l-19 -136h236zM345 688h59l-136 -151h-123l-70 151h50l82 -86z" />
    <glyph glyph-name="edotaccent.sc" horiz-adv-x="372" 
d="M331 73l-10 -73h-313l68 483h255l-10 -73h-179l-18 -128h159l-10 -73h-159l-19 -136h236zM238 572q-15 -15 -37 -15t-38 15q-15 16 -15 38t15 37q16 16 38 16t37 -16q16 -15 16 -37t-16 -38z" />
    <glyph glyph-name="emacron.sc" horiz-adv-x="372" 
d="M331 73l-10 -73h-313l68 483h255l-10 -73h-179l-18 -128h159l-10 -73h-159l-19 -136h236zM91 607h281l-11 -70h-281z" />
    <glyph glyph-name="eng.sc" horiz-adv-x="494" 
d="M249 -4l-18 70q29 -8 56 -8q32 0 45.5 18t19.5 62l19 142q9 69 -17.5 111t-80.5 42q-32 0 -60 -16q-18 -10 -30.5 -20.5t-19.5 -19t-20 -26.5l-48 -351h-78l67 489h76l-4 -44q62 50 133 50q85 0 129 -62q43 -60 29 -160l-18 -128q-10 -65 -28 -100q-25 -54 -106 -54
q-16 0 -46 5z" />
    <glyph glyph-name="eogonek.sc" horiz-adv-x="372" 
d="M95 73h236l-10 -73h-86q-25 -43 -25 -67q0 -21 17 -35.5t42 -14.5q14 0 38 6l-10 -68q-34 -8 -62 -8q-46 0 -78 27t-32 66q0 38 33 94h-150l68 483h255l-10 -73h-179l-18 -128h159l-10 -73h-159z" />
    <glyph glyph-name="gbreve.sc" horiz-adv-x="436" 
d="M428 481l-9 -73q-55 7 -88 7q-118 0 -177 -72q-50 -62 -50 -134q0 -64 33.5 -103t87.5 -39q36 0 79 20l8 66h-64l9 67h142l-25 -182q-83 -44 -153 -44q-95 0 -147 63q-52 62 -52 150q0 94 67 182q36 46 101.5 73t149.5 27q19 0 88 -8zM153 678h62q1 -14 11 -38
q15 -28 60 -28q23 0 43 11q28 15 56 55h63q-9 -28 -47 -77q-21 -28 -54 -46t-68 -18q-75 0 -102 50q-22 42 -24 91z" />
    <glyph glyph-name="gcircumflex.sc" horiz-adv-x="436" 
d="M428 481l-9 -73q-55 7 -88 7q-118 0 -177 -72q-50 -62 -50 -134q0 -64 33.5 -103t87.5 -39q36 0 79 20l8 66h-64l9 67h142l-25 -182q-83 -44 -153 -44q-95 0 -147 63q-52 62 -52 150q0 94 67 182q36 46 101.5 73t149.5 27q19 0 88 -8zM382 688l68 -151h-48l-81 84
l-141 -84h-60l138 151h124z" />
    <glyph glyph-name="gcommaaccent.sc" horiz-adv-x="436" 
d="M428 481l-9 -73q-55 7 -88 7q-118 0 -177 -72q-50 -62 -50 -134q0 -64 33.5 -103t87.5 -39q36 0 79 20l8 66h-64l9 67h142l-25 -182q-83 -44 -153 -44q-95 0 -147 63q-52 62 -52 150q0 94 67 182q36 46 101.5 73t149.5 27q19 0 88 -8zM69 -211l16 51q38 -8 58 -8
q25 0 43 11t18 29q0 30 -35 36q-29 5 -63 5l20 50q74 0 114 -12q61 -17 61 -73q0 -39 -37.5 -68t-105.5 -29q-47 0 -89 8z" />
    <glyph glyph-name="gdotaccent.sc" horiz-adv-x="436" 
d="M428 481l-9 -73q-55 7 -88 7q-118 0 -177 -72q-50 -62 -50 -134q0 -64 33.5 -103t87.5 -39q36 0 79 20l8 66h-64l9 67h142l-25 -182q-83 -44 -153 -44q-95 0 -147 63q-52 62 -52 150q0 94 67 182q36 46 101.5 73t149.5 27q19 0 88 -8zM351 572q-15 -15 -37 -15t-38 15
q-15 16 -15 38t15 37q16 16 38 16t37 -16q16 -15 16 -37t-16 -38z" />
    <glyph glyph-name="hbar.sc" horiz-adv-x="468" 
d="M451 414h51l-11 -71h-50l-47 -343h-80l28 206h-226l-28 -206h-80l47 343h-50l11 71h49l9 69h79l-9 -69h226l10 69h80zM352 282l8 61h-226l-8 -61h226z" />
    <glyph glyph-name="hcircumflex.sc" horiz-adv-x="468" 
d="M460 483l-66 -483h-80l28 206h-226l-28 -206h-80l66 483h79l-27 -201h226l28 201h80zM368 688l68 -151h-48l-81 84l-141 -84h-60l138 151h124z" />
    <glyph glyph-name="ibreve.sc" horiz-adv-x="158" 
d="M150 483l-64 -483h-78l64 483h78zM-20 678h62q1 -14 11 -38q15 -28 60 -28q23 0 43 11q28 15 56 55h63q-9 -28 -47 -77q-21 -28 -54 -46t-68 -18q-75 0 -102 50q-22 42 -24 91z" />
    <glyph glyph-name="ij.sc" horiz-adv-x="327" 
d="M150 483l-64 -483h-78l64 483h78zM320 483l-69 -511q-18 -131 -124 -131q-18 0 -50 6l-18 77q41 -9 55 -9q28 0 42.5 14.5t18.5 49.5l68 504h77z" />
    <glyph glyph-name="imacron.sc" horiz-adv-x="158" 
d="M150 483l-64 -483h-78l64 483h78zM-27 607h281l-11 -70h-281z" />
    <glyph glyph-name="iogonek.sc" horiz-adv-x="158" 
d="M86 0h-4q-25 -43 -25 -67q0 -50 56 -50q20 0 44 6l-10 -68q-34 -8 -62 -8q-35 0 -73 23q-37 22 -37 70q0 46 33 94l64 483h78z" />
    <glyph glyph-name="itilde.sc" horiz-adv-x="158" 
d="M151 483l-64 -483h-78l64 483h78zM17 537h-53q-1 49 28 86q28 36 76 36q21 0 35 -6q11 -3 15 -6l40 -20q36 -17 48 -17q30 0 37 49h53q-1 -58 -30 -90t-72 -32q-38 0 -81 25q-40 23 -58 23q-33 0 -38 -48z" />
    <glyph glyph-name="jcircumflex.sc" horiz-adv-x="169" 
d="M161 483l-69 -511q-18 -131 -124 -131q-18 0 -50 6l-18 77q41 -9 55 -9q28 0 42.5 14.5t18.5 49.5l68 504h77zM218 688l68 -151h-48l-81 84l-141 -84h-60l138 151h124z" />
    <glyph glyph-name="kcommaaccent.sc" horiz-adv-x="398" 
d="M395 483l-216 -225l208 -258h-94l-175 230l-31 -230h-79l66 483h79l-28 -185l177 185h93zM35 -211l16 51q38 -8 58 -8q25 0 43 11t18 29q0 30 -35 36q-29 5 -63 5l20 50q74 0 114 -12q61 -17 61 -73q0 -39 -37.5 -68t-105.5 -29q-47 0 -89 8z" />
    <glyph glyph-name="lacute.sc" horiz-adv-x="309" 
d="M275 70l-9 -70h-258l65 483h77l-58 -413h183zM190 688h145l-166 -151h-52z" />
    <glyph glyph-name="lcaron.sc" horiz-adv-x="309" 
d="M275 70l-9 -70h-258l65 483h77l-58 -413h183zM186 284l5 31q40 16 52 32.5t13 44.5q-36 12 -36 45q0 52 50 52q24 0 39 -17.5t15 -47.5q0 -49 -34.5 -87t-103.5 -53z" />
    <glyph glyph-name="lcommaaccent.sc" horiz-adv-x="309" 
d="M275 70l-9 -70h-258l65 483h77l-58 -413h183zM5 -211l16 51q38 -8 58 -8q25 0 43 11t18 29q0 30 -35 36q-29 5 -63 5l20 50q74 0 114 -12q61 -17 61 -73q0 -39 -37.5 -68t-105.5 -29q-47 0 -89 8z" />
    <glyph glyph-name="ldot.sc" horiz-adv-x="309" 
d="M275 70l-9 -70h-258l65 483h77l-58 -413h183zM264 236q-15 -15 -37 -15t-38 15q-15 16 -15 38t15 37q16 16 38 16t37 -16q16 -15 16 -37t-16 -38z" />
    <glyph glyph-name="nacute.sc" horiz-adv-x="459" 
d="M451 483l-66 -483h-45l-214 324l-44 -324h-74l66 483h43l215 -327l44 327h75zM305 688h145l-166 -151h-52z" />
    <glyph glyph-name="ncaron.sc" horiz-adv-x="459" 
d="M451 483l-66 -483h-45l-214 324l-44 -324h-74l66 483h43l215 -327l44 327h75zM394 688h59l-136 -151h-123l-70 151h50l82 -86z" />
    <glyph glyph-name="ncommaaccent.sc" horiz-adv-x="459" 
d="M451 483l-66 -483h-45l-214 324l-44 -324h-74l66 483h43l215 -327l44 327h75zM80 -211l16 51q38 -8 58 -8q25 0 43 11t18 29q0 30 -35 36q-29 5 -63 5l20 50q74 0 114 -12q61 -17 61 -73q0 -39 -37.5 -68t-105.5 -29q-47 0 -89 8z" />
    <glyph glyph-name="obreve.sc" horiz-adv-x="439" 
d="M191 -6q-76 0 -122 58q-47 59 -47 147q0 99 56 191q28 45 73 72t98 27q75 0 122 -57q46 -56 46 -147q0 -126 -67 -208q-66 -83 -159 -83zM249 415q-67 0 -108 -71q-40 -70 -40 -154q0 -57 24.5 -88.5t67.5 -31.5q58 0 102 65q44 67 44 161q0 57 -24 88t-66 31zM134 678
h62q1 -14 11 -38q15 -28 60 -28q23 0 43 11q28 15 56 55h63q-9 -28 -47 -77q-21 -28 -54 -46t-68 -18q-75 0 -102 50q-22 42 -24 91z" />
    <glyph glyph-name="ohungarumlaut.sc" horiz-adv-x="439" 
d="M191 -6q-76 0 -122 58q-47 59 -47 147q0 99 56 191q28 45 73 72t98 27q75 0 122 -57q46 -56 46 -147q0 -126 -67 -208q-66 -83 -159 -83zM249 415q-67 0 -108 -71q-40 -70 -40 -154q0 -57 24.5 -88.5t67.5 -31.5q58 0 102 65q44 67 44 161q0 57 -24 88t-66 31zM192 688
h122l-122 -151h-49zM353 688h123l-123 -151h-49z" />
    <glyph glyph-name="omacron.sc" horiz-adv-x="439" 
d="M191 -6q-76 0 -122 58q-47 59 -47 147q0 99 56 191q28 45 73 72t98 27q75 0 122 -57q46 -56 46 -147q0 -126 -67 -208q-66 -83 -159 -83zM249 415q-67 0 -108 -71q-40 -70 -40 -154q0 -57 24.5 -88.5t67.5 -31.5q58 0 102 65q44 67 44 161q0 57 -24 88t-66 31zM131 607
h281l-11 -70h-281z" />
    <glyph glyph-name="oslashacute.sc" horiz-adv-x="439" 
d="M400 487l31 -31l-43 -50q29 -53 29 -121q0 -126 -67 -208q-66 -83 -159 -83q-67 0 -113 48l-44 -51l-28 34l45 53q-29 50 -29 121q0 99 56 191q28 45 73 72t98 27q68 0 113 -47zM106 143l207 243q-23 29 -64 29q-67 0 -108 -71q-40 -70 -40 -154q0 -29 5 -47zM339 296
q0 21 -5 46l-207 -242q24 -30 66 -30q58 0 102 65q44 67 44 161zM295 688h145l-166 -151h-52z" />
    <glyph glyph-name="racute.sc" horiz-adv-x="365" 
d="M354 0h-84l-53 116q-27 58 -43 73q-16 16 -43 16h-16l-27 -205h-80l65 483h89q83 0 122 -36q40 -37 40 -99q0 -41 -22.5 -72.5t-61.5 -45.5q18 -20 28 -44zM170 410h-27l-17 -132h21q49 0 72 20t23 53q0 59 -72 59zM238 688h145l-166 -151h-52z" />
    <glyph glyph-name="rcaron.sc" horiz-adv-x="365" 
d="M354 0h-84l-53 116q-27 58 -43 73q-16 16 -43 16h-16l-27 -205h-80l65 483h89q83 0 122 -36q40 -37 40 -99q0 -41 -22.5 -72.5t-61.5 -45.5q18 -20 28 -44zM170 410h-27l-17 -132h21q49 0 72 20t23 53q0 59 -72 59zM342 688h59l-136 -151h-123l-70 151h50l82 -86z" />
    <glyph glyph-name="rcommaaccent.sc" horiz-adv-x="365" 
d="M354 0h-84l-53 116q-27 58 -43 73q-16 16 -43 16h-16l-27 -205h-80l65 483h89q83 0 122 -36q40 -37 40 -99q0 -41 -22.5 -72.5t-61.5 -45.5q18 -20 28 -44zM170 410h-27l-17 -132h21q49 0 72 20t23 53q0 59 -72 59zM33 -211l16 51q38 -8 58 -8q25 0 43 11t18 29
q0 30 -35 36q-29 5 -63 5l20 50q74 0 114 -12q61 -17 61 -73q0 -39 -37.5 -68t-105.5 -29q-47 0 -89 8z" />
    <glyph glyph-name="sacute.sc" horiz-adv-x="322" 
d="M293 467l-11 -84q-46 31 -86 31q-31 0 -51 -17q-50 -46 26 -111q7 -7 18 -16l20 -17q25 -20 35 -36q1 -2 7.5 -10.5t11 -16.5t6.5 -14q9 -29 9 -51q0 -50 -38 -91q-37 -40 -104 -40q-55 0 -117 38l12 88q71 -51 111 -51q22 0 40 14t18 37q0 32 -47 73l-28 24
q-39 33 -58 64.5t-19 71.5q0 61 46 98q47 38 107 38q45 0 92 -22zM237 688h145l-166 -151h-52z" />
    <glyph glyph-name="scedilla.sc" horiz-adv-x="322" 
d="M293 467l-11 -84q-46 31 -86 31q-31 0 -51 -17q-50 -46 26 -111q7 -7 18 -16l20 -17q25 -20 35 -36q1 -2 7.5 -10.5t11 -16.5t6.5 -14q9 -29 9 -51q0 -49 -34 -87q-34 -39 -94 -43l-4 -12q46 -21 46 -68q0 -37 -30.5 -61.5t-75.5 -24.5q-36 0 -68 7l12 46q27 -7 42 -7
q22 0 34.5 10.5t12.5 27.5q0 21 -27 35l23 48q-47 4 -96 36l12 88q71 -51 111 -51q22 0 40 14t18 37q0 32 -47 73l-28 24q-39 33 -58 64.5t-19 71.5q0 61 46 98q47 38 107 38q45 0 92 -22z" />
    <glyph glyph-name="scircumflex.sc" horiz-adv-x="322" 
d="M293 467l-11 -84q-46 31 -86 31q-31 0 -51 -17q-50 -46 26 -111q7 -7 18 -16l20 -17q25 -20 35 -36q1 -2 7.5 -10.5t11 -16.5t6.5 -14q9 -29 9 -51q0 -50 -38 -91q-37 -40 -104 -40q-55 0 -117 38l12 88q71 -51 111 -51q22 0 40 14t18 37q0 32 -47 73l-28 24
q-39 33 -58 64.5t-19 71.5q0 61 46 98q47 38 107 38q45 0 92 -22zM310 688l68 -151h-48l-81 84l-141 -84h-60l138 151h124z" />
    <glyph glyph-name="scommaaccent.sc" horiz-adv-x="322" 
d="M293 467l-11 -84q-46 31 -86 31q-31 0 -51 -17q-50 -46 26 -111q7 -7 18 -16l20 -17q25 -20 35 -36q1 -2 7.5 -10.5t11 -16.5t6.5 -14q9 -29 9 -51q0 -50 -38 -91q-37 -40 -104 -40q-55 0 -117 38l12 88q71 -51 111 -51q22 0 40 14t18 37q0 32 -47 73l-28 24
q-39 33 -58 64.5t-19 71.5q0 61 46 98q47 38 107 38q45 0 92 -22zM12 -211l16 51q38 -8 58 -8q25 0 43 11t18 29q0 30 -35 36q-29 5 -63 5l20 50q74 0 114 -12q61 -17 61 -73q0 -39 -37.5 -68t-105.5 -29q-47 0 -89 8z" />
    <glyph glyph-name="tbar.sc" horiz-adv-x="365" 
d="M144 234h-106l11 71h106l12 102h-126l10 76h332l-10 -76h-126l-12 -102h106l-11 -71h-107l-32 -234h-79z" />
    <glyph glyph-name="tcaron.sc" horiz-adv-x="365" 
d="M383 483l-10 -76h-126l-56 -407h-79l55 407h-126l10 76h332zM367 688h59l-136 -151h-123l-70 151h50l82 -86z" />
    <glyph glyph-name="tcommaaccent.sc" horiz-adv-x="365" 
d="M383 483l-10 -76h-126l-56 -407h-79l55 407h-126l10 76h332zM33 -211l16 51q38 -8 58 -8q25 0 43 11t18 29q0 30 -35 36q-29 5 -63 5l20 50q74 0 114 -12q61 -17 61 -73q0 -39 -37.5 -68t-105.5 -29q-47 0 -89 8z" />
    <glyph glyph-name="ubreve.sc" horiz-adv-x="433" 
d="M439 483l-40 -297q-13 -95 -63.5 -143.5t-132.5 -48.5t-127.5 50.5t-34.5 131.5l42 307h78l-43 -315q-6 -47 19 -74t69 -27q48 0 80 33q24 24 36 108l37 275h80zM137 678h62q1 -14 11 -38q15 -28 60 -28q23 0 43 11q28 15 56 55h63q-9 -28 -47 -77q-21 -28 -54 -46
t-68 -18q-75 0 -102 50q-22 42 -24 91z" />
    <glyph glyph-name="uhungarumlaut.sc" horiz-adv-x="433" 
d="M439 483l-40 -297q-13 -95 -63.5 -143.5t-132.5 -48.5t-127.5 50.5t-34.5 131.5l42 307h78l-43 -315q-6 -47 19 -74t69 -27q48 0 80 33q24 24 36 108l37 275h80zM200 688h122l-122 -151h-49zM361 688h123l-123 -151h-49z" />
    <glyph glyph-name="umacron.sc" horiz-adv-x="433" 
d="M439 483l-40 -297q-13 -95 -63.5 -143.5t-132.5 -48.5t-127.5 50.5t-34.5 131.5l42 307h78l-43 -315q-6 -47 19 -74t69 -27q48 0 80 33q24 24 36 108l37 275h80zM137 607h281l-11 -70h-281z" />
    <glyph glyph-name="uogonek.sc" horiz-adv-x="433" 
d="M293 -111l-10 -68q-34 -8 -62 -8q-46 0 -78 27t-32 66q0 40 34 95q-58 17 -86.5 63.5t-19.5 111.5l42 307h78l-43 -315q-6 -47 19 -74t69 -27q49 0 80 33q24 24 36 108l37 275h80l-40 -297q-26 -180 -179 -191q-22 -40 -22 -62q0 -21 17 -35.5t42 -14.5q14 0 38 6z" />
    <glyph glyph-name="uring.sc" horiz-adv-x="433" 
d="M439 483l-40 -297q-13 -95 -63.5 -143.5t-132.5 -48.5t-127.5 50.5t-34.5 131.5l42 307h78l-43 -315q-6 -47 19 -74t69 -27q48 0 80 33q24 24 36 108l37 275h80zM372 625q0 -42 -29 -71.5t-71 -29.5t-71 29t-29 71t29 71.5t71 29.5t71 -30t29 -70zM271 681
q-23 0 -39 -16.5t-16 -39.5t16 -39.5t40 -16.5t40 17t16 39t-16.5 39t-40.5 17z" />
    <glyph glyph-name="utilde.sc" horiz-adv-x="433" 
d="M439 483l-40 -297q-13 -95 -63.5 -143.5t-132.5 -48.5t-127.5 50.5t-34.5 131.5l42 307h78l-43 -315q-6 -47 19 -74t69 -27q48 0 80 33q24 24 36 108l37 275h80zM160 537h-53q-1 49 28 86q29 36 76 36q21 0 35 -6q10 -3 15 -6l40 -20q36 -17 48 -17q30 0 37 49h53
q-1 -58 -30 -90t-72 -32q-38 0 -81 25q-40 23 -58 23q-34 0 -38 -48z" />
    <glyph glyph-name="wacute.sc" horiz-adv-x="682" 
d="M696 483l-228 -487h-35l-83 313l-146 -313h-37l-111 487h75l70 -313l145 313h36l84 -318l147 318h83zM387 688h145l-166 -151h-52z" />
    <glyph glyph-name="wcircumflex.sc" horiz-adv-x="682" 
d="M696 483l-228 -487h-35l-83 313l-146 -313h-37l-111 487h75l70 -313l145 313h36l84 -318l147 318h83zM465 688l68 -151h-48l-81 84l-141 -84h-60l138 151h124z" />
    <glyph glyph-name="wdieresis.sc" horiz-adv-x="682" 
d="M696 483l-228 -487h-35l-83 313l-146 -313h-37l-111 487h75l70 -313l145 313h36l84 -318l147 318h83zM543 610q0 -22 -15 -37.5t-38 -15.5q-22 0 -37 15.5t-15 36.5q0 22 14.5 37.5t36.5 15.5q23 0 38.5 -16t15.5 -36zM336 611q0 -21 -15 -37.5t-38 -16.5q-21 0 -36.5 16
t-15.5 37t15 36.5t37 15.5q23 0 38 -15t15 -36z" />
    <glyph glyph-name="wgrave.sc" horiz-adv-x="682" 
d="M696 483l-228 -487h-35l-83 313l-146 -313h-37l-111 487h75l70 -313l145 313h36l84 -318l147 318h83zM237 686h144l74 -149h-51z" />
    <glyph glyph-name="ycircumflex.sc" horiz-adv-x="380" 
d="M398 483l-166 -246l-32 -237h-77l33 239l-110 244h82l72 -162l108 162h90zM325 688l68 -151h-48l-81 84l-141 -84h-60l138 151h124z" />
    <glyph glyph-name="ygrave.sc" horiz-adv-x="380" 
d="M398 483l-166 -246l-32 -237h-77l33 239l-110 244h82l72 -162l108 162h90zM75 686h144l74 -149h-51z" />
    <glyph glyph-name="zacute.sc" horiz-adv-x="461" 
d="M471 483l-329 -407h259l-10 -76h-406l327 407h-248l10 76h397zM306 688h145l-166 -151h-52z" />
    <glyph glyph-name="zdotaccent.sc" horiz-adv-x="461" 
d="M471 483l-329 -407h259l-10 -76h-406l327 407h-248l10 76h397zM328 572q-15 -15 -37 -15t-38 15q-15 16 -15 38t15 37q16 16 38 16t37 -16q16 -15 16 -37t-16 -38z" />
    <glyph glyph-name="idotaccent.sc" horiz-adv-x="158" 
d="M150 483l-64 -483h-78l64 483h78zM158 572q-15 -15 -37 -15t-38 15q-15 16 -15 38t15 37q16 16 38 16t37 -16q16 -15 16 -37t-16 -38z" />
    <glyph glyph-name="one.alt" horiz-adv-x="521" 
d="M409 691l-108 -691h-90l83 528q-57 -50 -133 -86l16 98q79 55 106 76q40 34 73 75h53z" />
    <glyph glyph-name="afii10066.ital" 
d="M379 675q73 0 117 10l-24 -82q-35 -7 -90 -7q-36 0 -68 1q-64 2 -72 2q-71 0 -71 -50q0 -24 37 -49q38 -26 91 -33q64 -10 103 -66.5t39 -142.5q0 -68 -23 -129q-22 -58 -79 -101q-55 -42 -136 -42q-168 0 -168 222q0 52 36 124q37 73 98 103q-85 55 -85 125
q0 44 29.5 72t64 37.5t70.5 9.5q9 0 65 -2t66 -2zM354 260q0 61 -24 95t-68 34q-50 0 -95 -55q-45 -54 -45 -141q0 -65 25.5 -101t74.5 -36q58 0 95 58t37 146z" />
    <glyph glyph-name="afii10068.ital" horiz-adv-x="188" 
d="M86 449h85l-64 -449h-85zM-19 617h322l-8 -64h-322z" />
    <glyph glyph-name="afii10069.ital" 
d="M291 0l7 38q-35 -38 -95 -38q-79 0 -125.5 50t-46.5 138q0 103 69 184q37 42 102 66.5t147 24.5h95l-61 -406q-21 -137 -86.5 -212t-160.5 -75t-153 49v107q31 -40 69 -57q38 -18 106 -18q50 0 86 47q36 45 47 102zM305 111l44 282q-109 6 -171 -53q-60 -58 -60 -157
q0 -55 30.5 -83.5t86.5 -28.5q15 0 37.5 12.5t32.5 27.5z" />
    <glyph glyph-name="afii10081.ital" horiz-adv-x="479" 
d="M129 144l262 305h55l-63 -449h-85l43 285l-256 -285h-55l63 449h85zM454 635l-9 -64h-322l9 64h322z" />
    <glyph glyph-name="afii10084.ital" horiz-adv-x="665" 
d="M632 449l-61 -449h-548l63 449h85l-53 -374h147l51 374h85l-52 -374h147l51 374h85zM624 635l-9 -64h-466l9 64h466z" />
    <glyph glyph-name="A.sc" horiz-adv-x="415" 
d="M364 0h-74l-27 146h-127l-60 -146h-79l206 485h70zM251 213l-27 152l-61 -152h88z" />
    <glyph glyph-name="B.sc" horiz-adv-x="352" 
d="M157 0h-149l65 483h73q73 0 112 -35t39 -92q0 -58 -50 -91q81 -37 81 -126q0 -64 -49 -101q-49 -38 -122 -38zM140 412l-15 -115h22q33 0 52.5 16.5t19.5 43.5q0 59 -79 55zM151 227h-36l-21 -157h57q99 0 99 72q0 36 -29 60.5t-70 24.5z" />
    <glyph glyph-name="C.sc" horiz-adv-x="388" 
d="M392 489l-16 -77h-40q-64 0 -112 -20.5t-73 -54t-36.5 -68t-11.5 -69.5q0 -60 30 -95t80 -35q68 0 145 64l-14 -102q-67 -38 -140 -38q-81 0 -132 56q-50 58 -50 146q0 127 86 210t230 83h54z" />
    <glyph glyph-name="D.sc" horiz-adv-x="430" 
d="M165 0h-157l66 483h61q121 0 197 -62q76 -61 76 -180q0 -103 -60 -172t-183 -69zM155 409h-12l-46 -336h44q59 0 88.5 9t53.5 33q44 42 44 128q0 84 -55 124q-54 42 -117 42z" />
    <glyph glyph-name="E.sc" horiz-adv-x="372" 
d="M331 73l-10 -73h-313l68 483h255l-10 -73h-179l-18 -128h159l-10 -73h-159l-19 -136h236z" />
    <glyph glyph-name="F.sc" horiz-adv-x="289" 
d="M304 483l-9 -73h-156l-17 -128h143l-11 -73h-143l-28 -209h-78l68 483h231z" />
    <glyph glyph-name="G.sc" horiz-adv-x="436" 
d="M428 481l-9 -73q-55 7 -88 7q-118 0 -177 -72q-50 -62 -50 -134q0 -64 33.5 -103t87.5 -39q36 0 79 20l8 66h-64l9 67h142l-25 -182q-83 -44 -153 -44q-95 0 -147 63q-52 62 -52 150q0 94 67 182q36 46 101.5 73t149.5 27q19 0 88 -8z" />
    <glyph glyph-name="H.sc" horiz-adv-x="468" 
d="M460 483l-66 -483h-80l28 206h-226l-28 -206h-80l66 483h79l-27 -201h226l28 201h80z" />
    <glyph glyph-name="I.sc" horiz-adv-x="158" 
d="M150 483l-64 -483h-78l64 483h78z" />
    <glyph glyph-name="J.sc" horiz-adv-x="169" 
d="M161 483l-69 -511q-18 -131 -124 -131q-18 0 -50 6l-18 77q41 -9 55 -9q28 0 42.5 14.5t18.5 49.5l68 504h77z" />
    <glyph glyph-name="K.sc" horiz-adv-x="398" 
d="M395 483l-216 -225l208 -258h-94l-175 230l-31 -230h-79l66 483h79l-28 -185l177 185h93z" />
    <glyph glyph-name="L.sc" horiz-adv-x="309" 
d="M275 70l-9 -70h-258l65 483h77l-58 -413h183z" />
    <glyph glyph-name="M.sc" horiz-adv-x="556" 
d="M503 0h-78v327l-173 -327l-81 332l-104 -332h-78l155 483h65l70 -281l150 281h74v-483z" />
    <glyph glyph-name="N.sc" horiz-adv-x="459" 
d="M451 483l-66 -483h-45l-214 324l-44 -324h-74l66 483h43l215 -327l44 327h75z" />
    <glyph glyph-name="O.sc" horiz-adv-x="439" 
d="M191 -6q-76 0 -122 58q-47 59 -47 147q0 99 56 191q28 45 73 72t98 27q75 0 122 -57q46 -56 46 -147q0 -126 -67 -208q-66 -83 -159 -83zM249 415q-67 0 -108 -71q-40 -70 -40 -154q0 -57 24.5 -88.5t67.5 -31.5q58 0 102 65q44 67 44 161q0 57 -24 88t-66 31z" />
    <glyph glyph-name="P.sc" horiz-adv-x="324" 
d="M160 196h-46l-27 -196h-79l65 483h85q64 0 109 -33q45 -32 45 -108q0 -52 -38 -99t-114 -47zM161 410h-18l-19 -141h33q37 0 57 21.5t20 53.5q0 30 -18 48t-55 18z" />
    </font>
</defs>
</svg>
